<svg width="60" height="60" viewBox="0 0 60 60" fill="none" xmlns="http://www.w3.org/2000/svg">
<g clip-path="url(#clip0)">
<path d="M59.8843 32.7711C59.3456 27.3525 56.9248 22.2441 53.0677 18.3868C49.7714 15.0906 45.7368 12.9724 41.4915 12.0306V9.05301C43.2254 8.62164 44.5142 7.05212 44.5142 5.18659C44.5142 2.98952 42.7269 1.20215 40.5298 1.20215H32.0922C29.8951 1.20215 28.1077 2.98952 28.1077 5.18659C28.1077 7.05201 29.3966 8.62152 31.1304 9.05301V12.0389C26.8981 12.9847 22.8769 15.1 19.59 18.3869C18.8706 19.1062 18.2074 19.8608 17.6002 20.645C17.5708 20.6428 17.5414 20.6406 17.5114 20.6406H9.16034C8.51322 20.6406 7.98844 21.1652 7.98844 21.8125C7.98844 22.4597 8.51322 22.9844 9.16034 22.9844H16.0056C15.1464 24.4229 14.4535 25.9336 13.9262 27.4887H1.17189C0.524774 27.4887 0 28.0133 0 28.6605C0 29.3078 0.524774 29.8324 1.17189 29.8324H13.264C12.9262 31.315 12.7324 32.8238 12.6823 34.3368H7.50012C6.853 34.3368 6.32822 34.8615 6.32822 35.5087C6.32822 36.156 6.853 36.6806 7.50012 36.6806H12.7197C12.8186 38.1975 13.0625 39.7065 13.4515 41.185H5.85947C5.21235 41.185 4.68757 41.7097 4.68757 42.3569C4.68757 43.0042 5.21235 43.5288 5.85947 43.5288H14.1994C15.349 46.57 17.1456 49.4204 19.59 51.8647C23.4509 55.7257 28.5645 58.147 33.9888 58.6829C34.7629 58.7593 35.5377 58.7972 36.3113 58.7972C40.8843 58.7972 45.3991 57.4738 49.2301 54.979C49.7724 54.6258 49.9258 53.8998 49.5726 53.3575C49.2194 52.8151 48.4934 52.6617 47.9511 53.0149C39.5653 58.4756 28.3347 57.2949 21.2472 50.2074C12.9313 41.8915 12.9313 28.3604 21.2472 20.0443C29.5631 11.7284 43.0941 11.7284 51.4103 20.0443C58.4884 27.1226 59.6755 38.3435 54.2329 46.7252C53.8804 47.268 54.0347 47.9939 54.5774 48.3462C55.1205 48.6987 55.8461 48.5444 56.1985 48.0016C59.1064 43.5232 60.4154 38.1143 59.8843 32.7711ZM30.4515 5.1867C30.4515 4.282 31.1875 3.54605 32.0922 3.54605H40.5298C41.4345 3.54605 42.1705 4.282 42.1705 5.1867C42.1705 6.0914 41.4345 6.82735 40.5298 6.82735H40.3196H32.3023H32.0922C31.1875 6.82735 30.4515 6.09129 30.4515 5.1867ZM33.4742 11.636V9.17114H39.1477V11.6318C37.2637 11.4077 35.3578 11.4091 33.4742 11.636Z" fill="#133CCC"/>
<path d="M52.2393 49.8633C51.9299 49.8633 51.6287 49.9887 51.4109 50.2066C51.1917 50.4246 51.0674 50.727 51.0674 51.0352C51.0674 51.3434 51.1917 51.6457 51.4109 51.8637C51.6287 52.0828 51.93 52.207 52.2393 52.207C52.5475 52.207 52.8486 52.0828 53.0678 51.8637C53.2857 51.6457 53.4111 51.3434 53.4111 51.0352C53.4111 50.727 53.2859 50.4246 53.0678 50.2066C52.8486 49.9887 52.5473 49.8633 52.2393 49.8633Z" fill="#133CCC"/>
<path d="M36.3289 16.9463C26.3047 16.9463 18.1494 25.1015 18.1494 35.1258C18.1494 45.15 26.3047 53.3052 36.3289 53.3052C46.353 53.3052 54.5083 45.15 54.5083 35.1258C54.5083 25.1015 46.353 16.9463 36.3289 16.9463ZM36.3289 50.9614C27.597 50.9614 20.4932 43.8575 20.4932 35.1258C20.4932 26.394 27.597 19.2901 36.3289 19.2901C45.0608 19.2901 52.1646 26.394 52.1646 35.1258C52.1646 43.8575 45.0608 50.9614 36.3289 50.9614Z" fill="#133CCC"/>
<path d="M43.7419 26.0551L37.9375 31.8594C37.4521 31.6194 36.9061 31.4838 36.329 31.4838C35.7517 31.4838 35.2058 31.6194 34.7204 31.8594L32.1227 29.2617C31.665 28.804 30.9231 28.804 30.4653 29.2617C30.0077 29.7193 30.0077 30.4613 30.4653 30.919L33.063 33.5167C32.8229 34.0021 32.6874 34.5481 32.6874 35.1252C32.6874 37.1332 34.3209 38.7668 36.329 38.7668C38.337 38.7668 39.9705 37.1332 39.9705 35.1252C39.9705 34.5481 39.8349 34.0021 39.5949 33.5167L45.2289 27.8827L45.3992 27.7124C45.8568 27.2548 45.8568 26.5128 45.3992 26.0551C44.9416 25.5975 44.1998 25.5975 43.7419 26.0551ZM36.329 36.4231C35.6134 36.4231 35.0312 35.8409 35.0312 35.1254C35.0312 34.4098 35.6134 33.8276 36.329 33.8276C37.0445 33.8276 37.6267 34.4098 37.6267 35.1254C37.6267 35.8409 37.0445 36.4231 36.329 36.4231Z" fill="#133CCC"/>
<path d="M48.8582 33.9678H47.7725C47.1254 33.9678 46.6006 34.4924 46.6006 35.1396C46.6006 35.7869 47.1254 36.3115 47.7725 36.3115H48.8582C49.5053 36.3115 50.0301 35.7869 50.0301 35.1396C50.0301 34.4924 49.5053 33.9678 48.8582 33.9678Z" fill="#133CCC"/>
<path d="M24.8845 33.9395H23.7988C23.1517 33.9395 22.627 34.4641 22.627 35.1113C22.627 35.7586 23.1517 36.2832 23.7988 36.2832H24.8845C25.5316 36.2832 26.0563 35.7586 26.0563 35.1113C26.0563 34.4641 25.5316 33.9395 24.8845 33.9395Z" fill="#133CCC"/>
<path d="M36.3428 24.8532C36.9899 24.8532 37.5146 24.3286 37.5146 23.6813V22.5957C37.5146 21.9485 36.9899 21.4238 36.3428 21.4238C35.6957 21.4238 35.1709 21.9485 35.1709 22.5957V23.6813C35.1709 24.3286 35.6957 24.8532 36.3428 24.8532Z" fill="#133CCC"/>
<path d="M36.3145 45.3975C35.6673 45.3975 35.1426 45.9221 35.1426 46.5693V47.655C35.1426 48.3022 35.6673 48.8268 36.3145 48.8268C36.9616 48.8268 37.4863 48.3022 37.4863 47.655V46.5693C37.4863 45.9221 36.9616 45.3975 36.3145 45.3975Z" fill="#133CCC"/>
</g>
<defs>
<clipPath id="clip0">
<rect width="60" height="60" fill="white"/>
</clipPath>
</defs>
</svg>
