<svg width="60" height="60" viewBox="0 0 60 60" fill="none" xmlns="http://www.w3.org/2000/svg">
<path d="M55.1457 43.3404C54.9171 42.7211 54.2299 42.4043 53.6106 42.6328L41.1802 47.2194C40.5609 47.4479 40.2442 48.1352 40.4727 48.7546C40.6509 49.2374 41.1078 49.5363 41.5942 49.5363C41.7315 49.5363 41.8713 49.5124 42.0078 49.4622L54.4381 44.8756C55.0575 44.647 55.3742 43.9597 55.1457 43.3404Z" fill="#2550E5"/>
<path d="M39.2975 49.1882C39.0691 48.5687 38.3816 48.252 37.7623 48.4805L37.2359 48.6747C36.6167 48.9032 36.2998 49.5905 36.5283 50.2097C36.7064 50.6925 37.1635 50.9916 37.6498 50.9916C37.7871 50.9916 37.927 50.9677 38.0635 50.9174L38.5899 50.7232C39.2091 50.4947 39.526 49.8075 39.2975 49.1882Z" fill="#2550E5"/>
<path d="M55.1451 38.4702C54.9165 37.8509 54.2293 37.5343 53.6099 37.7626L43.7867 41.3872C43.1674 41.6157 42.8506 42.303 43.0791 42.9224C43.2574 43.4052 43.7143 43.7041 44.2006 43.7041C44.3379 43.7041 44.4777 43.6802 44.6143 43.63L54.4375 40.0054C55.0568 39.7768 55.3736 39.0895 55.1451 38.4702Z" fill="#2550E5"/>
<path d="M55.1451 33.6499C54.9165 33.0305 54.2293 32.714 53.6099 32.9423L43.7867 36.5669C43.1674 36.7954 42.8506 37.4827 43.0791 38.1021C43.2574 38.5849 43.7143 38.8838 44.2006 38.8838C44.3379 38.8838 44.4777 38.8599 44.6143 38.8096L54.4375 35.185C55.0568 34.9565 55.3736 34.2692 55.1451 33.6499Z" fill="#2550E5"/>
<path d="M59.2186 11.7804L30.4138 1.15195C30.1467 1.05352 29.8533 1.05352 29.5863 1.15195L0.781523 11.7804L0.781289 11.7813C0.686953 11.8163 0.59625 11.8624 0.511875 11.9211C0.191133 12.1447 0 12.5109 0 12.9018V47.0978C0 47.5983 0.311836 48.0458 0.781406 48.2191L29.5862 58.8476C29.7205 58.8972 29.8605 58.9214 29.9999 58.9214C30.1406 58.9214 30.2807 58.8959 30.4133 58.8469L30.4138 58.8476L59.2186 48.2191C59.6882 48.0458 60 47.5984 60 47.0978V12.9018C60 12.4011 59.6882 11.9537 59.2186 11.7804ZM28.8048 56.0113L2.39039 46.2648V14.6168L7.76883 16.6015V31.0833C7.76883 31.5838 8.08066 32.0313 8.55023 32.2047L21.4586 36.9677C21.5929 37.0173 21.7329 37.0416 21.8722 37.0416C22.1134 37.0416 22.3525 36.9686 22.5558 36.8269C22.8764 36.6034 23.0675 36.2372 23.0675 35.8464V22.2464L28.8046 24.3633V56.0113H28.8048ZM20.6773 21.3643V34.1311L10.1593 30.2501V17.4833L20.6773 21.3643ZM12.4168 15.7588L21.8725 12.2698L31.3281 15.7588L21.8725 19.2478L12.4168 15.7588ZM30 22.2563L25.3124 20.5266L35.1947 16.88C35.6643 16.7067 35.9761 16.2593 35.9761 15.7587C35.9761 15.258 35.6643 14.8106 35.1947 14.6373L22.2862 9.87434C22.0192 9.7759 21.7259 9.7759 21.4587 9.87434L8.95113 14.4896L4.64801 12.9018L30 3.54738L55.352 12.9019L30 22.2563ZM57.6096 46.2648L31.1953 56.0112V24.3633L57.6096 14.6168V46.2648Z" fill="#2550E5"/>
</svg>
