<svg width="60" height="60" viewBox="0 0 60 60" fill="none" xmlns="http://www.w3.org/2000/svg">
<g clip-path="url(#clip0)">
<path d="M54.6558 10.3607C46.4006 8.09873 38.0968 4.57666 30.6422 0.175341C30.2462 -0.0584472 29.7548 -0.0584472 29.359 0.175341C21.6893 4.70311 13.8342 8.03462 5.34461 10.3607C4.79617 10.5108 4.41602 11.0093 4.41602 11.578V24.474C4.41602 37.754 10.5424 46.5445 15.682 51.5801C21.2152 57.0018 27.6605 60 30.0006 60C32.3405 60 38.7858 57.0018 44.3189 51.5801C49.4584 46.5446 55.5844 37.7541 55.5844 24.474V11.5779C55.5844 11.0093 55.2043 10.5108 54.6558 10.3607ZM53.0602 24.4739C53.0602 36.8773 47.3461 45.0799 42.5522 49.777C37.111 55.1084 31.2935 57.4756 30.0006 57.4756C28.7076 57.4756 22.8898 55.1084 17.4485 49.777C12.6547 45.0798 6.94035 36.8773 6.94035 24.4739V12.536C15.0588 10.2309 22.6195 7.01404 30.0008 2.72463C37.1978 6.90025 45.1357 10.2771 53.0602 12.5356V24.4739Z" fill="#2550E5"/>
<path d="M18.8128 12.3946C18.5573 11.746 17.8246 11.4274 17.1758 11.683C14.9211 12.5713 12.6069 13.3891 10.2975 14.1135C9.77121 14.2788 9.41309 14.7663 9.41309 15.3177V20.1917C9.41309 20.8887 9.97828 21.4538 10.6752 21.4538C11.3721 21.4538 11.9373 20.8887 11.9373 20.1917V16.2401C14.0091 15.5698 16.0786 14.8284 18.1011 14.0314C18.7498 13.776 19.0684 13.0433 18.8128 12.3946Z" fill="#2550E5"/>
<path d="M21.2113 12.6346C21.3806 12.6346 21.5525 12.6005 21.7174 12.5286L21.7406 12.5185C22.3792 12.2386 22.6667 11.4953 22.3869 10.857C22.1068 10.2185 21.3593 9.92959 20.7214 10.2092L20.701 10.218C20.0621 10.497 19.7736 11.2397 20.0526 11.8784C20.2597 12.3525 20.7244 12.6346 21.2113 12.6346Z" fill="#2550E5"/>
<path d="M45.038 40.6969C44.4548 40.3156 43.6727 40.4796 43.291 41.0631C42.251 42.6549 41.0308 44.1793 39.6639 45.5934C38.5399 46.7561 37.3218 47.8399 36.0437 48.8143C35.4895 49.2369 35.3828 50.0288 35.8053 50.5832C36.0539 50.9089 36.4297 51.0802 36.8098 51.0802C37.0768 51.0802 37.3457 50.996 37.5742 50.8216C38.953 49.7703 40.2666 48.6016 41.4786 47.3479C42.9564 45.8194 44.2771 44.1694 45.4042 42.4438C45.7857 41.8602 45.6215 41.0781 45.038 40.6969Z" fill="#2550E5"/>
<path d="M33.1126 50.7942L33.0402 50.8368C32.4371 51.1862 32.2309 51.9582 32.5801 52.5614C32.8142 52.9657 33.2378 53.1914 33.6736 53.1914C33.8881 53.1914 34.1058 53.1366 34.3047 53.0212L34.3882 52.9721C34.9897 52.6198 35.1918 51.8468 34.8395 51.2452C34.487 50.6439 33.7138 50.4423 33.1126 50.7942Z" fill="#2550E5"/>
<path d="M21.3976 27.4242C20.6226 26.6491 19.592 26.2226 18.4958 26.2226C17.3996 26.2226 16.3688 26.6492 15.5935 27.4242C13.9936 29.0245 13.9936 31.6284 15.5935 33.2286L23.0462 40.681C23.8212 41.4559 24.8519 41.8825 25.9482 41.8825C27.0445 41.8825 28.0751 41.4559 28.8503 40.6808L44.4082 25.1228C46.0081 23.5221 46.0081 20.9185 44.408 19.3188C43.6329 18.5437 42.6023 18.1172 41.5059 18.1172C40.4096 18.1172 39.3789 18.5439 38.6037 19.3188L25.9481 31.9745L21.3976 27.4242ZM40.3887 21.1038C40.6869 20.8056 41.0839 20.6414 41.506 20.6414C41.9283 20.6414 42.3249 20.8056 42.6234 21.1038C43.2392 21.7196 43.2392 22.7221 42.6231 23.3381L27.0655 38.8959C26.7672 39.1941 26.3703 39.3583 25.9482 39.3583C25.5261 39.3583 25.1292 39.1941 24.8308 38.8959L17.3784 31.4437C16.7623 30.8277 16.7623 29.8253 17.3782 29.2094C17.6765 28.9112 18.0734 28.7468 18.4957 28.7468C18.9179 28.7468 19.3146 28.911 19.6128 29.2092L25.0556 34.6521C25.2924 34.8887 25.6133 35.0217 25.9481 35.0217C26.2829 35.0217 26.6037 34.8888 26.8403 34.6521L40.3887 21.1038Z" fill="#2550E5"/>
</g>
<defs>
<clipPath id="clip0">
<rect width="60" height="60" fill="white"/>
</clipPath>
</defs>
</svg>
