<svg width="60" height="60" viewBox="0 0 60 60" fill="none" xmlns="http://www.w3.org/2000/svg">
<path d="M58.4073 20.5902L39.4082 1.59133C38.3825 0.56582 37.0148 0.000976562 35.5568 0.000976562C34.0989 0.000976562 32.7311 0.565586 31.7054 1.59109L1.59035 31.7063C0.564844 32.7319 0 34.0995 0 35.5575C0 37.0156 0.564844 38.3834 1.59035 39.4088L3.93316 41.7516C3.9334 41.7517 3.93352 41.752 3.93375 41.7522C3.93398 41.7524 3.93422 41.7527 3.93445 41.7529L19.6798 57.4982H17.4996C16.8094 57.4982 16.2497 58.0578 16.2497 58.7481C16.2497 59.4384 16.8094 59.998 17.4996 59.998H24.4358C24.4375 59.998 24.439 59.9982 24.4406 59.9982C24.4423 59.9982 24.4438 59.998 24.4454 59.998L42.4985 59.9983C43.1887 59.9983 43.7484 59.4386 43.7484 58.7484C43.7484 58.058 43.1887 57.4984 42.4985 57.4984L29.202 57.4982L58.4074 28.2927C60.5309 26.1691 60.5309 22.7137 58.4073 20.5902ZM56.6396 26.5251L26.5243 56.6404C25.972 57.1926 25.2337 57.497 24.4452 57.4982H24.4357C23.6474 57.4969 22.9093 57.1926 22.3573 56.6404L6.58535 40.8684L35.5066 11.9468C35.9947 11.4587 35.9947 10.6673 35.5066 10.1792C35.0184 9.69109 34.2272 9.69109 33.7389 10.1793L4.81758 39.1008L3.35789 37.6411C2.80465 37.0879 2.49996 36.348 2.49996 35.5577C2.49996 34.7673 2.80465 34.0273 3.35801 33.4739L33.4731 3.35887C34.0264 2.80562 34.7665 2.50094 35.5568 2.50094C36.3471 2.50094 37.0872 2.80562 37.6405 3.35898L44.4026 10.1209L15.4809 39.0428C14.9929 39.5308 14.9929 40.3223 15.4809 40.8106C15.725 41.0546 16.045 41.1766 16.3648 41.1766C16.6846 41.1766 17.0045 41.0545 17.2486 40.8105L46.1702 11.8887L56.6396 22.3578C57.7884 23.5067 57.7883 25.3762 56.6396 26.5251Z" fill="#2550E5"/>
<path d="M30.797 36.1004C30.3089 35.6123 29.5177 35.6124 29.0292 36.1004L19.1932 45.9363C18.7051 46.4244 18.7051 47.2157 19.1932 47.7041C19.4373 47.9482 19.7572 48.0702 20.077 48.0702C20.3968 48.0702 20.7168 47.9481 20.9609 47.7041L30.7969 37.8682C31.2851 37.3798 31.2851 36.5885 30.797 36.1004Z" fill="#2550E5"/>
<path d="M26.7625 45.4384L22.7284 49.4726C22.2403 49.9607 22.2403 50.7522 22.7284 51.2404C22.9725 51.4843 23.2924 51.6065 23.6122 51.6065C23.9322 51.6065 24.2519 51.4843 24.496 51.2404L28.5302 47.2062C29.0183 46.7181 29.0183 45.9266 28.5302 45.4384C28.0421 44.9502 27.251 44.9502 26.7625 45.4384Z" fill="#2550E5"/>
<path d="M30.4755 41.7264L29.9453 42.2565C29.4571 42.7446 29.4571 43.536 29.9452 44.0243C30.1891 44.2684 30.5092 44.3905 30.829 44.3905C31.1488 44.3905 31.4687 44.2684 31.7127 44.0243L32.243 43.4941C32.7312 43.006 32.7312 42.2147 32.2431 41.7265C31.7552 41.2384 30.9636 41.2383 30.4755 41.7264Z" fill="#2550E5"/>
<path d="M47.7037 19.1942C47.4693 18.9598 47.1514 18.8281 46.8198 18.8281C46.4883 18.8281 46.1705 18.9598 45.936 19.1942L40.6327 24.4974C40.3983 24.7319 40.2666 25.0497 40.2666 25.3812C40.2666 25.7128 40.3983 26.0307 40.6327 26.2651L44.1682 29.8003C44.4123 30.0444 44.7323 30.1664 45.0521 30.1664C45.3721 30.1664 45.6918 30.0443 45.9359 29.8003L51.239 24.4973C51.7271 24.0092 51.7271 23.2177 51.239 22.7296L47.7037 19.1942ZM45.052 27.1489L43.2842 25.3812L46.8197 21.8458L48.5874 23.6136L45.052 27.1489Z" fill="#2550E5"/>
<path d="M37.54 9.39659C37.86 9.39659 38.1799 9.27448 38.4239 9.03026L38.9542 8.49976C39.4422 8.01155 39.4421 7.22007 38.9539 6.7321C38.4658 6.24413 37.6742 6.24425 37.1862 6.73245L36.6559 7.26296C36.168 7.75116 36.1681 8.54265 36.6563 9.03062C36.9004 9.27472 37.2201 9.39659 37.54 9.39659Z" fill="#2550E5"/>
<path d="M12.5643 41.9599L12.034 42.4902C11.5459 42.9781 11.5459 43.7696 12.034 44.2579C12.2781 44.5019 12.5981 44.6239 12.9179 44.6239C13.2377 44.6239 13.5576 44.5019 13.8017 44.2579L14.332 43.7277C14.8201 43.2395 14.8201 42.448 14.332 41.9599C13.8438 41.4717 13.0525 41.4717 12.5643 41.9599Z" fill="#2550E5"/>
</svg>
