<svg xmlns="http://www.w3.org/2000/svg" width="20.417" height="20.417" viewBox="0 0 20.417 20.417"><defs><style>.a{fill:#fff;}</style></defs><path class="a" d="M17.359,5.217A10.121,10.121,0,0,0,1.436,17.426L0,22.667l5.364-1.408A10.087,10.087,0,0,0,10.2,22.49h0A10.215,10.215,0,0,0,20.417,12.372a10.157,10.157,0,0,0-3.058-7.155ZM10.2,20.785A8.394,8.394,0,0,1,5.92,19.614l-.305-.182-3.181.834.848-3.1-.2-.319a8.426,8.426,0,1,1,15.627-4.471,8.5,8.5,0,0,1-8.5,8.413Zm4.612-6.3c-.251-.128-1.495-.738-1.727-.82s-.4-.128-.57.128-.652.82-.8.994-.3.191-.547.064a6.881,6.881,0,0,1-3.441-3.008c-.26-.447.26-.415.743-1.381a.469.469,0,0,0-.023-.442c-.064-.128-.57-1.372-.779-1.878s-.415-.424-.57-.433S6.786,7.7,6.617,7.7a.936.936,0,0,0-.674.314,2.841,2.841,0,0,0-.884,2.11,4.953,4.953,0,0,0,1.03,2.616,11.3,11.3,0,0,0,4.32,3.819,4.947,4.947,0,0,0,3.035.633,2.589,2.589,0,0,0,1.7-1.2,2.114,2.114,0,0,0,.146-1.2C15.235,14.674,15.067,14.61,14.816,14.487Z" transform="translate(0 -2.25)"/></svg>