<svg xmlns="http://www.w3.org/2000/svg" width="19.361" height="20.417" viewBox="0 0 19.361 20.417"><defs><style>.a{fill:#fff;}</style></defs><path class="a" d="M18.1,1.991C17.6,1.524,15.549.037,10.98.017c0,0-5.387-.323-8.01,2.085C1.51,3.562,1,5.7.94,8.354S.816,15.974,5.6,17.322h0l0,2.057s-.032.833.518,1c.662.207,1.053-.427,1.687-1.108.347-.375.825-.925,1.188-1.344a18.528,18.528,0,0,0,6.081-.447c.662-.215,4.406-.694,5.012-5.662.63-5.128-.3-8.365-1.986-9.829Zm.554,9.454c-.514,4.147-3.549,4.41-4.107,4.589a17.142,17.142,0,0,1-5.231.447S7.248,18.98,6.6,19.63c-.211.211-.443.191-.439-.227,0-.275.016-3.417.016-3.417h0C2.12,14.862,2.359,10.631,2.4,8.418s.463-4.027,1.7-5.247C6.323,1.157,10.9,1.456,10.9,1.456c3.864.016,5.714,1.18,6.144,1.571,1.423,1.22,2.149,4.139,1.619,8.417ZM13.117,8.223a.257.257,0,0,1-.514.024A1.233,1.233,0,0,0,11.3,6.9a.258.258,0,0,1,.028-.514A1.734,1.734,0,0,1,13.117,8.223Zm.809.451A2.979,2.979,0,0,0,10.9,5.512.258.258,0,0,1,10.94,5a3.492,3.492,0,0,1,3.5,3.688.257.257,0,0,1-.514-.012Zm1.874.534a.257.257,0,0,1-.514,0,4.7,4.7,0,0,0-4.817-5.04.257.257,0,0,1,0-.514A5.216,5.216,0,0,1,15.8,9.208Zm-.451,3.911v.008c-.431.758-1.236,1.595-2.065,1.328l-.008-.012A15.327,15.327,0,0,1,9.2,12.19,10.424,10.424,0,0,1,7.511,10.5,12.939,12.939,0,0,1,6.283,8.642,11.914,11.914,0,0,1,5.246,6.421c-.267-.829.566-1.635,1.328-2.065h.008a.726.726,0,0,1,.953.156s.494.59.706.881c.2.271.467.706.606.949A.833.833,0,0,1,8.7,7.4l-.478.383a.7.7,0,0,0-.211.558A4.993,4.993,0,0,0,11.37,11.7a.7.7,0,0,0,.558-.211l.383-.478a.833.833,0,0,1,1.061-.148A10.331,10.331,0,0,1,15.2,12.178.712.712,0,0,1,15.35,13.119Z" transform="translate(-0.927 -0.003)"/></svg>