<svg width="65" height="53" viewBox="0 0 65 53" fill="none" xmlns="http://www.w3.org/2000/svg">
<rect width="65" height="53" rx="9" fill="#F2EBB0"/>
<path d="M45.7946 15.5257C41.3918 14.3193 36.9631 12.4409 32.9873 10.0935C32.7761 9.96883 32.514 9.96883 32.3029 10.0935C28.2124 12.5083 24.0231 14.2851 19.4952 15.5257C19.2027 15.6058 19 15.8716 19 16.1749V23.0528C19 30.1355 22.2674 34.8237 25.0086 37.5094C27.9595 40.401 31.397 42 32.6451 42C33.893 42 37.3305 40.401 40.2815 37.5094C43.0226 34.8238 46.2898 30.1355 46.2898 23.0528V16.1749C46.2898 15.8716 46.0871 15.6058 45.7946 15.5257ZM44.9436 23.0527C44.9436 29.6679 41.896 34.0426 39.3393 36.5477C36.4373 39.3911 33.3347 40.6536 32.6451 40.6536C31.9555 40.6536 28.8527 39.3911 25.9507 36.5477C23.394 34.0425 20.3463 29.6679 20.3463 23.0527V16.6859C24.6762 15.4565 28.7085 13.7408 32.6452 11.4531C36.4836 13.6801 40.7171 15.4811 44.9436 16.6856V23.0527Z" fill="#796D00"/>
<path d="M26.6787 16.6102C26.5425 16.2643 26.1516 16.0943 25.8056 16.2306C24.6031 16.7045 23.3689 17.1406 22.1372 17.527C21.8565 17.6151 21.6655 17.8751 21.6655 18.1692V20.7686C21.6655 21.1404 21.967 21.4418 22.3387 21.4418C22.7103 21.4418 23.0118 21.1404 23.0118 20.7686V18.6611C24.1167 18.3036 25.2205 17.9082 26.2991 17.4831C26.6451 17.347 26.815 16.9561 26.6787 16.6102Z" fill="#796D00"/>
<path d="M27.9574 16.7381C28.0477 16.7381 28.1394 16.7199 28.2273 16.6816L28.2397 16.6762C28.5802 16.527 28.7336 16.1305 28.5844 15.7901C28.435 15.4495 28.0363 15.2955 27.6961 15.4446L27.6853 15.4493C27.3445 15.5981 27.1906 15.9942 27.3394 16.3348C27.4499 16.5877 27.6977 16.7381 27.9574 16.7381Z" fill="#796D00"/>
<path d="M40.665 31.7054C40.3539 31.5021 39.9368 31.5895 39.7332 31.9007C39.1785 32.7497 38.5278 33.5627 37.7988 34.3169C37.1993 34.937 36.5497 35.515 35.868 36.0347C35.5724 36.2601 35.5155 36.6824 35.7409 36.9781C35.8734 37.1518 36.0739 37.2432 36.2766 37.2432C36.419 37.2432 36.5624 37.1982 36.6843 37.1052C37.4196 36.5446 38.1202 35.9212 38.7666 35.2526C39.5548 34.4374 40.2592 33.5574 40.8603 32.6371C41.0637 32.3258 40.9762 31.9087 40.665 31.7054Z" fill="#796D00"/>
<path d="M34.3048 37.0904L34.2662 37.1131C33.9445 37.2994 33.8346 37.7112 34.0208 38.0329C34.1456 38.2485 34.3716 38.3689 34.604 38.3689C34.7184 38.3689 34.8345 38.3397 34.9406 38.2781L34.9851 38.2519C35.3059 38.064 35.4137 37.6517 35.2258 37.3309C35.0378 37.0102 34.6255 36.9027 34.3048 37.0904Z" fill="#796D00"/>
<path d="M28.0568 24.6258C27.6435 24.2125 27.0938 23.985 26.5091 23.985C25.9245 23.985 25.3748 24.2125 24.9613 24.6258C24.108 25.4793 24.108 26.8681 24.9613 27.7215L28.936 31.6961C29.3494 32.1094 29.8991 32.337 30.4838 32.337C31.0684 32.337 31.6181 32.1094 32.0316 31.696L40.3291 23.3984C41.1824 22.5447 41.1824 21.1562 40.329 20.303C39.9156 19.8896 39.3659 19.6621 38.7812 19.6621C38.1965 19.6621 37.6468 19.8897 37.2334 20.303L30.4837 27.0527L28.0568 24.6258ZM38.1854 21.255C38.3444 21.0959 38.5561 21.0084 38.7812 21.0084C39.0065 21.0084 39.218 21.0959 39.3772 21.255C39.7056 21.5834 39.7056 22.118 39.3771 22.4466L31.0796 30.7441C30.9206 30.9031 30.7089 30.9907 30.4838 30.9907C30.2586 30.9907 30.0469 30.9031 29.8878 30.7441L25.9132 26.7696C25.5846 26.441 25.5846 25.9064 25.9131 25.578C26.0722 25.4189 26.2839 25.3312 26.5091 25.3312C26.7343 25.3312 26.9458 25.4188 27.1049 25.5778L30.0077 28.4807C30.134 28.6069 30.3051 28.6778 30.4837 28.6778C30.6623 28.6778 30.8334 28.607 30.9596 28.4807L38.1854 21.255Z" fill="#796D00"/>
</svg>
