<svg width="76" height="76" viewBox="0 0 76 76" fill="none" xmlns="http://www.w3.org/2000/svg">
<g clip-path="url(#clip0)">
<path d="M74.7026 42.1038C73.8042 40.1096 72.0925 38.8585 70.9494 37.1666C70.3419 36.2241 69.5171 34.1844 67.9837 35.0864C65.2928 37.0587 71.336 41.3656 72.0076 43.3481C74.0759 47.8262 73.0119 53.0235 68.845 58.7948C66.9322 61.0993 65.5287 63.935 64.5127 66.7728C63.4778 68.1492 61.4772 68.9477 59.0058 68.9669C58.9766 68.967 58.9476 68.9672 58.9183 68.9672C55.8753 68.9672 52.846 67.745 51.5188 65.9769C50.7967 64.9384 50.7079 63.7584 50.6052 62.3933C50.4651 60.5309 50.2907 58.2131 48.187 56.2192C47.7105 55.7678 45.2257 53.5681 43.0857 54.5758C42.0664 55.0573 41.5941 56.0043 41.3535 57.02C40.6614 55.8179 39.6935 54.5363 38.2239 53.5874C34.9739 51.4897 30.394 52.106 27.2248 52.7552C23.4608 53.4418 21.7998 54.9938 19.8773 56.7905C19.4178 57.2201 18.9436 57.6631 18.4079 58.1276C18.0111 58.3174 17.6892 58.2056 16.6301 57.5815C15.6921 57.0284 14.5242 56.3405 13.0313 56.511C11.2588 56.7135 10.2784 57.7685 9.49072 58.6162C8.80261 59.3568 8.40141 59.7564 7.69162 59.8493C6.90183 59.853 5.58512 59.7297 5.11445 58.9341C4.68846 58.2139 4.91333 56.9391 5.71588 55.5238C5.7564 55.4524 5.79084 55.3778 5.81904 55.3006C6.71347 52.8505 6.56089 50.0682 5.40032 47.6665C5.0907 47.0264 4.76564 46.4642 4.45127 45.9203C3.75974 44.7244 3.21367 43.78 3.05619 42.4501C2.99251 41.9184 2.50863 37.1854 5.06829 34.7408C6.06142 33.7927 6.9756 33.699 8.3591 33.5573C9.50913 33.4394 10.883 33.2966 12.4896 32.6052L18.9076 43.2505C19.1763 43.6961 19.6585 43.9685 20.1788 43.9685C20.699 43.9685 21.1813 43.6961 21.4499 43.2505L32.2555 25.3278C32.9834 24.1203 33.5181 22.8607 33.8446 21.5841C34.1004 20.5844 34.2412 19.5733 34.2734 18.5661C35.1334 17.6307 36.3743 16.9815 37.6131 16.8403C42.3686 16.2402 41.9285 23.3459 45.2045 25.3978C47.2172 26.9458 50.5455 27.5092 52.7499 25.505C55.3335 23.1364 53.5791 19.2076 54.0801 16.3691C54.4875 17.7008 55.925 19.7828 56.8014 20.3841C57.2388 20.7712 57.588 21.08 58.0397 21.8235C59.1026 24.313 66.503 35.9034 67.8703 38C68.9503 39.5977 71.6187 38.0667 70.5 36.5C69.4352 34.7695 61.7338 22.6874 60.6528 20.4091C59.4378 18.2896 58.6302 18.4853 57.5002 16.6664C55.9526 14.6203 56.9269 11.1835 54.4626 10.8221C52.0628 10.6434 51.4178 14.3472 51.1079 16.1264L51.0915 16.2208C50.9133 17.2227 51.0204 18.3734 51.1237 19.4864C51.2636 20.9925 51.4223 22.6997 50.7527 23.3087C49.7788 24.1944 48.0873 23.8697 47.0123 23.0431C44.6614 20.9653 44.9293 17.4248 42.2355 15.3075C40.8855 14.1834 39.1248 13.6809 37.277 13.8907C36.1043 14.0245 34.9562 14.4325 33.9344 15.051C33.4819 13.0656 32.5916 11.1693 31.2876 9.48982C28.6106 6.04197 24.5616 4.06445 20.1788 4.06445C15.7961 4.06445 11.747 6.04197 9.07008 9.48982C6.36897 12.9687 5.43684 17.377 6.51295 21.5841C6.83949 22.8609 7.37413 24.1203 8.10202 25.3278L10.9382 30.0319C9.91449 30.4125 9.00388 30.5072 8.0566 30.6041C6.50537 30.7631 4.74709 30.9431 3.01819 32.5938C-0.421946 35.879 -0.0786294 41.2383 0.108242 42.8008C0.337565 44.7363 1.12231 46.0937 1.88122 47.4061C2.16858 47.9032 2.46589 48.4173 2.72757 48.9584C3.51201 50.5816 3.63699 52.5232 3.06806 54.1762C1.75372 56.5544 1.57234 58.7766 2.55954 60.4453C3.21337 61.5505 4.65046 62.8598 7.80368 62.8167C7.84821 62.8161 7.89259 62.8136 7.93682 62.809C9.82929 62.6128 10.8906 61.4706 11.6655 60.6367C12.3363 59.9149 12.7167 59.5348 13.3686 59.4603C13.8741 59.4036 14.4528 59.7437 15.1229 60.1386C17.505 61.7783 19.7098 61.4733 21.9046 58.9594C23.7443 57.24 24.8549 56.2021 27.772 55.673C27.7832 55.6709 27.7944 55.6688 27.8055 55.6666C30.465 55.1207 34.2717 54.5696 36.6139 56.0815C38.2043 57.1084 39.0236 58.8844 39.6216 60.1811C39.8564 60.6902 40.0593 61.1298 40.2885 61.4832C41.0405 62.6425 41.9972 62.5699 42.3747 62.485C42.9115 62.3636 43.6071 61.965 43.8708 60.7564C43.9651 60.3248 44.0032 59.8296 44.0436 59.3053C44.0825 58.8002 44.1701 57.6656 44.3756 57.2846C44.7531 57.3388 45.5784 57.8408 46.1454 58.3741C47.4165 59.579 47.5174 60.9192 47.6451 62.616C47.764 64.197 47.8989 65.9888 49.1016 67.7003C49.1093 67.7112 49.1171 67.722 49.1249 67.7325C51.0288 70.2931 54.8613 71.9359 58.9131 71.9357C58.9515 71.9357 58.9902 71.9356 59.0287 71.9353C62.4964 71.9086 65.3911 70.6351 66.9705 68.4413C67.6333 67.3729 67.9012 66.2052 68.3551 65.1053C69.0093 63.5194 70.1754 62.0213 71.2514 60.5331C73.3688 57.6002 74.7963 54.7084 75.4942 51.9376C76.3724 48.4509 76.1062 45.1421 74.7026 42.1038ZM9.38875 20.8483C8.54152 17.5361 9.2801 14.0596 11.4147 11.3103C13.5252 8.59198 16.7197 7.03288 20.1786 7.03288C23.6376 7.03288 26.8321 8.59198 28.9426 11.3103C30.4682 13.2751 31.2801 15.6112 31.3104 17.9933C31.3098 18.0277 31.3093 18.062 31.3109 18.0963C31.3139 19.0138 31.2016 19.9373 30.9685 20.8483C30.7138 21.8443 30.2914 22.8358 29.7131 23.7949L20.1786 39.6093L10.6442 23.7949C10.0659 22.8358 9.64361 21.8443 9.38875 20.8483Z" fill="#2550E5"/>
<path d="M26.5588 18.1623C26.5588 14.6444 23.6968 11.7822 20.1789 11.7822C16.661 11.7822 13.7988 14.6444 13.7988 18.1623C13.7988 21.6802 16.661 24.5424 20.1789 24.5424C23.6967 24.5422 26.5588 21.6802 26.5588 18.1623ZM16.7673 18.1623C16.7673 16.2813 18.2977 14.7508 20.1787 14.7508C22.0598 14.7508 23.5901 16.2813 23.5901 18.1623C23.5901 20.0433 22.0598 21.5738 20.1787 21.5738C18.2977 21.5736 16.7673 20.0433 16.7673 18.1623Z" fill="#2550E5"/>
</g>
<defs>
<clipPath id="clip0">
<rect width="76" height="76" fill="white"/>
</clipPath>
</defs>
</svg>
