<svg width="65" height="65" viewBox="0 0 65 65" fill="none" xmlns="http://www.w3.org/2000/svg">
<g clip-path="url(#clip0)">
<path d="M60.6773 33.3421C60.4157 32.807 60.4157 32.1933 60.6773 31.6584L63.1015 26.699C64.4513 23.9376 63.3819 20.6464 60.6668 19.2059L55.7906 16.6186C55.2645 16.3395 54.9038 15.8429 54.8009 15.2565L53.8472 9.81925C53.3162 6.79194 50.5159 4.75765 47.4732 5.18815L42.0075 5.96129C41.4176 6.04457 40.8342 5.8549 40.4063 5.44091L36.4389 1.60289C34.2298 -0.534232 30.7691 -0.534359 28.5601 1.60289L24.5926 5.44129C24.1645 5.85541 23.5811 6.0447 22.9913 5.96167L17.5256 5.18853C14.482 4.75778 11.6827 6.79232 11.1516 9.81963L10.1979 15.2566C10.095 15.8431 9.73432 16.3397 9.20835 16.6188L4.33211 19.2061C1.61711 20.6465 0.547661 23.938 1.89742 26.6993L4.32158 31.6586C4.5831 32.1937 4.5831 32.8074 4.32158 33.3424L1.89729 38.3017C0.547534 41.063 1.61698 44.3542 4.33198 45.7948L9.20823 48.3821C9.73432 48.6611 10.095 49.1577 10.1979 49.7441L11.1516 55.1814C11.635 57.9373 13.9981 59.87 16.714 59.8697C16.9815 59.8697 17.2529 59.8509 17.5258 59.8123L22.9914 59.0392C23.5809 58.9555 24.1646 59.1456 24.5927 59.5596L28.5601 63.3976C29.6648 64.4663 31.0819 65.0005 32.4994 65.0004C33.9166 65.0003 35.3345 64.466 36.4388 63.3976L40.4063 59.5596C40.8343 59.1456 41.4178 58.9564 42.0075 59.0392L47.4732 59.8123C50.5173 60.243 53.3162 58.2086 53.8472 55.1813L54.801 49.7443C54.904 49.1577 55.2646 48.6612 55.7906 48.3821L60.6668 45.7948C63.3819 44.3544 64.4513 41.0629 63.1015 38.3015L60.6773 33.3421ZM58.9097 42.483L54.0335 45.0703C52.4788 45.8953 51.4125 47.3626 51.1085 49.0963L50.1548 54.5334C49.9752 55.5577 49.0282 56.2456 47.9983 56.1003L42.5326 55.3271C40.7895 55.0802 39.0648 55.6412 37.7997 56.8649L33.8322 60.7028C33.0849 61.4257 31.914 61.4257 31.1665 60.7028L27.1992 56.8648C26.13 55.8305 24.7322 55.27 23.273 55.27C23.0057 55.27 22.7361 55.2888 22.4662 55.327L17.0006 56.1001C15.9715 56.2456 15.0238 55.5575 14.844 54.5333L13.8902 49.096C13.5861 47.3624 12.5199 45.8949 10.9651 45.0701L6.08888 42.4828C5.17025 41.9955 4.80844 40.882 5.26509 39.9477L7.68937 34.9883C8.46225 33.407 8.46225 31.5934 7.68937 30.012L5.26509 25.0527C4.80844 24.1184 5.17025 23.0049 6.08888 22.5175L10.9651 19.9302C12.5198 19.1052 13.5861 17.6379 13.8901 15.9042L14.8438 10.4671C15.0235 9.44283 15.9703 8.75475 17.0003 8.90024L22.466 9.67338C24.2084 9.92005 25.9338 9.3593 27.1989 8.1356L31.1664 4.29758C31.9137 3.57471 33.0845 3.57471 33.832 4.29758L37.7994 8.1356C39.0645 9.35942 40.7897 9.92005 42.5323 9.67338L47.998 8.90024C49.0272 8.75462 49.9749 9.44283 50.1546 10.4671L51.1082 15.9043C51.4124 17.638 52.4785 19.1054 54.0333 19.9302L58.9096 22.5175C59.8282 23.0049 60.19 24.1184 59.7334 25.0527L57.3091 30.0119C56.5362 31.5931 56.5362 33.407 57.3091 34.9882L59.7334 39.9475C60.1901 40.882 59.8283 41.9956 58.9097 42.483Z" fill="#81760E"/>
<path d="M46.1964 18.8039C45.4645 18.0719 44.2775 18.0719 43.5455 18.8039L18.8039 43.5456C18.0719 44.2776 18.0719 45.4645 18.8039 46.1965C19.1699 46.5625 19.6496 46.7456 20.1293 46.7456C20.6089 46.7456 21.0888 46.5627 21.4547 46.1965L46.1963 21.4549C46.9286 20.7228 46.9286 19.536 46.1964 18.8039Z" fill="#81760E"/>
<path d="M25.002 15.6299C21.2122 15.6299 18.1289 18.7132 18.1289 22.503C18.1289 26.2927 21.2122 29.376 25.002 29.376C28.7918 29.376 31.8751 26.2927 31.8751 22.503C31.8751 18.7132 28.7918 15.6299 25.002 15.6299ZM25.002 25.627C23.2794 25.627 21.8779 24.2256 21.8779 22.5028C21.8779 20.7802 23.2794 19.3788 25.002 19.3788C26.7246 19.3788 28.1262 20.7802 28.1262 22.5028C28.126 24.2256 26.7246 25.627 25.002 25.627Z" fill="#81760E"/>
<path d="M39.9981 35.624C36.2083 35.624 33.125 38.7073 33.125 42.4971C33.125 46.2869 36.2083 49.3702 39.9981 49.3702C43.7879 49.3702 46.8712 46.2869 46.8712 42.4971C46.8712 38.7073 43.7879 35.624 39.9981 35.624ZM39.9981 45.6211C38.2755 45.6211 36.8739 44.2197 36.8739 42.4971C36.8739 40.7745 38.2753 39.3731 39.9981 39.3731C41.7207 39.3731 43.1221 40.7745 43.1221 42.4971C43.1221 44.2197 41.7207 45.6211 39.9981 45.6211Z" fill="#81760E"/>
</g>
<defs>
<clipPath id="clip0">
<rect width="65" height="65" fill="white"/>
</clipPath>
</defs>
</svg>
