<svg width="75" height="65" viewBox="0 0 75 65" fill="none" xmlns="http://www.w3.org/2000/svg">
<rect width="75" height="65" rx="9" fill="#F2EBB0"/>
<path d="M55.7475 21.11C55.7025 19.917 55.7025 18.77 55.7025 17.6688C55.7025 16.797 55.0275 16.1088 54.1725 16.1088C47.5575 16.0629 42.5175 14.1358 38.3325 10.0064C37.7475 9.40996 36.7575 9.40996 36.1725 10.0064C31.9875 14.1358 26.9475 16.0629 20.3775 16.0629C19.5225 16.0629 18.8475 16.7511 18.8475 17.6229C18.8475 18.7241 18.8475 19.8711 18.8025 21.11C18.5775 32.4429 18.2625 47.9053 36.7575 54.4206C36.9375 54.4664 37.0725 54.5123 37.2525 54.5123C37.4325 54.5123 37.6125 54.4664 37.7475 54.4206C56.2425 47.9053 55.9275 32.4429 55.7475 21.11ZM37.2525 51.2547C21.4125 45.3817 21.6375 32.5347 21.8625 21.2017C21.8625 20.5135 21.9075 19.8711 21.9075 19.2288C28.0725 18.9076 33.0225 17.0264 37.2525 13.2641C41.4825 17.0264 46.4325 18.9535 52.5975 19.1829C52.5975 19.8253 52.5975 20.4676 52.6425 21.1558C52.8675 32.5347 53.0925 45.3817 37.2525 51.2547Z" fill="#796D00"/>
<path d="M42.5626 26.5682L35.1376 34.1388L31.9426 30.8812C31.3576 30.2847 30.3676 30.2847 29.7376 30.8812C29.1526 31.4776 29.1526 32.487 29.7376 33.1294L34.0126 37.4882C34.3276 37.8094 34.6876 37.947 35.0926 37.947C35.4976 37.947 35.9026 37.8094 36.1726 37.4882L44.7226 28.7706C45.3076 28.1741 45.3076 27.1647 44.7226 26.5223C44.1376 25.9259 43.1476 25.9259 42.5626 26.5682Z" fill="#796D00"/>
</svg>
