<?xml version="1.0" encoding="utf-8"?>
<!-- Generator: Adobe Illustrator 17.1.0, SVG Export Plug-In . SVG Version: 6.00 Build 0)  -->
<!DOCTYPE svg PUBLIC "-//W3C//DTD SVG 1.1//EN" "http://www.w3.org/Graphics/SVG/1.1/DTD/svg11.dtd">
<svg version="1.1" id="Capa_1" xmlns="http://www.w3.org/2000/svg" xmlns:xlink="http://www.w3.org/1999/xlink" x="0px" y="0px"
	 viewBox="0 0 25 25" enable-background="new 0 0 25 25" xml:space="preserve">
<path fill="#FFFFFF" d="M24.2,22.8l-6-6.2c1.5-1.8,2.4-4.1,2.4-6.5C20.6,4.5,16.1,0,10.5,0S0.4,4.5,0.4,10.1S5,20.2,10.5,20.2
	c2.1,0,4.1-0.6,5.8-1.8l6,6.2c0.3,0.3,0.6,0.4,0.9,0.4c0.3,0,0.7-0.1,0.9-0.4C24.7,24.1,24.7,23.3,24.2,22.8z M10.5,2.6
	c4.1,0,7.5,3.3,7.5,7.5s-3.3,7.5-7.5,7.5s-7.5-3.3-7.5-7.5S6.4,2.6,10.5,2.6z"/>
</svg>
