<svg width="66" height="52" viewBox="0 0 66 52" fill="none" xmlns="http://www.w3.org/2000/svg">
<rect width="66" height="52" rx="9" fill="#C1F2B0"/>
<g clip-path="url(#clip0)">
<path d="M23.0576 43.2721C22.6631 43.2721 22.2715 43.149 21.9372 42.9073C21.3145 42.456 21.0237 41.6804 21.1931 40.9319L23.5091 30.73L15.6548 23.842C15.0774 23.338 14.8569 22.5398 15.0939 21.8094C15.331 21.0805 15.9759 20.5644 16.7394 20.4938L27.1317 19.5503L31.2404 9.93512C31.5433 9.22868 32.2333 8.77246 32.9999 8.77246C33.7665 8.77246 34.4564 9.22868 34.7594 9.93347L38.8681 19.5503L49.2587 20.4938C50.0239 20.5627 50.6688 21.0805 50.9059 21.8094C51.1429 22.5384 50.9237 23.338 50.3464 23.842L42.4921 30.7287L44.808 40.9303C44.9778 41.6804 44.6866 42.456 44.0642 42.9059C43.4432 43.3558 42.6151 43.3904 41.9611 42.9974L32.9999 37.6423L24.0387 43.0004C23.7357 43.1803 23.3981 43.2721 23.0576 43.2721ZM32.9999 35.3353C33.3405 35.3353 33.6778 35.4268 33.981 35.6067L42.4382 40.6649L40.2524 31.036C40.0964 30.3507 40.3291 29.6352 40.8586 29.1716L48.2749 22.6675L38.463 21.7765C37.7565 21.7119 37.149 21.2678 36.873 20.6168L32.9999 11.543L29.1222 20.6182C28.8492 21.2648 28.2416 21.7089 27.5368 21.7735L17.7236 22.6645L25.1395 29.1686C25.6707 29.6336 25.9031 30.3477 25.7457 31.0346L23.5616 40.6633L32.0188 35.6067C32.3217 35.4268 32.6593 35.3353 32.9999 35.3353ZM27.0523 19.7363C27.0523 19.7363 27.0523 19.7379 27.0506 19.7393L27.0523 19.7363ZM38.9445 19.7319L38.9461 19.7349C38.9461 19.7333 38.9461 19.7333 38.9445 19.7319Z" fill="#1C6D00"/>
</g>
<defs>
<clipPath id="clip0">
<rect width="36" height="36" fill="white" transform="translate(15 8)"/>
</clipPath>
</defs>
</svg>
