<svg width="493" height="471" viewBox="0 0 493 471" fill="none" xmlns="http://www.w3.org/2000/svg">
<mask id="mask0" mask-type="alpha" maskUnits="userSpaceOnUse" x="54" y="0" width="408" height="471">
<rect x="54" width="408" height="471" fill="#C4C4C4"/>
</mask>
<g mask="url(#mask0)">
<circle opacity="0.1" cx="350" cy="253" r="283" stroke="#2550E5" stroke-width="2"/>
<circle opacity="0.5" cx="350" cy="253" r="169" stroke="#2550E5" stroke-width="2"/>
<circle opacity="0.2" cx="350" cy="253" r="217" stroke="#2550E5" stroke-width="2"/>
</g>
<rect x="356" y="235" width="137" height="34" rx="6" fill="#EFF2FC"/>
<path d="M367.422 246.4V259H369.222V248.308H369.438L372.624 259H375.324L378.51 248.308H378.726V259H380.526V246.4H377.286L374.082 257.128H373.866L370.662 246.4H367.422ZM382.975 252.502L384.433 253.168C384.847 252.142 385.693 251.44 387.133 251.44C388.573 251.44 389.419 252.16 389.419 253.366V253.6L386.161 253.906C383.893 254.122 382.795 254.986 382.795 256.588C382.795 258.172 384.073 259.252 386.053 259.252C387.871 259.252 388.789 258.406 389.167 257.614H389.419V259H391.075V253.438C391.075 251.314 389.545 249.928 387.169 249.928C385.009 249.928 383.605 251.134 382.975 252.502ZM384.505 256.516C384.505 255.616 385.315 255.31 386.341 255.22L389.419 254.932V255.076C389.419 256.606 388.411 257.848 386.341 257.848C385.171 257.848 384.505 257.344 384.505 256.516ZM395.294 250.18H393.674V259H395.366V253.852C395.366 252.52 396.05 251.8 397.31 251.8H398.858V250.144H397.85C396.572 250.144 395.852 250.684 395.546 251.62H395.294V250.18ZM409.406 250.18H406.922L402.53 253.906H402.314V246.4H400.622V259H402.314V256.138L404.132 254.626L407.3 259H409.334L405.356 253.582L409.406 250.18ZM409.806 254.518C409.806 257.182 411.678 259.252 414.414 259.252C416.52 259.252 417.654 258.082 418.32 257.002L416.898 256.192C416.43 257.128 415.674 257.776 414.378 257.776C412.794 257.776 411.678 256.786 411.57 255.202H418.518V254.356C418.518 251.8 416.79 249.892 414.198 249.892C411.642 249.892 409.806 251.926 409.806 254.518ZM411.57 253.834C411.696 252.268 412.65 251.368 414.198 251.368C415.746 251.368 416.718 252.322 416.754 253.834H411.57ZM419.468 250.18V251.656H421.916V257.488C421.916 258.388 422.528 259 423.392 259H425.696V257.524H424.076C423.752 257.524 423.608 257.38 423.608 257.02V251.656H426.2V250.18H423.608V247.12H421.916V250.18H419.468ZM428.144 262.6H429.836V257.614H430.052C430.538 258.424 431.348 259.252 433.076 259.252C435.398 259.252 437.216 257.326 437.216 254.59C437.216 251.854 435.398 249.928 433.076 249.928C431.348 249.928 430.538 250.756 430.052 251.566H429.8V250.18H428.144V262.6ZM432.644 257.74C430.916 257.74 429.836 256.534 429.836 254.59C429.836 252.646 430.916 251.44 432.644 251.44C434.336 251.44 435.524 252.574 435.524 254.59C435.524 256.606 434.336 257.74 432.644 257.74ZM441.037 246.4H439.345V259H441.037V246.4ZM443.456 252.502L444.914 253.168C445.328 252.142 446.174 251.44 447.614 251.44C449.054 251.44 449.9 252.16 449.9 253.366V253.6L446.642 253.906C444.374 254.122 443.276 254.986 443.276 256.588C443.276 258.172 444.554 259.252 446.534 259.252C448.352 259.252 449.27 258.406 449.648 257.614H449.9V259H451.556V253.438C451.556 251.314 450.026 249.928 447.65 249.928C445.49 249.928 444.086 251.134 443.456 252.502ZM444.986 256.516C444.986 255.616 445.796 255.31 446.822 255.22L449.9 254.932V255.076C449.9 256.606 448.892 257.848 446.822 257.848C445.652 257.848 444.986 257.344 444.986 256.516ZM453.579 254.59C453.579 257.29 455.523 259.252 458.187 259.252C460.797 259.252 462.075 257.506 462.471 255.832L460.797 255.508C460.563 256.642 459.879 257.704 458.187 257.704C456.459 257.704 455.271 256.462 455.271 254.59C455.271 252.718 456.459 251.476 458.151 251.476C459.717 251.476 460.635 252.448 460.779 253.69L462.435 253.348C462.075 251.386 460.527 249.928 458.151 249.928C455.523 249.928 453.579 251.89 453.579 254.59ZM463.954 254.518C463.954 257.182 465.826 259.252 468.562 259.252C470.668 259.252 471.802 258.082 472.468 257.002L471.046 256.192C470.578 257.128 469.822 257.776 468.526 257.776C466.942 257.776 465.826 256.786 465.718 255.202H472.666V254.356C472.666 251.8 470.938 249.892 468.346 249.892C465.79 249.892 463.954 251.926 463.954 254.518ZM465.718 253.834C465.844 252.268 466.798 251.368 468.346 251.368C469.894 251.368 470.866 252.322 470.902 253.834H465.718ZM474.462 252.538C474.462 254.212 475.776 254.86 477.756 255.148L478.494 255.256C479.448 255.4 480.582 255.472 480.582 256.39C480.582 257.254 479.682 257.812 478.422 257.812C476.982 257.812 475.848 257.002 475.29 255.67L473.778 256.48C474.462 257.776 475.866 259.252 478.368 259.252C480.636 259.252 482.256 258.1 482.256 256.336C482.256 254.5 480.69 254.014 478.692 253.726L477.954 253.618C477 253.474 476.136 253.384 476.136 252.52C476.136 251.764 476.874 251.332 477.864 251.332C478.908 251.332 479.97 251.818 480.942 253.078L482.202 252.178C480.816 250.63 479.628 249.928 477.828 249.928C476.028 249.928 474.462 250.864 474.462 252.538Z" fill="#1B317C"/>
<rect x="318" y="110" width="154" height="34" rx="6" fill="#EFF2FC"/>
<path d="M329.364 121.4V134H331.164V121.4H329.364ZM333.903 125.18V134H335.595V128.492C335.595 127.16 336.477 126.476 337.611 126.476C338.637 126.476 339.339 127.052 339.339 128.078V134H341.031V128.492C341.031 127.16 341.859 126.476 342.957 126.476C344.001 126.476 344.775 127.052 344.775 128.078V134H346.467V127.97C346.467 126.152 345.045 125.036 343.479 125.036C342.039 125.036 341.283 125.774 340.923 126.512H340.671C340.239 125.702 339.501 125.036 338.223 125.036C337.053 125.036 336.261 125.576 335.811 126.332H335.559V125.18H333.903ZM349.059 137.6H350.751V132.614H350.967C351.453 133.424 352.263 134.252 353.991 134.252C356.313 134.252 358.131 132.326 358.131 129.59C358.131 126.854 356.313 124.928 353.991 124.928C352.263 124.928 351.453 125.756 350.967 126.566H350.715V125.18H349.059V137.6ZM353.559 132.74C351.831 132.74 350.751 131.534 350.751 129.59C350.751 127.646 351.831 126.44 353.559 126.44C355.251 126.44 356.439 127.574 356.439 129.59C356.439 131.606 355.251 132.74 353.559 132.74ZM359.685 129.59C359.685 132.326 361.629 134.252 364.221 134.252C366.813 134.252 368.757 132.326 368.757 129.59C368.757 126.854 366.813 124.928 364.221 124.928C361.629 124.928 359.685 126.854 359.685 129.59ZM361.377 129.59C361.377 127.646 362.529 126.476 364.221 126.476C365.913 126.476 367.065 127.646 367.065 129.59C367.065 131.534 365.913 132.704 364.221 132.704C362.529 132.704 361.377 131.534 361.377 129.59ZM372.502 125.18H370.882V134H372.574V128.852C372.574 127.52 373.258 126.8 374.518 126.8H376.066V125.144H375.058C373.78 125.144 373.06 125.684 372.754 126.62H372.502V125.18ZM377.085 125.18V126.656H379.533V132.488C379.533 133.388 380.145 134 381.009 134H383.313V132.524H381.693C381.369 132.524 381.225 132.38 381.225 132.02V126.656H383.817V125.18H381.225V122.12H379.533V125.18H377.085ZM396.234 121.4L390.942 137.6H392.67L397.962 121.4H396.234ZM405.955 121.4V134H414.091V132.344H407.755V128.51H413.515V126.854H407.755V123.056H414.019V121.4H405.955ZM415.611 125.18L418.923 129.464L415.467 134H417.501L420.003 130.544H420.219L422.721 134H424.755L421.299 129.464L424.611 125.18H422.595L420.219 128.42H420.003L417.627 125.18H415.611ZM426.669 137.6H428.361V132.614H428.577C429.063 133.424 429.873 134.252 431.601 134.252C433.923 134.252 435.741 132.326 435.741 129.59C435.741 126.854 433.923 124.928 431.601 124.928C429.873 124.928 429.063 125.756 428.577 126.566H428.325V125.18H426.669V137.6ZM431.169 132.74C429.441 132.74 428.361 131.534 428.361 129.59C428.361 127.646 429.441 126.44 431.169 126.44C432.861 126.44 434.049 127.574 434.049 129.59C434.049 131.606 432.861 132.74 431.169 132.74ZM437.295 129.59C437.295 132.326 439.239 134.252 441.831 134.252C444.423 134.252 446.367 132.326 446.367 129.59C446.367 126.854 444.423 124.928 441.831 124.928C439.239 124.928 437.295 126.854 437.295 129.59ZM438.987 129.59C438.987 127.646 440.139 126.476 441.831 126.476C443.523 126.476 444.675 127.646 444.675 129.59C444.675 131.534 443.523 132.704 441.831 132.704C440.139 132.704 438.987 131.534 438.987 129.59ZM450.112 125.18H448.492V134H450.184V128.852C450.184 127.52 450.868 126.8 452.128 126.8H453.676V125.144H452.668C451.39 125.144 450.67 125.684 450.364 126.62H450.112V125.18ZM454.696 125.18V126.656H457.144V132.488C457.144 133.388 457.756 134 458.62 134H460.924V132.524H459.304C458.98 132.524 458.836 132.38 458.836 132.02V126.656H461.428V125.18H458.836V122.12H457.144V125.18H454.696Z" fill="#1B317C"/>
<rect y="262" width="112" height="34" rx="6" fill="#EBF5F4"/>
<path d="M11.6024 273.4V286H19.7384V284.344H13.4024V280.51H19.1624V278.854H13.4024V275.056H19.6664V273.4H11.6024ZM22.1225 282.238H27.4505V280.69H22.1225V282.238ZM39.1498 277.18H36.6658L32.2738 280.906H32.0578V273.4H30.3658V286H32.0578V283.138L33.8758 281.626L37.0438 286H39.0778L35.0998 280.582L39.1498 277.18ZM39.5499 281.59C39.5499 284.326 41.4939 286.252 44.0859 286.252C46.6779 286.252 48.6219 284.326 48.6219 281.59C48.6219 278.854 46.6779 276.928 44.0859 276.928C41.4939 276.928 39.5499 278.854 39.5499 281.59ZM41.2419 281.59C41.2419 279.646 42.3939 278.476 44.0859 278.476C45.7779 278.476 46.9299 279.646 46.9299 281.59C46.9299 283.534 45.7779 284.704 44.0859 284.704C42.3939 284.704 41.2419 283.534 41.2419 281.59ZM50.7473 277.18V286H52.4393V280.492C52.4393 279.16 53.3213 278.476 54.4553 278.476C55.4813 278.476 56.1833 279.052 56.1833 280.078V286H57.8753V280.492C57.8753 279.16 58.7033 278.476 59.8013 278.476C60.8453 278.476 61.6193 279.052 61.6193 280.078V286H63.3113V279.97C63.3113 278.152 61.8893 277.036 60.3233 277.036C58.8833 277.036 58.1273 277.774 57.7673 278.512H57.5153C57.0833 277.702 56.3453 277.036 55.0673 277.036C53.8973 277.036 53.1053 277.576 52.6553 278.332H52.4033V277.18H50.7473ZM65.3279 281.518C65.3279 284.182 67.1999 286.252 69.9359 286.252C72.0419 286.252 73.1759 285.082 73.8419 284.002L72.4199 283.192C71.9519 284.128 71.1959 284.776 69.8999 284.776C68.3159 284.776 67.1999 283.786 67.0919 282.202H74.0399V281.356C74.0399 278.8 72.3119 276.892 69.7199 276.892C67.1639 276.892 65.3279 278.926 65.3279 281.518ZM67.0919 280.834C67.2179 279.268 68.1719 278.368 69.7199 278.368C71.2679 278.368 72.2399 279.322 72.2759 280.834H67.0919ZM77.7058 277.18H76.0858V286H77.7778V280.852C77.7778 279.52 78.4618 278.8 79.7218 278.8H81.2698V277.144H80.2618C78.9838 277.144 78.2638 277.684 77.9578 278.62H77.7058V277.18ZM82.0004 281.59C82.0004 284.29 83.9444 286.252 86.6084 286.252C89.2184 286.252 90.4964 284.506 90.8924 282.832L89.2184 282.508C88.9844 283.642 88.3004 284.704 86.6084 284.704C84.8804 284.704 83.6924 283.462 83.6924 281.59C83.6924 279.718 84.8804 278.476 86.5724 278.476C88.1384 278.476 89.0564 279.448 89.2004 280.69L90.8564 280.348C90.4964 278.386 88.9484 276.928 86.5724 276.928C83.9444 276.928 82.0004 278.89 82.0004 281.59ZM92.3757 281.518C92.3757 284.182 94.2477 286.252 96.9837 286.252C99.0897 286.252 100.224 285.082 100.89 284.002L99.4677 283.192C98.9997 284.128 98.2437 284.776 96.9477 284.776C95.3637 284.776 94.2477 283.786 94.1397 282.202H101.088V281.356C101.088 278.8 99.3597 276.892 96.7677 276.892C94.2117 276.892 92.3757 278.926 92.3757 281.518ZM94.1397 280.834C94.2657 279.268 95.2197 278.368 96.7677 278.368C98.3157 278.368 99.2877 279.322 99.3237 280.834H94.1397Z" fill="#407C1B"/>
<rect x="11" y="144" width="107" height="34" rx="6" fill="#F4F6FD"/>
<path d="M22.1204 160.296V163.104C22.1204 166.344 23.9564 168.252 27.0164 168.252C30.0764 168.252 31.9124 166.344 31.9124 163.104V160.296C31.9124 157.056 30.0044 155.148 27.0164 155.148C23.9564 155.148 22.1204 157.056 22.1204 160.296ZM23.9204 160.26C23.9204 158.028 24.9284 156.804 27.0164 156.804C29.1044 156.804 30.1124 158.028 30.1124 160.26V163.14C30.1124 165.372 29.1044 166.596 27.0164 166.596C24.9284 166.596 23.9204 165.372 23.9204 163.14V160.26ZM34.2101 159.18V168H35.9021V163.392C35.9021 161.556 36.9281 160.512 38.5661 160.512C40.0061 160.512 40.8341 161.304 40.8341 162.834V168H42.5261V162.69C42.5261 160.26 40.9421 159.036 39.0881 159.036C37.3421 159.036 36.5321 159.846 36.1181 160.674H35.8661V159.18H34.2101ZM46.8047 155.4H45.1127V168H46.8047V155.4ZM48.9895 156.48C48.9895 157.236 49.6015 157.812 50.3575 157.812C51.1135 157.812 51.7255 157.236 51.7255 156.48C51.7255 155.724 51.1135 155.148 50.3575 155.148C49.6015 155.148 48.9895 155.724 48.9895 156.48ZM51.2035 159.18H49.5115V168H51.2035V159.18ZM53.9102 159.18V168H55.6022V163.392C55.6022 161.556 56.6282 160.512 58.2662 160.512C59.7062 160.512 60.5342 161.304 60.5342 162.834V168H62.2262V162.69C62.2262 160.26 60.6422 159.036 58.7882 159.036C57.0422 159.036 56.2322 159.846 55.8182 160.674H55.5662V159.18H53.9102ZM64.2369 163.518C64.2369 166.182 66.1089 168.252 68.8449 168.252C70.9509 168.252 72.0849 167.082 72.7509 166.002L71.3289 165.192C70.8609 166.128 70.1049 166.776 68.8089 166.776C67.2249 166.776 66.1089 165.786 66.0009 164.202H72.9489V163.356C72.9489 160.8 71.2209 158.892 68.6289 158.892C66.0729 158.892 64.2369 160.926 64.2369 163.518ZM66.0009 162.834C66.1269 161.268 67.0809 160.368 68.6289 160.368C70.1769 160.368 71.1489 161.322 71.1849 162.834H66.0009ZM80.5713 155.4V168H82.2633V163.392C82.2633 161.556 83.2893 160.512 84.9273 160.512C86.3673 160.512 87.1953 161.304 87.1953 162.834V168H88.8873V162.69C88.8873 160.26 87.3033 159.036 85.4493 159.036C83.7033 159.036 82.8933 159.846 82.4793 160.674H82.2633V155.4H80.5713ZM93.094 159.18H91.474V168H93.166V162.852C93.166 161.52 93.85 160.8 95.11 160.8H96.658V159.144H95.65C94.372 159.144 93.652 159.684 93.346 160.62H93.094V159.18ZM105.554 159.18L102.836 165.876H102.62L99.9025 159.18H98.0665L101.828 168.162L100.334 171.6H102.17L107.39 159.18H105.554Z" fill="#1B317C"/>
<rect x="128" y="81" width="96" height="34" rx="6" fill="#EDFAFC"/>
<path d="M143.38 92.148C141.04 92.148 139.168 93.498 139.168 95.64C139.168 97.98 140.806 98.826 143.056 99.312L143.884 99.492C145.486 99.834 146.296 100.32 146.296 101.526C146.296 102.732 145.288 103.632 143.614 103.632C141.544 103.632 140.392 102.534 140.392 100.536V100.104H138.592V100.68C138.592 103.452 140.518 105.252 143.596 105.252C146.188 105.252 148.096 103.794 148.096 101.472C148.096 99.312 146.674 98.304 144.334 97.8L143.506 97.62C141.724 97.224 140.968 96.774 140.968 95.622C140.968 94.506 141.976 93.768 143.38 93.768C145.036 93.768 146.188 94.632 146.188 96.252V96.684H147.988V96.108C147.988 93.534 145.99 92.148 143.38 92.148ZM149.312 96.18V97.656H151.76V103.488C151.76 104.388 152.372 105 153.236 105H155.54V103.524H153.92C153.596 103.524 153.452 103.38 153.452 103.02V97.656H156.044V96.18H153.452V93.12H151.76V96.18H149.312ZM157.7 98.502L159.158 99.168C159.572 98.142 160.418 97.44 161.858 97.44C163.298 97.44 164.144 98.16 164.144 99.366V99.6L160.886 99.906C158.618 100.122 157.52 100.986 157.52 102.588C157.52 104.172 158.798 105.252 160.778 105.252C162.596 105.252 163.514 104.406 163.892 103.614H164.144V105H165.8V99.438C165.8 97.314 164.27 95.928 161.894 95.928C159.734 95.928 158.33 97.134 157.7 98.502ZM159.23 102.516C159.23 101.616 160.04 101.31 161.066 101.22L164.144 100.932V101.076C164.144 102.606 163.136 103.848 161.066 103.848C159.896 103.848 159.23 103.344 159.23 102.516ZM170.019 96.18H168.399V105H170.091V99.852C170.091 98.52 170.775 97.8 172.035 97.8H173.583V96.144H172.575C171.297 96.144 170.577 96.684 170.271 97.62H170.019V96.18ZM174.602 96.18V97.656H177.05V103.488C177.05 104.388 177.662 105 178.526 105H180.83V103.524H179.21C178.886 103.524 178.742 103.38 178.742 103.02V97.656H181.334V96.18H178.742V93.12H177.05V96.18H174.602ZM191.486 105V96.18H189.794V100.788C189.794 102.624 188.768 103.668 187.13 103.668C185.69 103.668 184.862 102.876 184.862 101.346V96.18H183.17V101.49C183.17 103.92 184.754 105.144 186.608 105.144C188.354 105.144 189.164 104.334 189.578 103.506H189.83V105H191.486ZM194.181 108.6H195.873V103.614H196.089C196.575 104.424 197.385 105.252 199.113 105.252C201.435 105.252 203.253 103.326 203.253 100.59C203.253 97.854 201.435 95.928 199.113 95.928C197.385 95.928 196.575 96.756 196.089 97.566H195.837V96.18H194.181V108.6ZM198.681 103.74C196.953 103.74 195.873 102.534 195.873 100.59C195.873 98.646 196.953 97.44 198.681 97.44C200.373 97.44 201.561 98.574 201.561 100.59C201.561 102.606 200.373 103.74 198.681 103.74ZM211.794 96.18L209.076 102.876H208.86L206.142 96.18H204.306L208.068 105.162L206.574 108.6H208.41L213.63 96.18H211.794Z" fill="#1B7C77"/>
<rect x="288" y="313" width="114" height="34" rx="6" fill="#EFF2FC"/>
<path d="M299.561 324.4H307.625V326.056H301.361V329.854H307.121V331.51H301.361V335.344H307.697V337H299.561V324.4ZM310.081 333.238V331.69H315.409V333.238H310.081ZM325.593 324.4V337H323.901V324.4H325.593ZM327.724 332.518C327.724 331.21 328.138 330.112 328.966 329.224C329.794 328.336 330.844 327.892 332.116 327.892C333.4 327.892 334.438 328.312 335.23 329.152C336.034 329.992 336.436 331.06 336.436 332.356V333.202H329.488C329.536 333.994 329.818 334.624 330.334 335.092C330.85 335.548 331.504 335.776 332.296 335.776C333.448 335.776 334.288 335.248 334.816 334.192L336.238 335.002C335.314 336.502 334.012 337.252 332.332 337.252C330.976 337.252 329.866 336.802 329.002 335.902C328.15 334.99 327.724 333.862 327.724 332.518ZM329.488 331.834H334.672C334.648 331.078 334.408 330.478 333.952 330.034C333.496 329.59 332.884 329.368 332.116 329.368C331.348 329.368 330.73 329.584 330.262 330.016C329.806 330.448 329.548 331.054 329.488 331.834ZM338.123 330.502C338.471 329.758 338.999 329.146 339.707 328.666C340.427 328.174 341.297 327.928 342.317 327.928C343.505 327.928 344.453 328.246 345.161 328.882C345.869 329.518 346.223 330.37 346.223 331.438V337H344.567V335.614H344.315C344.099 336.082 343.733 336.472 343.217 336.784C342.701 337.096 342.029 337.252 341.201 337.252C340.217 337.252 339.425 337.006 338.825 336.514C338.237 336.022 337.943 335.38 337.943 334.588C337.943 333.016 339.065 332.122 341.309 331.906L344.567 331.6V331.366C344.567 330.766 344.363 330.298 343.955 329.962C343.559 329.614 343.001 329.44 342.281 329.44C340.949 329.44 340.049 330.016 339.581 331.168L338.123 330.502ZM339.653 334.516C339.653 334.936 339.815 335.266 340.139 335.506C340.463 335.734 340.913 335.848 341.489 335.848C342.485 335.848 343.247 335.59 343.775 335.074C344.303 334.546 344.567 333.88 344.567 333.076V332.932L341.489 333.22C340.265 333.328 339.653 333.76 339.653 334.516ZM350.442 328.18V329.62H350.694C351.018 328.636 351.786 328.144 352.998 328.144H354.006V329.8H352.458C351.822 329.8 351.336 329.98 351 330.34C350.676 330.688 350.514 331.192 350.514 331.852V337H348.822V328.18H350.442ZM355.769 328.18H357.425V329.674H357.677C358.229 328.582 359.219 328.036 360.647 328.036C361.631 328.036 362.447 328.354 363.095 328.99C363.755 329.626 364.085 330.526 364.085 331.69V337H362.393V331.834C362.393 331.078 362.195 330.502 361.799 330.106C361.415 329.71 360.857 329.512 360.125 329.512C359.297 329.512 358.643 329.764 358.163 330.268C357.695 330.772 357.461 331.48 357.461 332.392V337H355.769V328.18ZM366.546 326.434C366.282 326.17 366.15 325.852 366.15 325.48C366.15 325.108 366.282 324.796 366.546 324.544C366.81 324.28 367.134 324.148 367.518 324.148C367.902 324.148 368.226 324.28 368.49 324.544C368.754 324.796 368.886 325.108 368.886 325.48C368.886 325.852 368.754 326.17 368.49 326.434C368.226 326.686 367.902 326.812 367.518 326.812C367.134 326.812 366.81 326.686 366.546 326.434ZM368.364 328.18V337H366.672V328.18H368.364ZM371.071 328.18H372.727V329.674H372.979C373.531 328.582 374.521 328.036 375.949 328.036C376.933 328.036 377.749 328.354 378.397 328.99C379.057 329.626 379.387 330.526 379.387 331.69V337H377.695V331.834C377.695 331.078 377.497 330.502 377.101 330.106C376.717 329.71 376.159 329.512 375.427 329.512C374.599 329.512 373.945 329.764 373.465 330.268C372.997 330.772 372.763 331.48 372.763 332.392V337H371.071V328.18ZM388.813 328.18H390.469V336.73C390.469 337.93 390.073 338.914 389.281 339.682C388.489 340.462 387.439 340.852 386.131 340.852C384.175 340.852 382.645 340.036 381.541 338.404L383.053 337.522C383.689 338.734 384.679 339.34 386.023 339.34C386.863 339.34 387.529 339.112 388.021 338.656C388.525 338.2 388.777 337.528 388.777 336.64V335.398H388.561C387.901 336.49 386.893 337.036 385.537 337.036C384.361 337.036 383.377 336.61 382.585 335.758C381.793 334.906 381.397 333.814 381.397 332.482C381.397 331.15 381.793 330.058 382.585 329.206C383.377 328.354 384.361 327.928 385.537 327.928C386.893 327.928 387.901 328.474 388.561 329.566H388.813V328.18ZM383.881 334.732C384.409 335.26 385.105 335.524 385.969 335.524C386.833 335.524 387.517 335.254 388.021 334.714C388.525 334.174 388.777 333.43 388.777 332.482C388.777 331.534 388.525 330.79 388.021 330.25C387.517 329.71 386.833 329.44 385.969 329.44C385.105 329.44 384.409 329.71 383.881 330.25C383.353 330.778 383.089 331.522 383.089 332.482C383.089 333.442 383.353 334.192 383.881 334.732Z" fill="#1B317C"/>
<rect x="181" y="168" width="175" height="34" rx="6" fill="#EFF2FC"/>
<path d="M192.647 179.4V192H194.447V186.96H197.543C199.793 186.96 201.431 185.466 201.431 183.18C201.431 180.894 199.847 179.4 197.543 179.4H192.647ZM194.447 181.056H197.345C198.839 181.056 199.631 181.812 199.631 183.18C199.631 184.548 198.803 185.304 197.345 185.304H194.447V181.056ZM202.786 185.502L204.244 186.168C204.658 185.142 205.504 184.44 206.944 184.44C208.384 184.44 209.23 185.16 209.23 186.366V186.6L205.972 186.906C203.704 187.122 202.606 187.986 202.606 189.588C202.606 191.172 203.884 192.252 205.864 192.252C207.682 192.252 208.6 191.406 208.978 190.614H209.23V192H210.886V186.438C210.886 184.314 209.356 182.928 206.98 182.928C204.82 182.928 203.416 184.134 202.786 185.502ZM204.316 189.516C204.316 188.616 205.126 188.31 206.152 188.22L209.23 187.932V188.076C209.23 189.606 208.222 190.848 206.152 190.848C204.982 190.848 204.316 190.344 204.316 189.516ZM215.105 183.18H213.485V192H215.177V186.852C215.177 185.52 215.861 184.8 217.121 184.8H218.669V183.144H217.661C216.383 183.144 215.663 183.684 215.357 184.62H215.105V183.18ZM219.688 183.18V184.656H222.136V190.488C222.136 191.388 222.748 192 223.612 192H225.916V190.524H224.296C223.972 190.524 223.828 190.38 223.828 190.02V184.656H226.42V183.18H223.828V180.12H222.136V183.18H219.688ZM228.364 183.18V192H230.056V187.392C230.056 185.556 231.082 184.512 232.72 184.512C234.16 184.512 234.988 185.304 234.988 186.834V192H236.68V186.69C236.68 184.26 235.096 183.036 233.242 183.036C231.496 183.036 230.686 183.846 230.272 184.674H230.02V183.18H228.364ZM238.691 187.518C238.691 190.182 240.563 192.252 243.299 192.252C245.405 192.252 246.539 191.082 247.205 190.002L245.783 189.192C245.315 190.128 244.559 190.776 243.263 190.776C241.679 190.776 240.563 189.786 240.455 188.202H247.403V187.356C247.403 184.8 245.675 182.892 243.083 182.892C240.527 182.892 238.691 184.926 238.691 187.518ZM240.455 186.834C240.581 185.268 241.535 184.368 243.083 184.368C244.631 184.368 245.603 185.322 245.639 186.834H240.455ZM251.069 183.18H249.449V192H251.141V186.852C251.141 185.52 251.825 184.8 253.085 184.8H254.633V183.144H253.625C252.347 183.144 251.627 183.684 251.321 184.62H251.069V183.18ZM256.041 185.538C256.041 187.212 257.355 187.86 259.335 188.148L260.073 188.256C261.027 188.4 262.161 188.472 262.161 189.39C262.161 190.254 261.261 190.812 260.001 190.812C258.561 190.812 257.427 190.002 256.869 188.67L255.357 189.48C256.041 190.776 257.445 192.252 259.947 192.252C262.215 192.252 263.835 191.1 263.835 189.336C263.835 187.5 262.269 187.014 260.271 186.726L259.533 186.618C258.579 186.474 257.715 186.384 257.715 185.52C257.715 184.764 258.453 184.332 259.443 184.332C260.487 184.332 261.549 184.818 262.521 186.078L263.781 185.178C262.395 183.63 261.207 182.928 259.407 182.928C257.607 182.928 256.041 183.864 256.041 185.538ZM274.677 183.18H272.193L267.801 186.906H267.585V179.4H265.893V192H267.585V189.138L269.403 187.626L272.571 192H274.605L270.627 186.582L274.677 183.18ZM279.433 179.4L278.335 181.74H279.883L281.395 179.4H279.433ZM275.077 187.518C275.077 190.182 276.949 192.252 279.685 192.252C281.791 192.252 282.925 191.082 283.591 190.002L282.169 189.192C281.701 190.128 280.945 190.776 279.649 190.776C278.065 190.776 276.949 189.786 276.841 188.202H283.789V187.356C283.789 184.8 282.061 182.892 279.469 182.892C276.913 182.892 275.077 184.926 275.077 187.518ZM276.841 186.834C276.967 185.268 277.921 184.368 279.469 184.368C281.017 184.368 281.989 185.322 282.025 186.834H276.841ZM291.231 185.538C291.231 187.212 292.545 187.86 294.525 188.148L295.263 188.256C296.217 188.4 297.351 188.472 297.351 189.39C297.351 190.254 296.451 190.812 295.191 190.812C293.751 190.812 292.617 190.002 292.059 188.67L290.547 189.48C291.231 190.776 292.635 192.252 295.137 192.252C297.405 192.252 299.025 191.1 299.025 189.336C299.025 187.5 297.459 187.014 295.461 186.726L294.723 186.618C293.769 186.474 292.905 186.384 292.905 185.52C292.905 184.764 293.643 184.332 294.633 184.332C295.677 184.332 296.739 184.818 297.711 186.078L298.971 185.178C297.585 183.63 296.397 182.928 294.597 182.928C292.797 182.928 291.231 183.864 291.231 185.538ZM302.776 179.4H301.084V192H302.776V179.4ZM313.69 192V183.18H311.998V187.788C311.998 189.624 310.972 190.668 309.334 190.668C307.894 190.668 307.066 189.876 307.066 188.346V183.18H305.374V188.49C305.374 190.92 306.958 192.144 308.812 192.144C310.558 192.144 311.368 191.334 311.782 190.506H312.034V192H313.69ZM320.849 179.4L319.967 180.678H319.751L318.869 179.4H317.069L318.761 181.74H320.957L322.649 179.4H320.849ZM316.169 183.18V184.62H321.335L315.989 190.668V192H323.657V190.56H318.167L323.513 184.512V183.18H316.169ZM325.846 179.4V192H327.502V190.614H327.754C328.24 191.424 329.05 192.252 330.778 192.252C333.1 192.252 334.918 190.326 334.918 187.59C334.918 184.854 333.1 182.928 330.778 182.928C329.05 182.928 328.24 183.756 327.754 184.566H327.538V179.4H325.846ZM330.346 184.44C332.038 184.44 333.226 185.574 333.226 187.59C333.226 189.606 332.038 190.74 330.346 190.74C328.618 190.74 327.538 189.534 327.538 187.59C327.538 185.646 328.618 184.44 330.346 184.44ZM343.46 183.18L340.742 189.876H340.526L337.808 183.18H335.972L339.734 192.162L338.24 195.6H340.076L345.296 183.18H343.46Z" fill="#1B317C"/>
<rect x="145" y="240" width="162" height="34" rx="6" fill="#F6F6EF"/>
<path d="M156.451 251.4V264H158.251V258.96H161.347C163.597 258.96 165.235 257.466 165.235 255.18C165.235 252.894 163.651 251.4 161.347 251.4H156.451ZM158.251 253.056H161.149C162.643 253.056 163.435 253.812 163.435 255.18C163.435 256.548 162.607 257.304 161.149 257.304H158.251V253.056ZM170.814 251.4L169.932 252.678H169.716L168.834 251.4H167.034L168.726 253.74H170.922L172.614 251.4H170.814ZM168.762 255.18H167.142V264H168.834V258.852C168.834 257.52 169.518 256.8 170.778 256.8H172.326V255.144H171.318C170.04 255.144 169.32 255.684 169.014 256.62H168.762V255.18ZM173.056 259.518C173.056 262.182 174.928 264.252 177.664 264.252C179.77 264.252 180.904 263.082 181.57 262.002L180.148 261.192C179.68 262.128 178.924 262.776 177.628 262.776C176.044 262.776 174.928 261.786 174.82 260.202H181.768V259.356C181.768 256.8 180.04 254.892 177.448 254.892C174.892 254.892 173.056 256.926 173.056 259.518ZM174.82 258.834C174.946 257.268 175.9 256.368 177.448 256.368C178.996 256.368 179.968 257.322 180.004 258.834H174.82ZM183.814 267.6H185.506V262.614H185.722C186.208 263.424 187.018 264.252 188.746 264.252C191.068 264.252 192.886 262.326 192.886 259.59C192.886 256.854 191.068 254.928 188.746 254.928C187.018 254.928 186.208 255.756 185.722 256.566H185.47V255.18H183.814V267.6ZM188.314 262.74C186.586 262.74 185.506 261.534 185.506 259.59C185.506 257.646 186.586 256.44 188.314 256.44C190.006 256.44 191.194 257.574 191.194 259.59C191.194 261.606 190.006 262.74 188.314 262.74ZM196.636 255.18H195.016V264H196.708V258.852C196.708 257.52 197.392 256.8 198.652 256.8H200.2V255.144H199.192C197.914 255.144 197.194 255.684 196.888 256.62H196.636V255.18ZM201.587 257.502L203.045 258.168C203.459 257.142 204.305 256.44 205.745 256.44C207.185 256.44 208.031 257.16 208.031 258.366V258.6L204.773 258.906C202.505 259.122 201.407 259.986 201.407 261.588C201.407 263.172 202.685 264.252 204.665 264.252C206.483 264.252 207.401 263.406 207.779 262.614H208.031V264H209.687V258.438C209.687 256.314 208.157 254.928 205.781 254.928C203.621 254.928 202.217 256.134 201.587 257.502ZM203.117 261.516C203.117 260.616 203.927 260.31 204.953 260.22L208.031 259.932V260.076C208.031 261.606 207.023 262.848 204.953 262.848C203.783 262.848 203.117 262.344 203.117 261.516ZM210.929 255.18L214.223 264H216.635L219.929 255.18H218.093L215.537 262.38H215.321L212.765 255.18H210.929ZM221.73 255.18V264H223.422V259.392C223.422 257.556 224.448 256.512 226.086 256.512C227.526 256.512 228.354 257.304 228.354 258.834V264H230.046V258.69C230.046 256.26 228.462 255.036 226.608 255.036C224.862 255.036 224.052 255.846 223.638 256.674H223.386V255.18H221.73ZM233.424 251.4L232.326 253.74H233.874L235.386 251.4H233.424ZM234.324 255.18H232.632V264H234.324V255.18ZM242.427 257.538C242.427 259.212 243.741 259.86 245.721 260.148L246.459 260.256C247.413 260.4 248.547 260.472 248.547 261.39C248.547 262.254 247.647 262.812 246.387 262.812C244.947 262.812 243.813 262.002 243.255 260.67L241.743 261.48C242.427 262.776 243.831 264.252 246.333 264.252C248.601 264.252 250.221 263.1 250.221 261.336C250.221 259.5 248.655 259.014 246.657 258.726L245.919 258.618C244.965 258.474 244.101 258.384 244.101 257.52C244.101 256.764 244.839 256.332 245.829 256.332C246.873 256.332 247.935 256.818 248.907 258.078L250.167 257.178C248.781 255.63 247.593 254.928 245.793 254.928C243.993 254.928 242.427 255.864 242.427 257.538ZM253.972 251.4H252.28V264H253.972V251.4ZM264.886 264V255.18H263.194V259.788C263.194 261.624 262.168 262.668 260.53 262.668C259.09 262.668 258.262 261.876 258.262 260.346V255.18H256.57V260.49C256.57 262.92 258.154 264.144 260.008 264.144C261.754 264.144 262.564 263.334 262.978 262.506H263.23V264H264.886ZM272.045 251.4L271.163 252.678H270.947L270.065 251.4H268.265L269.957 253.74H272.153L273.845 251.4H272.045ZM267.365 255.18V256.62H272.531L267.185 262.668V264H274.853V262.56H269.363L274.709 256.512V255.18H267.365ZM277.042 251.4V264H278.698V262.614H278.95C279.436 263.424 280.246 264.252 281.974 264.252C284.296 264.252 286.114 262.326 286.114 259.59C286.114 256.854 284.296 254.928 281.974 254.928C280.246 254.928 279.436 255.756 278.95 256.566H278.734V251.4H277.042ZM281.542 256.44C283.234 256.44 284.422 257.574 284.422 259.59C284.422 261.606 283.234 262.74 281.542 262.74C279.814 262.74 278.734 261.534 278.734 259.59C278.734 257.646 279.814 256.44 281.542 256.44ZM294.656 255.18L291.938 261.876H291.722L289.004 255.18H287.168L290.93 264.162L289.436 267.6H291.272L296.492 255.18H294.656Z" fill="#7C611B"/>
<rect x="98" y="347" width="188" height="34" rx="6" fill="#EDEDFC"/>
<path d="M108.474 358.4V360.056H112.542V371H114.342V360.056H118.41V358.4H108.474ZM119.685 359.48C119.685 360.236 120.297 360.812 121.053 360.812C121.809 360.812 122.421 360.236 122.421 359.48C122.421 358.724 121.809 358.148 121.053 358.148C120.297 358.148 119.685 358.724 119.685 359.48ZM121.899 362.18H120.207V371H121.899V362.18ZM124.029 366.59C124.029 369.29 125.973 371.252 128.637 371.252C131.247 371.252 132.525 369.506 132.921 367.832L131.247 367.508C131.013 368.642 130.329 369.704 128.637 369.704C126.909 369.704 125.721 368.462 125.721 366.59C125.721 364.718 126.909 363.476 128.601 363.476C130.167 363.476 131.085 364.448 131.229 365.69L132.885 365.348C132.525 363.386 130.977 361.928 128.601 361.928C125.973 361.928 124.029 363.89 124.029 366.59ZM143.765 362.18H141.281L136.889 365.906H136.673V358.4H134.981V371H136.673V368.138L138.491 366.626L141.659 371H143.693L139.715 365.582L143.765 362.18ZM144.165 366.518C144.165 369.182 146.037 371.252 148.773 371.252C150.879 371.252 152.013 370.082 152.679 369.002L151.257 368.192C150.789 369.128 150.033 369.776 148.737 369.776C147.153 369.776 146.037 368.786 145.929 367.202H152.877V366.356C152.877 363.8 151.149 361.892 148.557 361.892C146.001 361.892 144.165 363.926 144.165 366.518ZM145.929 365.834C146.055 364.268 147.009 363.368 148.557 363.368C150.105 363.368 151.077 364.322 151.113 365.834H145.929ZM153.827 362.18V363.656H156.275V369.488C156.275 370.388 156.887 371 157.751 371H160.055V369.524H158.435C158.111 369.524 157.967 369.38 157.967 369.02V363.656H160.559V362.18H157.967V359.12H156.275V362.18H153.827ZM161.839 366.59C161.839 369.326 163.783 371.252 166.375 371.252C168.967 371.252 170.911 369.326 170.911 366.59C170.911 363.854 168.967 361.928 166.375 361.928C163.783 361.928 161.839 363.854 161.839 366.59ZM163.531 366.59C163.531 364.646 164.683 363.476 166.375 363.476C168.067 363.476 169.219 364.646 169.219 366.59C169.219 368.534 168.067 369.704 166.375 369.704C164.683 369.704 163.531 368.534 163.531 366.59ZM171.961 362.18L175.255 371H177.667L180.961 362.18H179.125L176.569 369.38H176.353L173.797 362.18H171.961ZM186.366 358.4L185.268 360.74H186.816L188.328 358.4H186.366ZM182.01 366.518C182.01 369.182 183.882 371.252 186.618 371.252C188.724 371.252 189.858 370.082 190.524 369.002L189.102 368.192C188.634 369.128 187.878 369.776 186.582 369.776C184.998 369.776 183.882 368.786 183.774 367.202H190.722V366.356C190.722 363.8 188.994 361.892 186.402 361.892C183.846 361.892 182.01 363.926 182.01 366.518ZM183.774 365.834C183.9 364.268 184.854 363.368 186.402 363.368C187.95 363.368 188.922 364.322 188.958 365.834H183.774ZM198.056 364.502L199.514 365.168C199.928 364.142 200.774 363.44 202.214 363.44C203.654 363.44 204.5 364.16 204.5 365.366V365.6L201.242 365.906C198.974 366.122 197.876 366.986 197.876 368.588C197.876 370.172 199.154 371.252 201.134 371.252C202.952 371.252 203.87 370.406 204.248 369.614H204.5V371H206.156V365.438C206.156 363.314 204.626 361.928 202.25 361.928C200.09 361.928 198.686 363.134 198.056 364.502ZM199.586 368.516C199.586 367.616 200.396 367.31 201.422 367.22L204.5 366.932V367.076C204.5 368.606 203.492 369.848 201.422 369.848C200.252 369.848 199.586 369.344 199.586 368.516ZM215.595 362.18V363.566H215.343C214.857 362.756 214.047 361.928 212.319 361.928C209.997 361.928 208.179 363.8 208.179 366.482C208.179 369.164 209.997 371.036 212.319 371.036C214.047 371.036 214.857 370.208 215.343 369.398H215.559V370.64C215.559 372.476 214.425 373.34 212.805 373.34C211.257 373.34 210.339 372.476 209.835 371.522L208.323 372.404C209.187 373.682 210.537 374.852 212.913 374.852C215.559 374.852 217.251 373.106 217.251 370.73V362.18H215.595ZM212.751 369.524C211.059 369.524 209.871 368.444 209.871 366.482C209.871 364.52 211.059 363.44 212.751 363.44C214.479 363.44 215.559 364.592 215.559 366.482C215.559 368.372 214.479 369.524 212.751 369.524ZM219.38 366.518C219.38 369.182 221.252 371.252 223.988 371.252C226.094 371.252 227.228 370.082 227.894 369.002L226.472 368.192C226.004 369.128 225.248 369.776 223.952 369.776C222.368 369.776 221.252 368.786 221.144 367.202H228.092V366.356C228.092 363.8 226.364 361.892 223.772 361.892C221.216 361.892 219.38 363.926 219.38 366.518ZM221.144 365.834C221.27 364.268 222.224 363.368 223.772 363.368C225.32 363.368 226.292 364.322 226.328 365.834H221.144ZM230.138 362.18V371H231.83V366.392C231.83 364.556 232.856 363.512 234.494 363.512C235.934 363.512 236.762 364.304 236.762 365.834V371H238.454V365.69C238.454 363.26 236.87 362.036 235.016 362.036C233.27 362.036 232.46 362.846 232.046 363.674H231.794V362.18H230.138ZM239.857 362.18V363.656H242.305V369.488C242.305 370.388 242.917 371 243.781 371H246.085V369.524H244.465C244.141 369.524 243.997 369.38 243.997 369.02V363.656H246.589V362.18H243.997V359.12H242.305V362.18H239.857ZM256.741 371V362.18H255.049V366.788C255.049 368.624 254.023 369.668 252.385 369.668C250.945 369.668 250.117 368.876 250.117 367.346V362.18H248.425V367.49C248.425 369.92 250.009 371.144 251.863 371.144C253.609 371.144 254.419 370.334 254.833 369.506H255.085V371H256.741ZM261.056 362.18H259.436V371H261.128V365.852C261.128 364.52 261.812 363.8 263.072 363.8H264.62V362.144H263.612C262.334 362.144 261.614 362.684 261.308 363.62H261.056V362.18ZM273.517 362.18L270.799 368.876H270.583L267.865 362.18H266.029L269.791 371.162L268.297 374.6H270.133L275.353 362.18H273.517Z" fill="#521B7C"/>
</svg>
