<svg width="507" height="471" viewBox="0 0 507 471" fill="none" xmlns="http://www.w3.org/2000/svg">
<mask id="mask0" mask-type="alpha" maskUnits="userSpaceOnUse" x="68" y="0" width="408" height="471">
<rect x="68" width="408" height="471" fill="#C4C4C4"/>
</mask>
<g mask="url(#mask0)">
<circle opacity="0.1" cx="364" cy="253" r="283" stroke="#2550E5" stroke-width="2"/>
<circle opacity="0.5" cx="364" cy="253" r="169" stroke="#2550E5" stroke-width="2"/>
<circle opacity="0.2" cx="364" cy="253" r="217" stroke="#2550E5" stroke-width="2"/>
</g>
<rect x="370" y="235" width="137" height="34" rx="6" fill="#EFF2FC"/>
<path d="M381.422 246.4H384.662L387.866 257.128H388.082L391.286 246.4H394.526V259H392.726V248.308H392.51L389.324 259H386.624L383.438 248.308H383.222V259H381.422V246.4ZM396.975 252.502C397.323 251.758 397.851 251.146 398.559 250.666C399.279 250.174 400.149 249.928 401.169 249.928C402.357 249.928 403.305 250.246 404.013 250.882C404.721 251.518 405.075 252.37 405.075 253.438V259H403.419V257.614H403.167C402.951 258.082 402.585 258.472 402.069 258.784C401.553 259.096 400.881 259.252 400.053 259.252C399.069 259.252 398.277 259.006 397.677 258.514C397.089 258.022 396.795 257.38 396.795 256.588C396.795 255.016 397.917 254.122 400.161 253.906L403.419 253.6V253.366C403.419 252.766 403.215 252.298 402.807 251.962C402.411 251.614 401.853 251.44 401.133 251.44C399.801 251.44 398.901 252.016 398.433 253.168L396.975 252.502ZM398.505 256.516C398.505 256.936 398.667 257.266 398.991 257.506C399.315 257.734 399.765 257.848 400.341 257.848C401.337 257.848 402.099 257.59 402.627 257.074C403.155 256.546 403.419 255.88 403.419 255.076V254.932L400.341 255.22C399.117 255.328 398.505 255.76 398.505 256.516ZM409.294 250.18V251.62H409.546C409.87 250.636 410.638 250.144 411.85 250.144H412.858V251.8H411.31C410.674 251.8 410.188 251.98 409.852 252.34C409.528 252.688 409.366 253.192 409.366 253.852V259H407.674V250.18H409.294ZM423.406 250.18L419.356 253.582L423.334 259H421.3L418.132 254.626L416.314 256.138V259H414.622V246.4H416.314V253.906H416.53L420.922 250.18H423.406ZM423.806 254.518C423.806 253.21 424.22 252.112 425.048 251.224C425.876 250.336 426.926 249.892 428.198 249.892C429.482 249.892 430.52 250.312 431.312 251.152C432.116 251.992 432.518 253.06 432.518 254.356V255.202H425.57C425.618 255.994 425.9 256.624 426.416 257.092C426.932 257.548 427.586 257.776 428.378 257.776C429.53 257.776 430.37 257.248 430.898 256.192L432.32 257.002C431.396 258.502 430.094 259.252 428.414 259.252C427.058 259.252 425.948 258.802 425.084 257.902C424.232 256.99 423.806 255.862 423.806 254.518ZM425.57 253.834H430.754C430.73 253.078 430.49 252.478 430.034 252.034C429.578 251.59 428.966 251.368 428.198 251.368C427.43 251.368 426.812 251.584 426.344 252.016C425.888 252.448 425.63 253.054 425.57 253.834ZM433.468 250.18H435.916V247.12H437.608V250.18H440.2V251.656H437.608V257.02C437.608 257.356 437.764 257.524 438.076 257.524H439.696V259H437.392C436.96 259 436.606 258.862 436.33 258.586C436.054 258.298 435.916 257.932 435.916 257.488V251.656H433.468V250.18ZM442.144 262.6V250.18H443.8V251.566H444.052C444.712 250.474 445.72 249.928 447.076 249.928C448.252 249.928 449.236 250.366 450.028 251.242C450.82 252.118 451.216 253.234 451.216 254.59C451.216 255.946 450.82 257.062 450.028 257.938C449.236 258.814 448.252 259.252 447.076 259.252C445.72 259.252 444.712 258.706 444.052 257.614H443.836V262.6H442.144ZM444.592 256.894C445.096 257.458 445.78 257.74 446.644 257.74C447.508 257.74 448.204 257.464 448.732 256.912C449.26 256.348 449.524 255.574 449.524 254.59C449.524 253.606 449.26 252.838 448.732 252.286C448.204 251.722 447.508 251.44 446.644 251.44C445.78 251.44 445.096 251.722 444.592 252.286C444.088 252.85 443.836 253.618 443.836 254.59C443.836 255.562 444.088 256.33 444.592 256.894ZM455.037 246.4V259H453.345V246.4H455.037ZM457.456 252.502C457.804 251.758 458.332 251.146 459.04 250.666C459.76 250.174 460.63 249.928 461.65 249.928C462.838 249.928 463.786 250.246 464.494 250.882C465.202 251.518 465.556 252.37 465.556 253.438V259H463.9V257.614H463.648C463.432 258.082 463.066 258.472 462.55 258.784C462.034 259.096 461.362 259.252 460.534 259.252C459.55 259.252 458.758 259.006 458.158 258.514C457.57 258.022 457.276 257.38 457.276 256.588C457.276 255.016 458.398 254.122 460.642 253.906L463.9 253.6V253.366C463.9 252.766 463.696 252.298 463.288 251.962C462.892 251.614 462.334 251.44 461.614 251.44C460.282 251.44 459.382 252.016 458.914 253.168L457.456 252.502ZM458.986 256.516C458.986 256.936 459.148 257.266 459.472 257.506C459.796 257.734 460.246 257.848 460.822 257.848C461.818 257.848 462.58 257.59 463.108 257.074C463.636 256.546 463.9 255.88 463.9 255.076V254.932L460.822 255.22C459.598 255.328 458.986 255.76 458.986 256.516ZM468.875 257.938C468.011 257.05 467.579 255.934 467.579 254.59C467.579 253.246 468.011 252.136 468.875 251.26C469.739 250.372 470.831 249.928 472.151 249.928C473.303 249.928 474.257 250.246 475.013 250.882C475.781 251.518 476.255 252.34 476.435 253.348L474.779 253.69C474.707 253.042 474.437 252.514 473.969 252.106C473.513 251.686 472.907 251.476 472.151 251.476C471.299 251.476 470.603 251.764 470.063 252.34C469.535 252.904 469.271 253.654 469.271 254.59C469.271 255.526 469.541 256.282 470.081 256.858C470.621 257.422 471.323 257.704 472.187 257.704C473.627 257.704 474.497 256.972 474.797 255.508L476.471 255.832C476.243 256.792 475.769 257.602 475.049 258.262C474.341 258.922 473.387 259.252 472.187 259.252C470.855 259.252 469.751 258.814 468.875 257.938ZM477.954 254.518C477.954 253.21 478.368 252.112 479.196 251.224C480.024 250.336 481.074 249.892 482.346 249.892C483.63 249.892 484.668 250.312 485.46 251.152C486.264 251.992 486.666 253.06 486.666 254.356V255.202H479.718C479.766 255.994 480.048 256.624 480.564 257.092C481.08 257.548 481.734 257.776 482.526 257.776C483.678 257.776 484.518 257.248 485.046 256.192L486.468 257.002C485.544 258.502 484.242 259.252 482.562 259.252C481.206 259.252 480.096 258.802 479.232 257.902C478.38 256.99 477.954 255.862 477.954 254.518ZM479.718 253.834H484.902C484.878 253.078 484.638 252.478 484.182 252.034C483.726 251.59 483.114 251.368 482.346 251.368C481.578 251.368 480.96 251.584 480.492 252.016C480.036 252.448 479.778 253.054 479.718 253.834ZM488.462 252.538C488.462 251.734 488.786 251.098 489.434 250.63C490.082 250.162 490.88 249.928 491.828 249.928C492.704 249.928 493.472 250.108 494.132 250.468C494.804 250.816 495.494 251.386 496.202 252.178L494.942 253.078C494.042 251.914 493.016 251.332 491.864 251.332C491.36 251.332 490.946 251.44 490.622 251.656C490.298 251.86 490.136 252.148 490.136 252.52C490.136 252.724 490.178 252.892 490.262 253.024C490.346 253.156 490.496 253.264 490.712 253.348C490.94 253.42 491.114 253.474 491.234 253.51C491.366 253.534 491.606 253.57 491.954 253.618L492.692 253.726C493.856 253.894 494.738 254.164 495.338 254.536C495.95 254.896 496.256 255.496 496.256 256.336C496.256 257.212 495.89 257.92 495.158 258.46C494.438 258.988 493.508 259.252 492.368 259.252C491.228 259.252 490.28 258.988 489.524 258.46C488.768 257.92 488.186 257.26 487.778 256.48L489.29 255.67C489.566 256.342 489.98 256.87 490.532 257.254C491.084 257.626 491.714 257.812 492.422 257.812C493.058 257.812 493.574 257.686 493.97 257.434C494.378 257.17 494.582 256.822 494.582 256.39C494.582 256.294 494.57 256.204 494.546 256.12C494.522 256.036 494.48 255.964 494.42 255.904C494.36 255.832 494.306 255.772 494.258 255.724C494.21 255.676 494.132 255.634 494.024 255.598C493.916 255.55 493.826 255.514 493.754 255.49C493.694 255.466 493.592 255.442 493.448 255.418C493.304 255.382 493.202 255.358 493.142 255.346C493.082 255.334 492.968 255.322 492.8 255.31C492.644 255.286 492.542 255.268 492.494 255.256L491.756 255.148C490.688 254.992 489.872 254.716 489.308 254.32C488.744 253.924 488.462 253.33 488.462 252.538Z" fill="#1B317C"/>
<rect x="332" y="110" width="152" height="34" rx="6" fill="#EFF2FC"/>
<path d="M349.024 121.4H350.824V134H349.024V121.4ZM353.562 125.18H355.218V126.332H355.47C355.986 125.468 356.79 125.036 357.882 125.036C358.986 125.036 359.802 125.528 360.33 126.512H360.582C361.062 125.528 361.914 125.036 363.138 125.036C363.954 125.036 364.656 125.306 365.244 125.846C365.832 126.386 366.126 127.094 366.126 127.97V134H364.434V128.078C364.434 127.574 364.266 127.184 363.93 126.908C363.594 126.62 363.156 126.476 362.616 126.476C362.04 126.476 361.572 126.65 361.212 126.998C360.864 127.346 360.69 127.844 360.69 128.492V134H358.998V128.078C358.998 127.574 358.842 127.184 358.53 126.908C358.218 126.62 357.798 126.476 357.27 126.476C356.682 126.476 356.196 126.65 355.812 126.998C355.44 127.346 355.254 127.844 355.254 128.492V134H353.562V125.18ZM368.719 137.6V125.18H370.375V126.566H370.627C371.287 125.474 372.295 124.928 373.651 124.928C374.827 124.928 375.811 125.366 376.603 126.242C377.395 127.118 377.791 128.234 377.791 129.59C377.791 130.946 377.395 132.062 376.603 132.938C375.811 133.814 374.827 134.252 373.651 134.252C372.295 134.252 371.287 133.706 370.627 132.614H370.411V137.6H368.719ZM371.167 131.894C371.671 132.458 372.355 132.74 373.219 132.74C374.083 132.74 374.779 132.464 375.307 131.912C375.835 131.348 376.099 130.574 376.099 129.59C376.099 128.606 375.835 127.838 375.307 127.286C374.779 126.722 374.083 126.44 373.219 126.44C372.355 126.44 371.671 126.722 371.167 127.286C370.663 127.85 370.411 128.618 370.411 129.59C370.411 130.562 370.663 131.33 371.167 131.894ZM380.622 132.938C379.77 132.062 379.344 130.946 379.344 129.59C379.344 128.234 379.77 127.118 380.622 126.242C381.486 125.366 382.572 124.928 383.88 124.928C385.188 124.928 386.268 125.366 387.12 126.242C387.984 127.118 388.416 128.234 388.416 129.59C388.416 130.946 387.984 132.062 387.12 132.938C386.268 133.814 385.188 134.252 383.88 134.252C382.572 134.252 381.486 133.814 380.622 132.938ZM381.81 127.322C381.294 127.874 381.036 128.63 381.036 129.59C381.036 130.55 381.294 131.312 381.81 131.876C382.338 132.428 383.028 132.704 383.88 132.704C384.732 132.704 385.416 132.428 385.932 131.876C386.46 131.312 386.724 130.55 386.724 129.59C386.724 128.63 386.46 127.874 385.932 127.322C385.416 126.758 384.732 126.476 383.88 126.476C383.028 126.476 382.338 126.758 381.81 127.322ZM392.162 125.18V126.62H392.414C392.738 125.636 393.506 125.144 394.718 125.144H395.726V126.8H394.178C393.542 126.8 393.056 126.98 392.72 127.34C392.396 127.688 392.234 128.192 392.234 128.852V134H390.542V125.18H392.162ZM396.745 125.18H399.193V122.12H400.885V125.18H403.477V126.656H400.885V132.02C400.885 132.356 401.041 132.524 401.353 132.524H402.973V134H400.669C400.237 134 399.883 133.862 399.607 133.586C399.331 133.298 399.193 132.932 399.193 132.488V126.656H396.745V125.18ZM404.773 130.472C404.773 129.236 405.403 128.144 406.663 127.196V126.962C406.051 126.17 405.745 125.366 405.745 124.55V124.442C405.745 123.446 406.093 122.648 406.789 122.048C407.485 121.448 408.373 121.148 409.453 121.148C410.545 121.148 411.433 121.46 412.117 122.084C412.813 122.708 413.161 123.548 413.161 124.604V125.072H411.361V124.658C411.361 124.082 411.187 123.632 410.839 123.308C410.491 122.972 410.017 122.804 409.417 122.804C408.853 122.804 408.397 122.96 408.049 123.272C407.713 123.572 407.545 123.974 407.545 124.478V124.55C407.545 124.898 407.641 125.246 407.833 125.594C408.025 125.942 408.229 126.236 408.445 126.476C408.661 126.704 409.039 127.082 409.579 127.61L411.919 129.914H412.171L414.025 126.674H415.933L413.395 131.102V131.354L416.077 134H413.701L412.423 132.758H412.171C411.223 133.766 410.101 134.27 408.805 134.27C407.605 134.27 406.633 133.91 405.889 133.19C405.145 132.47 404.773 131.564 404.773 130.472ZM406.573 130.472C406.573 131.048 406.771 131.552 407.167 131.984C407.575 132.404 408.121 132.614 408.805 132.614C409.657 132.614 410.395 132.284 411.019 131.624V131.372L408.013 128.438H407.779C406.975 128.978 406.573 129.632 406.573 130.4V130.472ZM417.872 121.4H425.936V123.056H419.672V126.854H425.432V128.51H419.672V132.344H426.008V134H417.872V121.4ZM427.528 125.18H429.544L431.92 128.42H432.136L434.512 125.18H436.528L433.216 129.464L436.672 134H434.638L432.136 130.544H431.92L429.418 134H427.384L430.84 129.464L427.528 125.18ZM438.586 137.6V125.18H440.242V126.566H440.494C441.154 125.474 442.162 124.928 443.518 124.928C444.694 124.928 445.678 125.366 446.47 126.242C447.262 127.118 447.658 128.234 447.658 129.59C447.658 130.946 447.262 132.062 446.47 132.938C445.678 133.814 444.694 134.252 443.518 134.252C442.162 134.252 441.154 133.706 440.494 132.614H440.278V137.6H438.586ZM441.034 131.894C441.538 132.458 442.222 132.74 443.086 132.74C443.95 132.74 444.646 132.464 445.174 131.912C445.702 131.348 445.966 130.574 445.966 129.59C445.966 128.606 445.702 127.838 445.174 127.286C444.646 126.722 443.95 126.44 443.086 126.44C442.222 126.44 441.538 126.722 441.034 127.286C440.53 127.85 440.278 128.618 440.278 129.59C440.278 130.562 440.53 131.33 441.034 131.894ZM450.49 132.938C449.638 132.062 449.212 130.946 449.212 129.59C449.212 128.234 449.638 127.118 450.49 126.242C451.354 125.366 452.44 124.928 453.748 124.928C455.056 124.928 456.136 125.366 456.988 126.242C457.852 127.118 458.284 128.234 458.284 129.59C458.284 130.946 457.852 132.062 456.988 132.938C456.136 133.814 455.056 134.252 453.748 134.252C452.44 134.252 451.354 133.814 450.49 132.938ZM451.678 127.322C451.162 127.874 450.904 128.63 450.904 129.59C450.904 130.55 451.162 131.312 451.678 131.876C452.206 132.428 452.896 132.704 453.748 132.704C454.6 132.704 455.284 132.428 455.8 131.876C456.328 131.312 456.592 130.55 456.592 129.59C456.592 128.63 456.328 127.874 455.8 127.322C455.284 126.758 454.6 126.476 453.748 126.476C452.896 126.476 452.206 126.758 451.678 127.322ZM462.029 125.18V126.62H462.281C462.605 125.636 463.373 125.144 464.585 125.144H465.593V126.8H464.045C463.409 126.8 462.923 126.98 462.587 127.34C462.263 127.688 462.101 128.192 462.101 128.852V134H460.409V125.18H462.029ZM466.612 125.18H469.06V122.12H470.752V125.18H473.344V126.656H470.752V132.02C470.752 132.356 470.908 132.524 471.22 132.524H472.84V134H470.536C470.104 134 469.75 133.862 469.474 133.586C469.198 133.298 469.06 132.932 469.06 132.488V126.656H466.612V125.18Z" fill="#1B317C"/>
<rect x="14" y="262" width="128" height="34" rx="6" fill="#EBF5F4"/>
<path d="M25.7165 273.4H33.7805V275.056H27.5165V278.854H33.2765V280.51H27.5165V284.344H33.8525V286H25.7165V273.4ZM36.2366 282.238V280.69H41.5646V282.238H36.2366ZM45.1999 284.938C44.3359 284.05 43.9039 282.934 43.9039 281.59C43.9039 280.246 44.3359 279.136 45.1999 278.26C46.0639 277.372 47.1559 276.928 48.4759 276.928C49.6279 276.928 50.5819 277.246 51.3379 277.882C52.1059 278.518 52.5799 279.34 52.7599 280.348L51.1039 280.69C51.0319 280.042 50.7619 279.514 50.2939 279.106C49.8379 278.686 49.2319 278.476 48.4759 278.476C47.6239 278.476 46.9279 278.764 46.3879 279.34C45.8599 279.904 45.5959 280.654 45.5959 281.59C45.5959 282.526 45.8659 283.282 46.4059 283.858C46.9459 284.422 47.6479 284.704 48.5119 284.704C49.9519 284.704 50.8219 283.972 51.1219 282.508L52.7959 282.832C52.5679 283.792 52.0939 284.602 51.3739 285.262C50.6659 285.922 49.7119 286.252 48.5119 286.252C47.1799 286.252 46.0759 285.814 45.1999 284.938ZM55.5572 284.938C54.7052 284.062 54.2792 282.946 54.2792 281.59C54.2792 280.234 54.7052 279.118 55.5572 278.242C56.4212 277.366 57.5072 276.928 58.8152 276.928C60.1232 276.928 61.2032 277.366 62.0552 278.242C62.9192 279.118 63.3512 280.234 63.3512 281.59C63.3512 282.946 62.9192 284.062 62.0552 284.938C61.2032 285.814 60.1232 286.252 58.8152 286.252C57.5072 286.252 56.4212 285.814 55.5572 284.938ZM56.7452 279.322C56.2292 279.874 55.9712 280.63 55.9712 281.59C55.9712 282.55 56.2292 283.312 56.7452 283.876C57.2732 284.428 57.9632 284.704 58.8152 284.704C59.6672 284.704 60.3512 284.428 60.8672 283.876C61.3952 283.312 61.6592 282.55 61.6592 281.59C61.6592 280.63 61.3952 279.874 60.8672 279.322C60.3512 278.758 59.6672 278.476 58.8152 278.476C57.9632 278.476 57.2732 278.758 56.7452 279.322ZM65.4766 277.18H67.1326V278.332H67.3846C67.9006 277.468 68.7046 277.036 69.7966 277.036C70.9006 277.036 71.7166 277.528 72.2446 278.512H72.4966C72.9766 277.528 73.8286 277.036 75.0526 277.036C75.8686 277.036 76.5706 277.306 77.1586 277.846C77.7466 278.386 78.0406 279.094 78.0406 279.97V286H76.3486V280.078C76.3486 279.574 76.1806 279.184 75.8446 278.908C75.5086 278.62 75.0706 278.476 74.5306 278.476C73.9546 278.476 73.4866 278.65 73.1266 278.998C72.7786 279.346 72.6046 279.844 72.6046 280.492V286H70.9126V280.078C70.9126 279.574 70.7566 279.184 70.4446 278.908C70.1326 278.62 69.7126 278.476 69.1846 278.476C68.5966 278.476 68.1106 278.65 67.7266 278.998C67.3546 279.346 67.1686 279.844 67.1686 280.492V286H65.4766V277.18ZM80.6332 277.18H82.2892V278.332H82.5412C83.0572 277.468 83.8612 277.036 84.9532 277.036C86.0572 277.036 86.8732 277.528 87.4012 278.512H87.6532C88.1332 277.528 88.9852 277.036 90.2092 277.036C91.0252 277.036 91.7272 277.306 92.3152 277.846C92.9032 278.386 93.1972 279.094 93.1972 279.97V286H91.5052V280.078C91.5052 279.574 91.3372 279.184 91.0012 278.908C90.6652 278.62 90.2272 278.476 89.6872 278.476C89.1112 278.476 88.6432 278.65 88.2832 278.998C87.9352 279.346 87.7612 279.844 87.7612 280.492V286H86.0692V280.078C86.0692 279.574 85.9132 279.184 85.6012 278.908C85.2892 278.62 84.8692 278.476 84.3412 278.476C83.7532 278.476 83.2672 278.65 82.8832 278.998C82.5112 279.346 82.3252 279.844 82.3252 280.492V286H80.6332V277.18ZM95.2138 281.518C95.2138 280.21 95.6278 279.112 96.4558 278.224C97.2838 277.336 98.3338 276.892 99.6058 276.892C100.89 276.892 101.928 277.312 102.72 278.152C103.524 278.992 103.926 280.06 103.926 281.356V282.202H96.9778C97.0258 282.994 97.3078 283.624 97.8238 284.092C98.3398 284.548 98.9938 284.776 99.7858 284.776C100.938 284.776 101.778 284.248 102.306 283.192L103.728 284.002C102.804 285.502 101.502 286.252 99.8218 286.252C98.4658 286.252 97.3558 285.802 96.4918 284.902C95.6398 283.99 95.2138 282.862 95.2138 281.518ZM96.9778 280.834H102.162C102.138 280.078 101.898 279.478 101.442 279.034C100.986 278.59 100.374 278.368 99.6058 278.368C98.8378 278.368 98.2198 278.584 97.7518 279.016C97.2958 279.448 97.0378 280.054 96.9778 280.834ZM107.592 277.18V278.62H107.844C108.168 277.636 108.936 277.144 110.148 277.144H111.156V278.8H109.608C108.972 278.8 108.486 278.98 108.15 279.34C107.826 279.688 107.664 280.192 107.664 280.852V286H105.972V277.18H107.592ZM113.182 284.938C112.318 284.05 111.886 282.934 111.886 281.59C111.886 280.246 112.318 279.136 113.182 278.26C114.046 277.372 115.138 276.928 116.458 276.928C117.61 276.928 118.564 277.246 119.32 277.882C120.088 278.518 120.562 279.34 120.742 280.348L119.086 280.69C119.014 280.042 118.744 279.514 118.276 279.106C117.82 278.686 117.214 278.476 116.458 278.476C115.606 278.476 114.91 278.764 114.37 279.34C113.842 279.904 113.578 280.654 113.578 281.59C113.578 282.526 113.848 283.282 114.388 283.858C114.928 284.422 115.63 284.704 116.494 284.704C117.934 284.704 118.804 283.972 119.104 282.508L120.778 282.832C120.55 283.792 120.076 284.602 119.356 285.262C118.648 285.922 117.694 286.252 116.494 286.252C115.162 286.252 114.058 285.814 113.182 284.938ZM122.262 281.518C122.262 280.21 122.676 279.112 123.504 278.224C124.332 277.336 125.382 276.892 126.654 276.892C127.938 276.892 128.976 277.312 129.768 278.152C130.572 278.992 130.974 280.06 130.974 281.356V282.202H124.026C124.074 282.994 124.356 283.624 124.872 284.092C125.388 284.548 126.042 284.776 126.834 284.776C127.986 284.776 128.826 284.248 129.354 283.192L130.776 284.002C129.852 285.502 128.55 286.252 126.87 286.252C125.514 286.252 124.404 285.802 123.54 284.902C122.688 283.99 122.262 282.862 122.262 281.518ZM124.026 280.834H129.21C129.186 280.078 128.946 279.478 128.49 279.034C128.034 278.59 127.422 278.368 126.654 278.368C125.886 278.368 125.268 278.584 124.8 279.016C124.344 279.448 124.086 280.054 124.026 280.834Z" fill="#407C1B"/>
<rect y="150" width="142" height="34" rx="6" fill="#F4F6FD"/>
<path d="M11.2908 166.296C11.2908 164.676 11.7228 163.416 12.5868 162.516C13.4508 161.604 14.6508 161.148 16.1868 161.148C17.6868 161.148 18.8748 161.604 19.7508 162.516C20.6388 163.428 21.0828 164.688 21.0828 166.296V169.104C21.0828 170.724 20.6508 171.99 19.7868 172.902C18.9228 173.802 17.7228 174.252 16.1868 174.252C14.6508 174.252 13.4508 173.802 12.5868 172.902C11.7228 171.99 11.2908 170.724 11.2908 169.104V166.296ZM13.0908 166.26V169.14C13.0908 171.444 14.1228 172.596 16.1868 172.596C18.2508 172.596 19.2828 171.444 19.2828 169.14V166.26C19.2828 163.956 18.2508 162.804 16.1868 162.804C14.1228 162.804 13.0908 163.956 13.0908 166.26ZM23.3805 165.18H25.0365V166.674H25.2885C25.8405 165.582 26.8305 165.036 28.2585 165.036C29.2425 165.036 30.0585 165.354 30.7065 165.99C31.3665 166.626 31.6965 167.526 31.6965 168.69V174H30.0045V168.834C30.0045 168.078 29.8065 167.502 29.4105 167.106C29.0265 166.71 28.4685 166.512 27.7365 166.512C26.9085 166.512 26.2545 166.764 25.7745 167.268C25.3065 167.772 25.0725 168.48 25.0725 169.392V174H23.3805V165.18ZM35.9752 161.4V174H34.2832V161.4H35.9752ZM38.5559 163.434C38.2919 163.17 38.1599 162.852 38.1599 162.48C38.1599 162.108 38.2919 161.796 38.5559 161.544C38.8199 161.28 39.1439 161.148 39.5279 161.148C39.9119 161.148 40.2359 161.28 40.4999 161.544C40.7639 161.796 40.8959 162.108 40.8959 162.48C40.8959 162.852 40.7639 163.17 40.4999 163.434C40.2359 163.686 39.9119 163.812 39.5279 163.812C39.1439 163.812 38.8199 163.686 38.5559 163.434ZM40.3739 165.18V174H38.6819V165.18H40.3739ZM43.0807 165.18H44.7367V166.674H44.9887C45.5407 165.582 46.5307 165.036 47.9587 165.036C48.9427 165.036 49.7587 165.354 50.4067 165.99C51.0667 166.626 51.3967 167.526 51.3967 168.69V174H49.7047V168.834C49.7047 168.078 49.5067 167.502 49.1107 167.106C48.7267 166.71 48.1687 166.512 47.4367 166.512C46.6087 166.512 45.9547 166.764 45.4747 167.268C45.0067 167.772 44.7727 168.48 44.7727 169.392V174H43.0807V165.18ZM53.4073 169.518C53.4073 168.21 53.8213 167.112 54.6493 166.224C55.4773 165.336 56.5273 164.892 57.7993 164.892C59.0833 164.892 60.1213 165.312 60.9133 166.152C61.7173 166.992 62.1193 168.06 62.1193 169.356V170.202H55.1713C55.2193 170.994 55.5013 171.624 56.0173 172.092C56.5333 172.548 57.1873 172.776 57.9793 172.776C59.1313 172.776 59.9713 172.248 60.4993 171.192L61.9213 172.002C60.9973 173.502 59.6953 174.252 58.0153 174.252C56.6593 174.252 55.5493 173.802 54.6853 172.902C53.8333 171.99 53.4073 170.862 53.4073 169.518ZM55.1713 168.834H60.3553C60.3313 168.078 60.0913 167.478 59.6353 167.034C59.1793 166.59 58.5673 166.368 57.7993 166.368C57.0313 166.368 56.4133 166.584 55.9453 167.016C55.4893 167.448 55.2313 168.054 55.1713 168.834ZM76.5818 165.18H78.2378V173.73C78.2378 174.93 77.8418 175.914 77.0498 176.682C76.2578 177.462 75.2078 177.852 73.8998 177.852C71.9438 177.852 70.4138 177.036 69.3098 175.404L70.8218 174.522C71.4578 175.734 72.4478 176.34 73.7918 176.34C74.6318 176.34 75.2978 176.112 75.7898 175.656C76.2938 175.2 76.5458 174.528 76.5458 173.64V172.398H76.3298C75.6698 173.49 74.6618 174.036 73.3058 174.036C72.1298 174.036 71.1458 173.61 70.3538 172.758C69.5618 171.906 69.1658 170.814 69.1658 169.482C69.1658 168.15 69.5618 167.058 70.3538 166.206C71.1458 165.354 72.1298 164.928 73.3058 164.928C74.6618 164.928 75.6698 165.474 76.3298 166.566H76.5818V165.18ZM71.6498 171.732C72.1778 172.26 72.8738 172.524 73.7378 172.524C74.6018 172.524 75.2858 172.254 75.7898 171.714C76.2938 171.174 76.5458 170.43 76.5458 169.482C76.5458 168.534 76.2938 167.79 75.7898 167.25C75.2858 166.71 74.6018 166.44 73.7378 166.44C72.8738 166.44 72.1778 166.71 71.6498 167.25C71.1218 167.778 70.8578 168.522 70.8578 169.482C70.8578 170.442 71.1218 171.192 71.6498 171.732ZM80.6552 167.502C81.0032 166.758 81.5312 166.146 82.2392 165.666C82.9592 165.174 83.8292 164.928 84.8492 164.928C86.0372 164.928 86.9852 165.246 87.6932 165.882C88.4012 166.518 88.7552 167.37 88.7552 168.438V174H87.0992V172.614H86.8472C86.6312 173.082 86.2652 173.472 85.7492 173.784C85.2332 174.096 84.5612 174.252 83.7332 174.252C82.7492 174.252 81.9572 174.006 81.3572 173.514C80.7692 173.022 80.4752 172.38 80.4752 171.588C80.4752 170.016 81.5972 169.122 83.8412 168.906L87.0992 168.6V168.366C87.0992 167.766 86.8952 167.298 86.4872 166.962C86.0912 166.614 85.5332 166.44 84.8132 166.44C83.4812 166.44 82.5812 167.016 82.1132 168.168L80.6552 167.502ZM82.1852 171.516C82.1852 171.936 82.3472 172.266 82.6712 172.506C82.9952 172.734 83.4452 172.848 84.0212 172.848C85.0172 172.848 85.7792 172.59 86.3072 172.074C86.8352 171.546 87.0992 170.88 87.0992 170.076V169.932L84.0212 170.22C82.7972 170.328 82.1852 170.76 82.1852 171.516ZM91.3537 165.18H93.0097V166.332H93.2617C93.7777 165.468 94.5817 165.036 95.6737 165.036C96.7777 165.036 97.5937 165.528 98.1217 166.512H98.3737C98.8537 165.528 99.7057 165.036 100.93 165.036C101.746 165.036 102.448 165.306 103.036 165.846C103.624 166.386 103.918 167.094 103.918 167.97V174H102.226V168.078C102.226 167.574 102.058 167.184 101.722 166.908C101.386 166.62 100.948 166.476 100.408 166.476C99.8317 166.476 99.3637 166.65 99.0037 166.998C98.6557 167.346 98.4817 167.844 98.4817 168.492V174H96.7897V168.078C96.7897 167.574 96.6337 167.184 96.3217 166.908C96.0097 166.62 95.5897 166.476 95.0617 166.476C94.4737 166.476 93.9877 166.65 93.6037 166.998C93.2317 167.346 93.0457 167.844 93.0457 168.492V174H91.3537V165.18ZM106.384 163.434C106.12 163.17 105.988 162.852 105.988 162.48C105.988 162.108 106.12 161.796 106.384 161.544C106.648 161.28 106.972 161.148 107.356 161.148C107.74 161.148 108.064 161.28 108.328 161.544C108.592 161.796 108.724 162.108 108.724 162.48C108.724 162.852 108.592 163.17 108.328 163.434C108.064 163.686 107.74 163.812 107.356 163.812C106.972 163.812 106.648 163.686 106.384 163.434ZM108.202 165.18V174H106.51V165.18H108.202ZM110.909 165.18H112.565V166.674H112.817C113.369 165.582 114.359 165.036 115.787 165.036C116.771 165.036 117.587 165.354 118.235 165.99C118.895 166.626 119.225 167.526 119.225 168.69V174H117.533V168.834C117.533 168.078 117.335 167.502 116.939 167.106C116.555 166.71 115.997 166.512 115.265 166.512C114.437 166.512 113.783 166.764 113.303 167.268C112.835 167.772 112.601 168.48 112.601 169.392V174H110.909V165.18ZM128.652 165.18H130.308V173.73C130.308 174.93 129.912 175.914 129.12 176.682C128.328 177.462 127.278 177.852 125.97 177.852C124.014 177.852 122.484 177.036 121.38 175.404L122.892 174.522C123.528 175.734 124.518 176.34 125.862 176.34C126.702 176.34 127.368 176.112 127.86 175.656C128.364 175.2 128.616 174.528 128.616 173.64V172.398H128.4C127.74 173.49 126.732 174.036 125.376 174.036C124.2 174.036 123.216 173.61 122.424 172.758C121.632 171.906 121.236 170.814 121.236 169.482C121.236 168.15 121.632 167.058 122.424 166.206C123.216 165.354 124.2 164.928 125.376 164.928C126.732 164.928 127.74 165.474 128.4 166.566H128.652V165.18ZM123.72 171.732C124.248 172.26 124.944 172.524 125.808 172.524C126.672 172.524 127.356 172.254 127.86 171.714C128.364 171.174 128.616 170.43 128.616 169.482C128.616 168.534 128.364 167.79 127.86 167.25C127.356 166.71 126.672 166.44 125.808 166.44C124.944 166.44 124.248 166.71 123.72 167.25C123.192 167.778 122.928 168.522 122.928 169.482C122.928 170.442 123.192 171.192 123.72 171.732Z" fill="#1B317C"/>
<rect x="142" y="81" width="96" height="34" rx="6" fill="#EDFAFC"/>
<path d="M157.6 92.148C158.956 92.148 160.06 92.496 160.912 93.192C161.776 93.888 162.208 94.86 162.208 96.108V96.684H160.408V96.252C160.408 95.46 160.15 94.848 159.634 94.416C159.13 93.984 158.452 93.768 157.6 93.768C156.892 93.768 156.31 93.942 155.854 94.29C155.41 94.626 155.188 95.07 155.188 95.622C155.188 96.174 155.38 96.594 155.764 96.882C156.148 97.17 156.802 97.416 157.726 97.62L158.554 97.8C159.79 98.064 160.726 98.484 161.362 99.06C161.998 99.636 162.316 100.44 162.316 101.472C162.316 102.612 161.896 103.53 161.056 104.226C160.216 104.91 159.136 105.252 157.816 105.252C156.28 105.252 155.062 104.838 154.162 104.01C153.262 103.182 152.812 102.072 152.812 100.68V100.104H154.612V100.536C154.612 101.532 154.888 102.3 155.44 102.84C156.004 103.368 156.802 103.632 157.834 103.632C158.65 103.632 159.298 103.434 159.778 103.038C160.27 102.642 160.516 102.138 160.516 101.526C160.516 100.95 160.324 100.512 159.94 100.212C159.556 99.912 158.944 99.672 158.104 99.492L157.276 99.312C156.016 99.036 155.05 98.628 154.378 98.088C153.718 97.548 153.388 96.732 153.388 95.64C153.388 94.596 153.79 93.756 154.594 93.12C155.398 92.472 156.4 92.148 157.6 92.148ZM163.531 96.18H165.979V93.12H167.671V96.18H170.263V97.656H167.671V103.02C167.671 103.356 167.827 103.524 168.139 103.524H169.759V105H167.455C167.023 105 166.669 104.862 166.393 104.586C166.117 104.298 165.979 103.932 165.979 103.488V97.656H163.531V96.18ZM171.92 98.502C172.268 97.758 172.796 97.146 173.504 96.666C174.224 96.174 175.094 95.928 176.114 95.928C177.302 95.928 178.25 96.246 178.958 96.882C179.666 97.518 180.02 98.37 180.02 99.438V105H178.364V103.614H178.112C177.896 104.082 177.53 104.472 177.014 104.784C176.498 105.096 175.826 105.252 174.998 105.252C174.014 105.252 173.222 105.006 172.622 104.514C172.034 104.022 171.74 103.38 171.74 102.588C171.74 101.016 172.862 100.122 175.106 99.906L178.364 99.6V99.366C178.364 98.766 178.16 98.298 177.752 97.962C177.356 97.614 176.798 97.44 176.078 97.44C174.746 97.44 173.846 98.016 173.378 99.168L171.92 98.502ZM173.45 102.516C173.45 102.936 173.612 103.266 173.936 103.506C174.26 103.734 174.71 103.848 175.286 103.848C176.282 103.848 177.044 103.59 177.572 103.074C178.1 102.546 178.364 101.88 178.364 101.076V100.932L175.286 101.22C174.062 101.328 173.45 101.76 173.45 102.516ZM184.238 96.18V97.62H184.49C184.814 96.636 185.582 96.144 186.794 96.144H187.802V97.8H186.254C185.618 97.8 185.132 97.98 184.796 98.34C184.472 98.688 184.31 99.192 184.31 99.852V105H182.618V96.18H184.238ZM188.821 96.18H191.269V93.12H192.961V96.18H195.553V97.656H192.961V103.02C192.961 103.356 193.117 103.524 193.429 103.524H195.049V105H192.745C192.313 105 191.959 104.862 191.683 104.586C191.407 104.298 191.269 103.932 191.269 103.488V97.656H188.821V96.18ZM205.706 105H204.05V103.506H203.798C203.246 104.598 202.256 105.144 200.828 105.144C199.844 105.144 199.022 104.826 198.362 104.19C197.714 103.554 197.39 102.654 197.39 101.49V96.18H199.082V101.346C199.082 102.102 199.274 102.678 199.658 103.074C200.054 103.47 200.618 103.668 201.35 103.668C202.178 103.668 202.826 103.416 203.294 102.912C203.774 102.408 204.014 101.7 204.014 100.788V96.18H205.706V105ZM208.4 108.6V96.18H210.056V97.566H210.308C210.968 96.474 211.976 95.928 213.332 95.928C214.508 95.928 215.492 96.366 216.284 97.242C217.076 98.118 217.472 99.234 217.472 100.59C217.472 101.946 217.076 103.062 216.284 103.938C215.492 104.814 214.508 105.252 213.332 105.252C211.976 105.252 210.968 104.706 210.308 103.614H210.092V108.6H208.4ZM210.848 102.894C211.352 103.458 212.036 103.74 212.9 103.74C213.764 103.74 214.46 103.464 214.988 102.912C215.516 102.348 215.78 101.574 215.78 100.59C215.78 99.606 215.516 98.838 214.988 98.286C214.46 97.722 213.764 97.44 212.9 97.44C212.036 97.44 211.352 97.722 210.848 98.286C210.344 98.85 210.092 99.618 210.092 100.59C210.092 101.562 210.344 102.33 210.848 102.894ZM219.352 98.538C219.352 97.734 219.676 97.098 220.324 96.63C220.972 96.162 221.77 95.928 222.718 95.928C223.594 95.928 224.362 96.108 225.022 96.468C225.694 96.816 226.384 97.386 227.092 98.178L225.832 99.078C224.932 97.914 223.906 97.332 222.754 97.332C222.25 97.332 221.836 97.44 221.512 97.656C221.188 97.86 221.026 98.148 221.026 98.52C221.026 98.724 221.068 98.892 221.152 99.024C221.236 99.156 221.386 99.264 221.602 99.348C221.83 99.42 222.004 99.474 222.124 99.51C222.256 99.534 222.496 99.57 222.844 99.618L223.582 99.726C224.746 99.894 225.628 100.164 226.228 100.536C226.84 100.896 227.146 101.496 227.146 102.336C227.146 103.212 226.78 103.92 226.048 104.46C225.328 104.988 224.398 105.252 223.258 105.252C222.118 105.252 221.17 104.988 220.414 104.46C219.658 103.92 219.076 103.26 218.668 102.48L220.18 101.67C220.456 102.342 220.87 102.87 221.422 103.254C221.974 103.626 222.604 103.812 223.312 103.812C223.948 103.812 224.464 103.686 224.86 103.434C225.268 103.17 225.472 102.822 225.472 102.39C225.472 102.294 225.46 102.204 225.436 102.12C225.412 102.036 225.37 101.964 225.31 101.904C225.25 101.832 225.196 101.772 225.148 101.724C225.1 101.676 225.022 101.634 224.914 101.598C224.806 101.55 224.716 101.514 224.644 101.49C224.584 101.466 224.482 101.442 224.338 101.418C224.194 101.382 224.092 101.358 224.032 101.346C223.972 101.334 223.858 101.322 223.69 101.31C223.534 101.286 223.432 101.268 223.384 101.256L222.646 101.148C221.578 100.992 220.762 100.716 220.198 100.32C219.634 99.924 219.352 99.33 219.352 98.538Z" fill="#1B7C77"/>
<rect x="302" y="313" width="114" height="34" rx="6" fill="#EFF2FC"/>
<path d="M313.561 324.4H321.625V326.056H315.361V329.854H321.121V331.51H315.361V335.344H321.697V337H313.561V324.4ZM324.081 333.238V331.69H329.409V333.238H324.081ZM339.593 324.4V337H337.901V324.4H339.593ZM341.724 332.518C341.724 331.21 342.138 330.112 342.966 329.224C343.794 328.336 344.844 327.892 346.116 327.892C347.4 327.892 348.438 328.312 349.23 329.152C350.034 329.992 350.436 331.06 350.436 332.356V333.202H343.488C343.536 333.994 343.818 334.624 344.334 335.092C344.85 335.548 345.504 335.776 346.296 335.776C347.448 335.776 348.288 335.248 348.816 334.192L350.238 335.002C349.314 336.502 348.012 337.252 346.332 337.252C344.976 337.252 343.866 336.802 343.002 335.902C342.15 334.99 341.724 333.862 341.724 332.518ZM343.488 331.834H348.672C348.648 331.078 348.408 330.478 347.952 330.034C347.496 329.59 346.884 329.368 346.116 329.368C345.348 329.368 344.73 329.584 344.262 330.016C343.806 330.448 343.548 331.054 343.488 331.834ZM352.123 330.502C352.471 329.758 352.999 329.146 353.707 328.666C354.427 328.174 355.297 327.928 356.317 327.928C357.505 327.928 358.453 328.246 359.161 328.882C359.869 329.518 360.223 330.37 360.223 331.438V337H358.567V335.614H358.315C358.099 336.082 357.733 336.472 357.217 336.784C356.701 337.096 356.029 337.252 355.201 337.252C354.217 337.252 353.425 337.006 352.825 336.514C352.237 336.022 351.943 335.38 351.943 334.588C351.943 333.016 353.065 332.122 355.309 331.906L358.567 331.6V331.366C358.567 330.766 358.363 330.298 357.955 329.962C357.559 329.614 357.001 329.44 356.281 329.44C354.949 329.44 354.049 330.016 353.581 331.168L352.123 330.502ZM353.653 334.516C353.653 334.936 353.815 335.266 354.139 335.506C354.463 335.734 354.913 335.848 355.489 335.848C356.485 335.848 357.247 335.59 357.775 335.074C358.303 334.546 358.567 333.88 358.567 333.076V332.932L355.489 333.22C354.265 333.328 353.653 333.76 353.653 334.516ZM364.442 328.18V329.62H364.694C365.018 328.636 365.786 328.144 366.998 328.144H368.006V329.8H366.458C365.822 329.8 365.336 329.98 365 330.34C364.676 330.688 364.514 331.192 364.514 331.852V337H362.822V328.18H364.442ZM369.769 328.18H371.425V329.674H371.677C372.229 328.582 373.219 328.036 374.647 328.036C375.631 328.036 376.447 328.354 377.095 328.99C377.755 329.626 378.085 330.526 378.085 331.69V337H376.393V331.834C376.393 331.078 376.195 330.502 375.799 330.106C375.415 329.71 374.857 329.512 374.125 329.512C373.297 329.512 372.643 329.764 372.163 330.268C371.695 330.772 371.461 331.48 371.461 332.392V337H369.769V328.18ZM380.546 326.434C380.282 326.17 380.15 325.852 380.15 325.48C380.15 325.108 380.282 324.796 380.546 324.544C380.81 324.28 381.134 324.148 381.518 324.148C381.902 324.148 382.226 324.28 382.49 324.544C382.754 324.796 382.886 325.108 382.886 325.48C382.886 325.852 382.754 326.17 382.49 326.434C382.226 326.686 381.902 326.812 381.518 326.812C381.134 326.812 380.81 326.686 380.546 326.434ZM382.364 328.18V337H380.672V328.18H382.364ZM385.071 328.18H386.727V329.674H386.979C387.531 328.582 388.521 328.036 389.949 328.036C390.933 328.036 391.749 328.354 392.397 328.99C393.057 329.626 393.387 330.526 393.387 331.69V337H391.695V331.834C391.695 331.078 391.497 330.502 391.101 330.106C390.717 329.71 390.159 329.512 389.427 329.512C388.599 329.512 387.945 329.764 387.465 330.268C386.997 330.772 386.763 331.48 386.763 332.392V337H385.071V328.18ZM402.813 328.18H404.469V336.73C404.469 337.93 404.073 338.914 403.281 339.682C402.489 340.462 401.439 340.852 400.131 340.852C398.175 340.852 396.645 340.036 395.541 338.404L397.053 337.522C397.689 338.734 398.679 339.34 400.023 339.34C400.863 339.34 401.529 339.112 402.021 338.656C402.525 338.2 402.777 337.528 402.777 336.64V335.398H402.561C401.901 336.49 400.893 337.036 399.537 337.036C398.361 337.036 397.377 336.61 396.585 335.758C395.793 334.906 395.397 333.814 395.397 332.482C395.397 331.15 395.793 330.058 396.585 329.206C397.377 328.354 398.361 327.928 399.537 327.928C400.893 327.928 401.901 328.474 402.561 329.566H402.813V328.18ZM397.881 334.732C398.409 335.26 399.105 335.524 399.969 335.524C400.833 335.524 401.517 335.254 402.021 334.714C402.525 334.174 402.777 333.43 402.777 332.482C402.777 331.534 402.525 330.79 402.021 330.25C401.517 329.71 400.833 329.44 399.969 329.44C399.105 329.44 398.409 329.71 397.881 330.25C397.353 330.778 397.089 331.522 397.089 332.482C397.089 333.442 397.353 334.192 397.881 334.732Z" fill="#1B317C"/>
<rect x="207" y="170" width="162" height="34" rx="6" fill="#EFF2FC"/>
<path d="M221.28 181.4H224.124L228.066 194H226.158L225.24 190.976H220.164L219.246 194H217.338L221.28 181.4ZM220.65 189.32H224.754L222.81 182.984H222.594L220.65 189.32ZM241.725 181.544C241.989 181.28 242.313 181.148 242.697 181.148C243.081 181.148 243.405 181.28 243.669 181.544C243.933 181.796 244.065 182.108 244.065 182.48C244.065 182.852 243.933 183.17 243.669 183.434C243.405 183.686 243.081 183.812 242.697 183.812C242.313 183.812 241.989 183.686 241.725 183.434C241.461 183.17 241.329 182.852 241.329 182.48C241.329 182.108 241.461 181.796 241.725 181.544ZM238.251 185.18H243.543V194H241.851V186.656H238.251V194H236.559V186.656H232.959V194H231.267V186.656H228.819V185.18H231.267V182.948C231.267 182.48 231.405 182.108 231.681 181.832C231.957 181.544 232.323 181.4 232.779 181.4H235.011V182.876H233.427C233.115 182.876 232.959 183.044 232.959 183.38V185.18H236.559V182.948C236.559 182.48 236.697 182.108 236.973 181.832C237.249 181.544 237.615 181.4 238.071 181.4H240.123V182.876H238.719C238.407 182.876 238.251 183.044 238.251 183.38V185.18ZM247.941 181.4V194H246.249V181.4H247.941ZM250.522 183.434C250.258 183.17 250.126 182.852 250.126 182.48C250.126 182.108 250.258 181.796 250.522 181.544C250.786 181.28 251.11 181.148 251.494 181.148C251.878 181.148 252.202 181.28 252.466 181.544C252.73 181.796 252.862 182.108 252.862 182.48C252.862 182.852 252.73 183.17 252.466 183.434C252.202 183.686 251.878 183.812 251.494 183.812C251.11 183.812 250.786 183.686 250.522 183.434ZM252.34 185.18V194H250.648V185.18H252.34ZM254.759 187.502C255.107 186.758 255.635 186.146 256.343 185.666C257.063 185.174 257.933 184.928 258.953 184.928C260.141 184.928 261.089 185.246 261.797 185.882C262.505 186.518 262.859 187.37 262.859 188.438V194H261.203V192.614H260.951C260.735 193.082 260.369 193.472 259.853 193.784C259.337 194.096 258.665 194.252 257.837 194.252C256.853 194.252 256.061 194.006 255.461 193.514C254.873 193.022 254.579 192.38 254.579 191.588C254.579 190.016 255.701 189.122 257.945 188.906L261.203 188.6V188.366C261.203 187.766 260.999 187.298 260.591 186.962C260.195 186.614 259.637 186.44 258.917 186.44C257.585 186.44 256.685 187.016 256.217 188.168L254.759 187.502ZM256.289 191.516C256.289 191.936 256.451 192.266 256.775 192.506C257.099 192.734 257.549 192.848 258.125 192.848C259.121 192.848 259.883 192.59 260.411 192.074C260.939 191.546 261.203 190.88 261.203 190.076V189.932L258.125 190.22C256.901 190.328 256.289 190.76 256.289 191.516ZM264.274 185.18H266.722V182.12H268.414V185.18H271.006V186.656H268.414V192.02C268.414 192.356 268.57 192.524 268.882 192.524H270.502V194H268.198C267.766 194 267.412 193.862 267.136 193.586C266.86 193.298 266.722 192.932 266.722 192.488V186.656H264.274V185.18ZM272.286 189.518C272.286 188.21 272.7 187.112 273.528 186.224C274.356 185.336 275.406 184.892 276.678 184.892C277.962 184.892 279 185.312 279.792 186.152C280.596 186.992 280.998 188.06 280.998 189.356V190.202H274.05C274.098 190.994 274.38 191.624 274.896 192.092C275.412 192.548 276.066 192.776 276.858 192.776C278.01 192.776 278.85 192.248 279.378 191.192L280.8 192.002C279.876 193.502 278.574 194.252 276.894 194.252C275.538 194.252 274.428 193.802 273.564 192.902C272.712 191.99 272.286 190.862 272.286 189.518ZM274.05 188.834H279.234C279.21 188.078 278.97 187.478 278.514 187.034C278.058 186.59 277.446 186.368 276.678 186.368C275.91 186.368 275.292 186.584 274.824 187.016C274.368 187.448 274.11 188.054 274.05 188.834ZM288.441 187.538C288.441 186.734 288.765 186.098 289.413 185.63C290.061 185.162 290.859 184.928 291.807 184.928C292.683 184.928 293.451 185.108 294.111 185.468C294.783 185.816 295.473 186.386 296.181 187.178L294.921 188.078C294.021 186.914 292.995 186.332 291.843 186.332C291.339 186.332 290.925 186.44 290.601 186.656C290.277 186.86 290.115 187.148 290.115 187.52C290.115 187.724 290.157 187.892 290.241 188.024C290.325 188.156 290.475 188.264 290.691 188.348C290.919 188.42 291.093 188.474 291.213 188.51C291.345 188.534 291.585 188.57 291.933 188.618L292.671 188.726C293.835 188.894 294.717 189.164 295.317 189.536C295.929 189.896 296.235 190.496 296.235 191.336C296.235 192.212 295.869 192.92 295.137 193.46C294.417 193.988 293.487 194.252 292.347 194.252C291.207 194.252 290.259 193.988 289.503 193.46C288.747 192.92 288.165 192.26 287.757 191.48L289.269 190.67C289.545 191.342 289.959 191.87 290.511 192.254C291.063 192.626 291.693 192.812 292.401 192.812C293.037 192.812 293.553 192.686 293.949 192.434C294.357 192.17 294.561 191.822 294.561 191.39C294.561 191.294 294.549 191.204 294.525 191.12C294.501 191.036 294.459 190.964 294.399 190.904C294.339 190.832 294.285 190.772 294.237 190.724C294.189 190.676 294.111 190.634 294.003 190.598C293.895 190.55 293.805 190.514 293.733 190.49C293.673 190.466 293.571 190.442 293.427 190.418C293.283 190.382 293.181 190.358 293.121 190.346C293.061 190.334 292.947 190.322 292.779 190.31C292.623 190.286 292.521 190.268 292.473 190.256L291.735 190.148C290.667 189.992 289.851 189.716 289.287 189.32C288.723 188.924 288.441 188.33 288.441 187.538ZM297.717 189.518C297.717 188.21 298.131 187.112 298.959 186.224C299.787 185.336 300.837 184.892 302.109 184.892C303.393 184.892 304.431 185.312 305.223 186.152C306.027 186.992 306.429 188.06 306.429 189.356V190.202H299.481C299.529 190.994 299.811 191.624 300.327 192.092C300.843 192.548 301.497 192.776 302.289 192.776C303.441 192.776 304.281 192.248 304.809 191.192L306.231 192.002C305.307 193.502 304.005 194.252 302.325 194.252C300.969 194.252 299.859 193.802 298.995 192.902C298.143 191.99 297.717 190.862 297.717 189.518ZM299.481 188.834H304.665C304.641 188.078 304.401 187.478 303.945 187.034C303.489 186.59 302.877 186.368 302.109 186.368C301.341 186.368 300.723 186.584 300.255 187.016C299.799 187.448 299.541 188.054 299.481 188.834ZM310.095 185.18V186.62H310.347C310.671 185.636 311.439 185.144 312.651 185.144H313.659V186.8H312.111C311.475 186.8 310.989 186.98 310.653 187.34C310.329 187.688 310.167 188.192 310.167 188.852V194H308.475V185.18H310.095ZM315.067 185.18H316.903L319.459 192.38H319.675L322.231 185.18H324.067L320.773 194H318.361L315.067 185.18ZM325.742 183.434C325.478 183.17 325.346 182.852 325.346 182.48C325.346 182.108 325.478 181.796 325.742 181.544C326.006 181.28 326.33 181.148 326.714 181.148C327.098 181.148 327.422 181.28 327.686 181.544C327.95 181.796 328.082 182.108 328.082 182.48C328.082 182.852 327.95 183.17 327.686 183.434C327.422 183.686 327.098 183.812 326.714 183.812C326.33 183.812 326.006 183.686 325.742 183.434ZM327.56 185.18V194H325.868V185.18H327.56ZM330.987 192.938C330.123 192.05 329.691 190.934 329.691 189.59C329.691 188.246 330.123 187.136 330.987 186.26C331.851 185.372 332.943 184.928 334.263 184.928C335.415 184.928 336.369 185.246 337.125 185.882C337.893 186.518 338.367 187.34 338.547 188.348L336.891 188.69C336.819 188.042 336.549 187.514 336.081 187.106C335.625 186.686 335.019 186.476 334.263 186.476C333.411 186.476 332.715 186.764 332.175 187.34C331.647 187.904 331.383 188.654 331.383 189.59C331.383 190.526 331.653 191.282 332.193 191.858C332.733 192.422 333.435 192.704 334.299 192.704C335.739 192.704 336.609 191.972 336.909 190.508L338.583 190.832C338.355 191.792 337.881 192.602 337.161 193.262C336.453 193.922 335.499 194.252 334.299 194.252C332.967 194.252 331.863 193.814 330.987 192.938ZM340.066 189.518C340.066 188.21 340.48 187.112 341.308 186.224C342.136 185.336 343.186 184.892 344.458 184.892C345.742 184.892 346.78 185.312 347.572 186.152C348.376 186.992 348.778 188.06 348.778 189.356V190.202H341.83C341.878 190.994 342.16 191.624 342.676 192.092C343.192 192.548 343.846 192.776 344.638 192.776C345.79 192.776 346.63 192.248 347.158 191.192L348.58 192.002C347.656 193.502 346.354 194.252 344.674 194.252C343.318 194.252 342.208 193.802 341.344 192.902C340.492 191.99 340.066 190.862 340.066 189.518ZM341.83 188.834H347.014C346.99 188.078 346.75 187.478 346.294 187.034C345.838 186.59 345.226 186.368 344.458 186.368C343.69 186.368 343.072 186.584 342.604 187.016C342.148 187.448 341.89 188.054 341.83 188.834ZM350.574 187.538C350.574 186.734 350.898 186.098 351.546 185.63C352.194 185.162 352.992 184.928 353.94 184.928C354.816 184.928 355.584 185.108 356.244 185.468C356.916 185.816 357.606 186.386 358.314 187.178L357.054 188.078C356.154 186.914 355.128 186.332 353.976 186.332C353.472 186.332 353.058 186.44 352.734 186.656C352.41 186.86 352.248 187.148 352.248 187.52C352.248 187.724 352.29 187.892 352.374 188.024C352.458 188.156 352.608 188.264 352.824 188.348C353.052 188.42 353.226 188.474 353.346 188.51C353.478 188.534 353.718 188.57 354.066 188.618L354.804 188.726C355.968 188.894 356.85 189.164 357.45 189.536C358.062 189.896 358.368 190.496 358.368 191.336C358.368 192.212 358.002 192.92 357.27 193.46C356.55 193.988 355.62 194.252 354.48 194.252C353.34 194.252 352.392 193.988 351.636 193.46C350.88 192.92 350.298 192.26 349.89 191.48L351.402 190.67C351.678 191.342 352.092 191.87 352.644 192.254C353.196 192.626 353.826 192.812 354.534 192.812C355.17 192.812 355.686 192.686 356.082 192.434C356.49 192.17 356.694 191.822 356.694 191.39C356.694 191.294 356.682 191.204 356.658 191.12C356.634 191.036 356.592 190.964 356.532 190.904C356.472 190.832 356.418 190.772 356.37 190.724C356.322 190.676 356.244 190.634 356.136 190.598C356.028 190.55 355.938 190.514 355.866 190.49C355.806 190.466 355.704 190.442 355.56 190.418C355.416 190.382 355.314 190.358 355.254 190.346C355.194 190.334 355.08 190.322 354.912 190.31C354.756 190.286 354.654 190.268 354.606 190.256L353.868 190.148C352.8 189.992 351.984 189.716 351.42 189.32C350.856 188.924 350.574 188.33 350.574 187.538Z" fill="#1B317C"/>
<rect x="159" y="240" width="173" height="34" rx="6" fill="#F6F6EF"/>
<path d="M174.638 251.148C175.994 251.148 177.098 251.496 177.95 252.192C178.814 252.888 179.246 253.86 179.246 255.108V255.684H177.446V255.252C177.446 254.46 177.188 253.848 176.672 253.416C176.168 252.984 175.49 252.768 174.638 252.768C173.93 252.768 173.348 252.942 172.892 253.29C172.448 253.626 172.226 254.07 172.226 254.622C172.226 255.174 172.418 255.594 172.802 255.882C173.186 256.17 173.84 256.416 174.764 256.62L175.592 256.8C176.828 257.064 177.764 257.484 178.4 258.06C179.036 258.636 179.354 259.44 179.354 260.472C179.354 261.612 178.934 262.53 178.094 263.226C177.254 263.91 176.174 264.252 174.854 264.252C173.318 264.252 172.1 263.838 171.2 263.01C170.3 262.182 169.85 261.072 169.85 259.68V259.104H171.65V259.536C171.65 260.532 171.926 261.3 172.478 261.84C173.042 262.368 173.84 262.632 174.872 262.632C175.688 262.632 176.336 262.434 176.816 262.038C177.308 261.642 177.554 261.138 177.554 260.526C177.554 259.95 177.362 259.512 176.978 259.212C176.594 258.912 175.982 258.672 175.142 258.492L174.314 258.312C173.054 258.036 172.088 257.628 171.416 257.088C170.756 256.548 170.426 255.732 170.426 254.64C170.426 253.596 170.828 252.756 171.632 252.12C172.436 251.472 173.438 251.148 174.638 251.148ZM181.577 251.4H183.269V256.674H183.485C184.037 255.582 185.027 255.036 186.455 255.036C187.439 255.036 188.255 255.354 188.903 255.99C189.563 256.626 189.893 257.526 189.893 258.69V264H188.201V258.834C188.201 258.078 188.003 257.502 187.607 257.106C187.223 256.71 186.665 256.512 185.933 256.512C185.105 256.512 184.451 256.764 183.971 257.268C183.503 257.772 183.269 258.48 183.269 259.392V264H181.577V251.4ZM192.354 253.434C192.09 253.17 191.958 252.852 191.958 252.48C191.958 252.108 192.09 251.796 192.354 251.544C192.618 251.28 192.942 251.148 193.326 251.148C193.71 251.148 194.034 251.28 194.298 251.544C194.562 251.796 194.694 252.108 194.694 252.48C194.694 252.852 194.562 253.17 194.298 253.434C194.034 253.686 193.71 253.812 193.326 253.812C192.942 253.812 192.618 253.686 192.354 253.434ZM194.172 255.18V264H192.48V255.18H194.172ZM196.879 267.6V255.18H198.535V256.566H198.787C199.447 255.474 200.455 254.928 201.811 254.928C202.987 254.928 203.971 255.366 204.763 256.242C205.555 257.118 205.951 258.234 205.951 259.59C205.951 260.946 205.555 262.062 204.763 262.938C203.971 263.814 202.987 264.252 201.811 264.252C200.455 264.252 199.447 263.706 198.787 262.614H198.571V267.6H196.879ZM199.327 261.894C199.831 262.458 200.515 262.74 201.379 262.74C202.243 262.74 202.939 262.464 203.467 261.912C203.995 261.348 204.259 260.574 204.259 259.59C204.259 258.606 203.995 257.838 203.467 257.286C202.939 256.722 202.243 256.44 201.379 256.44C200.515 256.44 199.831 256.722 199.327 257.286C198.823 257.85 198.571 258.618 198.571 259.59C198.571 260.562 198.823 261.33 199.327 261.894ZM208.08 267.6V255.18H209.736V256.566H209.988C210.648 255.474 211.656 254.928 213.012 254.928C214.188 254.928 215.172 255.366 215.964 256.242C216.756 257.118 217.152 258.234 217.152 259.59C217.152 260.946 216.756 262.062 215.964 262.938C215.172 263.814 214.188 264.252 213.012 264.252C211.656 264.252 210.648 263.706 209.988 262.614H209.772V267.6H208.08ZM210.528 261.894C211.032 262.458 211.716 262.74 212.58 262.74C213.444 262.74 214.14 262.464 214.668 261.912C215.196 261.348 215.46 260.574 215.46 259.59C215.46 258.606 215.196 257.838 214.668 257.286C214.14 256.722 213.444 256.44 212.58 256.44C211.716 256.44 211.032 256.722 210.528 257.286C210.024 257.85 209.772 258.618 209.772 259.59C209.772 260.562 210.024 261.33 210.528 261.894ZM219.156 253.434C218.892 253.17 218.76 252.852 218.76 252.48C218.76 252.108 218.892 251.796 219.156 251.544C219.42 251.28 219.744 251.148 220.128 251.148C220.512 251.148 220.836 251.28 221.1 251.544C221.364 251.796 221.496 252.108 221.496 252.48C221.496 252.852 221.364 253.17 221.1 253.434C220.836 253.686 220.512 253.812 220.128 253.812C219.744 253.812 219.42 253.686 219.156 253.434ZM220.974 255.18V264H219.282V255.18H220.974ZM223.68 255.18H225.336V256.674H225.588C226.14 255.582 227.13 255.036 228.558 255.036C229.542 255.036 230.358 255.354 231.006 255.99C231.666 256.626 231.996 257.526 231.996 258.69V264H230.304V258.834C230.304 258.078 230.106 257.502 229.71 257.106C229.326 256.71 228.768 256.512 228.036 256.512C227.208 256.512 226.554 256.764 226.074 257.268C225.606 257.772 225.372 258.48 225.372 259.392V264H223.68V255.18ZM241.423 255.18H243.079V263.73C243.079 264.93 242.683 265.914 241.891 266.682C241.099 267.462 240.049 267.852 238.741 267.852C236.785 267.852 235.255 267.036 234.151 265.404L235.663 264.522C236.299 265.734 237.289 266.34 238.633 266.34C239.473 266.34 240.139 266.112 240.631 265.656C241.135 265.2 241.387 264.528 241.387 263.64V262.398H241.171C240.511 263.49 239.503 264.036 238.147 264.036C236.971 264.036 235.987 263.61 235.195 262.758C234.403 261.906 234.007 260.814 234.007 259.482C234.007 258.15 234.403 257.058 235.195 256.206C235.987 255.354 236.971 254.928 238.147 254.928C239.503 254.928 240.511 255.474 241.171 256.566H241.423V255.18ZM236.491 261.732C237.019 262.26 237.715 262.524 238.579 262.524C239.443 262.524 240.127 262.254 240.631 261.714C241.135 261.174 241.387 260.43 241.387 259.482C241.387 258.534 241.135 257.79 240.631 257.25C240.127 256.71 239.443 256.44 238.579 256.44C237.715 256.44 237.019 256.71 236.491 257.25C235.963 257.778 235.699 258.522 235.699 259.482C235.699 260.442 235.963 261.192 236.491 261.732ZM251.181 257.538C251.181 256.734 251.505 256.098 252.153 255.63C252.801 255.162 253.599 254.928 254.547 254.928C255.423 254.928 256.191 255.108 256.851 255.468C257.523 255.816 258.213 256.386 258.921 257.178L257.661 258.078C256.761 256.914 255.735 256.332 254.583 256.332C254.079 256.332 253.665 256.44 253.341 256.656C253.017 256.86 252.855 257.148 252.855 257.52C252.855 257.724 252.897 257.892 252.981 258.024C253.065 258.156 253.215 258.264 253.431 258.348C253.659 258.42 253.833 258.474 253.953 258.51C254.085 258.534 254.325 258.57 254.673 258.618L255.411 258.726C256.575 258.894 257.457 259.164 258.057 259.536C258.669 259.896 258.975 260.496 258.975 261.336C258.975 262.212 258.609 262.92 257.877 263.46C257.157 263.988 256.227 264.252 255.087 264.252C253.947 264.252 252.999 263.988 252.243 263.46C251.487 262.92 250.905 262.26 250.497 261.48L252.009 260.67C252.285 261.342 252.699 261.87 253.251 262.254C253.803 262.626 254.433 262.812 255.141 262.812C255.777 262.812 256.293 262.686 256.689 262.434C257.097 262.17 257.301 261.822 257.301 261.39C257.301 261.294 257.289 261.204 257.265 261.12C257.241 261.036 257.199 260.964 257.139 260.904C257.079 260.832 257.025 260.772 256.977 260.724C256.929 260.676 256.851 260.634 256.743 260.598C256.635 260.55 256.545 260.514 256.473 260.49C256.413 260.466 256.311 260.442 256.167 260.418C256.023 260.382 255.921 260.358 255.861 260.346C255.801 260.334 255.687 260.322 255.519 260.31C255.363 260.286 255.261 260.268 255.213 260.256L254.475 260.148C253.407 259.992 252.591 259.716 252.027 259.32C251.463 258.924 251.181 258.33 251.181 257.538ZM260.457 259.518C260.457 258.21 260.871 257.112 261.699 256.224C262.527 255.336 263.577 254.892 264.849 254.892C266.133 254.892 267.171 255.312 267.963 256.152C268.767 256.992 269.169 258.06 269.169 259.356V260.202H262.221C262.269 260.994 262.551 261.624 263.067 262.092C263.583 262.548 264.237 262.776 265.029 262.776C266.181 262.776 267.021 262.248 267.549 261.192L268.971 262.002C268.047 263.502 266.745 264.252 265.065 264.252C263.709 264.252 262.599 263.802 261.735 262.902C260.883 261.99 260.457 260.862 260.457 259.518ZM262.221 258.834H267.405C267.381 258.078 267.141 257.478 266.685 257.034C266.229 256.59 265.617 256.368 264.849 256.368C264.081 256.368 263.463 256.584 262.995 257.016C262.539 257.448 262.281 258.054 262.221 258.834ZM272.835 255.18V256.62H273.087C273.411 255.636 274.179 255.144 275.391 255.144H276.399V256.8H274.851C274.215 256.8 273.729 256.98 273.393 257.34C273.069 257.688 272.907 258.192 272.907 258.852V264H271.215V255.18H272.835ZM277.808 255.18H279.644L282.2 262.38H282.416L284.972 255.18H286.808L283.514 264H281.102L277.808 255.18ZM288.482 253.434C288.218 253.17 288.086 252.852 288.086 252.48C288.086 252.108 288.218 251.796 288.482 251.544C288.746 251.28 289.07 251.148 289.454 251.148C289.838 251.148 290.162 251.28 290.426 251.544C290.69 251.796 290.822 252.108 290.822 252.48C290.822 252.852 290.69 253.17 290.426 253.434C290.162 253.686 289.838 253.812 289.454 253.812C289.07 253.812 288.746 253.686 288.482 253.434ZM290.3 255.18V264H288.608V255.18H290.3ZM293.727 262.938C292.863 262.05 292.431 260.934 292.431 259.59C292.431 258.246 292.863 257.136 293.727 256.26C294.591 255.372 295.683 254.928 297.003 254.928C298.155 254.928 299.109 255.246 299.865 255.882C300.633 256.518 301.107 257.34 301.287 258.348L299.631 258.69C299.559 258.042 299.289 257.514 298.821 257.106C298.365 256.686 297.759 256.476 297.003 256.476C296.151 256.476 295.455 256.764 294.915 257.34C294.387 257.904 294.123 258.654 294.123 259.59C294.123 260.526 294.393 261.282 294.933 261.858C295.473 262.422 296.175 262.704 297.039 262.704C298.479 262.704 299.349 261.972 299.649 260.508L301.323 260.832C301.095 261.792 300.621 262.602 299.901 263.262C299.193 263.922 298.239 264.252 297.039 264.252C295.707 264.252 294.603 263.814 293.727 262.938ZM302.806 259.518C302.806 258.21 303.22 257.112 304.048 256.224C304.876 255.336 305.926 254.892 307.198 254.892C308.482 254.892 309.52 255.312 310.312 256.152C311.116 256.992 311.518 258.06 311.518 259.356V260.202H304.57C304.618 260.994 304.9 261.624 305.416 262.092C305.932 262.548 306.586 262.776 307.378 262.776C308.53 262.776 309.37 262.248 309.898 261.192L311.32 262.002C310.396 263.502 309.094 264.252 307.414 264.252C306.058 264.252 304.948 263.802 304.084 262.902C303.232 261.99 302.806 260.862 302.806 259.518ZM304.57 258.834H309.754C309.73 258.078 309.49 257.478 309.034 257.034C308.578 256.59 307.966 256.368 307.198 256.368C306.43 256.368 305.812 256.584 305.344 257.016C304.888 257.448 304.63 258.054 304.57 258.834ZM313.314 257.538C313.314 256.734 313.638 256.098 314.286 255.63C314.934 255.162 315.732 254.928 316.68 254.928C317.556 254.928 318.324 255.108 318.984 255.468C319.656 255.816 320.346 256.386 321.054 257.178L319.794 258.078C318.894 256.914 317.868 256.332 316.716 256.332C316.212 256.332 315.798 256.44 315.474 256.656C315.15 256.86 314.988 257.148 314.988 257.52C314.988 257.724 315.03 257.892 315.114 258.024C315.198 258.156 315.348 258.264 315.564 258.348C315.792 258.42 315.966 258.474 316.086 258.51C316.218 258.534 316.458 258.57 316.806 258.618L317.544 258.726C318.708 258.894 319.59 259.164 320.19 259.536C320.802 259.896 321.108 260.496 321.108 261.336C321.108 262.212 320.742 262.92 320.01 263.46C319.29 263.988 318.36 264.252 317.22 264.252C316.08 264.252 315.132 263.988 314.376 263.46C313.62 262.92 313.038 262.26 312.63 261.48L314.142 260.67C314.418 261.342 314.832 261.87 315.384 262.254C315.936 262.626 316.566 262.812 317.274 262.812C317.91 262.812 318.426 262.686 318.822 262.434C319.23 262.17 319.434 261.822 319.434 261.39C319.434 261.294 319.422 261.204 319.398 261.12C319.374 261.036 319.332 260.964 319.272 260.904C319.212 260.832 319.158 260.772 319.11 260.724C319.062 260.676 318.984 260.634 318.876 260.598C318.768 260.55 318.678 260.514 318.606 260.49C318.546 260.466 318.444 260.442 318.3 260.418C318.156 260.382 318.054 260.358 317.994 260.346C317.934 260.334 317.82 260.322 317.652 260.31C317.496 260.286 317.394 260.268 317.346 260.256L316.608 260.148C315.54 259.992 314.724 259.716 314.16 259.32C313.596 258.924 313.314 258.33 313.314 257.538Z" fill="#7C611B"/>
<rect x="112" y="347" width="156" height="34" rx="6" fill="#EDEDFC"/>
<path d="M122.47 358.4H132.406V360.056H128.338V371H126.538V360.056H122.47V358.4ZM134.076 360.434C133.812 360.17 133.68 359.852 133.68 359.48C133.68 359.108 133.812 358.796 134.076 358.544C134.34 358.28 134.664 358.148 135.048 358.148C135.432 358.148 135.756 358.28 136.02 358.544C136.284 358.796 136.416 359.108 136.416 359.48C136.416 359.852 136.284 360.17 136.02 360.434C135.756 360.686 135.432 360.812 135.048 360.812C134.664 360.812 134.34 360.686 134.076 360.434ZM135.894 362.18V371H134.202V362.18H135.894ZM139.321 369.938C138.457 369.05 138.025 367.934 138.025 366.59C138.025 365.246 138.457 364.136 139.321 363.26C140.185 362.372 141.277 361.928 142.597 361.928C143.749 361.928 144.703 362.246 145.459 362.882C146.227 363.518 146.701 364.34 146.881 365.348L145.225 365.69C145.153 365.042 144.883 364.514 144.415 364.106C143.959 363.686 143.353 363.476 142.597 363.476C141.745 363.476 141.049 363.764 140.509 364.34C139.981 364.904 139.717 365.654 139.717 366.59C139.717 367.526 139.987 368.282 140.527 368.858C141.067 369.422 141.769 369.704 142.633 369.704C144.073 369.704 144.943 368.972 145.243 367.508L146.917 367.832C146.689 368.792 146.215 369.602 145.495 370.262C144.787 370.922 143.833 371.252 142.633 371.252C141.301 371.252 140.197 370.814 139.321 369.938ZM157.761 362.18L153.711 365.582L157.689 371H155.655L152.487 366.626L150.669 368.138V371H148.977V358.4H150.669V365.906H150.885L155.277 362.18H157.761ZM158.161 366.518C158.161 365.21 158.575 364.112 159.403 363.224C160.231 362.336 161.281 361.892 162.553 361.892C163.837 361.892 164.875 362.312 165.667 363.152C166.471 363.992 166.873 365.06 166.873 366.356V367.202H159.925C159.973 367.994 160.255 368.624 160.771 369.092C161.287 369.548 161.941 369.776 162.733 369.776C163.885 369.776 164.725 369.248 165.253 368.192L166.675 369.002C165.751 370.502 164.449 371.252 162.769 371.252C161.413 371.252 160.303 370.802 159.439 369.902C158.587 368.99 158.161 367.862 158.161 366.518ZM159.925 365.834H165.109C165.085 365.078 164.845 364.478 164.389 364.034C163.933 363.59 163.321 363.368 162.553 363.368C161.785 363.368 161.167 363.584 160.699 364.016C160.243 364.448 159.985 365.054 159.925 365.834ZM167.823 362.18H170.271V359.12H171.963V362.18H174.555V363.656H171.963V369.02C171.963 369.356 172.119 369.524 172.431 369.524H174.051V371H171.747C171.315 371 170.961 370.862 170.685 370.586C170.409 370.298 170.271 369.932 170.271 369.488V363.656H167.823V362.18ZM181.787 364.502C182.135 363.758 182.663 363.146 183.371 362.666C184.091 362.174 184.961 361.928 185.981 361.928C187.169 361.928 188.117 362.246 188.825 362.882C189.533 363.518 189.887 364.37 189.887 365.438V371H188.231V369.614H187.979C187.763 370.082 187.397 370.472 186.881 370.784C186.365 371.096 185.693 371.252 184.865 371.252C183.881 371.252 183.089 371.006 182.489 370.514C181.901 370.022 181.607 369.38 181.607 368.588C181.607 367.016 182.729 366.122 184.973 365.906L188.231 365.6V365.366C188.231 364.766 188.027 364.298 187.619 363.962C187.223 363.614 186.665 363.44 185.945 363.44C184.613 363.44 183.713 364.016 183.245 365.168L181.787 364.502ZM183.317 368.516C183.317 368.936 183.479 369.266 183.803 369.506C184.127 369.734 184.577 369.848 185.153 369.848C186.149 369.848 186.911 369.59 187.439 369.074C187.967 368.546 188.231 367.88 188.231 367.076V366.932L185.153 367.22C183.929 367.328 183.317 367.76 183.317 368.516ZM199.326 362.18H200.982V370.73C200.982 371.93 200.586 372.914 199.794 373.682C199.002 374.462 197.952 374.852 196.644 374.852C194.688 374.852 193.158 374.036 192.054 372.404L193.566 371.522C194.202 372.734 195.192 373.34 196.536 373.34C197.376 373.34 198.042 373.112 198.534 372.656C199.038 372.2 199.29 371.528 199.29 370.64V369.398H199.074C198.414 370.49 197.406 371.036 196.05 371.036C194.874 371.036 193.89 370.61 193.098 369.758C192.306 368.906 191.91 367.814 191.91 366.482C191.91 365.15 192.306 364.058 193.098 363.206C193.89 362.354 194.874 361.928 196.05 361.928C197.406 361.928 198.414 362.474 199.074 363.566H199.326V362.18ZM194.394 368.732C194.922 369.26 195.618 369.524 196.482 369.524C197.346 369.524 198.03 369.254 198.534 368.714C199.038 368.174 199.29 367.43 199.29 366.482C199.29 365.534 199.038 364.79 198.534 364.25C198.03 363.71 197.346 363.44 196.482 363.44C195.618 363.44 194.922 363.71 194.394 364.25C193.866 364.778 193.602 365.522 193.602 366.482C193.602 367.442 193.866 368.192 194.394 368.732ZM203.111 366.518C203.111 365.21 203.525 364.112 204.353 363.224C205.181 362.336 206.231 361.892 207.503 361.892C208.787 361.892 209.825 362.312 210.617 363.152C211.421 363.992 211.823 365.06 211.823 366.356V367.202H204.875C204.923 367.994 205.205 368.624 205.721 369.092C206.237 369.548 206.891 369.776 207.683 369.776C208.835 369.776 209.675 369.248 210.203 368.192L211.625 369.002C210.701 370.502 209.399 371.252 207.719 371.252C206.363 371.252 205.253 370.802 204.389 369.902C203.537 368.99 203.111 367.862 203.111 366.518ZM204.875 365.834H210.059C210.035 365.078 209.795 364.478 209.339 364.034C208.883 363.59 208.271 363.368 207.503 363.368C206.735 363.368 206.117 363.584 205.649 364.016C205.193 364.448 204.935 365.054 204.875 365.834ZM213.869 362.18H215.525V363.674H215.777C216.329 362.582 217.319 362.036 218.747 362.036C219.731 362.036 220.547 362.354 221.195 362.99C221.855 363.626 222.185 364.526 222.185 365.69V371H220.493V365.834C220.493 365.078 220.295 364.502 219.899 364.106C219.515 363.71 218.957 363.512 218.225 363.512C217.397 363.512 216.743 363.764 216.263 364.268C215.795 364.772 215.561 365.48 215.561 366.392V371H213.869V362.18ZM225.492 369.938C224.628 369.05 224.196 367.934 224.196 366.59C224.196 365.246 224.628 364.136 225.492 363.26C226.356 362.372 227.448 361.928 228.768 361.928C229.92 361.928 230.874 362.246 231.63 362.882C232.398 363.518 232.872 364.34 233.052 365.348L231.396 365.69C231.324 365.042 231.054 364.514 230.586 364.106C230.13 363.686 229.524 363.476 228.768 363.476C227.916 363.476 227.22 363.764 226.68 364.34C226.152 364.904 225.888 365.654 225.888 366.59C225.888 367.526 226.158 368.282 226.698 368.858C227.238 369.422 227.94 369.704 228.804 369.704C230.244 369.704 231.114 368.972 231.414 367.508L233.088 367.832C232.86 368.792 232.386 369.602 231.666 370.262C230.958 370.922 230.004 371.252 228.804 371.252C227.472 371.252 226.368 370.814 225.492 369.938ZM235.021 360.434C234.757 360.17 234.625 359.852 234.625 359.48C234.625 359.108 234.757 358.796 235.021 358.544C235.285 358.28 235.609 358.148 235.993 358.148C236.377 358.148 236.701 358.28 236.965 358.544C237.229 358.796 237.361 359.108 237.361 359.48C237.361 359.852 237.229 360.17 236.965 360.434C236.701 360.686 236.377 360.812 235.993 360.812C235.609 360.812 235.285 360.686 235.021 360.434ZM236.839 362.18V371H235.147V362.18H236.839ZM238.97 366.518C238.97 365.21 239.384 364.112 240.212 363.224C241.04 362.336 242.09 361.892 243.362 361.892C244.646 361.892 245.684 362.312 246.476 363.152C247.28 363.992 247.682 365.06 247.682 366.356V367.202H240.734C240.782 367.994 241.064 368.624 241.58 369.092C242.096 369.548 242.75 369.776 243.542 369.776C244.694 369.776 245.534 369.248 246.062 368.192L247.484 369.002C246.56 370.502 245.258 371.252 243.578 371.252C242.222 371.252 241.112 370.802 240.248 369.902C239.396 368.99 238.97 367.862 238.97 366.518ZM240.734 365.834H245.918C245.894 365.078 245.654 364.478 245.198 364.034C244.742 363.59 244.13 363.368 243.362 363.368C242.594 363.368 241.976 363.584 241.508 364.016C241.052 364.448 240.794 365.054 240.734 365.834ZM249.478 364.538C249.478 363.734 249.802 363.098 250.45 362.63C251.098 362.162 251.896 361.928 252.844 361.928C253.72 361.928 254.488 362.108 255.148 362.468C255.82 362.816 256.51 363.386 257.218 364.178L255.958 365.078C255.058 363.914 254.032 363.332 252.88 363.332C252.376 363.332 251.962 363.44 251.638 363.656C251.314 363.86 251.152 364.148 251.152 364.52C251.152 364.724 251.194 364.892 251.278 365.024C251.362 365.156 251.512 365.264 251.728 365.348C251.956 365.42 252.13 365.474 252.25 365.51C252.382 365.534 252.622 365.57 252.97 365.618L253.708 365.726C254.872 365.894 255.754 366.164 256.354 366.536C256.966 366.896 257.272 367.496 257.272 368.336C257.272 369.212 256.906 369.92 256.174 370.46C255.454 370.988 254.524 371.252 253.384 371.252C252.244 371.252 251.296 370.988 250.54 370.46C249.784 369.92 249.202 369.26 248.794 368.48L250.306 367.67C250.582 368.342 250.996 368.87 251.548 369.254C252.1 369.626 252.73 369.812 253.438 369.812C254.074 369.812 254.59 369.686 254.986 369.434C255.394 369.17 255.598 368.822 255.598 368.39C255.598 368.294 255.586 368.204 255.562 368.12C255.538 368.036 255.496 367.964 255.436 367.904C255.376 367.832 255.322 367.772 255.274 367.724C255.226 367.676 255.148 367.634 255.04 367.598C254.932 367.55 254.842 367.514 254.77 367.49C254.71 367.466 254.608 367.442 254.464 367.418C254.32 367.382 254.218 367.358 254.158 367.346C254.098 367.334 253.984 367.322 253.816 367.31C253.66 367.286 253.558 367.268 253.51 367.256L252.772 367.148C251.704 366.992 250.888 366.716 250.324 366.32C249.76 365.924 249.478 365.33 249.478 364.538Z" fill="#521B7C"/>
</svg>
