<svg width="65" height="55" viewBox="0 0 65 55" fill="none" xmlns="http://www.w3.org/2000/svg">
<rect width="65" height="55" rx="9" fill="#F2EBB0"/>
<path d="M48.7498 24.2644H31.9335C30.5924 20.4985 26.9932 17.7939 22.75 17.7939C17.3641 17.7939 13 22.1412 13 27.4998C13 32.8584 17.3641 37.2057 22.75 37.2057C26.9932 37.2057 30.5924 34.5012 31.9335 30.7353H35.7502V33.9703H38.9998V30.7353H42.25V33.9703H45.5002V30.7353H48.7498V33.9703H52V27.4998C51.9985 25.713 50.5448 24.2644 48.7498 24.2644ZM20.3125 29.9263C18.9665 29.9263 17.875 28.8392 17.875 27.4998C17.875 26.1604 18.9665 25.0734 20.3125 25.0734C21.6585 25.0734 22.75 26.1604 22.75 27.4998C22.75 28.8392 21.6585 29.9263 20.3125 29.9263Z" fill="#796D00"/>
</svg>
