<svg width="65" height="54" viewBox="0 0 65 54" fill="none" xmlns="http://www.w3.org/2000/svg">
<rect width="65" height="54" rx="9" fill="#C1F2B0"/>
<path d="M47.998 33.5678C47.9549 32.1747 47.6614 31.3737 47.0461 30.9704C45.013 29.6377 41.5565 31.1556 39.4176 32.3271C39.0088 31.7626 38.3067 31.4547 37.5702 31.5535L34.7112 31.9393C34.2218 32.0054 33.714 31.9319 33.2428 31.7269C32.6923 31.4874 31.6675 31.0417 30.0229 31.2321C27.069 31.5743 27.1531 31.8193 26.3393 32.2166C26.1523 32.3021 25.5128 32.4074 24.7784 32.4834C24.455 31.7433 23.724 31.2253 22.8755 31.2253H19.0805C17.9333 31.2253 17 32.1716 17 33.3347V42.8906C17 44.0538 17.9333 45 19.0805 45H22.8755C23.8308 45 24.6373 44.3436 24.8805 43.4524L26.4318 43.1663C26.8685 43.1012 26.3253 43.0965 35.6599 43.7444C38.2588 43.9248 40.7575 42.9179 42.4024 41.1896C47.5857 35.8122 46.7101 36.7182 46.8115 36.6153C47.6113 35.774 48.0328 34.6917 47.998 33.5678ZM22.8755 42.8906H19.0805V33.3348H22.8755V42.8906H22.8755ZM45.316 35.1489C40.1327 40.5262 41.0087 39.6198 40.9073 39.7226C39.6388 41.0571 37.73 41.7739 35.8019 41.6401L27.4151 41.0584C26.512 40.9539 25.9667 41.1083 24.956 41.2946V34.5877C25.7618 34.5075 26.7355 34.3645 27.2402 34.118C28.0131 33.7409 27.7391 33.6199 30.259 33.3281C31.355 33.201 31.9973 33.4806 32.4225 33.6656C33.2383 34.0205 34.1245 34.1465 34.9858 34.0304L37.7562 33.6565C37.8567 34.0086 37.8809 34.4858 37.7494 34.7826C37.6828 34.933 37.5833 35.0242 37.4166 35.0873C36.2637 35.5244 36.2637 35.5244 31.3156 36.2495C30.747 36.3328 30.3527 36.8677 30.4349 37.4442C30.5173 38.0226 31.0469 38.4205 31.6132 38.3371C36.6858 37.5939 36.7827 37.5797 38.1453 37.063C39.1709 36.6742 39.8524 35.7622 39.9141 34.4562C41.8366 33.3229 44.6714 32.1475 45.8004 32.6773C45.8379 32.7983 45.9014 33.0799 45.9186 33.6339C45.9356 34.1831 45.7216 34.721 45.316 35.1489Z" fill="#1C6D00"/>
<path d="M34.7537 29.1094C40.2219 29.1094 44.6705 24.5989 44.6705 19.0547C44.6705 13.5105 40.2219 9 34.7537 9C29.2855 9 24.8369 13.5105 24.8369 19.0547C24.8369 24.5989 29.2855 29.1094 34.7537 29.1094ZM34.7537 11.1094C39.0748 11.1094 42.5901 14.6736 42.5901 19.0547C42.5901 23.4358 39.0748 27 34.7537 27C30.4327 27 26.9174 23.4358 26.9174 19.0547C26.9174 14.6736 30.4327 11.1094 34.7537 11.1094Z" fill="#1C6D00"/>
<path d="M32.0842 23.5327C32.7069 23.9458 33.1817 24.1377 33.7219 24.2215V24.4074C33.7219 24.9899 34.1876 25.4621 34.7621 25.4621C35.3367 25.4621 35.8023 24.9899 35.8023 24.4074V24.1083C37.0143 23.6955 37.789 22.6009 37.9681 21.5201C38.2155 20.028 37.4184 18.6804 35.9848 18.1667C35.2578 17.9061 34.4555 17.5929 34.019 17.2457C33.952 17.1925 33.9024 17.0194 33.9426 16.8036C33.9625 16.6961 34.0549 16.3371 34.4042 16.2304C35.2923 15.9592 35.6904 16.4618 36.0411 16.6478C36.5503 16.9177 37.1788 16.7181 37.4449 16.2018C37.7046 15.6982 37.5234 15.0792 37.0416 14.7988C36.685 14.5533 36.3526 14.3275 35.8025 14.1708V14.0078C35.8025 13.4253 35.3367 12.9531 34.7623 12.9531C34.1878 12.9531 33.722 13.4253 33.722 14.0078V14.2391C31.7095 14.927 31.2183 17.6993 32.7351 18.9056C33.4068 19.4397 34.3607 19.822 35.2915 20.1555C35.9104 20.3773 35.9729 20.8299 35.9165 21.1705C35.8371 21.6492 35.4399 22.1665 34.7553 22.171C33.9905 22.1776 33.7911 22.1444 33.2231 21.7676C32.7423 21.4487 32.0977 21.5853 31.7831 22.0729C31.4686 22.5601 31.6034 23.2138 32.0842 23.5327Z" fill="#1C6D00"/>
</svg>
