<svg width="75" height="65" viewBox="0 0 75 65" fill="none" xmlns="http://www.w3.org/2000/svg">
<rect width="75" height="65" rx="9" fill="#F2EBB0"/>
<path d="M19.6144 21.2676C19.5009 21.2669 19.3883 21.2892 19.2832 21.3332C19.1782 21.3771 19.0827 21.4418 19.0023 21.5236C18.9219 21.6054 18.8583 21.7027 18.815 21.8097C18.7716 21.9167 18.7496 22.0315 18.75 22.1472V23.9014C18.7505 24.0166 18.7732 24.1306 18.8169 24.2368C18.8606 24.3431 18.9244 24.4395 19.0047 24.5206C19.085 24.6016 19.1802 24.6658 19.2848 24.7093C19.3894 24.7528 19.5014 24.7749 19.6144 24.7742H53.9911C54.2178 24.7733 54.435 24.681 54.5954 24.5175C54.7557 24.3541 54.8462 24.1326 54.8471 23.9014V22.1472C54.848 21.9149 54.7583 21.6916 54.5978 21.5267C54.4372 21.3617 54.219 21.2685 53.9911 21.2676H19.6144Z" fill="#796D00"/>
<path d="M36.7552 13.3827C36.6996 13.3863 36.6445 13.3955 36.5907 13.41L22.8424 16.9149C22.4601 17.0114 22.191 17.3605 22.1895 17.7621V19.5162H51.4082V17.7621C51.4074 17.3625 51.1416 17.0141 50.762 16.9149L37.0086 13.41C36.926 13.3881 36.8405 13.3789 36.7552 13.3827Z" fill="#796D00"/>
<path d="M22.1895 26.5249V44.9256H29.0661V26.5249H22.1895Z" fill="#796D00"/>
<path d="M33.3613 26.5249V44.9256H40.238V26.5249H33.3613Z" fill="#796D00"/>
<path d="M44.5312 26.5249V44.9256H51.4079V26.5249H44.5312Z" fill="#796D00"/>
<path d="M19.6144 46.6787C19.5009 46.6781 19.3883 46.7003 19.2832 46.7442C19.1782 46.7882 19.0827 46.8529 19.0023 46.9347C18.9219 47.0165 18.8583 47.1138 18.815 47.2208C18.7716 47.3279 18.7496 47.4426 18.75 47.5584V49.3125C18.7505 49.4277 18.7732 49.5417 18.8169 49.6479C18.8606 49.7542 18.9244 49.8506 19.0047 49.9316C19.085 50.0127 19.1802 50.0769 19.2848 50.1204C19.3894 50.1639 19.5014 50.186 19.6144 50.1853H53.9911C54.2178 50.1844 54.4351 50.0922 54.5954 49.9287C54.7557 49.7652 54.8462 49.5437 54.8471 49.3125V47.5584C54.848 47.326 54.7583 47.1027 54.5978 46.9378C54.4372 46.7728 54.219 46.6797 53.9911 46.6787H19.6144Z" fill="#796D00"/>
</svg>
