<svg width="32" height="38" viewBox="0 0 32 38" fill="none" xmlns="http://www.w3.org/2000/svg">
<g filter="url(#filter0_f)">
<ellipse cx="16" cy="33.313" rx="6" ry="1.68704" fill="black" fill-opacity="0.5"/>
</g>
<path d="M16 0.675293C9.4 0.675293 4 5.94476 4 12.4303C4 14.9974 4.86667 17.4295 6.4 19.4562L15.4667 31.4814C15.6667 31.7517 16.1333 31.8192 16.4 31.6165C16.4667 31.549 16.4667 31.549 16.5333 31.4814L25.6 19.4562C27.1333 17.4295 28 14.9974 28 12.4303C28 5.94476 22.6 0.675293 16 0.675293ZM15.0667 17.0242C12.5333 16.4837 10.8667 14.0516 11.4 11.4845C11.9333 8.91728 14.3333 7.22835 16.8667 7.76881C18.7333 8.17415 20.2 9.59286 20.5333 11.4845C21 14.0516 19.3333 16.5513 16.8667 17.0242C16.2667 17.1593 15.6667 17.1593 15.0667 17.0242Z" fill="url(#paint0_linear)"/>
<defs>
<filter id="filter0_f" x="7" y="28.626" width="18" height="9.37407" filterUnits="userSpaceOnUse" color-interpolation-filters="sRGB">
<feFlood flood-opacity="0" result="BackgroundImageFix"/>
<feBlend mode="normal" in="SourceGraphic" in2="BackgroundImageFix" result="shape"/>
<feGaussianBlur stdDeviation="1.5" result="effect1_foregroundBlur"/>
</filter>
<linearGradient id="paint0_linear" x1="28" y1="1.01324" x2="15.722" y2="31.6229" gradientUnits="userSpaceOnUse">
<stop stop-color="#0C2EA4"/>
<stop offset="1" stop-color="#2550E5"/>
</linearGradient>
</defs>
</svg>
