<svg width="64" height="52" viewBox="0 0 64 52" fill="none" xmlns="http://www.w3.org/2000/svg">
<rect width="64" height="52" rx="9" fill="#F2D0B0"/>
<path fill-rule="evenodd" clip-rule="evenodd" d="M31.5347 24.1586L39.157 24.2042L30.1311 36.914L32.0463 26.0962L24.4779 26.051L33.443 14.3705L31.5347 24.1586ZM34.3378 10.4869L34.3378 10L34.3398 10L34.3418 10L34.3459 10.0001L34.3545 10.0003C34.3604 10.0005 34.3667 10.0007 34.3733 10.0012C34.3865 10.002 34.4011 10.0034 34.4169 10.0056C34.4486 10.01 34.4858 10.0177 34.5265 10.0309C34.5488 10.0382 34.5719 10.047 34.5953 10.0576C35.8597 10.1774 36.8423 11.1645 36.8423 12.439L36.8423 12.4571C36.8425 12.5835 36.8427 12.7801 36.779 12.9867L35.1382 21.3315H40.1556C41.0856 21.3315 41.9326 21.8695 42.3558 22.635L42.3594 22.6415L42.3628 22.6481C42.7809 23.4624 42.7326 24.42 42.1743 25.1507L31.2223 40.4353C30.7555 41.0603 30.1267 41.4451 29.3023 41.4451C29.0022 41.4451 28.646 41.3885 28.3366 41.2684C27.2101 40.8405 26.6731 39.6948 26.8535 38.6404L28.5164 29.0136L23.4845 28.971H23.4822C22.5531 28.9701 21.7072 28.4323 21.2843 27.6674L21.2807 27.6609L21.2773 27.6543C20.8579 26.8374 20.9078 25.8763 21.4712 25.1447L21.4726 25.1429L32.4805 10.9921C32.4991 10.9565 32.5411 10.8816 32.6154 10.8092L32.6249 10.7999C32.7152 10.7119 32.8826 10.5487 33.0641 10.4273C33.3835 10.1829 33.711 10.0619 34.1205 10.0049L34.1556 10H34.3378C34.3378 10 34.3378 10 34.3378 10.4869Z" fill="#643000"/>
</svg>
