<svg width="66" height="52" viewBox="0 0 66 52" fill="none" xmlns="http://www.w3.org/2000/svg">
<rect width="66" height="52" rx="9" fill="#B0DAF2"/>
<path fill-rule="evenodd" clip-rule="evenodd" d="M33 8C23.075 8 15 16.075 15 26C15 35.925 23.075 44 33 44C42.925 44 51 35.925 51 26C51 16.075 42.925 8 33 8ZM33 41.3333C24.545 41.3333 17.6667 34.455 17.6667 26C17.6667 17.545 24.545 10.6667 33 10.6667C41.455 10.6667 48.3333 17.545 48.3333 26C48.3333 34.455 41.455 41.3333 33 41.3333ZM35.3218 21.106L35.4481 21.4862C34.8704 20.9742 33.9802 20.6667 33 20.6667C32.1361 20.6667 31.3466 20.9105 30.7791 21.2888C30.2085 21.6692 29.8889 22.1644 29.8889 22.6667C29.8889 23.1689 30.2085 23.6641 30.7791 24.0445C31.3466 24.4229 32.1361 24.6667 33 24.6667C36.1361 24.6667 38.7778 26.7157 38.7778 29.3333C38.7778 31.5695 36.8447 33.3942 34.3333 33.8752V34.8889C34.3333 35.625 33.7361 36.2222 33 36.2222C32.2639 36.2222 31.6667 35.625 31.6667 34.8889V33.8728C30.5656 33.6618 29.5517 33.1951 28.781 32.5081C28.23 32.0181 28.1785 31.1753 28.6698 30.6253C29.1604 30.0716 30.0029 30.0236 30.5523 30.5141C31.1299 31.0259 32.02 31.3333 33 31.3333C33.8639 31.3333 34.6534 31.0895 35.2209 30.7112C35.7915 30.3308 36.1111 29.8356 36.1111 29.3333C36.1111 28.8311 35.7915 28.3359 35.2209 27.9555C34.6534 27.5771 33.8639 27.3333 33 27.3333C29.8639 27.3333 27.2222 25.2843 27.2222 22.6667C27.2222 20.4305 29.1553 18.6058 31.6667 18.1248V17.1111C31.6667 16.375 32.2639 15.7778 33 15.7778C33.7361 15.7778 34.3333 16.375 34.3333 17.1111V18.1291C35.4348 18.3385 36.4484 18.8072 37.2187 19.4917L37.2187 19.4917C37.7699 19.9816 37.8215 20.8245 37.3303 21.3746C36.8374 21.9285 35.9972 21.9739 35.4481 21.4863L35.3219 21.106C35.3218 21.106 35.3218 21.106 35.3218 21.106Z" fill="#2550E5"/>
</svg>
