<svg width="66" height="52" viewBox="0 0 66 52" fill="none" xmlns="http://www.w3.org/2000/svg">
<rect width="66" height="52" rx="9" fill="#EBEFFC"/>
<path d="M48.8185 26.9608C49.169 26.5571 49.1695 25.9659 48.8193 25.5616C44.8973 21.0328 39.0909 16.5049 33 16.5049C26.9274 16.5049 21.1105 21.0427 17.1815 25.5644C16.831 25.9681 16.8305 26.5593 17.1807 26.9637C21.1027 31.4924 26.9091 36.0203 33 36.0203C39.0726 36.0203 44.8895 31.4825 48.8185 26.9608ZM33 33.8519C27.2666 33.8519 22.011 28.9988 19.5064 26.2657C22.0191 23.531 27.2881 18.6733 33 18.6733C38.7334 18.6733 43.989 23.5264 46.4936 26.2595C43.9809 28.9943 38.7119 33.8519 33 33.8519Z" fill="#1B317C"/>
<path d="M33 20.8418C29.9306 20.8418 27.4336 23.2736 27.4336 26.2628C27.4336 29.2519 29.9306 31.6837 33 31.6837C36.0694 31.6837 38.5664 29.2519 38.5664 26.2628C38.5664 23.2736 36.0694 20.8418 33 20.8418ZM33 29.5153C31.1584 29.5153 29.6602 28.0562 29.6602 26.2628C29.6602 24.4693 31.1584 23.0102 33 23.0102C34.8416 23.0102 36.3398 24.4693 36.3398 26.2628C36.3398 28.0562 34.8416 29.5153 33 29.5153Z" fill="#1B317C"/>
<path d="M33.7868 25.4961C33.3522 25.0729 32.6472 25.0729 32.2126 25.4961C31.7777 25.9197 31.7777 26.606 32.2126 27.0296C32.6472 27.4528 33.3522 27.4528 33.7868 27.0296C34.2217 26.606 34.2217 25.9197 33.7868 25.4961Z" fill="#1B317C"/>
<path d="M15.1133 18.6735C15.7282 18.6735 16.2266 18.1881 16.2266 17.5893V12.1684H21.793C22.4079 12.1684 22.9062 11.683 22.9062 11.0842C22.9062 10.4853 22.4079 10 21.793 10H15.1133C14.4984 10 14 10.4853 14 11.0842V17.5893C14 18.1881 14.4984 18.6735 15.1133 18.6735Z" fill="#1B317C"/>
<path d="M50.8867 10H44.207C43.5921 10 43.0938 10.4853 43.0938 11.0842C43.0938 11.683 43.5921 12.1684 44.207 12.1684H49.7734V17.5893C49.7734 18.1881 50.2718 18.6735 50.8867 18.6735C51.5016 18.6735 52 18.1881 52 17.5893V11.0842C52 10.4853 51.5016 10 50.8867 10Z" fill="#1B317C"/>
<path d="M50.8867 33.8525C50.2718 33.8525 49.7734 34.3379 49.7734 34.9367V40.3576H44.207C43.5921 40.3576 43.0938 40.843 43.0938 41.4418C43.0938 42.0407 43.5921 42.526 44.207 42.526H50.8867C51.5016 42.526 52 42.0407 52 41.4418V34.9367C52 34.3379 51.5016 33.8525 50.8867 33.8525Z" fill="#1B317C"/>
<path d="M21.793 40.3576H16.2266V34.9367C16.2266 34.3379 15.7282 33.8525 15.1133 33.8525C14.4984 33.8525 14 34.3379 14 34.9367V41.4418C14 42.0407 14.4984 42.526 15.1133 42.526H21.793C22.4079 42.526 22.9062 42.0407 22.9062 41.4418C22.9062 40.843 22.4079 40.3576 21.793 40.3576Z" fill="#1B317C"/>
</svg>
