<svg width="60" height="60" viewBox="0 0 60 60" fill="none" xmlns="http://www.w3.org/2000/svg">
<g clip-path="url(#clip0)">
<path d="M59.1311 18.0121L53.6716 16.5493V12.0705C53.6716 11.4233 53.1469 10.8986 52.4997 10.8986H32.5831L9.55225 4.72746C9.2519 4.64695 8.9321 4.68914 8.66304 4.84453C8.39386 4.99992 8.19745 5.25586 8.11706 5.55609L6.68551 10.8986H1.17187C0.524645 10.8986 0 11.4233 0 12.0705V37.3831C0 38.0303 0.524645 38.555 1.17187 38.555H7.84894C8.49616 38.555 9.02081 38.0303 9.02081 37.3831C9.02081 36.7359 8.49616 36.2112 7.84894 36.2112H2.34374V13.2424H51.3278V36.2112H37.3676C37.0842 35.3394 36.6285 34.5451 36.0409 33.8675H45.3828C46.03 33.8675 46.5547 33.3428 46.5547 32.6956C46.5547 32.0022 47.1187 31.4382 47.8121 31.4382C48.4593 31.4382 48.984 30.9136 48.984 30.2663V19.1873C48.984 18.54 48.4593 18.0154 47.8121 18.0154C47.1187 18.0154 46.5547 17.4514 46.5547 16.758C46.5547 16.1108 46.03 15.5861 45.3828 15.5861H8.28862C7.6414 15.5861 7.11676 16.1108 7.11676 16.758C7.11676 17.4514 6.55274 18.0154 5.85934 18.0154C5.21212 18.0154 4.68747 18.54 4.68747 19.1873V30.2663C4.68747 30.9136 5.21212 31.4382 5.85934 31.4382C6.55274 31.4382 7.11676 32.0022 7.11676 32.6956C7.11676 33.3428 7.6414 33.8675 8.28862 33.8675H25.8023C25.2147 34.5451 24.759 35.3394 24.4756 36.2112H18.3958C17.7485 36.2112 17.2239 36.7359 17.2239 37.3831C17.2239 38.0303 17.7485 38.555 18.3958 38.555H24.1509C24.2852 42.1744 27.27 45.0779 30.9216 45.0779C33.7853 45.0779 36.2381 43.2915 37.2288 40.7754L51.9731 44.7261C52.0729 44.7528 52.1749 44.7661 52.2763 44.7661C52.4804 44.7661 52.6826 44.7128 52.8623 44.6091C53.1315 44.4537 53.3279 44.1977 53.4082 43.8975L59.9596 19.4474C60.1273 18.8222 59.7563 18.1796 59.1311 18.0121ZM10.0776 7.29467L23.5277 10.8986H9.11186L10.0776 7.29467ZM7.03121 29.2901V20.1634C8.07593 19.803 8.90432 18.9746 9.26479 17.9298H44.4068C44.7672 18.9746 45.5956 19.803 46.6404 20.1634V29.2901C45.5956 29.6505 44.7672 30.4789 44.4068 31.5238H9.26479C8.90432 30.4789 8.07593 29.6505 7.03121 29.2901ZM30.9217 42.7342C28.4771 42.7342 26.4883 40.7454 26.4883 38.3008C26.4883 35.8561 28.4771 33.8674 30.9217 33.8674C33.3663 33.8674 35.3551 35.8561 35.3551 38.3008C35.3551 40.7454 33.3663 42.7342 30.9217 42.7342ZM51.4477 42.1589L37.9976 38.555H52.4134L51.4477 42.1589ZM53.6716 33.8595V18.9756L57.3925 19.9726L53.6716 33.8595Z" fill="#2550E5"/>
<path d="M26.8359 20.5078C24.5096 20.5078 22.6172 22.4003 22.6172 24.7266C22.6172 27.0529 24.5096 28.9453 26.8359 28.9453C29.1622 28.9453 31.0547 27.0529 31.0547 24.7266C31.0547 22.4003 29.1622 20.5078 26.8359 20.5078ZM26.8359 26.6016C25.8021 26.6016 24.9609 25.7604 24.9609 24.7266C24.9609 23.6927 25.8021 22.8516 26.8359 22.8516C27.8698 22.8516 28.7109 23.6927 28.7109 24.7266C28.7109 25.7604 27.8698 26.6016 26.8359 26.6016Z" fill="#2550E5"/>
<path d="M36.5039 25.8984H38.7305C39.3777 25.8984 39.9023 25.3738 39.9023 24.7266C39.9023 24.0793 39.3777 23.5547 38.7305 23.5547H36.5039C35.8567 23.5547 35.332 24.0793 35.332 24.7266C35.332 25.3738 35.8567 25.8984 36.5039 25.8984Z" fill="#2550E5"/>
<path d="M17.168 23.5547H14.9414C14.2942 23.5547 13.7695 24.0793 13.7695 24.7266C13.7695 25.3738 14.2942 25.8984 14.9414 25.8984H17.168C17.8152 25.8984 18.3398 25.3738 18.3398 24.7266C18.3398 24.0793 17.8152 23.5547 17.168 23.5547Z" fill="#2550E5"/>
<path d="M15.5467 41.7578C11.8098 41.7578 8.76953 44.798 8.76953 48.535C8.76953 52.2719 11.8097 55.3122 15.5467 55.3122C19.2837 55.3122 22.3239 52.272 22.3239 48.535C22.3239 44.798 19.2836 41.7578 15.5467 41.7578ZM15.5467 52.9683C13.1022 52.9683 11.1133 50.9795 11.1133 48.5349C11.1133 46.0902 13.1021 44.1014 15.5467 44.1014C17.9914 44.1014 19.9802 46.0902 19.9802 48.5349C19.9802 50.9795 17.9912 52.9683 15.5467 52.9683Z" fill="#2550E5"/>
<path d="M13.9506 38.2113C14.1686 37.9934 14.2939 37.6922 14.2939 37.3828C14.2939 37.0746 14.1686 36.7723 13.9506 36.5543C13.7326 36.3363 13.4303 36.2109 13.1221 36.2109C12.8127 36.2109 12.5115 36.3363 12.2936 36.5543C12.0756 36.7723 11.9502 37.0746 11.9502 37.3828C11.9502 37.6922 12.0756 37.9934 12.2936 38.2113C12.5115 38.4305 12.8127 38.5547 13.1221 38.5547C13.4303 38.5547 13.7326 38.4305 13.9506 38.2113Z" fill="#2550E5"/>
</g>
<defs>
<clipPath id="clip0">
<rect width="60" height="60" fill="white"/>
</clipPath>
</defs>
</svg>
