<svg width="60" height="60" viewBox="0 0 60 60" fill="none" xmlns="http://www.w3.org/2000/svg">
<g clip-path="url(#clip0)">
<path d="M48.9453 23.9807H26.594C27.6276 22.7927 28.2556 21.2429 28.2556 19.5483C28.2556 15.8191 25.2217 12.7852 21.4924 12.7852C17.7632 12.7852 14.7293 15.8191 14.7293 19.5483C14.7293 21.2429 15.3573 22.7927 16.3907 23.9807H11.0552C7.83108 23.9807 5.20801 26.6038 5.20801 29.828V36.7276C5.20801 37.3735 5.73157 37.8971 6.37745 37.8971C7.02334 37.8971 7.5469 37.3735 7.5469 36.7276V29.828C7.5469 27.8935 9.12074 26.3196 11.0552 26.3196H43.7998C45.7343 26.3196 47.3081 27.8935 47.3081 29.828V36.143H35.1459C31.9217 36.143 29.2986 38.7661 29.2986 41.9902C29.2986 45.2144 31.9217 47.8375 35.1459 47.8375H47.3081V54.1525C47.3081 56.087 45.7343 57.6608 43.7998 57.6608H11.0552C9.12074 57.6608 7.5469 56.087 7.5469 54.1525V47.2436C7.5469 46.5977 7.02334 46.0742 6.37745 46.0742C5.73157 46.0742 5.20801 46.5977 5.20801 47.2436V54.1525C5.20801 57.3767 7.83108 59.9997 11.0552 59.9997H48.9453C52.1695 59.9997 54.7926 57.3767 54.7926 54.1525V29.828C54.7926 26.6038 52.1695 23.9807 48.9453 23.9807ZM21.4924 15.1242C23.932 15.1242 25.9167 17.1088 25.9167 19.5484C25.9167 21.988 23.932 23.9727 21.4924 23.9727C19.053 23.9727 17.0682 21.988 17.0682 19.5484C17.0682 17.1088 19.0529 15.1242 21.4924 15.1242ZM48.4744 26.3196H48.9453C50.8798 26.3196 52.4537 27.8935 52.4537 29.828V36.143H49.647V29.828C49.647 28.5127 49.2102 27.2976 48.4744 26.3196ZM31.6375 41.9902C31.6375 40.0557 33.2114 38.4819 35.1459 38.4819H52.4537V45.4986H35.1459C33.2114 45.4986 31.6375 43.9247 31.6375 41.9902ZM48.9453 57.6608H48.4744C49.2102 56.6828 49.647 55.4679 49.647 54.1525V47.8375H52.4537V54.1525C52.4537 56.087 50.8798 57.6608 48.9453 57.6608Z" fill="#2550E5"/>
<path d="M34.8462 40.8213C34.5375 40.8213 34.2358 40.9464 34.0182 41.1639C33.8007 41.3815 33.6768 41.6832 33.6768 41.9907C33.6768 42.2983 33.8007 42.6 34.0182 42.8175C34.2369 43.035 34.5375 43.1602 34.8462 43.1602C35.1538 43.1602 35.4543 43.035 35.673 42.8175C35.8905 42.6 36.0157 42.2983 36.0157 41.9907C36.0157 41.6832 35.8905 41.3815 35.673 41.1639C35.4555 40.9463 35.1538 40.8213 34.8462 40.8213Z" fill="#2550E5"/>
<path d="M38.5083 16.0986C42.2375 16.0986 45.2714 13.0647 45.2714 9.33541C45.2714 5.60628 42.2375 2.57227 38.5083 2.57227C34.779 2.57227 31.7451 5.60616 31.7451 9.33541C31.7451 13.0647 34.779 16.0986 38.5083 16.0986ZM38.5083 4.91128C40.9477 4.91128 42.9325 6.89595 42.9325 9.33553C42.9325 11.7751 40.9478 13.7598 38.5083 13.7598C36.0687 13.7598 34.084 11.7751 34.084 9.33553C34.084 6.89595 36.0687 4.91128 38.5083 4.91128Z" fill="#2550E5"/>
<path d="M27.0864 11.5285C27.7323 11.5285 28.2559 11.005 28.2559 10.3591V1.16945C28.2559 0.523561 27.7323 0 27.0864 0C26.4406 0 25.917 0.523561 25.917 1.16945V10.3591C25.917 11.005 26.4406 11.5285 27.0864 11.5285Z" fill="#2550E5"/>
<path d="M21.4732 7.48446C22.119 7.48446 22.6426 6.9609 22.6426 6.31501V1.16945C22.6426 0.523561 22.119 0 21.4732 0C20.8273 0 20.3037 0.523561 20.3037 1.16945V6.31501C20.3037 6.9609 20.8273 7.48446 21.4732 7.48446Z" fill="#2550E5"/>
<path d="M6.37746 43.1602C6.68502 43.1602 6.98674 43.035 7.20426 42.8175C7.42177 42.6 7.5469 42.2983 7.5469 41.9907C7.5469 41.6832 7.42177 41.3815 7.20426 41.1639C6.98674 40.9464 6.68619 40.8213 6.37746 40.8213C6.06989 40.8213 5.76817 40.9464 5.55066 41.1639C5.33314 41.3815 5.20801 41.6832 5.20801 41.9907C5.20801 42.2983 5.33314 42.6 5.55066 42.8175C5.76817 43.035 6.06977 43.1602 6.37746 43.1602Z" fill="#2550E5"/>
</g>
<defs>
<clipPath id="clip0">
<rect width="60" height="60" fill="white"/>
</clipPath>
</defs>
</svg>
