<svg xmlns="http://www.w3.org/2000/svg" width="1559.706" height="526.314" viewBox="0 0 1559.706 526.314">
  <g id="Сгруппировать_4" data-name="Сгруппировать 4" transform="translate(-39.264 -111.205)" opacity="0.06" style="isolation: isolate">
    <path id="Контур_19" data-name="Контур 19" d="M186.23,278.486c2.7-1.139,2.768-.825,5.341-2.246s10.569-6.3,13.042-7.523,3.739-1.457-.155.8c-3.913,2.259-11.821,6.982-10.517,6.328s5.147-2.777,10.659-5.833c5.49-3.046,4.787-2.4,6.688-4.014s2.881-2.45,2.881-2.45,5.772.45,6.412.3a3.251,3.251,0,0,0,1.638-1,7.468,7.468,0,0,1,2.8-1.758c.994-.23-.424.981.175.838a30.127,30.127,0,0,0,3.994-1.813c2.221-1.1,1.534-1.34,1.534-1.34a22.168,22.168,0,0,1,2.224-.952,109.955,109.955,0,0,1,11.258-3.14c2.02-.46,8.581-2.671,10.336-3.107,1.738-.43,2.861-1.431,5.163-1.8s3.829-.288,1.635.855-7.27,3.269-4.9,2.606,6-1.728,9.666-3.091,10.539-4.286,12.553-5,2.988-.625,4.2.039a4.749,4.749,0,0,0,3.13.521c.68-.149-.4-.382.34-1.178a1.866,1.866,0,0,0,.4-2.088c-.217-.278.343-.651-.223-.968s-2.088.3.893-1.175,5.247-2.9,8.41-3.839,3.175.447,5.93-.375,3.027-.547,7.788-2,2.816-.923,8.16-2.538,3.561-1.35,5.247-2.819a10.792,10.792,0,0,1,4.312-2.444c1.275-.372,5.713-1.563,5.6-1.334s-2.619,2.017-1.958,2.3a19.9,19.9,0,0,0,4.117.006,5.63,5.63,0,0,1-.113-1.214,2.68,2.68,0,0,1,.952-1.453,24.677,24.677,0,0,0,6.539-3.243c2.774-2.146-.644-1.029-.644-1.029s-1.249.4-.324-.418a27.336,27.336,0,0,1,4.732-2.308s.081.214-.12-.152-2.609.45-5.108,1.169-4.172,1.113-4.2.427a11.1,11.1,0,0,1,1.279-3.551c.6-1.175,2.839-1.515,3.612-2.3s1.832-3.787,1.554-4.24,1.92-2.289,2.713-3.3,3.075-1.35,3.075-1.35c-.288-.175,1.3-1.385,4.81-2.729a99.274,99.274,0,0,1,9.607-2.8,14.885,14.885,0,0,0-2.489,1.369c-1.919,1.191-1.583,2.211-4.386,3.839s-8.588,3.1-8.588,3.1,1.042,1.02,0,1.764a14,14,0,0,0-2.055,1.929s4.962-1.02,4.619.146,2.172.615,2.211,1.593-3.651,2.93-3.069,2.907a8.964,8.964,0,0,0,2.674-.547c1.89-.531,4.415-1.162,4.415-1.162s-1.363.922-.722,1.275-.285.978-.5,1.625.579.919,1.084.664a33.127,33.127,0,0,0,4.282-3.541,4.825,4.825,0,0,1,2.263-1.69c.9-.262,3.441-.084,3.6.185s.142.732-2.046,2.263c-2.2,1.544-2.263,1.978-.981,1.952s1.408-.172,3.845-.46a9.323,9.323,0,0,0,3.69-.838c1.735-.657.136-1.57.327-1.657s4.017-1.324,3.541-1.877-1.146-.706.79-1.6,3.341-1.56,3.341-1.56a2.563,2.563,0,0,1-1.343-1.224c-.621-.958,1.518-1.262,6.322-2.479,4.778-1.207,4.723-.644,7.105-.871s.654.4,1.146.945-2.56,1.486-2.56,1.486-2.049.683-1.871,1.165.754.961,1.751,1.515-1.13,1.719-3.71,3.114a40.163,40.163,0,0,1-7.95,3.124c-2.641.764-3.959,1.489-4,1.259s-1.185-.133-2.658.395c-1.489.534-4.969,1.965-3.9,1.8s4.108-1.084,2.437.175c-1.686,1.269-2.771,1.583-5.237,2.217s-4.807,1.327-6.4,1.761c-1.57.434-9.368,2.622-9.368,2.622s4.716-.343,8.707-1.088a69.174,69.174,0,0,0,8.6-2.36s-2.3,1.745-4.988,3.693-4.376,1.952-6.131,2.551-3.059,1.46-6.351,2.612c-3.308,1.152-9.763,2.7-8.827,2.573a13.384,13.384,0,0,0,3.027-.392,14.076,14.076,0,0,1,4.234-.647c1.359.042-1.356.984-3.551,1.787a14.987,14.987,0,0,0-4.085,1.988c-1.24.848-5.875,4.1-7.348,5.127a18.788,18.788,0,0,0-4.117,3.923c-1.091,1.466-4.577,3.946-3.512,3.884s5.626-1.489,7.319-1.609,2.722,1.635,3.752,2.094,1.884.8,3.858-.443a23.955,23.955,0,0,1,7.963-2.564,50.945,50.945,0,0,1,9.886-.418c1.606.2,5.079-.965,8.827-1.881s3.923-.447,3.923-.447,3.972-1.088,2.02.091-2.143.654-.991,1.334.437,2.292-.375,3.224,5.173-1.169,7.38-1.285,1.343,2.259,2.729,1.6,3.687-1.78,4.192-2.486a5.966,5.966,0,0,0,.748-2.47c.2-1.01.366-2.793-.615-3.2s2.8-1.751,2.347-1.916-.036-.871,2.567-1.832a29.919,29.919,0,0,0,4.2-1.557c1.534-.793,2.57-2.8,3.088-3.544a2.494,2.494,0,0,0,.139-2.46,8.527,8.527,0,0,0-2.738-1.648c-.722-.142-1.784.055,1.12-1.787s1.379-1.2,1.182-1.46a5.706,5.706,0,0,1-.473-1.667c-.13-.654,1.7-1.942,1.3-2.816s-1.424-.379-1.146-.673,5.765-1.725,9.763-2.641,5.762-1.661,6.927-1.965a25.255,25.255,0,0,1,5.124-.456c2.049-.032,2.978-.4,3.875-.026s1.392.576,3.8-.068a32.1,32.1,0,0,1,4.823-.861s-1.842.793-2.023,1.919-1.185,2.191-1.324,2.664.515.337,1.6.12,3.713.042,6.665-.314c2.978-.356,3.846-.68,5.215-1.874a5.129,5.129,0,0,1,2.829-1.521,11.519,11.519,0,0,0,2.217-.625c.615-.333-.715-.385-.117-1.12a17.5,17.5,0,0,1,4.221-2.81c1.586-.816,2.233-.084,3.14.511s4.159,2.5,5.053,3.169,2.479.366.663,1.618-2.661,1.806-.485,1.683,4.007.129,3.587.848-.91.861-.2.868,3.713-1.194,5.635-1.321a30.154,30.154,0,0,1,5.522-.146c1.249.217,1.071.434-1.065,1.162s-4.27,1.463-5.36,1.923-2.878,1.282-2.942,1.625-.754,1.049,1.039.207A64.547,64.547,0,0,1,471.6,219.3a17.077,17.077,0,0,1,2.256-.6,40.542,40.542,0,0,1,5.648-.722c2.318-.275,1.479.434.7,1.091s-1.483,1.282-.712,1.661-.79,1.217-3.143,2.408a34.3,34.3,0,0,1-7.474,2.606,34.981,34.981,0,0,0-8.131,3.564c-2.719,1.434-3.862,1.5-7.4,2.4s-1.887-.175-3.023.239a49.01,49.01,0,0,1-4.978,1.845c-2.279.634-9.866,2.551-12.893,3.616s-2.4,1.625-3.363,2.454-2.026.864-4.312,1.716a38.19,38.19,0,0,0-8.6,5.286,58.344,58.344,0,0,1-7.125,4.522,54.079,54.079,0,0,0,6.785-3.48c2.085-1.34,10.2-5.305,12.689-6.513a62.178,62.178,0,0,1,8.766-3.5c1.1-.152,3.658.01,3.5.456s-1.143,1.016-3.48,2.3-4.82,1.211-4.752,1.479,1.275.628,2.806.388,1.181.55,1.042.939-1.224,1.12,2.007,1.437a22.556,22.556,0,0,0,8.533-.955c2.722-.725,1.159.052,2.288-.262a4.486,4.486,0,0,0,2.25-1.987A7.2,7.2,0,0,1,454,239.614c1.081-.528,2-1.237,1.958-.278s-1.939,2.729-3.463,3.389-1.35,1-1.457,1.317-1.722.725-5.827,2.515-5.412,2.311-6.047,2.363a15.061,15.061,0,0,0-4.224,1.809c-2.088,1.146-4.376,2.567-5.723,2.891s-2.447.392-.32-.861,3.12-2.483,5.092-3.321a23.011,23.011,0,0,1,4.35-1.392c1.538-.385.929-.57,2.289-1.246s-.838-.026-2.874.359-.181-.757-.181-.757c-.929.4-1.392.6-2.321,1.007,0,0-3.5,1.515-4.376,1.784s-.767.45-1.065.651-3.4,1.088-3.4,1.088a15.77,15.77,0,0,1-4.545,2.56,14.094,14.094,0,0,0-2.609,1.071c-1.829.761-1.279.016-1.722.3a28.322,28.322,0,0,1-2.92,1.635,13.884,13.884,0,0,0-5.457,4.14c-2.169,2.57-.855,2.942-1.033,3.292s-2.337.443-3.111.893a30.144,30.144,0,0,1-4.771,2.531,74.991,74.991,0,0,0-7.416,3.078,7.306,7.306,0,0,0-2.13,2.3,48.921,48.921,0,0,1-3.949,3.761s.867-.994-.586-1.114-.987-.748-.987-.748-.683.945-.379,1.615,1.214,1.185.308,2.282a13.617,13.617,0,0,1-3.842,3.311c-1.444.722.544-.732.832-1.5s-.566-.563-.987-.78-.052-1.185,1.431-2.771-.741-.233-2.188.958-2.836,3.043-1.512,3.574c1.353.537-1.47,1.279-.858,2.45s-2.279,2.716-1.884,2.8c.411.091,1.923-.66,2.269-.091s-1.4.787-2.107,1.185-.5.592-.282.9,1.078-.181.709.045a18.378,18.378,0,0,1-3.159,1.741c-1.712.725-1.706.395-2.907,1.23s-2.133,1.541-3.431,2.483a31.528,31.528,0,0,1-3.263,1.735c-1.292.777-1.864,1.266-3.464,2.24-1.573.965-5.046,2.794-7.141,4.4-2.114,1.609-1.774,1.745-3.247,3.745s.295,4.147,1.055,6.48c.77,2.353,1.839,1.285,1.24,2.3a12.429,12.429,0,0,1-3.441,3.535c-1.57,1.088-1.923.217-3.538.159s.019-.994-1.259-1.784-.968-1.314-.79-2.243.4-2.246-.149-3-2.068-1.444-5.3.091-2.376,1.026-3.93,1.347-5.58.932-8.015,2.246-9.112,2.962-10.64,3.642-2.609,1.1-2.8,1.589-.845.787,1.6.233,1.923-.036,1.528.563-1.981.44-2.91.589-2.11,1.084-3.871,1.7-1.748-.1-3.273.337a31.41,31.41,0,0,1-3.6,1.033A25.2,25.2,0,0,0,297,326.173c-1.777.689-9.481,5.419-13.168,7.817a49.4,49.4,0,0,0-7.782,5.8c-1.162,1.285-1.266,1.4.719,1.9s.884.719.036,1.761-2.787,2.667-5.5,5.577c-2.738,2.942-2.091,3.619-.725,4.917a8.088,8.088,0,0,0,4.176,2.353c1.431.23,2.324.725,3.729.486a5.107,5.107,0,0,1,2.243-.123c.553.113.3.343,2.884-.929,2.557-1.262,4.545-2.437,6.283-3.085s3.334-1.207,4.114-1.091,1.026-.217,1.12-.469a14.273,14.273,0,0,1,1.573-1.816,43.369,43.369,0,0,0,4.033-3.959c.732-1.062,1.431-2.9,3.729-3.836,2.272-.919,7.3-3.211,11.6-4.59s1.975.388.4,1.942c-1.6,1.567-2.094,1.845-2.421,2.735s.194.7-1.415,1.725-.408-.123-1.178.605a24.311,24.311,0,0,1-2.8,1.991c.295-.214.563.576.379,1.075s-.466.816-.913,2.033-5.506,4.14-5.506,4.14a16.472,16.472,0,0,0,3.959-.994,40.557,40.557,0,0,1,7.807-2.243c2.379-.295,7.72-3.153,11.032-3.48s1.809.693,1.761,1.476a16.652,16.652,0,0,1-1.2,4.464c-.511.793-2.916,3.376-4.315,5.1-1.408,1.745,1.78,1.528,4.681,1.547a36.3,36.3,0,0,0,7.264-.8c1.609-.327,5.328-3.03,11.093-4.784s6.9.168,6.9.168a28.382,28.382,0,0,1,4.541-4.849c3.341-3,3.667-3.674,7.461-5.5s5.017-2.334,11.142-5.063c6.1-2.722,4.833-1.712,7.83-2.515a163.74,163.74,0,0,1,16.667-3.629c6.726-1.016,17.441-3.758,21.325-4.053,3.91-.3,5.121,1.554,8.873,2.34,3.771.79,8.685,1.136,10.73,1.453,2.062.317,14.7-2.133,17.408-2.3s6.1,1.133,6.037,2.421,2.658,1.262,6.416,1.107c3.781-.155,4.81.492,6.84,2.36,2.056,1.884,1.071,2.774,4.5,2.564,3.464-.217,27.7-2.548,33.7-2.674,6.04-.126,13.4,1.479,15.434,1.437s5.933-1.492,7.529-1.376c1.612.113-1.47,3.056.343,4.376,1.829,1.321,1.939,1.424.466,2.962s-7.1,5.72-9.342,7.7c-2.263,2-6.684,3.888-9.2,5.069s-4.532.961-2.641,1.855-.3,2.476-2.363,4.1-.045,1.062-1.308,5.186c-1.279,4.172-1.453,8.5-2.616,10.468s-5.642-.275-12.051,4.93c-6.461,5.254-8.559,8.665-12.106,9.947a95.226,95.226,0,0,0-15.061,7.655,22.685,22.685,0,0,0-5.839,5.409c-2.14,2.6-4.69,7.484-7.079,10.737-2.411,3.273-5.788,5.674-13.475,11.407-7.762,5.784-11.569,10.653-16.68,15.084-5.144,4.461-3.829,3.438-4.9,4.318-2.716,2.243-11.977,1.327-9.821,2.725,1.6,1.039-1.072.327.249,1.369s2.376,1.288-1.657,5.14c-4.056,3.871-8.037,4.609-10.918,5.943s-6.613.385-7.124,1.625a16.114,16.114,0,0,1-5.027,6.072c-2.337,1.437-8.439,4.493-8.38,4.891,1.088,7.652,6.736,6.652.719,8.312-16.46,4.548-4.347-2.175-18.778,18.467-2.259,3.234-3.784,2.535-4.059,5.516-.272,3.007-.981,5.474,1.058,6.574s.392,1.6-4.095,5.768c-4.519,4.2-4.758,3.91-9.193,9.471-4.473,5.619-8.011,6.8-7.222,9.5.8,2.709.314,7.435,1.774,11.433,1.479,4.043,6.309,1.356,13.178,1.981,6.93.631,8.112-1.531,11.634-2.02s-2.764,2.023-9.41,5.357c-6.665,3.341-11.048,5.988-15.482,7.014-4.415,1.02-14.375.492-17.658-.107-3.266-.6-8.507-1.881-10-4.574-1.483-2.667-2.357-5.584-4.182-9.228-1.8-3.606.6-7.316,3.745-17.936,3.075-10.371,5.5-18.276,8.465-24.131,2.926-5.778,13.44-29.715,16.253-35.7,2.784-5.924,15.032-29.476,16.369-32.858a75.937,75.937,0,0,1,4.263-9.416c1.89-3.47,2.745-9.4,2.823-9.711s-.3-.4-1.11-2.722c-.806-2.3-3.02-2.612-6.189-2.641s-6.4-.291-8.866-.46a21.88,21.88,0,0,1-7.568-1.651c-2.2-1.052-3.655-4.237-4.535-5.454a36.155,36.155,0,0,0-7.736-7.4c-3.431-2.24-3.7-2.208-4.736-5.457-1.029-3.214,3.3-4.833,4.817-7.364,1.5-2.5,4.888-5.674,8.83-9.782,3.9-4.062,8.07-6.264,11.193-9.695,3.1-3.405,1.369-2.832,1.385-5.114s.955-2.24-.071-3.114-1.249-2.285-2.431-2.292a7.608,7.608,0,0,0-4.483,1.45c-1.421,1.107-4.227,3.91-5.6,4.5s-1.635-.023-2.276-.2-4.477,1.149-5.121.968-2.586.44-3.8.579a60.264,60.264,0,0,1-7.082.382c-1.217-.136-2.512-1.046-1.923-2.729s-1.919-1.356-7.241-1.45c-5.283-.1-7.769.524-14.815,2.314-7.018,1.784-8.947.152-11.116.314s-1.58-.783-7.105,1.625-11.426,3.363-15.181,4.085c-3.716.715-10.747,3-13.362,3.14-2.6.133-7.782,1.945-8.982.22s-1.246-.838.592-3.531c1.832-2.674-3.415-2.1-6.16-2.748-2.722-.651-5.338.188-6.089-1.69-.745-1.861-3.519-.592-6.309-.952s-1.877-2.68-2.428-4.169-9.031-.3-9.031-.3,1,2.437,1.473,3.389a12.223,12.223,0,0,0,3.4,4.619c1.858,1.327,4.2.845,5.82,2.295s-1.68,4.2-2.246,3.593-4.363.667-3.842-.56-.139-1.57-.592-2.153-3.833-.006-6.836-.042c-2.978-.039-5.231.33-2.894-.7s5.163-1.275,4.875-1.767-3.46-1-4.7-1.783-1.052-2.324-1.78-4.211c-.722-1.871-6.717-1.321-10.167.068-3.428,1.372-3.978.877-4.273-.553s.44-3.412-.414-4.237-5.16-2.9-4.363-4.771c.793-1.852,1.544-6.522,5.409-10.614a36.144,36.144,0,0,0,6.788-11.54c.291-1.139-2.706-1.771-2.227-2.719s2.664-1.46,4.4-1.987,5.3-1.4,5.3-1.4a6.973,6.973,0,0,0-2.978-1.764c-1.379-.188-6.215.9-8.523,1.69s-5.218,1.716-5.956,1.227a13.339,13.339,0,0,1-1.9-1.722c-.463-.46-3.862.21-4.289-.308s.735-2.421-.045-2.784-2.34-.091-4.6,1.2-2.457.67-3.334.036-4.079.3-5.024.605c-.929.295-3.175-.5-3.088-.984s-3.784-1.094-5.228-.919c-1.463.181-17.3,5.338-17.742,5.548s-5.71,2.972-6.93,3.392-4.652.528-6.743,1.211a16.972,16.972,0,0,0-6.179,4.35c-1.887,1.929-8.694,7.018-12.3,9.591s-6.14,3.936-5.6,3.25a25.452,25.452,0,0,1,2.693-3.4,27.073,27.073,0,0,1,6.108-4.9c3.593-2.379,3.5-2.369,2.256-1.716s-2.062.929.829-1.052,3.943-2.57,4.2-3.175-5.836,3.486-9.983,6.59a110.182,110.182,0,0,0-11.061,9.212c-4.373,4.114-.592,1.489-3.994,4.477-3.418,2.994-13.76,10.934-16.962,13.6-3.221,2.68-15.061,11.232-19.6,14.236a90.143,90.143,0,0,0-8.915,6.354c-2.551,2.123-7.723,5.244-5.684,3.616s6.011-4.94,8.539-6.859c2.505-1.907,8.934-6.374,10.8-7.642s7.477-5.49,10.653-8.244c3.15-2.732,5.665-5.283,8-7.513s3.02-3.043-.518-.777a47.593,47.593,0,0,1-8.215,4.325c-1.47.531-6.616,4.328-7.8,4.5s1.24-2.094.609-2.214-4.282,2.136-6.351,3.088-4.58,1.612-3.577-.181-.314-2.149,1.648-4.153a51.915,51.915,0,0,1,6.319-5.114c2.4-1.809,8.423-5.687,9.52-6.267a32.464,32.464,0,0,0,4.305-3.1c1.3-1.081-.806-1.418-.806-1.418s.677-.515,2.243-1.644,1.143-1.589-1.256-.22-8.041,5.247-11.358,7.325-7.28,4.007-6.743,3.2,1.457-1.618.7-1.612-1.259-.162-.006-1.029,9.186-6.539,9.186-6.539a7.9,7.9,0,0,0,4.049-.991c2.515-1.2,9.614-6.749,9.614-6.749-2.806.625-1.848-.1-1.848-.1s-5.616,2.871-6.652,3.1-.955-.431-.825-1.042-5.017,1.661-2.761-.4,5.312-3.959,7.885-6.16a87.655,87.655,0,0,1,11.591-9.306c6.021-3.93,13.061-8.225,16.486-10.64,3.405-2.4,4.124-2.049,5.111-2.421s7.863-3.9,10.446-5.134,2.166.026,2.819-.026,23.387-10.368,23.387-10.368,19.46-8.617,23.1-9.808S178,284.06,178,284.06C182.508,281.924,183.54,279.622,186.23,278.486Zm286.725-127.5s-3.03,2.952-11.142,5.4c-8.147,2.45-23.422,7.853-24.135,8.141s.152,1.4,1.777,1.674c1.641.275,3.279.34,4.707.673s4.541-.45,6.626-.23,3.962-.463,10.565-1.9,4.765-.887,12.106-2.347,15.019-2.855,17.282-2.645,4.875,2.331,6.578,3.609,4.82,3.382,4.723,3.658-3.467,2.962-3.593,3.308,1.026.664,2.1.9c1.058.236.243.764-.139,1.262s.8,1.343.984,1.437,4.02-1.842,6.26-2.476,7.092-.191,6.756.825c-.767,2.318,1.369,1.113-10.941,6.144-1.638.67-4.082,3.82-3.405,4.975s2.9,2.269,4.441,3.836,7.183,3.15,8.879,4.066,1.729,2.635,6.309,2.162c4.6-.479,8.934-.738,12.281-1.094s5.5-.382,7.464-1.777,6.393-6.1,9.908-9.507c3.47-3.37.8-3.755,7.264-5.441,6.448-1.68,16.777-4.525,19.551-5.322s2.959-3.489,9.076-5.254c6.1-1.758,6.885-1.8,12.786-3.179s14.191-3.59,20.2-5.584c5.985-1.988,7.471-1.505,9.75-2.913s-1.551-2.586-1.7-4.215,2.14-2,3.541-3.632,2.14-2.68,6.71-4.182,7.018-2.314,6.383-3.153-2.645-1.981-2.473-2.988.858-.515-.689-1.716-1.515-1.379.369-2.845,6.26-1.618,6.017-2.143-6.823-.657-6.665-2.2,1.557-2.146,2.713-2.638,12.715-4.153,13.518-4.454-.094-.838,5.461-2.1c5.532-1.253,7.448-1.894,9.539-2.3s5.341-.68-.894-.609c-6.218.074-7.587-.01-11.718.534s-5.648,1.317-13.055,2.3-15.935,2.9-15.935,2.9,2.622-.913.566-1.256,6.108-3.162,7.451-3.528c1.317-.363-9.934.142-15.79.55-5.836.4-17.191.9-23.866,1.936s-16.411,2.4-19.823,3.2-3.334,1.955-7.105,2.583-10.53,1.02-15.958,2.114-14.369,3.616-15.35,3.839,3.052.249,5.781-.042a15.638,15.638,0,0,1,5.846.806s-7.3.5-14.728,1.2a141.2,141.2,0,0,0-19.765,3.794c-3.214.845-7.49,2.12-13.747,3.418s-13.98,4.289-17.836,5.762-15.806,5.839-18.816,6.927-2.03,1.075.887.673S472.955,150.986,472.955,150.986Zm-176.792,74.2c.068,1.2-1.107,3.379-2.667,3.143s-2.227-1.554-5.949.353-7.205,2.946-6.532,2.577.479-.974-1.075-.631a19.652,19.652,0,0,0-4.778,2.127c-1.994,1.039-7.879,3.587-5.2,2.046s2.153-1.667,1.813-2.214-6.911,2.936-10.491,4.956a101.175,101.175,0,0,0-8.552,5.713c-2.373,1.631-1.385,1.745,1.211,1.059s6.966-2.1,2.887-.146-7.18,3.441-5.532,3.221a44.792,44.792,0,0,0,8.325-2.748,79.759,79.759,0,0,1,11.433-4.088c5-1.3,8.193-2.444,8.193-2.444s-2.272,1.214-5.969,2.738-10.083,3.622-13.553,5.1-8.924,3.807-7.892,3.842,1.628.469,5.885-.605,5.406-1.958,8-2.661.395,1.149,1.029,1.084,6.056-2.331,11.494-4.58,3.684-1.913,8.021-3.771,5.153-3.179,7.694-4.276c2.525-1.094.32.418,3.007-.259s1.078-.065,4.04-.9,2.111-.152,5.147-1.237,6.979-3.046,6.6-3.039-.638-.207-.045-.861-3.052,1.094-4.389,1.767-.725-.385,2.068-1.722a35.1,35.1,0,0,1,6.27-2.049c1.5-.489,1.039-1.761-1.508-1.159s-3.383.327-6.943.774c-3.538.443-1.262-.625-1.835-1.382s-1.288-3.289-3.182-3.146c-1.877.136-4.321,1.088-6.2,1.233A3.423,3.423,0,0,0,296.163,225.184ZM236.814,244.6c.278.787.838.013-1.774,2s-1.806,2.046-3.664,3.512-6.111,4.134-5.393,4.36,4.02-.757,5.2-.822a8.052,8.052,0,0,0,4.91-.987c2.868-1.4,3.888-1.994,5.962-3.1s3.868-2.156,4.363-3.14.706-1.447,1.4-1.641a4.659,4.659,0,0,0,2.544-1.039,30.742,30.742,0,0,1,4-3.088c1.521-.968,5.4-2.79,7.4-3.988s5.231-2.868,6.312-3.658-.961-.366-2.221-.091-2.353-.042-5.558,1.12-5.519,2.81-5.121,2.311-1.793.126-2.981.411a32.457,32.457,0,0,0-6.5,2.169c-4.244,1.738-6.04,2.509-9.546,4.153C233.14,244.5,236.536,243.812,236.814,244.6Zm88.715-20.131c-.566.388-2.641,1.259-4.117,2.195s2.415-.567,3.525-.783c1.126-.22,1.787-.039,2.693-.207a65.934,65.934,0,0,0,8.52-2.845c2.376-1.084,2.671-1.288,2.538-1.411a25.124,25.124,0,0,0-6.4-.094c-2.816.337-2.874.333-3.629.709S326.111,224.073,325.529,224.465Zm-7.477-8.141c-2.2,1.033-3.9,1.965-.871,1.541s3.855-.22,5.856-.392,2.133,1.123,7.335-1.114c5.179-2.23,7.558-3.667,8.6-4.609,1.029-.929-.22-.689-1.049-1s-.984-.511-3.473.35-3.3,1.117-3.3,1.117a43.321,43.321,0,0,1,4.946-2.609c2.907-1.314.868-.968,2.36-1.816s-2.8.275-4.8,1.049-1.958.56-5.1,1.5-8.7,3.635-8.694,3.956,2.454-.586,4.409-.812,2.651-.492-.269,1.56-3.221.758-3.845.783S320.33,215.262,318.051,216.324Zm-12.786,2.153c-3.36,1.207-4.959,2.479-3.774,2.195a9.013,9.013,0,0,1,3.651-.638,4.905,4.905,0,0,0,4.6-1.58C311.28,216.829,310.422,216.619,305.266,218.477Zm-46.534,7.749c-4.282,2.47-5.532,3.661-8.756,5.435-3.247,1.78-2.968,2.175-2.272,2.243s3.761-1.411,5.215-2.162,2.936-1.829,3.5-1.709,4.9-2.881,6.552-3.943a41.334,41.334,0,0,1,4.357-2.5c.346-.1-1.635,1.139-1.382,1.5s2.823-.541,5.687-2.321,1.275-1.923,3.506-3.3,3.664-1.787.528-1.22a19.719,19.719,0,0,0-6.71,2.7A91.941,91.941,0,0,0,258.731,226.226Zm20.907-5.962a62.39,62.39,0,0,0-6.778,2.968,30.194,30.194,0,0,0-7.335,4.982c-1.285,1.133-.12.712,2.716.094s7.548-2.777,9.222-4.3,2.1-.518,1.188.282,2.143-.706,3.606-1.427,5.432-2.172,5.729-2.276a83.208,83.208,0,0,1-7.468,3.791c-3.674,1.648-6.571,2.868-7.552,3.256s.528.314,4.341-.761c3.829-1.078,6.953-3.221,13.19-6.037,6.218-2.813,6.024-2.861,7.8-3.282a63.635,63.635,0,0,0,6.581-2.664c2.441-.978,3.211-.948,4.959-2.615,1.732-1.651,4.244-3.512,1.023-2.528s-3.441,1.058-4.664,2.632-1.029.787-1.029.787-1.486-.534-2.434-.754-1.324-.919-2.457-.984-2.23.929-5.008,2.645-1.185,1.483.829,1.149,3.014.21,1.771.861-2.3.725-6.539,2.311-3.706.855-4.752,1.039,2.327-1.334-1.69-.534A22.63,22.63,0,0,0,279.639,220.263Zm-14.149,6.1c.641-.479-6.3,3.392-7.523,4.282s.634.136,2.463-.547S263.376,227.951,265.49,226.365Zm13.424-7.565c-1.631.777-1.748.978.605.246s4-1.638,3.723-1.858S280.221,218.179,278.914,218.8Zm15.074-9.135a69.328,69.328,0,0,0-7.092,3.243c-.427.395-.515.974-.11,1.262s.625.272,4.888-1.505,7.487-3.493,6.231-3.188-1.945.346-3.091.68,1.217-.66,4.049-1.861S302.9,206.225,293.988,209.666Zm-14.052,5.445c-1.249.6-1.661.741.5.278s4.719-1.369,4.567-1.541S283.448,213.437,279.936,215.11Zm10.7-5.7a20.051,20.051,0,0,0-3.949,2.314c-.644.418,2.645-1.046,4.114-1.644a17.236,17.236,0,0,0,3.234-1.308c1.618-.916,4.046-1.343,6.6-2.353s3.285-1.745,3.046-2.094S297.584,206.277,290.635,209.407Zm23.031-5.726c-.732.333-.712.657-.395.935s.524.123,1.644-.091a11.408,11.408,0,0,1,2.382-.223c.23.023.382,0,1.146-.615s-.049-.3-1.084-.466A4.971,4.971,0,0,0,313.665,203.68Zm6.157,1.3a17.076,17.076,0,0,0-3.81,1.505c-.757.346.133.3.3.7s-.324.706,2.4-.1,3.654-1.259,4.234-1.991S321.466,204.606,319.822,204.982Zm10.064-2.178a8.361,8.361,0,0,0-3.975.761c-1.877.809-.612.686-.706.864s2.12-.686,1.926-.269.353.392-2.214,1.246a26.637,26.637,0,0,0-4.38,1.628c-1.123.592,1.92-.641,2.557-.482s2.1-.262,4.616-1.165,5.943-2.136,5.943-2.136-2.127,1.188-3.095,1.861-1.6,1.4-.486,1.324,1.6-.78,5.163-1.9a19.715,19.715,0,0,0,4.972-2.12s-.647-.055-.2-.738.388-.8.388-.8a13.565,13.565,0,0,1,1.47,0,7.883,7.883,0,0,0-.184-.861c-.139-.544.285-.725.233-1.5s.175-1.016-2.489-.184-4.655,1.728-6.836,2.405-3.2,1.12-1.764.922a3.374,3.374,0,0,1,2.036.21c.583.1,0,.968.065.916S329.886,202.8,329.886,202.8Zm-15.249,7.863c-.052.019-.081.036-.123.055a5.277,5.277,0,0,0-2.114,1.515c-.256.356,1.382-.333,4-1.444S318.323,209.122,314.636,210.666Zm35.354-12.42a57.081,57.081,0,0,0-5.581,2.894c-1.424.842-.434.6,2.314.246a23.077,23.077,0,0,0,7.681-2.214C356.134,198.161,355.619,195.7,349.99,198.246Zm16.279-8.406a33.684,33.684,0,0,1-7.053,1.881c-4.189.77-9.769,2.376-11.287,2.832-1.534.456-.952.5.133.974s1.34.673,4.771-.592,6.212-2.243,7.969-1.693,2.832.579.621,1.615-1.651,1.512-.991,2.146,3.321-.172,7.018-1.233,27.181-7.649,30.955-8.86a87.191,87.191,0,0,0,9.695-4.121c2.156-.981,3.554-2,1.159-1.864A48.175,48.175,0,0,0,400.4,182.3c-2.981.783-5.762,1.991-10.345,3.37s-3.969,1.874-8.057,3.033-2.425,1.246-7.069,1.92c-4.622.673-7.833.806-5.409.01s4.386-1.444,3.276-1.476A14.461,14.461,0,0,0,366.269,189.839Zm-42.313,6.972c2.2-.447,2.674-.411-.107.677s-5.211,2.428-2.5,1.463,4.849-1.453,8.134-2.3,3.095-.89,4.218-.657c1.139.233,2.761-.265,5.2-1.178s2.78-1.065,1.609-1.211c-1.191-.149-2.159-.783-3.968-.6a20.2,20.2,0,0,0-5.273.8c-2.085.706-2.573.871-3.865.544s-2.91.528-5.623,1.583a32.882,32.882,0,0,0-5.079,2.612C314.319,199.809,321.754,197.258,323.956,196.812Zm35.655-18.069c-3.438,2.02-6.241,3.713-3.153,2.916s4.593-1.4,4.626-1.113-.855.741-5.568,2.117-3.47,1.327-1.427,1.654,2.512-.126,6.561-1.327,5.674-2.091,8.859-2.735,4.049-.634.871.531-10.627,3.816-9.287,3.881a40.493,40.493,0,0,0,7.921-.615c2.2-.518,3.027-1.317,7.863-2.5s3.561-.667,4.334-1.288,4.1-2.573,4.855-3.15a19.554,19.554,0,0,1,5.066-2.159c2.8-.929,3.813-1.45,1.431-1.084s-5.176,1-4.781.69,2.308-1.434,1.408-1.5a26.292,26.292,0,0,0-3.93.605c-1.292.188-2.405-.259-3.985-.149s-3.1.5-4.959.531a25.282,25.282,0,0,0-8.843.887C364.569,175.8,363.026,176.736,359.61,178.743Zm-11.041,11.993c-1.188.521-3.91,1.366-2.224,1.369s1.126.185,3.855-.919a76.281,76.281,0,0,0,7.325-3.376c.447-.337-2.162.007-3.994.363s-2.874.191-6.71,1C341.257,190.348,349.76,190.212,348.569,190.736Zm140.024-50.127c-4.276.531-19.694,2.92-24.979,4.412s-4.477.227-11.7,2.123-18.072,4.3-21.555,5.286,1.392.227,3.065.165-8.6,1.673-17.039,4.418-13.9,4.493-5.768,3.379c8.154-1.12,9.144-1.078,9.144-1.078s-10.8,2.136-15.181,2.732-1.852-.045-11.077,3.124c-9.245,3.175-17.991,5.992-18.039,6.768s6.008.159,10.271-.722,13.809-4.062,14.566-4.341-4.189,2.149-4.189,2.149,4.732-1.525,10.112-3.3,9.614-3.263,14.761-5.033c5.127-1.767,6.069-2.14,6.069-2.14s-9.468,4.2-15.706,6.445c-6.26,2.25-14.1,4.736-17.709,5.733s-3.428,1.618-.152,1.295,5.334.327,6.985.291,1.589.618,1.589.618-4.9-.042-11.85,3.14c-6.989,3.2-6.513,3.774-5.014,3.525s6.914-1.544,7.607-1.165,8.562-2.79,8.562-2.79a40.725,40.725,0,0,1-7.888,3.464c-3.476.929-2.826-.142-8,1.428s-5.1,1.923-3.224,1.939,3.525-.275-.57,1.385-5.933,2.35-6.464,3.153,4.564-.615,7.778-1.5,6.325-1.819,12.2-3.428,5.448-2.062,7.646-2.635,4.276-.91,3.043.071.732.042,7.562-2.4c6.8-2.431,4.435-2.894,4.2-3.192s-2.525.149-3.868.288,5.412-3.347,4.862-3.807,7.186-1.913,11.533-4.357,3.567-3.273,1.088-2.91,4.813-1.233,7.319-2.221,7.8-2.683,10.19-3.969,3.23-1.751-1.735-.453,7.345-2.3,13.631-4.771c6.257-2.457,13.453-5.241,15.019-5.875s2.8-.754-4,.812c-6.781,1.567-14.673,3.056-10.154,1.907s17.878-4.448,21.639-5.937S488.593,140.609,488.593,140.609Zm-95.228,50.127c-7.29,1.751-17.751,4.111-21.1,7.037a129.236,129.236,0,0,0-10.135,10.255c-.78,1.075,7.795-.165,14.2-1.887s16.877-4.451,15.032-4.441.091-.8,6.063-2.308,6.82-2.217,7.027-2.671.8.275,4.658-.016,6.5,1.052,9.714,1.408,11.006.016,8.9,1.457-.107,4.137-13.663,8.4c-13.579,4.27-14.074,3.949-14.414,5.033s.058,1.4,5.3.006,13.161-4.855,15.133-4.321,5.208.1,7.273-.178-2.939,1.408-4.237,1.884,2.505-.363,9.565-.91c7.1-.55,16.223-2.583,12.067-2.457-4.13.123-5.616-1.091-7.409-1.178s-.11-.071,3.328-.618a31.1,31.1,0,0,1,7.668-.162c1.366.107,2.386-.709,4.172-2.793s.236-1.722-5.237-1.745c-5.435-.023-6.84-.709-7.037-1.583s3.567-1.965,5.389-3.043c1.806-1.071,5.325-.1,7.785.388s4.15,1.975,7.037-.039c2.861-2,6.247-5.749,6.529-6.5s-2.308.534-11.446,1.091c-9.086.553-13.841,1.123-14.754,1.343s2.849-1.272,7.409-3.017c4.529-1.732,6.331-2.068-1.56-2.923-7.8-.842-10.1-.848-15.858.388s-6.471-.489-10.332-.165c-3.839.324-14.265,4.435-17.22,5.428-2.936.991-2.234,1.156-4.959.275C395.557,191.309,393.365,190.736,393.365,190.736Zm6.662-1.777c-3.758,1.13,1.033,1.952,5.749.806a91.55,91.55,0,0,0,10.2-3.363C417.069,186.039,405.912,187.185,400.027,188.959Zm-28.786,30.259a26.573,26.573,0,0,0-3.969,4.082,10.8,10.8,0,0,1-2.185,2.369c-.9.884,1.9-.667,3.033-.091s.3,1.071,3.748-.978a30.136,30.136,0,0,1,10.659-4.017c3.823-.644,6.856-1.3,5.888-1.861s-2.852.036-5.053-.456-4.1-.24-7.319.249S373.193,217.56,371.241,219.218Zm-15.709,105.23c-.851-.926-2.085-2.5-10.148-.531s-11.423,4.448-14.676,6c-3.269,1.557,2.583-.207,6.83-2.3s7.05-2.473,7.461-2.3-1.538,1-2.081.851-1.136,1.172,3.062.5c4.221-.673,5.176-.641,5.3.162s-.091,1.321.654,1.787,1.02.673-.994,1.638c-2.043.978-1.337.709-.1.683a31.445,31.445,0,0,0,7.743-1.33c3.907-1.1,5.092-1.149,2.942-2.055A45.758,45.758,0,0,1,355.532,324.447Zm9.6,4.687c1.829.418.783,1.839.418,2.522s-2.586.939-6.768,1.764-3.6.887-.142.7,6-1.217,5.38.2,3.467-.981,5.347-2.275,1.538-.576,8.157-2.146c6.642-1.583,7.84-1.382,7.218-2.515s3.544-2.276-2.043-1.839C377.139,325.972,363.061,328.659,365.129,329.135Zm-19.47,7.008c-2.03-.563-5.127.285-5.571,1.483s.463.842,2.683.395C345.015,337.567,346.973,336.505,345.659,336.143Zm47.2-9.309c-2.648.359-3.538,1.554-1.949,1.858s4.535-.835,7.367-1.716S397.466,326.212,392.857,326.833Zm19.933-125.72c-3.415,1.321-5.432,2.159-3.234,2.768,2.221.615,3.522,1.016,5.021-.233S418.552,198.89,412.79,201.114Zm-32.308,21.811c-5.03,1.69-6.649,2.214-6.354,3.056s1.686.288,5.3-1.3S385.946,221.086,380.482,222.924Zm9.481-1.246c-.88.33-1.444,1.133-.654,1.5s3.276-1.1,4.554-2.159S393.22,220.461,389.963,221.678ZM360.892,188.69c-4.363,1.3-11.174,3.784-7.568,2.742s6.438-1.648,12.388-3.454,6.584-2.094,7.238-3.137S368.917,186.285,360.892,188.69Zm-22.432-.482c-4.639,1.813-3.735,1.809.965,1.065s5.066-1.165,5.325-2.522S341.186,187.143,338.46,188.208ZM643.154,160.82c-5.966,1.165-7.892,1.091-9.161,2.166s-3.5.842-4.852,1.12-3.7,3.175-4.564,2.894a8.755,8.755,0,0,1-2.376-1.211c-1.188-.744.586-.812-1.832-1.453-2.4-.635-7.542.126-7.976.566s3.4.269,1.987.887-4.7,1.583-5.962,2.068,2.276-.123,4.519-.573a6.658,6.658,0,0,1,4.435.437c.8.379-1.2,1.114-2.2,1.479s3.192-.23,4.846-.34,2.45.24,1.194.994,4.965-.528,8.384-1c3.389-.466,4.16.236,9.378-.864s7.636-1.327,12.469-2.923c4.8-1.589,4.415-1.295,7.6-2.311s2.463-1.156,2.687-1.939,2,.013,1.421-1.078-4.415-.4-7.057-.22-2.457-.476-3.758-.544S649.2,159.635,643.154,160.82Zm445.487,138.645a2.525,2.525,0,0,0-.029,1.942,24.492,24.492,0,0,0,1.013,3.253,3.7,3.7,0,0,0,2.276,2.357,9.743,9.743,0,0,0,4.237.8c1.942-.071,3.615-.531,2.152-1.955s-3.988-3.46-5.428-4.571C1091.438,300.193,1088.88,298.672,1088.641,299.465Zm-2.14-1.735c.376.486.654.443,1.211.835s.961.207.2-.311-.715-.557-.715-.557-.838-.269-.715.1M1311.3,423.064c-.007.052-.11.052-.162.071-2.706,1.139-6.6-.858-12.663-1.871-6.2-1.033-16.263-.757-16.418.835s.77,2.13-.159,1.6a25.068,25.068,0,0,1-2.764-2.153,4.127,4.127,0,0,0,.165,3.878c1.162,2.211,3.162,3.985,3.962,6.61s-.188,3.719.605,5.636,6.862,7.2,8.918,9.918,2.712,2.418,4.816,6.807c2.127,4.435,6.192,7.963,3.658,9.031s-5.118-.269-.33,3.561,8.61,6.633,14.531,7.481,3.745-1.185,8.494-.013,5.5.819,9.691,2.3,7.3,2.949,8.118,1.434c.816-1.5-.291-1.884,3.444-1.67s3.169-.327,5.865.447,5,2.913,8.054,2.334.181-1.939,8.584,1.58a93.349,93.349,0,0,1,15.537,7.973c3.357,2.094,9.083,6.312,10.844,8.306a39.338,39.338,0,0,0,4.606,4.749,2.935,2.935,0,0,0,2.735.091,34.191,34.191,0,0,1,5.969-.948s.819,2.988-.013,3.574-.265,2.256-.058,2.852,2.554-.395,2.946-.295,2.35,4.723,2.907,5.315a23.274,23.274,0,0,1,3.444,2.858,53.7,53.7,0,0,1,5.839,6.8c2.123,3.137,8.293,8.248,11.776,10.3a58.079,58.079,0,0,0,8.717,4.214c2.4.932,1.722-1.389,4.668.871s.864,2.839,6.95,5.59,7.16,1.939,9.177,1.855c2-.084,3.405,3.328,5.337,1.392,1.913-1.92,2.768-.8,1.816-4.8-.942-3.968-1.382-4.881.194-7.325,1.567-2.424,2.971-.133,2.9-4.872-.068-4.687.5-8.762-1.521-13.53-2.007-4.739-.46-1.521-3.787-7.358-3.3-5.778-2.136-4.732-7.267-8.973s-5.969-4.182-8.193-7.616c-2.208-3.412-1.2-3.59-3.221-4.571-2.007-.971-3.512-1.175-5.49-3.687s-2.12-3.166-5.143-6.069c-3-2.881-5-3.535-9.734-6.814-4.707-3.269-2.7-2.625-3.641-4.933-.932-2.289-1.687-4.613-5.435-7.157s-1.1-.026-2.632-3.719c-1.515-3.661-1.3-3.153-4.244-4.965s-3.81-2.149-6.428-5.089-6.335-7.442-7.74-9.206-1.719-.6-2.347-.016-1.169,2.263-.262,4.425,2.852,4.024,4.062,6.956c1.22,2.952-.628,4.6-1.826,5.493s-3.353-1.308-5.169-2.467-2.826-2.955-6.72-5.535-10.614-6.205-14.217-9.1-1.628-2.14-1.444-3.528a2.678,2.678,0,0,1,2.538-2.557c1.68-.262.874-.955-2.224-3.02s-6.891-3.625-11.484-5.441-7.384-3.059-6.438-1.321c.961,1.764,3.93,3.46-.142,1.466s-7.52-3.489-8.756-2.981-1.327,1.068-1.3,3.2,1.363,2.8-.272,2.169-8.9-5.059-11.316-6.458-3.58-1.784-5.542-1.243-8.931,2.152-11.776,2.136S1311.792,417.9,1311.3,423.064ZM1164.469,322.839c-1.965-.576-3.114-1.071-.2.981,2.926,2.059,3.671,2.5,6.334,4.1s2.79-.026,5.283,2.428c2.509,2.47,1.89,2.36,3.907,3.554s3.548,1.78,4.3,2.674a14.055,14.055,0,0,0,4.095,3.632,11.521,11.521,0,0,1,4.121,3.276c1.848,2.036,4.16,3.761,5.632,5.477s7.228,4.515,10.562,7.053c3.36,2.557,8.882,6.49,9.329,5.949s2.651.741,3.92.848,1.314-.835,1.224-3.175c-.091-2.324-2.295-4-3.8-4.949s-3.923-1.729-4.771-2.45-2.658-2.858-4.432-3.862-1.9-.469-2.46-1.9,1.318-.806-1.256-2.2a26.479,26.479,0,0,1-3.965-2.632c-.871-.579-6-2.47-7.545-3.5-1.521-1.013-7.354-3.635-10.387-5.551s-6.225-3.616-7.4-4.749S1172.976,325.325,1164.469,322.839Zm63.868,42.258c-2.195-.628-3.564-1.641-4.467-.605s-.725,1.091,1.56,1.742,2.084,1.191,2.068,1.346-1.152-.466,3.926,1.929,8.219,2.952,9.352,2.949,2.12,1.46,8.753,3.985,9.656,2.661,13.993,4.538,3,.683-.434-1.5-2.884-1.414-6.283-3.525a53.554,53.554,0,0,0-9.5-4.16c-2-.774,2.091,1.625-3.926-.547s-3.635-.832-7.076-2.8-3.522-2.156-5.613-2.923C1228.616,364.757,1228.337,365.1,1228.337,365.1Zm48.47,19.444c-1.528-.24-4.677-.783-2.971.11s.608.744,5.354,2.081c4.723,1.33,8.782,2.379,9.167,2s-.9-.473-3.043-1.482-1.725-.359-4.367-1.055A15.763,15.763,0,0,1,1276.807,384.541Zm16.832,5.409c-3.127-.858-2.551-.308.172,1a33.124,33.124,0,0,0,6.959,2.677,42.962,42.962,0,0,1,5.325,1.023c3.379.874,4.583,1.343,7.289,2.13,2.729.793,2.729.8,2.729.8a6.165,6.165,0,0,0-2.3-1.075c-1.874-.622-3.2-1.046-5.111-1.716s-4.745-.79-6.131-1.311-4.211-1.923-4.755-1.894C1297.3,391.614,1297,390.869,1293.639,389.95Zm19.156,8.743a.31.31,0,0,0-.1.006c-1.861.123-1.858.356-1.356,1.162s.2.987.2.987,3.269,1.072,5.15.437,1.994-.579,4.341-.2a11.756,11.756,0,0,0,4.554-.269,34.893,34.893,0,0,1-4.2-1.389,9.647,9.647,0,0,0-4.719-.787C1316.114,398.745,1317.557,399.341,1312.8,398.693Zm-18.661-5.784c-2.774-1.806-5.017-2.431-4.946-1.877s-1.819-.11,1.823,1.751,7.212,3.92,6.564,2.829S1295.332,393.686,1294.135,392.909Zm-37.863-46.185c-.9.618,1.563,1.13-.016,1.424s-3.266-.557-4.658.191-3.956.809-5,.929-4.845-.486-6.1.291,1.473,2.2,1.473,2.2a14.732,14.732,0,0,1-4.092-1.47c-3.121-1.418-3.593-2.178-3.593-2.178s-2.078-.628-2.573.683-1.068,1.317,1.4,2.9c2.486,1.593-1.013.631-.3,1.431s1.253,2.091,2.564,2.586,1.285-.194,3.253,1.308,1.887,4.124,3.946,4.859,3.308.693,5.2,1.628a15.937,15.937,0,0,0,5.406,1.958,19.558,19.558,0,0,1,6.043,2.178,56.3,56.3,0,0,0,7.947,3.425c2.049.563,2.518.948,2.2-.586s-1.23-3.175.764-3.645,2.085-.44,1.774-1.55-.809-2.311.2-3.033,2.716,1.463,3.127.793,1.224-.408.567-1.016-2.965-1.347-4.224-2.492-.295-1.243-2.133-3.357c-1.822-2.1-2.146-1.615-1.068-2.136s2.246-.317,2.094-1.023.45-.56,2.01-.689c1.544-.13-.456-.473-2.548-1.745-2.075-1.266-6.552-4.946-8.61-5.555C1260.215,344.711,1257.156,346.116,1256.272,346.724Zm312.391,239.77c-1.042-1.078-1.606-1.12,1.058,2.169s2.616,2.8,3.868,3.648,3.762,5.671,4.823,7.176,2.823,3.645,2.823,3.645,2.292,5.072,2.38,6.755-.9,1.774-.683,3.437,2.486,2.719,4.279,4.389,1.515,1.486,1.476,2.819-1.622.91-1.515,1.23,4.35,4.687,5.486,3.758,2.975-2.185,3-3.943-1.826-2.2.156-2.166,1.906.583,2.515-.579,1.282-2.363-.56-4.425-2.684-.757-3.843-1.159c-1.133-.388-2.159-1-4.282-3.052s-2.473-2.279-3.693-4.26a32.37,32.37,0,0,0-2.4-3.392s.366,2.253-1.224.576c-1.605-1.686-1.576-2.379-3.036-4.431s-1.628-2.505-2.609-3.952c-.971-1.424-1.162-3.13-4.328-5.354S1569.637,587.51,1568.663,586.494Zm10.031,28.006a6.532,6.532,0,0,0-3.036,1.932,5.716,5.716,0,0,0-1.45,3.489c-.194,1.13-2.149,1.379-5.726.79s-4.917-.738-5.71.346a50.986,50.986,0,0,1-4.341,4.435c-.4.32,2.861,2.991,6,5.011s8.885,7.992,10.675,6.879,2.357-6.128,3.276-7.451,2.233-1.152,4.137-1.748,4.92-2,4.373-3.671a38.954,38.954,0,0,0-2.577-5.118s-.363,1.185-2.738-.547A7.793,7.793,0,0,1,1578.694,614.5Zm-11.122,17.127c-3.625-3.648-3.311-1.016-2.874,1.761s1.508,1.343,3.8,1.712C1570.806,635.469,1568.967,633.025,1567.572,631.627ZM1452.9,549.23c-3.988-2.874-2.441.295-1.188,2.716a42.415,42.415,0,0,0,4.545,7.076c1.984,2.544,7.387,5.924,9.177,6.2,1.764.272,2.366-1.667,3.57-3.14a5.388,5.388,0,0,0,.3-5.571c-.871-1.706-2.5-.191-3.949-.414s-3.108.272-6.5-2.078C1455.493,551.677,1454.318,550.25,1452.9,549.23Zm-94.93-149.022c-2.651-.693-4.732-2.758-8.319-6.522-3.57-3.749-5.519-4.807-10.792-5.694-5.3-.893-4.535-.855-.243,1.476s4.956,2.839,5.483,3.036,6.425,2.845,5.409,2.871-6.128-1.489-2.146,1.188c4,2.687,2.162,1.107,12.207,7.3,10.119,6.238,10.63,4.771,15.042,9.549,4.441,4.807,4.15,4.189,2.253,4.2-1.913.007-4.528-.265-3.237.343s3.761,1.858,9.892,4.561c6.147,2.713,1.415,2.59,8.17,5.428s7.921,2.2,9.691,1.282,2.774.382,8.795,3.71,9.423,7.49,17.049,12.016,11.42,7.739,5.784,2.9c-5.6-4.807-8.053-7.529-15.456-13.356-7.338-5.781-7.843-6.238-10.656-9.355-2.8-3.1-10.148-8.458-17.807-13.064-7.633-4.587-11.666-6.422-20.354-11C1359.835,396.395,1360.634,400.9,1357.974,400.208Zm-51-26.844c-2.2.149-2.813-.615-5.118-2s-.8.974-5.755-1.69-6.862-3.781-10.789-3.37c-3.956.414-.583,2.217-.107,3.583s-1.751,4.114-2.583,5.121-.612,1.557.9,2.884,2.956,1.5,3.82,2.195,1.774,4.315,1.512,5.338,2.551,2.182,5.221,2.761.136-.379-.418-1.732.541-1.508-.5-4.007c-1.029-2.48-1.508-3.622-1.508-3.622s.7.023,2.059,1.2,3.813,4.053,5.542,5.687c1.745,1.648,3.373,3,4.927,2.8a27.287,27.287,0,0,0,2.929-.566s-3.978-1.952-4.286-2.687,1.013-.806-2.6-4.114c-3.577-3.282-4.975-3.852-1.784-2.874s2.292-.916,3.953-.809a19.4,19.4,0,0,1,4.409,1.207,14.078,14.078,0,0,0-5.066-2.295,49.358,49.358,0,0,0-7.29-1.188c-2.12-.052-4.056-.282-5.1-1.855a10.507,10.507,0,0,1-2.01-3.855c-.492-1.819,4.02.923,6.72,1.421s2.751.6,9.177,2.994,6.516,1.735,7.752.906a4.114,4.114,0,0,0,1.573-2.156S1309.154,373.215,1306.972,373.364Zm12.637.029c.3-.388-3.709.414-4.448.6s.563,1.282,1.6,2.292,2.03,3.59,2.551,4.266a18.272,18.272,0,0,0,3.415,2.153s-.858-1.819-.249-2.292-.8-1.826-1.457-3.308S1318.706,374.552,1319.609,373.393Zm-3.334,12.187c-4.5-2.369-5.778-2.3-5.244-1.039s.343,1.719,4.729,3.269S1324.617,389.976,1316.275,385.58Zm7.817,2.091c-.935-.178-1.172,1.343-.11,2.7s1.427.838,3.629,1.421,1.372-.638,4.188.288a88.965,88.965,0,0,1,9.361,4.49s.89-.437-4.454-3.868S1329.333,388.668,1324.093,387.671Zm-105.333-81.147s-3.972-1.007-4.583-1.169a12.9,12.9,0,0,0-2.544.246c-.867.032-.68.443.353,1.4s2.23,1.3,4.3,2.081c2.085.787,1.081-.078,2.415.055,1.314.126,1.437-.4,1.486-.89s.884-.489,1.146-.592-1.521-1.172-1.547-1.23A5.827,5.827,0,0,0,1218.759,306.525Zm48.214,16.224c-1.832-1.065-1.738.741-1.677,1.683a2.672,2.672,0,0,0,1.016,2.515c1.152,1.036.916,1.178.916,1.178-1.062-.628-1.6-.942-2.661-1.564a3.125,3.125,0,0,0,.256,1.69c.4.88-.126,1.039,2.781,2.473s3.616,1.366,4.409,2.447a4.734,4.734,0,0,0,2.813,2.224,21.514,21.514,0,0,1,4.982,2.554c.965.819-.385-1.479.89-.965a19.055,19.055,0,0,1,4.266,2.79,9.189,9.189,0,0,0,2.531,1.476s-2.816-2.412-2.043-2.347.952-.029-1.651-1.479a35.643,35.643,0,0,0-6.147-2.531c-1.793-.67-1.437.094-3.567-2.094s-1.586-2.946-1.761-3.324,1.233.877,1.709-.01.282-1.767-.434-2.984.793-1.136-.524-1.576A58.766,58.766,0,0,1,1266.974,322.748Zm31.327,29.6c.673.994-1.683-.77-2.143-.482s-.864.071-1.874-.048a12.9,12.9,0,0,0-3.078.372,9.78,9.78,0,0,1-.466-1.081c-.026-.175-1.379-1.5-1.887-1.068s-1.1.622-2.726.521-2.444.272-2.276,1.1,1.515,1.237,1.515,1.237a2.879,2.879,0,0,0,1.357-.709c.757-.638.99-.541,3.14.032s1.984.534,2.975,1.418.909,1.709,1.3,2.46.651,1.586,3.12,2.774,1.214.431,3.25,1.029,2.01.618,1.453-.065a22.746,22.746,0,0,1-1.855-2.127c-.434-.719.761-.57,1.13-.56s1,.91,2.013,1.975,1.246,1.117,1.224.56a5.241,5.241,0,0,0-.625-2.751,14.179,14.179,0,0,1-1.353-2.243,8.2,8.2,0,0,0-2.4-2.256c-.7-.43-3.175-2.088-3.175-2.088S1297.637,351.369,1298.3,352.35Zm-12.54-8.7s-.207-.544-2.554-2.14a19.478,19.478,0,0,0-5.551-3.082c-3-1.169-5.726-1.677-3.761.343a10.3,10.3,0,0,0,4.988,3.363,7.618,7.618,0,0,0,3.709.741s.3.324-1.664.366-1.557,1.444.521,2.606,2.441,2.049,3.279,1.932.919-1.415,2.557-1.8,1.706-.5,1.46-1.541a7.493,7.493,0,0,0-.887-2.026C1287.017,342.911,1286.6,343.16,1285.761,343.652Zm3.489-1.593c-.214.029-1.809-.654.13.664s3.473,1.984,3.554,2.522.265.7-.641.35-1.233-.557-1.631-.7-.272.246.152.706.178.019,1.22.9a5.9,5.9,0,0,1,1.528,1.864c.57.822.99.647.99.647a23.611,23.611,0,0,1-1.088-2.185c-.065-.32-.829-1.321.418-.673s1.431,1.6,1.631.829-.5-1.742-1.182-2.632a6.256,6.256,0,0,0-3.192-1.735C1289.807,342.186,1289.25,342.06,1289.25,342.06Zm-21.263-4.153c-.609-.113-.861.1-.732,1.152s-.858,1.295-1.89,1.576-3.891,1.049-3.923,1.356-.178.068,2.279.227,4.2-.094,4.124-.919-.486-.456,1.661-.311.829-.44.508-1.343A2.449,2.449,0,0,0,1267.987,337.907Zm162.9,94.088c.392,1.369,1.531,2.247-.065,2.412s-3.962-.9-6.1-1.651-.706-.515-3.493-1.79-3.428-1.45-1.751.026,1.767,2.234,5.8,3.949,6.736,1.764,9.118,2.412,1.528-.874,1.453-1.424S1430.468,430.516,1430.889,431.995Zm12.786,8.436c1.606,1.6,1.11,1.233,3.182,3.337a33.241,33.241,0,0,0,6.328,4.622c1.874,1.194-.172-.414-1.958-2.182a56.9,56.9,0,0,0-4.551-4.473C1444.293,439.712,1440.881,437.643,1443.675,440.43ZM1261.014,307.5c-4.655.087-7.176-.757-3.952,2.068s5.043,4.192,5.545,4.7,1.282.136,1.939-1.165-.266-3.528,0-4.033S1262.607,307.463,1261.014,307.5Zm48.078-49.723c1.12,1.133,2.557,2.8,1.4,2.564s-1.392.55-1.062,1.551a5.587,5.587,0,0,0,2.385,3.515c1.871,1.317.952,1.075,1.389,1.822s2.039,2.819,1.9,3.693-.447,1,.567,2.311a19.984,19.984,0,0,1,1.851,3.2c1.013,1.758,1.589,3.094,2.149,3.855s.751-.042,1.169-.1a9.835,9.835,0,0,1,4.053,1.525c1.554,1.007,1.554,1.01,1.554,1.01s2.156,1.029-2.049-2.554c-4.176-3.561-4.334-3.15-5.017-5.328-.677-2.159-.3-2.062,2.262-1.415s5.007,2.871,5.432,3.156-.586-.677-2.337-2.353a29.906,29.906,0,0,1-4.185-4.189,16.674,16.674,0,0,0-4.93-4.47c-1.7-.932-1.437-1.479-1.188-1.91s-.094-1.327-1.058-2.528-2.589-2.955-3.324-3.661a1.66,1.66,0,0,0-1.748-.265ZM1322.04,283.3c.605.838,1.185,1.615.566,2.136s.314,1.016.385,2.065-3.807-1.269-3.661-1.013.172,1-.457,1.058-3.344-.78-1.822.761,3.748,3.4,3.748,3.4a7.571,7.571,0,0,1,1.648-.107l1.644.343a10.87,10.87,0,0,0-2.454-1.45c-2.007-1-2.321-1.784-2.214-1.958s2.551.91,3.962,1.324a14.324,14.324,0,0,1,4.6,1.761,45.725,45.725,0,0,0,4.9,2.447s-.262-.932.13-1.389,2.923.676,5.075,1.156,3.81.906,2.739.149a19.651,19.651,0,0,1-2.56-2.777c-.936-.968-2.026-.728-3.069-.851a15.2,15.2,0,0,1-4.59-1.923c-1.9-1.055-5.882-3.939-7.351-5.04C1323.267,283.387,1321.432,282.455,1322.04,283.3Zm-.54,9.51c-.67-.074-1.114.576-.334,1.722s2.023.615,1.428,3.15c-.6,2.564-1.415,2.92-3.341,2.994a12.009,12.009,0,0,1-5.192-1.194c-1.052-.537-.278-.913.266-.913.56,0-2.272-1-3.383-1.3-1.13-.3.327.719.486,1.207s-1.33,1.194-.735,1.929.7.936-.667.673a11.332,11.332,0,0,1-3.26-1.609c-.5-.256-2.56-.67-5.367-1.411-2.823-.748-3.3-.5-3.994.152s-3.545-.117-5.451-.388-.327,1.463-2.379,1.246-1.56.725-1.35,1.437,1.55.683,1.774.706-.307-1.01,1.194-.44,1.7.66,1.36,1.22a7.264,7.264,0,0,1-.952,1.288c-.4.45.764,1.091,2.246,2.143s2.1.492,3.829.016,1.787-.712.861-2.182-1.878-1.8-3.833-2.755-2.127-.676-.751-1.146,2.8.864,3.845.8,4.247.987,7.1,1.605,5.522,1.1,5.9,1.625,2.188,2.5,2.479,2.868c.307.392,1.871.217,3.706.521,1.851.311-.159-.505-.7-1.233s.376-.728.376-.728a8.722,8.722,0,0,0,4.505,1.774c2.868.327,2.949.1,3.872.5a7.289,7.289,0,0,0,2.845,1.068c1.123.029,1.589.528,1.531.787s3.6.693,4.347.693.417.123-.615-1.23-2.243-1.839-2.411-3.159a7.359,7.359,0,0,0-.783-2.434c-.346-.91.308-.8.77-.689s-.236-1.168.424-1.489.249-.722-.612-2.276-2.418-1.861-3.13-2.975a4.649,4.649,0,0,1-.777-2s-3.111-.528-3.263-.269-.159.265-.159.265A4.183,4.183,0,0,0,1321.5,292.81Zm-13.793,9.322c-3.512-.9-6-1.544-8-1.9s-2.221-.039-1.321,1.146,2.324,2.551,2.917,3.208,1.505.489,3.273.612.819-1.5,2.777-.858,1.832,1.538,3.648.825-.272-1.505-.608-2.276S1307.707,302.132,1307.707,302.132ZM1477.53,304c-3.755-1.919-5.037-2.764-4.92-2.233s-.11.586,2.389,1.984,3.133,1.162,5.765,2.923a19.44,19.44,0,0,0,4.713,2.593c1.521.609,1.864.46,1.864.46S1480.385,305.456,1477.53,304ZM1419,259.806c-1.156-.33-2.586-1.314-1.24.291s2.169,2.052,5.995,3.37.945.311,6.3,2.311a44.28,44.28,0,0,0,6.228,2.1,34.219,34.219,0,0,0-3.606-2.486c-2.337-1.437-4-1.275-8.464-3.289C1419.767,260.1,1419,259.806,1419,259.806Zm-137.292-61.787c.372.482,6.7,3.389,8.928,4.357a49.433,49.433,0,0,0,7.733,2.34c4.046,1.075,3.888.466,4.1.207s-2.156-.868-5.095-1.926c-2.955-1.068-4.966-1.324-6.1-1.819s1.214.036-1.5-1.055a28.214,28.214,0,0,0-3.655-1.1,10.4,10.4,0,0,0-2.224-1.084C1282.672,197.543,1281.358,197.566,1281.708,198.019Zm-19.79-3.4c-1.709-.233-1.4.065,1.2,1.353,2.619,1.295,1.8.939,1.185,1.175s-.013-.026,3.438,1.385c3.467,1.415,5.393,2.768,7.481,3.548a13.846,13.846,0,0,0,3.227.874,32.059,32.059,0,0,0-3.671-2.5c-2.453-1.482-6.584-2.874-7.849-3.91A9.049,9.049,0,0,0,1261.917,194.623Zm17.084,1.67s-3.234-1.46-8.144-3.671a79.238,79.238,0,0,0-8.147-3.379c-1.476-.469-.832.236-1.042.583s-.657.146-3.127-.861-5.066-2.214-7.442-3.007-3.292-.473-5.244-.2-.3.926,3.771,3.192c4.088,2.282,5.525,2.738,7.684,2.865s1.2-.444,3.2.33,7.914,1.974,8.138,2.039a4.119,4.119,0,0,0,3.026,1.654c2.5.421,4.917.968,5.823.793S1279,196.294,1279,196.294ZM1074.68,130.2c-.683.084-5.38-.738-7.16.052-1.8.8-3.878-.249-4.755.269a6.428,6.428,0,0,0-1.46,1.214,21.559,21.559,0,0,0,4.891,1.385,35.513,35.513,0,0,1,9.293,2.512c2.771,1.314,4.448,1.567,10.064,2.716s3.26.991,6.069,1.372c2.793.379,6.833,1.227,5.723.634s-1.929-.991-2.042-1.79,2.444-.35-.842-1.408a21.892,21.892,0,0,0-5.056-1.02c.09-.081,2.46.016,1.434-.168s-6.082-1.078-7.128-2.039.858-.719,1.835-.622.644-.052-2.6-1.149c-3.23-1.091-7.474-2.344-7.474-2.344C1073.812,129.82,1075.356,130.111,1074.68,130.2Zm30.719,10.766a8.616,8.616,0,0,0-4.337.5,19.6,19.6,0,0,1-4.244.968c-1.324.133-.829.311,1.816,1.013s6.61.673,7.84.867a50.153,50.153,0,0,0,6.387,1.512c3.858.544,9.717,1.392,6.409.184s-2.091-.7-5.775-2.094a52.661,52.661,0,0,0-7.782-2.159s6.224.443,4.6.12S1105.4,140.962,1105.4,140.962ZM933.073,111.227c-3.661.126-2.272.4-4.558.787s-.579.638,4.613.631c5.166-.006,5.4-.133,8.659-.324C945.031,112.13,938.528,111.039,933.073,111.227Zm9.313,3.24c-3.412.188-2.3.728-1.224,1.178s3.483.026,4.363.5,1.036.317,4.163-.062c3.107-.375,1.952-.278.408-1.046S948.222,114.147,942.386,114.467Zm-19.936-1.583c-2.195.168-2.2.133.061.547a46.657,46.657,0,0,0,10.2.657c2.564-.32,2.386-.233-1.1-.6A58.007,58.007,0,0,0,922.45,112.884Zm-33.4-.537c3.535.055,6.8.155,9.665.372s2.01.838-3.2.764.605.4,4.312.531,1.072-.835,4.1-.981,5.046.139,8.646-.029-2.334-.838-6.639-1.026c-4.289-.188-5.7-.181-9.371-.414s-6.5.1-10.216.133C878.67,111.764,885.523,112.289,889.048,112.347Zm27.941,1.612c-3.12-.175-10.517-.1-4.117.418s5.943.609,8.478.492C923.9,114.755,920.278,114.147,916.989,113.959Zm22.2,1.771a49.511,49.511,0,0,0-8.05-.741c-3.425-.181-4.6.337-2.263.738a32.926,32.926,0,0,0,5.652.44c1.829.039,1.67-.126.424-.337S941.9,116.157,939.188,115.73Zm18.1-.142c-3.354-.155-3.5,0-3.7.288s.576.282,4.133.443a55.226,55.226,0,0,0,7.387,0c2.195-.159-.961-1.275-1.023-1.434a22.1,22.1,0,0,0-3.975.346C959.267,115.386,961.257,115.768,957.289,115.587Zm-272.6,61.376c-2.039,1.884-5.234,2.955-1.489,2.153,3.729-.8,7.542-2.577,7.267-1.3s-3.881,1.408-2.839,2.567.2,1.117,6.361,1.078c6.182-.036,1.133.2,2.583,1.3s2.483,1.4.835,1.881-6.345-.6-6.675.049.592,1.036,1.687,1.822-.868,1.434-4.554,2.324c-3.713.893-.55.981,2.243.7s9.86-1.285,8.662-.363-4.525.223-7.018,1.809c-2.528,1.6-11.54,3.58-6.869,3.095,4.655-.489,4.007-.91,17.907-2.622,13.867-1.709,4.253-.4,13.4-1.952,9.112-1.551,6.218-1.6,1.185-1s3.331-1.874,2.227-3.583c-1.1-1.693-4.412.2-6.49-.774s-1.764-1.321,2.246-1.182,3.658-.528-4.046-1.641c-7.655-1.1-2.9-1.113-6.364-2.22-3.444-1.1-9.439-.479-9.439-.479a16.441,16.441,0,0,0,4.169-1.8c1.567-1.091,1.848-1.036,3.525-2.334s-1.547-.958-5.616-.359c-4.085.6-5.425.848-4.535.256a17.031,17.031,0,0,1,3.4-1.644c1.926-.8,2.311-1.162-1.175-.628a69.645,69.645,0,0,0-7.014,1.237C683.68,174.409,686.716,175.092,684.69,176.963Zm-9.944,4.927c-6.3,1.389-4.6,1.767-3.573,1.965s2.971-.557-2.952,1.117c-5.956,1.68-6.17,2.933-3.137,2.878,3.049-.055,2.735-.861-.719,1.521-3.5,2.412-5.872,4.056.842,2.868,6.7-1.188,8.636-2.518,11.821-2.946s3.836-1.334,3.943-2.625-2-1.13.583-2.412c2.557-1.272,2.842-2.405-1.984-2.483C674.766,181.692,678.7,181.019,674.746,181.889Zm78.8,24.3c-.337.33.457,1.149-2.159,1.855s1.292,1.075,2.137,1.593c.861.528,1.9-2,1.631-3.153S754.627,205.144,753.549,206.189Zm-1.172,4.713c-4.305.922-4.567,1.489-5.066,2.68s3.5.065,2.486,1.143-.058,1.583,4.444.408c4.477-1.172,1.913-1.949,2.567-3.2S758.026,209.688,752.378,210.9Zm67.746,11.265c-3.862-.133-5.48.764,1.143,1.029a105.217,105.217,0,0,0,12.045.126c2.415-.2.369-.045-2.952-.867S825.053,222.338,820.123,222.167Zm36.788,1.143c-5.367-.544-3.583,1.89,1.8,1.654s3.389.217,5.619-1.2S862.553,223.882,856.911,223.309Zm-131.854-8.251c-4.263.46-4.6,1-1.295,1.113s2.891-.236,4.775-.838S726.929,214.858,725.058,215.058Zm-246.367,7.775a57.178,57.178,0,0,0-10.255,6.247,43.989,43.989,0,0,1-7.762,5.069c-3.891,2.178-2.065,1.431,8.3-.2,10.41-1.631,9.352-.79,11.9-1.6s2.784-.117,2.525.725,2.217-.152,3.736-1.719c1.5-1.551.023-3.444-1.751-4.312s-2.269-.761-5.788.337-2.214.2-3.091-.563-3.1.489.33-1.712C480.242,222.927,481.349,221.577,478.691,222.833ZM165.423,324.046c-.864,1.638,1.029,2.939,3.082,2.725s1.793-.492,1.657-1.932.787-1.842.9-2.845S165.731,323.457,165.423,324.046Zm12.158,1.47a11.357,11.357,0,0,0,4.7.311,31.356,31.356,0,0,0,7.267-1.674c3.46-1.065,5.467-2.505,3.609-2.57s.11-.829-3.985.544-5.1,1.965-6.924,2.217C180.446,324.6,176.516,325.389,177.581,325.516ZM95.01,350.689a20.138,20.138,0,0,0-5.817,3.26c-2.289,1.761-3.172,2.735-2.67,3.124s.165.2,3.007-1.907,1.8-1.664,4.985-3.577,2.878-2.149,2.878-2.149A12.5,12.5,0,0,1,95.01,350.689Zm.152-1.515c-2.14,1.521-3.01,2.318-.871,1.065s2.208-1.741,3.415-2.25a7.583,7.583,0,0,0,1.806-1.013A15.929,15.929,0,0,0,95.162,349.174ZM46.67,371.47c-2.8,2.023-4.629,2.47-3.441,2.178a17.853,17.853,0,0,0,4.593-1.887c1.654-.981,2.706-1.567,2.376-1.7s-.411-.168-.185-.615C50.311,368.852,49.466,369.457,46.67,371.47Zm903.106-34.81c-2.929,3.671-11.009,1.062-16.661,3.515-5.7,2.476-4.868,1.654.473,6.16,5.409,4.564-3.256,3.447-4.6,8.27-1.36,4.9,3.224,4.318,6.48,8.879,3.308,4.629,4.263,3.373,8.908,3.2a38.619,38.619,0,0,0,7.775-1.016,29.1,29.1,0,0,1,2.25-9.031c2.1-5.186,3.522-8.934,3.431-12.41-.091-3.441.013-5.878,1.761-4.668s1.936,1.233,1.606-.456-3.085-6.545-6.257-7.9C949.417,328.83,952.667,333.042,949.776,336.66ZM911.243,145.852c-3.956.061-5.677.719-2.654,1.172s2.687.269,7.406.016S915.144,145.788,911.243,145.852Zm66.927-16.094c-1.563-.738-2.444-.081-15.44.515-13.11.6-13.488-.893-25.319,1.2-11.993,2.12-9.229,1.971-9.426,3.755-.2,1.8-3.464.809-4.172,2.418s-7.374,1.311-3.635,2.916c3.768,1.618,8.432,2.706,15.641,3.8,7.241,1.1,9.015.6,7.422.272s-7.73-3.26-7.555-6.05c.175-2.755,3.778-2.094,6.454-2.926s9.562-2.939,14.34-3.434c4.619-.482,17.276-.57,23.607-.615a3.25,3.25,0,0,0,.515-.006C985.055,130.348,979.75,130.5,978.17,129.758Zm-30.589,15.825c-1.644-.055-2.421-.1.939,1.055s6.286,2.091,4.872.77S949.08,145.636,947.581,145.584Zm46.667-4.318c-2.324-.544-3.638-.994-3.959-.534s2.958,1.46,5.969,1.945S996.475,141.787,994.248,141.266ZM451.209,234.545a51.72,51.72,0,0,0-9.025,1.026c-2.34.576.146.855,3.577.748C449.225,236.212,453.171,234.454,451.209,234.545ZM440.5,242.653c.615-1.246-2.5,1.881.006,1.79a10.741,10.741,0,0,0,5.8-1.4c1.952-1.117.4-.337-1.9.078S439.99,243.7,440.5,242.653Zm1034.636,56.061a71.226,71.226,0,0,1-7.231-3.428s.887,1.583.22,1.855c-.683.278.774,1.531.774,1.531s-4.609-2.658-7.231-4.091-4.483-1.958-7.034-4.334c-2.528-2.363-6.315-3.726-9.439-5.024s-3.577-2.949-3.577-2.949,0,0-1.855-.728,0,1.693-1.971,1.415-9.374-2.942-9.374-2.942,6.1,3.761,8.076,5.645,4.836,4.111,4.836,4.111.01.489-6.341-2.535-5.24-1.725-10.818-2.994a94.294,94.294,0,0,0-13.006-2.169c-1.353.016-1.732-.456-7.853-3.328s-6.335-1.848-7.594-2.052-1.962-1.991-1.962-1.991a23.928,23.928,0,0,0-4.179-1.11c-22.131-3.447-4.231,3.027-4.234,4.02.165,1.612.249,2.418.411,4.03-.346,4.221-4.888.243-5.393,3.515-1.647,10.7-17.91-8.248-20.2-11.944-1.392-2.256-4.234-5.522-1.632-5.114,22.154,3.47,1.9-.049,21.111.987,6.134.333.948-2.719,2.2-2.793a15.893,15.893,0,0,1,3.845.738s0-.006-4.328-1.751-4.156-1.337-6.367-.848-4.642-.152-4.791-1.2a2.978,2.978,0,0,0-2.946-2.538c-2.059-.207-3.156-.68-7.549-1.887-4.409-1.211-8.788-1.932-11.485-.952-2.713.987-.476,1.525,1.285,2.6s-6.536-1.9-10.543-3.373c-4.023-1.479-2.169-1.12-.068-.68s-3.849-1.806-9.241-3.975c-5.37-2.162-2.875-.647-5.538-1.1-2.683-.456-3.188-1.424-4.784-2.056s-8.422-2.978-13.317-4.706-4.318-1.23-5.156-.926-7.639.987-10.316,1.751c-2.709.774-7.27-.253-10.549.259s-4.062.21-.359,1.55,4.1,1.34,5.542,2.965,3.382,2.615,7.167,3.778,2.981,1.282,2.936.227-2.548-3.02,1.288-.919c3.852,2.114,6.94,3.771,8.847,5.7,1.926,1.945,1.44,2.764,1.4,5-.036,2.256,1.709,6.108.625,7.445s-2.013,2.327-3.231,3.823-10.335,3.47-12.844,3.13a11.551,11.551,0,0,1-6.289-2.431c-1.974-1.57-2.842-1.66-5.3-1.308s-3.5.709-3.587,2.454-2.8.942-4.781,1.7-2.913.168.142,2.619c3.075,2.466,7.574,5.487,8.9,7.416a3.807,3.807,0,0,1-.152,4.713c-.761.751-6.992-.67-7.154-1.191a34.767,34.767,0,0,0-2.544-4.93c-1.075-1.664-3.554-2.415-2.949-2.638.621-.233,3.8.023.592-1.894s-4.545-1.486-6.361-3.153-.767-2.269-1.625-2.916c-.877-.664-3-1.732-6.927-2.985s-3.884.243-5.545-1.528c-1.644-1.754-.489-1.567-2.551-2.677s-3.328-1.1-6.875-.615c-3.59.5-4.651-.11-8-.385s-3.15.146-2,.948,5.555,4.172,8.306,5.156,4.231.706,8.209,1.819c4,1.12,4.875,1.609,4.234,2.017s-3.039.333-6.765,1.23c-3.752.9-2.473.887-.372,2.266a69.294,69.294,0,0,1,7.723,5.522c2.677,2.331,1.243,2.492,1.512,3.476s.7,2.5,4.826,5.16c4.149,2.67,1.576,1.434,1.508,1.952s-3.273,3.829-4.619,5.571c-1.363,1.758-1.266,1.978-8.251,2.46a49.141,49.141,0,0,1-15-1.1,91.06,91.06,0,0,0-10.073-1.4c-2.13-.162-.79,1.033-.783,1.538s-2.457-.605-2.463-1.379-.544-1.482-1.826-2.026c-1.266-.541-5.228-2.188-8.209-1.427-3.01.764-7.539-.291-8.138,1.521s-.664,1.13,1.441,2.5,12.064,7.4,14.942,10.028a19.328,19.328,0,0,1,5.127,6.73c1.143,2.386-6.717,4.134-10.368,4.444-3.674.311-4.04,1.444-4.308-.634s-3.331-4.04-7.089-6.487c-3.729-2.434-13.589-6.089-15.408-6.7-1.79-.6.049-1.34-1.13-1.573-1.149-.23-4.082-1.259-2.839.932s-2.214.774-2.029,2.729c.181,1.971.262,3.978,3,4.483s3.046,2.47,6.131,5.367c3.107,2.923,1.774,1.385,8.037,4.972,6.293,3.606,4.787,2.884,6.895,5.451s2.24,3.771,5.768,6.584,3.865,3.328-1.088.948a65.42,65.42,0,0,1-11.495-6.632c-2.314-1.868-4.8-5.726-6.577-7.765s-9.853-5.882-12.77-7.707c-2.9-1.813-1.809-2.447-1.715-4.962.094-2.5-2.709-5.561-3.777-7.322a74.318,74.318,0,0,0-7.672-8.853c-1.939-1.829-1.331-1.505-2.842-.644a5.969,5.969,0,0,1-4.768.88c-1.981-.44-4.959-1.237-4.936-1.78s1.1-2.408.168-3.389a27.844,27.844,0,0,0-7.027-5.648,37.975,37.975,0,0,1-9.452-6.053c-2.625-2.525-2.849-1.991-5.807-1.563-2.975.434-10.75-.981-14.443-1.564s-.3.832-.9,1.47-4.651.861-12.035,3.37c-7.49,2.547-8.795,2.46-10.973,2.492s-3.674-.359-3,1.389,1.343,2.777,1.44,4.266-.735,1.968-1.366,2.8a6.874,6.874,0,0,0-1.078,3.418c.01.91-1.651,1.683-4.305,2.162s-2.713.3-4.558-1.392-10.64-8.377-17.972-14.323c-7.215-5.849-6.186-6.506-7.179-8s-3.81-9.818-3.774-10.4c.02-.324-2.373.573-2.946,1.113s-.278,1.363-3.412,1.029a15.476,15.476,0,0,1-7.222-2.1c-3.405-1.69-5-2.583-4.47-2.476a35.706,35.706,0,0,0,5.794.265c1.839-.139,1.036-.683,1.036-.683s-2.117-.2-4.658-.5-1.489-.437-5.053-1.457-4.338-1.165-5.1-1.868-1.871-1.7-2.506-2.234-1.036-.621-1.784-1.282-2.156-.181-5.791-.6-2.787-.246-6.966-.062-4.92-.142-9.921-.767a88,88,0,0,1-11.31-2.47c-2.6-.609-2.952-.5-6.7-1.088s-3.159-1.259-4.25-1.978-2.658-1.013-7.455-1.311a42.027,42.027,0,0,1-7.772-.935c-2.79-.528-3.12-.939-5.622-2.039s-1.57-.32-3.175-.91a13.939,13.939,0,0,1-4.719-2.693c-1.479-1.337-1.282-1.586-2.774-2.263s-1.356-.528-5.593-.835c-4.218-.3-2.275-.052-2.777.019a18.27,18.27,0,0,0-2.683,1.2c-1.052.492,1.262,1.437,3.146,2.344s.379.719,3.367,2.107,2.046,1.214,4.363,3.04c2.334,1.832,3.664,2.36,4.224,2.907s.793-.133,1.126-.56-.67-2.114-.67-2.114a13.41,13.41,0,0,1,2.026,2.03c1.039,1.282.518,1.256,1.237,2.078s.162.677,3.47.952a84.992,84.992,0,0,0,8.944.486c3.58-.019,4.807-1.22,6.422-1.457s1.266-1.625,2.441-1.366.476,1.641,1.787,2.726,1.483.757,4.166,1.45c2.664.686,3.444,1.013,6.15,1.683s.965.544,2.67,1.761,1.457.615,2.926,1.133.867.194.249,1.369-.806,1.175-2.829,1.981-2.114.479-2.476.408a5.337,5.337,0,0,1-1.272-.887,3.406,3.406,0,0,0-.974,2.557c.172,1.447,1.4,1.049-2.651,1.334s-6.545.337-8.037.77-1.308,1.227-2.162,1.525-2.24-.181-5-.023a12.729,12.729,0,0,0-4.237.706c-2.237.557-.107.677-3.088.9-3,.227-8.361.906-11.177.806s-2.165.269-2.784.654-.628.609-4.192.57a92.622,92.622,0,0,0-10.184.165c-2.13.311-5.179,1.13-7.574.787s-1.774-.343-2.716-1.279a8.556,8.556,0,0,1-2.1-3.059,13.218,13.218,0,0,0-4.506-5.189c-2.217-1.466-2.2-1.56-4.606-3.091s-4.062-2.784-6.037-3.418-2.91-.706-3.881-1.156c-.952-.437-.667-1.8-1.8-3a11.686,11.686,0,0,0-3.448-3.056,39.358,39.358,0,0,1-5.859-2.949c-2.123-1.421-2.276-1.576-5.351-3.732s-4.069-2.431-6.082-3.846-.793-1.113-1.57-1.932-2.166,1.237-3.454,1.605-2.023.146-3.3-1.078-2.35-2.288-3.111-1.842-1.346.91-.032,2.2,1.823,1.049,3.5,2.308,6.241,4.483,8.118,5.827a10.736,10.736,0,0,1,2.981,2.725c1.874,2.043,2.79,2.321,5.014,3.227s1.809.469,2.962,1.865,1.084,3.01,1.35,3.858,1.515,1.343,4.159,2.3c2.667.961,1.35.6,2.677,1.557a24.569,24.569,0,0,1,3.544,3.247,6.559,6.559,0,0,0,3.81,2.1c2.062.5,2.609.583,4.648.987s1.4.576,2.884,1.372,4.227,1.5,6.079,2.748.683.855.8,1.971-.829.553.466,1.217a65.516,65.516,0,0,0,7.066,2.476c3.667,1.211.757.333,3.842.5a66.3,66.3,0,0,0,6.927-.2c3.253-.071,7.426-.272,11.426-.366s7.94-.026,9.97-.133,2.289.874,1.039,2.266-1.735,2.622-2.832,3.761-1.58,1.211-2.36,2.153-6.7,4.632-7.837,5.856a16.2,16.2,0,0,1-4.506,3.169c-1.868.974-8,2.564-10.86,3.457s-2.081.952-4.127,2.11-8.384,4.393-10.038,5.59a26.083,26.083,0,0,0-3.845,2.848c-1.191,1.22-4.907,2.874-5,3.81s-2.321.955-.5,1.877,2.761,1.126,3.551,2.234-1.538,2.188.388,4.26c1.942,2.085.576.586,3.263,2.327s2.751,2.764,3.37,5.147,1.23,4.8.715,6.312a17.42,17.42,0,0,1-2.308,3.865c-.89,1.369-6.856,1.984-10.329,2.57s-3.373.285-4.888,1.185-6,2.745-7.4,4.2c-1.418,1.47-2.645,1.259-1.881,2.266s2.3,2.353,4.2,4.273.712,1.738.531,3.321-.159,1.35-.346,3.289c-.191,1.958-4.729,1.793-9.782,2.622-5.069.832-3.256.395-3.674,1.819s.265,4.347.265,6.073-1.67.974-4.27,3.049-3.635,3.088-6.4,5.642c-2.787,2.573-2.573,2.2-6.27,3.781s-6.736,1.955-8.251,3.868c-1.528,1.929-3.632.563-11.824,1.913-8.219,1.353-2.211.693-10.1,1.133s-10.714.8-14.887,1.233-3.648-.107-6.322-1.625-3.065-1.385-4.289-2.628-.4-1.567-.893-3.833c-.489-2.246-.838-2.324-2.466-3.69s-1.557-1.6-3.37-3.752A19.711,19.711,0,0,0,793.3,370.2c-1.945-1.4-2.476-.945-4.273-1.845s-1.874-1.719-2.337-3.02-1.2-4.37-2.185-7.561c-.974-3.166-.175-1.492-1.223-2.81a45.957,45.957,0,0,0-4.033-4.6,25.879,25.879,0,0,0-3.768-3.344,22.091,22.091,0,0,1-4.043-3.574c-1.67-1.793-1.881-.968-2-1.67s.758-2.03.812-3.263.816-2.7,1.366-4.577-.919-1.816.664-3.137a22.751,22.751,0,0,0,4.244-3.988c.994-1.444.835-1.508.761-3.3s-.447-1.622-1.657-3.065-1.7-3.14-3.172-5.432c-1.463-2.272-1.427-2.2-1.648-3.078a13.03,13.03,0,0,0-2.214-4.007c-.99-1.159-1.444-.667-3.538-1.363s-.719-.411-2.534-1.191-1.5-1.071-3.26-1.919a19.159,19.159,0,0,1-3.441-1.852c-1.418-.961-.651-.379-.5-2.12a37.809,37.809,0,0,1,1.845-6.937c.651-1.884.8-1.8-.845-2.5s-2.826-1.751-4.075-1.881-4.257.385-8.649.579c-4.409.194-4.215-.246-6.111-1.088s-4.4-2.007-5.273-2.3-2.392-.207-9.85.531-2.962.489-7.947,1.181c-4.969.689-6.943,1.975-10.792,2.858s-4.943.816-11.663.822c-6.7.006-10.135,1.589-13.589,2.56a13.41,13.41,0,0,1-7.536.33,62.087,62.087,0,0,0-7.639-1.385c-3.745-.421-2.858-.968-6.548-1.353-3.706-.382-2.46-.557-5.477-1.482-3-.923-3.111-2.185-5.143-3.253-2.017-1.065-3.667-2.687-6.4-3.719-2.706-1.026-5.231-3.421-6.545-4.066s-2.382-.583-2.3-.971,3.039-3.017,4.3-4.331,1.537-1.194,2.1-1.981-.359-2.745-1.311-3.745-1.887-3.23-2.6-4.214.563-1.165,1.661-1.916c1.081-.741,3.648-2.327,6.374-4.519,2.706-2.178,4.221-3.263,5.619-4.276s4.694-3.985,6.743-4.91c2.026-.916,7.183-2.861,9.352-3.509s3.946-1.059,4.321-1.473,1.544-3.612,2.256-4.956-.042-1.975,2.415-2.7,6.409-2,8.477-2.619c2.039-.605,2.389-1.272,3.486-2.289s1.6-2.2,3.175-2.712c1.56-.508,1.1.068,3.085.4a15.8,15.8,0,0,0,3.276.353c.948.013,1.816-.434,4.189-.638a13.277,13.277,0,0,1,4.02.071c1.408.172.634.23,4.726-1a127.587,127.587,0,0,1,12.608-3.094c5.283-1.072,8.885-1.683,11.329-1.929s1.2-.058,3.943.185,2.871.411,3.425.091a9.742,9.742,0,0,1,3.515-1.275c1.162-.029,2.486.078,5.448.126a20.029,20.029,0,0,0,5.4-.4c1.182-.285,2.722-.825,3.017-.838s2.842.2,4.907.4,2.1.243,1.686.447a7.166,7.166,0,0,0-1.981,1.3c-.971.868-.508.4.453,1.24s1.657.767,1.246,1.424-2.331,1.33-3.735,2.02-1.065.78,2.454,1.379c3.538.6,2.706.505,6.665,1.033,3.975.524,4.137.275,8.759.654s4.069.46,5.71,1.123,1.777,1.33,4.577,1.635,5.781.243,7.416.6a27.529,27.529,0,0,0,5.186,1.01c2.191.123,2.2.227,3.2-.385s1.832-1.165,1.418-1.47-1.635-.761-1.4-1.055a25.6,25.6,0,0,1,2.505-1.835c.537-.356,1.968-.466,5.4-.554s5.784-.282,6.422.479.476.4,3.163.812,2.959.411,5.205.735,1.172.78,2.3.754a34.3,34.3,0,0,1,5.056.162A100.875,100.875,0,0,0,841.84,232.3a23.9,23.9,0,0,0,6.173-.417c.6-.1,3.285-1.385,5.111-.431s4.049,1.02,8.3,1.033,4.273-.23,5.16-.615a11.934,11.934,0,0,0,3.868-2.926c.644-1.033,2.5-3.3,2.936-4.312s-.343-1.842-.66-2.46,0-1.023.531-1.683-2.062-.333-3.114-.23a8.358,8.358,0,0,1-2.4-.382c-1.01-.129-2.052-.243-2.667.411s-.24,1.007-4.192.835c-3.968-.172-3.243-.243-4.613-.787a25.508,25.508,0,0,0-5.36-.948c-1.777-.223-1.952-.188-2.023.217s-.074.69-1.33.832a30.063,30.063,0,0,1-6.723-.55,29.012,29.012,0,0,1-5.765-1.557c-2.505-.884-2.159-.877-3.3-2.211s-1.263-2.447-.887-2.836,1.039-.5-.767-.3-3.03.3-1.907-.68a5.427,5.427,0,0,1,3.519-1.143c1.256-.12,3.208-.12,5.616-.152a31.261,31.261,0,0,0,5.056-.573c.835-.116,2.551-.3,1.644-.4s-3.59-.23-3.159-.5.728-.246,2.162-.282,3.671-.036,5.577-.045c1.89-.01,3.059.139,3.638-.259a6.409,6.409,0,0,1,2.709-1.285c1.431-.291,3.062-.091,6.94-.052s3.334.369,4.658.728a21,21,0,0,0,3.813.395c1.661.162.706.486,2.01.709s3.658.486,6.552.916a19.6,19.6,0,0,0,4.48.35c3.473.136,3.353.146,6.066.091a22.473,22.473,0,0,0,5.629-.78c1.848-.408.275-1.554-.608-2.415s-4.024-1.531-5.487-1.968-4.668-1.754-6.354-2.3-3.554-.751-5.377-1.159-5.066-1.078-5.432-1.534.589-.443,3.143-.576,1.673-.359,2.084-.816.628-.437,2.7-.635-2.615-.926-3.3-1.262c-.67-.324,1.372-.168,3.473-.265,2.085-.1,2.188-.45,2.415-.744s.11-.453-2.376-.531-5.571.178-9.7.443-2.217.333-4.642.952-2.635.33-2.246.709.622.761,3.289,1.308a18.737,18.737,0,0,1,2.321.625c.718.091,2.489.239,1.709.3a14.791,14.791,0,0,1-2.59.437c-1.168-.032-1.609.379-3.538.725a24.935,24.935,0,0,1-4.263.424c-1.46.049-2.538-.139-2.463-1.016s-.8-.3-2.386-.541a11.709,11.709,0,0,1-2.195-.482s1.515-.159,3.017-.466,2.165-.5,2.813-1.146-1.719-.337-3.48-.453-1.272-.162-2.991-.275a5.472,5.472,0,0,1-2.457-.6,15.173,15.173,0,0,0,2.246.1,2.876,2.876,0,0,0,1.618-.294c.521-.123.929-.236.5-.243s-2.2.023-3.4-.026a35.539,35.539,0,0,0-3.667-.062c-1.745.065-1,.3-2.208.57a3.584,3.584,0,0,0-1.848.77,12.515,12.515,0,0,1-1.243.605c-.421.265-.288.945-.223,1.411s-.259.609-1,.981-.767.21-2.075.431-.408.392-.511.858-.547.641-.589,1.25-.715.625-1.712,1.046-1.583.424-1.612.864a2.034,2.034,0,0,0,.191,1.505c.4.864,1.052.654,3.069,1.557s2.975.583,2.36,1.026-.508.278-2.855.155a8.157,8.157,0,0,0-4.315.573c-1.628.573-1.942.9-2.8,1.107s-.644-.437-1.013-.732-4.3-.411-7-.7-3.434-.447-4.117-.447a18.2,18.2,0,0,0-4.451.515c-2.748.57-2.085.89-1.819,1.609s2.5.874,2.03,2.586c-.473,1.732,2.457.919,3.846,1.978s.223.981-.531,1.114-1.44,1.058-1.936,1.936.165.994-.55.952a5.475,5.475,0,0,1-2.942-.557c-1.418-.715-2.46-.029-2.687-.44s-1.968-1.1-1.4-2.068,1.573-1.062-.78-1.538c-2.337-.476-1.774-.547-2.946-1.55a9.6,9.6,0,0,0-3.609-2.078c-2.182-.89-1.971-.634-1.466-1.557s.851-2.11-.469-2.719a60.824,60.824,0,0,0-11.044-2.972c-4.328-.712-5.186-.065-7.15-1.3-1.945-1.22-2.887-2.535-6.072-3.214-3.159-.677-1.6-.787-4.59-.3s-3.052.654-2.79.952.965.683.557,1.538-1.042.609,2.127,1.162c3.185.557,1.848.463,3.477,1.628a10.3,10.3,0,0,0,3.192,1.868,11.684,11.684,0,0,0,4.94,1.059c3.179.168,2.661-.126,3.489.123.848.256-2.2.434-1.612.547s1.3.45,3.994.981c2.713.534,5.493,1.1,6.228,1.554s3.214,2.188-.324.945c-3.522-1.236-3.551-.634-4.451.282s1,1.586.923,2.24-1.706.45-2.761,1.013a13.826,13.826,0,0,1-2.861,1.612c-1.256.382-.913-.369-1.612-.35s-.955.35-1.81,1.007c-.871.657.045.906.463,1.745s1.091.893-1.424.919-1.978-.851-4.312-1.353-3.677-.259-5.629-.631.813-.579,5.61-.945,5.377-.544,6.827-1,.929-.544,2.479-1.408-.068-1.143-1.214-2.107a10.087,10.087,0,0,0-3.91-1.521c-.715-.172-2.337-.709-3.748-1.214a18.853,18.853,0,0,0-5.318-.68c-2.418-.129-2-.926-3.337-1.11s-2.69-.809-5.762-1.7-1.942-1.677-3.353-2.489a9.322,9.322,0,0,0-5.82-1.279,24.26,24.26,0,0,0-8.29,2.169c-3.023,1.191-2.389,1.657-5.917,1.055s-4.787-.447-7.319.45-3.049,1.683-3.072,3.195-3.056,1.075-5.47,1.651-4.606,1.784-8.364,4.567c-3.8,2.816.207,1.324-.589,2.246s.2,1.547-3.289,2.936c-3.509,1.4-1.926.01-4,1.084-2.094,1.084-4.962,2.049-9.834,2.224s-3.5.77-6.6,1.3-4.807,1.081-3.949-.278.2-1.133-5.7-.5c-5.917.631-8.018,1.418-7.474,1.059s.845-.923,1.589-2.224,1.657-1.774.774-1.69c-.9.084-2.836.44-1.25-1.881,1.58-2.3,2.12-2.742,1.586-3.93s.482-2.939-.2-3.577,1.625-1.58.651-1.864-2.072-.68-1.308-.751c.748-.071,3.888-.327,7.892-.434,4.024-.11,8.193-.922,10.588-1.036,2.376-.11,7.4-.142,12.417-.227,5.03-.084,4.933-.612,4.535-3.192-.4-2.551.524-3.8-.961-4.221s-3.091-.262-4.684-.829-.291-1.67-3.745-1.764-7.341.5-5.458.11,2.629-.534.673-.893-2.418-.877-.922-1.078,5.7-.528,5.7-.528.333.686,2.583.2,5.108-1.023,4.522-1.482-1.686-1.02-1.317-1.049,1.2.615,5.9.288,4.338-.534,3.991-1.178,3.114-.835,5.474-1.534c2.344-.7-.829-1.117-.324-1.654s3.211-1.023,8.015-1.421,3.926-.612,3.444-.777.133-1.023.5-2.065-.34-1.356,2.1-1.984,1.712-.4,6.73-.809c5-.4,1.939-.628,2.8-.745s6.827-.887,7.918-1.084.984-.155-.016-.829c-.984-.667-2.324-1.02-3.457-4.234-1.117-3.172-.89-3.195,5.127-4.03s4.684-.589,4.25,1.207-3.1,1.923-3.68,3.272-.071,2.156,2.512,3.473c2.606,1.324,2.334.612,7.824.414s4.286.3,7.963.6,2.4-.829,5.927-1.34c3.5-.508,2.813.168,11.07-.411,3.149-.223,4.473-.288,4.473-.288s-1.165.029-.236-.168c1.92-.411,2.36-1.091,5.15-1.243s4.758.2,4.506-1.214-1.806-1.162-1.411-2.237.544-.592.712-1.437-.44-.984,3.02-1.311,1.191,1,5.435,1.266,3.687.492,4.3-.57,2.745-2.444.7-2.363a7.823,7.823,0,0,1-4.674-.984c-2.143-.955-3.36-1.159-2.042-1.172s5.713-.44,12.061-.372c6.364.068,8.186.269,8.516.055s-1.133-.434.958-.851,9.248.288,8.118-.113a53.616,53.616,0,0,0-11.578-.79c-4.153.2-14.275.618-15.835.592a29.265,29.265,0,0,1-5.208-.6c-.735-.24-3.02-.395-3.13-1.56s1.152-1.628-1.094-2.719,3.706-2.091,7.736-3.3c4-1.191,2.842-2.14,5.3-2.217s3.366-.486,2.137-.858a48.214,48.214,0,0,0-7.833-1.748c-2.124-.117-5.367-.825-8.474.965-3.133,1.8.414,1.929,1.1,2.842s-4.467,1.667-8.306,2.6-5.273.757-6.3,3.01c-1.036,2.272-2.224,2.363,2.25,3.052s5.357,1.078,3.379,1.787-6.309.767-8.847,2.447-1.408,2.46-2.45,3.218-4.412,1.178-5.341,1.942-.845,2.162-4.991,2.072-1.91-1.975-3.765-2.832c-1.839-.848-3.321-1.57-5.522-2.612s-.544-2.182-2.609-2.677a3.617,3.617,0,0,1-2.56-1.612l-.706.563c-.7.563-.34.864-4.386,2.658-4.069,1.806-10.2,2.211-13.207,1.965s-2.518-1.2-2.512-2.392-.7-2.712-.087-4.58,2.259-1.816,8.552-3.3c6.26-1.479,6.383-1.4,7.908-2.227s5.979-2.068,8.549-2.849a34.468,34.468,0,0,0,9.19-5.376c2.25-1.864,6.493-3.085,10.562-5.085,4.04-1.991,11.31-3.8,20.655-5.108,9.3-1.295,7.691-1.392,9.756-2.321s3.062-.4,6.7-.628,3.091-.01-.443,1.075-5.02,2.253-2.017,1.376,5.273-1.894,10.1-1.822,2.874,0,7.668.67c4.817.67,5.619.748,3.062,1.233a42.235,42.235,0,0,1-7.086.34s1.651,1.058,6.056,1.253,6.639-.961,9.6-.473,3.823.825-.123.673-4.965.576-.039,1.159c4.946.589,5.415.657,11.831,1.049s9.474,1.884,14.463,2.654c5.017.774,10.588.45,9.261,1.751s1.871,2.735-6.519,3.1c-8.419.372-8.348-.46-15.6-1.288s-12.372-1.554-12.372-1.554,1.994.79,5.419,1.784,3.943,1.894,3.894,3.609-1.492,2.175,4.334,3.166,4.956.741,6.694.651,4.664-.178,3.9-.476a11.551,11.551,0,0,0-3.392-1.159c-1.936-.327-2.175-.981-.35-1.24,1.809-.256,3.693.372,7.8.437s-.094-.482,1.764-1.065,1.761-1.667,6.438-2.068c4.661-.4,10.005.67,11.148.081s2.35-1.272-.557-2.36-5.085-1.5-3.567-1.9,4.48-1.482,6.157-.722,5.7,1.709.79,1.353-.984,2.172,3.425,2.246c4.393.074,3.933-.375,7.412-.728,3.46-.35,10.064-1.725,14.9-1.955s5.9-.023,7.944.372a23.169,23.169,0,0,0,7.552.942c5.331.049,6.823-.233,11.831-.1s-.162.541,2.224.958,2.683.641,4.305.414,6.956-.369,4.214-1.188-4.726-1.366-4.726-1.366,1.421-1.123,6.286-.612,12.728,2.586,17.819,4.056c5.108,1.476,11.708,4.266,11.708,4.266s1.644-.919-.8-2.981c-2.421-2.039-6.629-2.042-7.28-3.79s-4.493-1.661-3.567-2.755,4.625-1.175,5.069-2.615.858-2.612,4.373-2.253,11.222,1.489,11.222,1.489.563,1.4-1.424,3.208c-2.013,1.819,2.428,2.525,2.78,5.072.359,2.58.376,2.907,2.573,3.742s6.209,2.026,5.3,3.046-1.33,1.674-6.286,1.761c-4.978.084-11.75-1-9.122-.217a76.891,76.891,0,0,0,9.529,2.149c3.574.57,1.722.123,4.231-.3s8.167-1.162,7.652-1.894-4.3-2.2-2.2-2.45,2.69-.939,6.539.155,8.364,4.023,8.319,3.917-1.719-2.551-6.574-4.461c-4.829-1.9-11.313-1.415-11.8-2.615s.8-2.6-.188-3.936-3.085-2.781-.926-3.577,1.916-1.638,1.916-1.638,1.567,1.156,1.194,2.344,1.321,2.123,3.26,2.35,10.607,1.314,5.749.307-6.383-1.563-2.055-1.806c4.308-.243,4.312.253,11.342,1.625,7.05,1.372,8.8,1.968,11.07,2.24s1.874.159.79-.592a15.694,15.694,0,0,0-4.655-2.046c-2.347-.719-3.577-.372-4.557-1.13s-2.952-2.57-3.794-3.266,1.638.081,5.234.544,13.336,1.609,20.843,2.612-1.1-2.538-2.505-4.357c-1.385-1.8,12.964.181,19.81.923s15,2.1,27.563,3.321c12.514,1.217,4.2-.039,5.428-.906s4.305-.511,8.157.175,7.516,1.56,6.176,1.466-5.244-.181,1.745,1.521c7,1.706,5.215,1.35,1.913,1.1s.1,1.033,6.95,2.327,2.641.32,1.107-.638.728-.3,6.526,1.1a61.392,61.392,0,0,1,11.85,3.735c3.664,1.6,4.072,1.47,5.985,3.059s.573,1.13-3.451,1.427c-4.059.295-6.943-.288-13.009-.162-6.108.126-3.985,1.237-7.238,1.5-3.275.265-2.421.155,5.27,1.016,7.672.858,11.766,1.282,16,2.276,4.214.991,6.545,1.952,9.675,2.612s-.1.107,9.734,2.246,8.367,1.839,5.389,2.042c-2.994.2,1.45,1.44,5.814,2.421s9.789,2.3,13.673,3.01-.243-1.191,4.506-.133,6.212,1.282,11.332,2.535,4.04,1.631,6.254,2.764,4.959,2.214,4.163,3.185-1.677.787.518,2.955c2.22,2.185,4.978,3.124,8.348,4.292s2.046-.935,4.635-.858c2.573.078,4.6,2.4,7.882,3.01a70.573,70.573,0,0,1,10.543,3.014,63.6,63.6,0,0,0,9.979,2.936c4.011.825,2.25-.2.136-1.631s-2.162-1.369-.172-1.67,4.117.7,13.365,4.1c9.271,3.412,6.49,2.612,11.727,4.606,5.257,2,3.622,1.389,11.977,5.056,8.39,3.68,8.057,4.923,12.1,6.914s3.677,1.149,10.41,3.117c6.71,1.958,7.018,2.528,15.139,5.891s6.846,3.79,7.484,4.742-.994.945,3.994,3,7.164,3.14,10.86,4.082.77.6,9.7,3.823,5.577,1.651,8.814,3.47,5.063,3.774,9.261,5.2,3.913,1.347.936-1.084c-2.962-2.421-4.27-3.114-1.687-2.12s8.147,3.428,18.24,7.843c10.119,4.425,11.015,5.393,20.47,10.918,9.5,5.561,11.838,6.678,19.069,11.277,2.761,1.758,3.366,2.217,3.454,2.272.113.071.819.4,3.376,1.855,7.183,4.079,5.762,3.143,11.948,6.756,6.2,3.625,11.986,7.516,11.986,7.516S1478.967,300.245,1475.138,298.714ZM947.19,204.985s-.586.262,2.651-.46c3.218-.722-1.648-.175-3.706-.541-2.043-.366-2.764-.751-2.379-1.612s-.5-.932-2.943-2.288a9.093,9.093,0,0,0-3.418-.013c-2.233.324-3.858-.757-6.632-.586s-5.93-.194-7.3,1.217-3.619.3-3.949,1.505-5.571,1.554-5.571,1.554,2.314.877,4.1,1.686c1.806.816.57.288,2.748,2.751,2.2,2.492,3.3,2.353,5.661,2.845s6.108,1.56,6.108,1.56-2.266-.625-1.952.67-2.9,1.984-2.065,3.936c.845,1.968-3.836,3.441.3,3.9s3.023,1.036,7.616,1.813a129.916,129.916,0,0,0,13.8,1.819c6.535.537,2.7-.7,1.431-2.172a13.709,13.709,0,0,1-2.641-3.92c-.644-1.518-2.078-1.249-3.337-2.25s.139-1.4,3.172-1.162,3.425.236,1.505-.9-1-1.44-3.153-2.036a1.835,1.835,0,0,0-2.531,1.2,2.354,2.354,0,0,1-1.337-2.3c.032-1.754.638-.877-.958-1.334s-2.382-.1-4.706-1.437-.482-.958-3.234-2.56-1.308-.754,1.327-.566,1.194-.12-.171-.67-2.425-1.324.968-1c3.409.33,7.856.913,9.484,1.084S947.19,204.985,947.19,204.985ZM500.825,175.736c-1.266.816,1.308,1.029,3.451.382s2.729-.515,4.011-1.055,1.534-1.016.3-1.194-.592-.547-.806-.55C505.347,173.292,502.094,174.917,500.825,175.736Zm551.834-48.985c-2.923-.376-6.16-.787-3.3-.146s2.447,1.855,7.28,1.832c4.816-.026,3.7-.24,7.05-.172,3.331.061,1.382-.026-3.117-.984C1057.754,126.68,1055.572,127.13,1052.659,126.751Z" transform="translate(0 0)" fill="#254bcd" style="mix-blend-mode: color-dodge;isolation: isolate"/>
  </g>
</svg>
