<svg width="65" height="54" viewBox="0 0 65 54" fill="none" xmlns="http://www.w3.org/2000/svg">
<rect width="65" height="54" rx="9" fill="#DFF3FF"/>
<path d="M48.3125 27.4663C48.1657 27.1699 48.1657 26.8301 48.3125 26.5338L49.6729 23.787C50.4304 22.2577 49.8302 20.4349 48.3067 19.637L45.5703 18.2041C45.275 18.0495 45.0726 17.7745 45.0149 17.4497L44.4797 14.4383C44.1817 12.7617 42.6103 11.635 40.9028 11.8734L37.8356 12.3016C37.5046 12.3477 37.1772 12.2427 36.9371 12.0134L34.7107 9.88775C33.471 8.70412 31.529 8.70405 30.2894 9.88775L28.0629 12.0136C27.8227 12.243 27.4953 12.3478 27.1644 12.3018L24.0972 11.8736C22.3892 11.6351 20.8183 12.7619 20.5203 14.4385L19.9851 17.4498C19.9274 17.7746 19.725 18.0496 19.4298 18.2042L16.6934 19.6372C15.1698 20.4349 14.5697 22.2579 15.3271 23.7872L16.6875 26.5339C16.8343 26.8303 16.8343 27.1701 16.6875 27.4664L15.3271 30.2131C14.5696 31.7424 15.1698 33.5653 16.6933 34.3631L19.4297 35.7961C19.725 35.9506 19.9274 36.2257 19.9851 36.5504L20.5203 39.5618C20.7916 41.0881 22.1177 42.1586 23.6417 42.1584C23.7919 42.1584 23.9442 42.148 24.0973 42.1266L27.1644 41.6984C27.4952 41.6521 27.8228 41.7574 28.063 41.9866L30.2894 44.1123C30.9093 44.7042 31.7045 45.0001 32.5 45C33.2953 44.9999 34.091 44.7041 34.7106 44.1123L36.9371 41.9866C37.1773 41.7574 37.5047 41.6526 37.8356 41.6984L40.9028 42.1266C42.611 42.3651 44.1817 41.2384 44.4797 39.5617L45.0149 36.5505C45.0727 36.2257 45.2751 35.9507 45.5703 35.7961L48.3067 34.3631C49.8302 33.5653 50.4304 31.7424 49.6729 30.213L48.3125 27.4663ZM47.3206 32.5289L44.5842 33.9618C43.7118 34.4188 43.1134 35.2315 42.9428 36.1916L42.4076 39.2029C42.3068 39.7702 41.7754 40.1512 41.1975 40.0707L38.1303 39.6425C37.1521 39.5058 36.1843 39.8165 35.4743 40.4942L33.2479 42.6198C32.8286 43.0202 32.1715 43.0202 31.752 42.6198L29.5257 40.4941C28.9257 39.9213 28.1413 39.6109 27.3224 39.6109C27.1724 39.6109 27.0212 39.6213 26.8697 39.6425L23.8025 40.0707C23.2251 40.1512 22.6932 39.7701 22.5924 39.2029L22.0571 36.1915C21.8864 35.2313 21.2881 34.4186 20.4156 33.9618L17.6793 32.5288C17.1638 32.2589 16.9607 31.6422 17.217 31.1248L18.5774 28.378C19.0111 27.5022 19.0111 26.4978 18.5774 25.622L17.217 22.8752C16.9607 22.3578 17.1638 21.7411 17.6793 21.4712L20.4156 20.0382C21.2881 19.5813 21.8864 18.7686 22.0571 17.8084L22.5922 14.7971C22.6931 14.2298 23.2244 13.8488 23.8024 13.9293L26.8696 14.3575C27.8474 14.4941 28.8156 14.1836 29.5255 13.5058L31.752 11.3802C32.1713 10.9798 32.8284 10.9798 33.2478 11.3802L35.4742 13.5058C36.1841 14.1837 37.1522 14.4941 38.1302 14.3575L41.1973 13.9293C41.7749 13.8487 42.3067 14.2298 42.4075 14.7971L42.9427 17.8085C43.1134 18.7687 43.7116 19.5814 44.5841 20.0382L47.3205 21.4712C47.836 21.7411 48.0391 22.3578 47.7828 22.8752L46.4224 25.6219C45.9887 26.4976 45.9887 27.5022 46.4224 28.378L47.7828 31.1246C48.0391 31.6422 47.8361 32.259 47.3206 32.5289Z" fill="#095078"/>
<path d="M40.1857 19.4144C39.775 19.009 39.1089 19.009 38.6981 19.4144L24.8139 33.1175C24.4032 33.5229 24.4032 34.1802 24.8139 34.5856C25.0193 34.7883 25.2886 34.8897 25.5577 34.8897C25.8269 34.8897 26.0962 34.7884 26.3015 34.5856L40.1857 20.8827C40.5966 20.4772 40.5966 19.8199 40.1857 19.4144Z" fill="#095078"/>
<path d="M28.2925 17.6562C26.1658 17.6562 24.4355 19.3639 24.4355 21.4629C24.4355 23.5618 26.1658 25.2695 28.2925 25.2695C30.4192 25.2695 32.1494 23.5618 32.1494 21.4629C32.1494 19.3639 30.4192 17.6562 28.2925 17.6562ZM28.2925 23.1931C27.3258 23.1931 26.5394 22.4169 26.5394 21.4628C26.5394 20.5087 27.3258 19.7326 28.2925 19.7326C29.2592 19.7326 30.0457 20.5087 30.0457 21.4628C30.0456 22.4169 29.2592 23.1931 28.2925 23.1931Z" fill="#095078"/>
<path d="M36.7075 28.7305C34.5808 28.7305 32.8506 30.4381 32.8506 32.5371C32.8506 34.636 34.5808 36.3437 36.7075 36.3437C38.8342 36.3437 40.5645 34.636 40.5645 32.5371C40.5645 30.4381 38.8342 28.7305 36.7075 28.7305ZM36.7075 34.2673C35.7409 34.2673 34.9544 33.4911 34.9544 32.5371C34.9544 31.583 35.7408 30.8068 36.7075 30.8068C37.6742 30.8068 38.4606 31.583 38.4606 32.5371C38.4606 33.4911 37.6742 34.2673 36.7075 34.2673Z" fill="#095078"/>
</svg>
