<svg width="480" height="650" viewBox="0 0 480 650" fill="none" xmlns="http://www.w3.org/2000/svg">
<mask id="mask0" mask-type="alpha" maskUnits="userSpaceOnUse" x="72" y="0" width="408" height="650">
<rect x="72" width="408" height="650" fill="#C4C4C4"/>
</mask>
<g mask="url(#mask0)">
<path d="M679 313C679 479.75 543.346 614.933 376 614.933C208.654 614.933 73 479.75 73 313C73 146.25 208.654 11.0667 376 11.0667C543.346 11.0667 679 146.25 679 313Z" stroke="#2550E5" stroke-opacity="0.05" stroke-width="2"/>
<path d="M556.972 313C556.972 412.592 475.951 493.333 376 493.333C276.049 493.333 195.028 412.592 195.028 313C195.028 213.408 276.049 132.667 376 132.667C475.951 132.667 556.972 213.408 556.972 313Z" stroke="#2550E5" stroke-opacity="0.2" stroke-width="2"/>
<path d="M616.916 313C616.916 445.582 509.058 553.067 376 553.067C242.943 553.067 135.085 445.582 135.085 313C135.085 180.418 242.943 72.9333 376 72.9333C509.058 72.9333 616.916 180.418 616.916 313Z" stroke="#2550E5" stroke-opacity="0.06" stroke-width="2"/>
</g>
<rect x="154" y="376" width="187" height="41" rx="6" fill="#EFF2FC"/>
<path d="M165.748 390.4V403H169.636C172.84 403 174.748 401.38 174.748 398.104V395.296C174.748 392.02 172.84 390.4 169.636 390.4H165.748ZM167.548 392.056H169.6C171.796 392.056 172.948 393.028 172.948 395.332V398.068C172.948 400.372 171.796 401.344 169.6 401.344H167.548V392.056ZM176.352 391.48C176.352 392.236 176.964 392.812 177.72 392.812C178.476 392.812 179.088 392.236 179.088 391.48C179.088 390.724 178.476 390.148 177.72 390.148C176.964 390.148 176.352 390.724 176.352 391.48ZM178.566 394.18H176.874V403H178.566V394.18ZM187.933 394.18V395.566H187.681C187.195 394.756 186.385 393.928 184.657 393.928C182.335 393.928 180.517 395.8 180.517 398.482C180.517 401.164 182.335 403.036 184.657 403.036C186.385 403.036 187.195 402.208 187.681 401.398H187.897V402.64C187.897 404.476 186.763 405.34 185.143 405.34C183.595 405.34 182.677 404.476 182.173 403.522L180.661 404.404C181.525 405.682 182.875 406.852 185.251 406.852C187.897 406.852 189.589 405.106 189.589 402.73V394.18H187.933ZM185.089 401.524C183.397 401.524 182.209 400.444 182.209 398.482C182.209 396.52 183.397 395.44 185.089 395.44C186.817 395.44 187.897 396.592 187.897 398.482C187.897 400.372 186.817 401.524 185.089 401.524ZM191.592 391.48C191.592 392.236 192.204 392.812 192.96 392.812C193.716 392.812 194.328 392.236 194.328 391.48C194.328 390.724 193.716 390.148 192.96 390.148C192.204 390.148 191.592 390.724 191.592 391.48ZM193.806 394.18H192.114V403H193.806V394.18ZM195.325 394.18V395.656H197.773V401.488C197.773 402.388 198.385 403 199.249 403H201.553V401.524H199.933C199.609 401.524 199.465 401.38 199.465 401.02V395.656H202.057V394.18H199.465V391.12H197.773V394.18H195.325ZM207.638 390.4L206.54 392.74H208.088L209.6 390.4H207.638ZM203.534 396.502L204.992 397.168C205.406 396.142 206.252 395.44 207.692 395.44C209.132 395.44 209.978 396.16 209.978 397.366V397.6L206.72 397.906C204.452 398.122 203.354 398.986 203.354 400.588C203.354 402.172 204.632 403.252 206.612 403.252C208.43 403.252 209.348 402.406 209.726 401.614H209.978V403H211.634V397.438C211.634 395.314 210.104 393.928 207.728 393.928C205.568 393.928 204.164 395.134 203.534 396.502ZM205.064 400.516C205.064 399.616 205.874 399.31 206.9 399.22L209.978 398.932V399.076C209.978 400.606 208.97 401.848 206.9 401.848C205.73 401.848 205.064 401.344 205.064 400.516ZM215.744 390.4H214.052V403H215.744V390.4ZM218.271 394.18V403H219.963V398.392C219.963 396.556 220.989 395.512 222.627 395.512C224.067 395.512 224.895 396.304 224.895 397.834V403H226.587V397.69C226.587 395.26 225.003 394.036 223.149 394.036C221.403 394.036 220.593 394.846 220.179 395.674H219.927V394.18H218.271ZM229.785 390.4L228.687 392.74H230.235L231.747 390.4H229.785ZM230.685 394.18H228.993V403H230.685V394.18ZM238.033 398.59C238.033 401.326 239.977 403.252 242.569 403.252C245.161 403.252 247.105 401.326 247.105 398.59C247.105 395.854 245.161 393.928 242.569 393.928C239.977 393.928 238.033 395.854 238.033 398.59ZM239.725 398.59C239.725 396.646 240.877 395.476 242.569 395.476C244.261 395.476 245.413 396.646 245.413 398.59C245.413 400.534 244.261 401.704 242.569 401.704C240.877 401.704 239.725 400.534 239.725 398.59ZM249.05 390.4V403H250.706V401.614H250.958C251.444 402.424 252.254 403.252 253.982 403.252C256.304 403.252 258.122 401.326 258.122 398.59C258.122 395.854 256.304 393.928 253.982 393.928C252.254 393.928 251.444 394.756 250.958 395.566H250.742V390.4H249.05ZM253.55 395.44C255.242 395.44 256.43 396.574 256.43 398.59C256.43 400.606 255.242 401.74 253.55 401.74C251.822 401.74 250.742 400.534 250.742 398.59C250.742 396.646 251.822 395.44 253.55 395.44ZM259.496 398.59C259.496 401.29 261.44 403.252 264.104 403.252C266.714 403.252 267.992 401.506 268.388 399.832L266.714 399.508C266.48 400.642 265.796 401.704 264.104 401.704C262.376 401.704 261.188 400.462 261.188 398.59C261.188 396.718 262.376 395.476 264.068 395.476C265.634 395.476 266.552 396.448 266.696 397.69L268.352 397.348C267.992 395.386 266.444 393.928 264.068 393.928C261.44 393.928 259.496 395.89 259.496 398.59ZM270.267 390.4V403H271.959V398.392C271.959 396.556 272.985 395.512 274.623 395.512C276.063 395.512 276.891 396.304 276.891 397.834V403H278.583V397.69C278.583 395.26 276.999 394.036 275.145 394.036C273.399 394.036 272.589 394.846 272.175 395.674H271.959V390.4H270.267ZM280.413 398.59C280.413 401.326 282.357 403.252 284.949 403.252C287.541 403.252 289.485 401.326 289.485 398.59C289.485 395.854 287.541 393.928 284.949 393.928C282.357 393.928 280.413 395.854 280.413 398.59ZM282.105 398.59C282.105 396.646 283.257 395.476 284.949 395.476C286.641 395.476 287.793 396.646 287.793 398.59C287.793 400.534 286.641 401.704 284.949 401.704C283.257 401.704 282.105 400.534 282.105 398.59ZM299.927 390.4H298.235V395.566H298.019C297.533 394.756 296.723 393.928 294.995 393.928C292.673 393.928 290.855 395.854 290.855 398.59C290.855 401.326 292.673 403.252 294.995 403.252C296.723 403.252 297.533 402.424 298.019 401.614H298.271V403H299.927V390.4ZM295.427 395.44C297.155 395.44 298.235 396.646 298.235 398.59C298.235 400.534 297.155 401.74 295.427 401.74C293.735 401.74 292.547 400.606 292.547 398.59C292.547 396.574 293.735 395.44 295.427 395.44ZM302.452 394.18V403H304.144V398.392C304.144 396.556 305.17 395.512 306.808 395.512C308.248 395.512 309.076 396.304 309.076 397.834V403H310.768V397.69C310.768 395.26 309.184 394.036 307.33 394.036C305.584 394.036 304.774 394.846 304.36 395.674H304.108V394.18H302.452ZM313.967 390.4L312.869 392.74H314.417L315.929 390.4H313.967ZM314.867 394.18H313.175V403H314.867V394.18ZM316.818 398.59C316.818 401.29 318.762 403.252 321.426 403.252C324.036 403.252 325.314 401.506 325.71 399.832L324.036 399.508C323.802 400.642 323.118 401.704 321.426 401.704C319.698 401.704 318.51 400.462 318.51 398.59C318.51 396.718 319.698 395.476 321.39 395.476C322.956 395.476 323.874 396.448 324.018 397.69L325.674 397.348C325.314 395.386 323.766 393.928 321.39 393.928C318.762 393.928 316.818 395.89 316.818 398.59ZM327.067 391.48C327.067 392.236 327.679 392.812 328.435 392.812C329.191 392.812 329.803 392.236 329.803 391.48C329.803 390.724 329.191 390.148 328.435 390.148C327.679 390.148 327.067 390.724 327.067 391.48ZM329.281 394.18H327.589V403H329.281V394.18Z" fill="#1B317C"/>
<rect x="255" y="50" width="173" height="41" rx="6" fill="#EFF2FC"/>
<path d="M266.031 69.296V72.104C266.031 75.344 267.867 77.252 270.927 77.252C273.987 77.252 275.823 75.344 275.823 72.104V69.296C275.823 66.056 273.915 64.148 270.927 64.148C267.867 64.148 266.031 66.056 266.031 69.296ZM267.831 69.26C267.831 67.028 268.839 65.804 270.927 65.804C273.015 65.804 274.023 67.028 274.023 69.26V72.14C274.023 74.372 273.015 75.596 270.927 75.596C268.839 75.596 267.831 74.372 267.831 72.14V69.26ZM277.941 64.4V77H279.597V75.614H279.849C280.335 76.424 281.145 77.252 282.873 77.252C285.195 77.252 287.013 75.326 287.013 72.59C287.013 69.854 285.195 67.928 282.873 67.928C281.145 67.928 280.335 68.756 279.849 69.566H279.633V64.4H277.941ZM282.441 69.44C284.133 69.44 285.321 70.574 285.321 72.59C285.321 74.606 284.133 75.74 282.441 75.74C280.713 75.74 279.633 74.534 279.633 72.59C279.633 70.646 280.713 69.44 282.441 69.44ZM288.386 72.59C288.386 75.29 290.33 77.252 292.994 77.252C295.604 77.252 296.882 75.506 297.278 73.832L295.604 73.508C295.37 74.642 294.686 75.704 292.994 75.704C291.266 75.704 290.078 74.462 290.078 72.59C290.078 70.718 291.266 69.476 292.958 69.476C294.524 69.476 295.442 70.448 295.586 71.69L297.242 71.348C296.882 69.386 295.334 67.928 292.958 67.928C290.33 67.928 288.386 69.89 288.386 72.59ZM299.157 64.4V77H300.849V72.392C300.849 70.556 301.875 69.512 303.513 69.512C304.953 69.512 305.781 70.304 305.781 71.834V77H307.473V71.69C307.473 69.26 305.889 68.036 304.035 68.036C302.289 68.036 301.479 68.846 301.065 69.674H300.849V64.4H299.157ZM309.304 72.59C309.304 75.326 311.248 77.252 313.84 77.252C316.432 77.252 318.376 75.326 318.376 72.59C318.376 69.854 316.432 67.928 313.84 67.928C311.248 67.928 309.304 69.854 309.304 72.59ZM310.996 72.59C310.996 70.646 312.148 69.476 313.84 69.476C315.532 69.476 316.684 70.646 316.684 72.59C316.684 74.534 315.532 75.704 313.84 75.704C312.148 75.704 310.996 74.534 310.996 72.59ZM328.818 64.4H327.126V69.566H326.91C326.424 68.756 325.614 67.928 323.886 67.928C321.564 67.928 319.746 69.854 319.746 72.59C319.746 75.326 321.564 77.252 323.886 77.252C325.614 77.252 326.424 76.424 326.91 75.614H327.162V77H328.818V64.4ZM324.318 69.44C326.046 69.44 327.126 70.646 327.126 72.59C327.126 74.534 326.046 75.74 324.318 75.74C322.626 75.74 321.438 74.606 321.438 72.59C321.438 70.574 322.626 69.44 324.318 69.44ZM331.343 68.18V77H333.035V72.392C333.035 70.556 334.061 69.512 335.699 69.512C337.139 69.512 337.967 70.304 337.967 71.834V77H339.659V71.69C339.659 69.26 338.075 68.036 336.221 68.036C334.475 68.036 333.665 68.846 333.251 69.674H332.999V68.18H331.343ZM342.858 64.4L341.76 66.74H343.308L344.82 64.4H342.858ZM343.758 68.18H342.066V77H343.758V68.18ZM351.681 80.6H353.373V75.614H353.589C354.075 76.424 354.885 77.252 356.613 77.252C358.935 77.252 360.753 75.326 360.753 72.59C360.753 69.854 358.935 67.928 356.613 67.928C354.885 67.928 354.075 68.756 353.589 69.566H353.337V68.18H351.681V80.6ZM356.181 75.74C354.453 75.74 353.373 74.534 353.373 72.59C353.373 70.646 354.453 69.44 356.181 69.44C357.873 69.44 359.061 70.574 359.061 72.59C359.061 74.606 357.873 75.74 356.181 75.74ZM362.344 70.502L363.802 71.168C364.216 70.142 365.062 69.44 366.502 69.44C367.942 69.44 368.788 70.16 368.788 71.366V71.6L365.53 71.906C363.262 72.122 362.164 72.986 362.164 74.588C362.164 76.172 363.442 77.252 365.422 77.252C367.24 77.252 368.158 76.406 368.536 75.614H368.788V77H370.444V71.438C370.444 69.314 368.914 67.928 366.538 67.928C364.378 67.928 362.974 69.134 362.344 70.502ZM363.874 74.516C363.874 73.616 364.684 73.31 365.71 73.22L368.788 72.932V73.076C368.788 74.606 367.78 75.848 365.71 75.848C364.54 75.848 363.874 75.344 363.874 74.516ZM374.483 68.18H372.863V77H374.555V71.852C374.555 70.52 375.239 69.8 376.499 69.8H378.047V68.144H377.039C375.761 68.144 375.041 68.684 374.735 69.62H374.483V68.18ZM378.886 68.18V69.656H381.334V75.488C381.334 76.388 381.946 77 382.81 77H385.114V75.524H383.494C383.17 75.524 383.026 75.38 383.026 75.02V69.656H385.618V68.18H383.026V65.12H381.334V68.18H378.886ZM387.382 68.18V77H389.074V72.392C389.074 70.556 390.1 69.512 391.738 69.512C393.178 69.512 394.006 70.304 394.006 71.834V77H395.698V71.69C395.698 69.26 394.114 68.036 392.26 68.036C390.514 68.036 389.704 68.846 389.29 69.674H389.038V68.18H387.382ZM397.529 72.518C397.529 75.182 399.401 77.252 402.137 77.252C404.243 77.252 405.377 76.082 406.043 75.002L404.621 74.192C404.153 75.128 403.397 75.776 402.101 75.776C400.517 75.776 399.401 74.786 399.293 73.202H406.241V72.356C406.241 69.8 404.513 67.892 401.921 67.892C399.365 67.892 397.529 69.926 397.529 72.518ZM399.293 71.834C399.419 70.268 400.373 69.368 401.921 69.368C403.469 69.368 404.441 70.322 404.477 71.834H399.293ZM411.779 64.4L410.897 65.678H410.681L409.799 64.4H407.999L409.691 66.74H411.887L413.579 64.4H411.779ZM409.727 68.18H408.107V77H409.799V71.852C409.799 70.52 410.483 69.8 411.743 69.8H413.291V68.144H412.283C411.005 68.144 410.285 68.684 409.979 69.62H409.727V68.18ZM414.352 65.48C414.352 66.236 414.964 66.812 415.72 66.812C416.476 66.812 417.088 66.236 417.088 65.48C417.088 64.724 416.476 64.148 415.72 64.148C414.964 64.148 414.352 64.724 414.352 65.48ZM416.566 68.18H414.874V77H416.566V68.18Z" fill="#1B317C"/>
<rect x="23" y="432" width="113" height="41" rx="6" fill="#EBF5F4"/>
<path d="M33.2666 446.4L37.1366 459H39.9806L43.8506 446.4H41.9066L38.6666 457.38H38.4506L35.2106 446.4H33.2666ZM51.9544 450.18L49.2364 456.876H49.0204L46.3024 450.18H44.4664L48.2284 459.162L46.7344 462.6H48.5704L53.7904 450.18H51.9544ZM63.7238 446.4H62.0318V451.566H61.8158C61.3298 450.756 60.5198 449.928 58.7918 449.928C56.4698 449.928 54.6518 451.854 54.6518 454.59C54.6518 457.326 56.4698 459.252 58.7918 459.252C60.5198 459.252 61.3298 458.424 61.8158 457.614H62.0678V459H63.7238V446.4ZM59.2238 451.44C60.9518 451.44 62.0318 452.646 62.0318 454.59C62.0318 456.534 60.9518 457.74 59.2238 457.74C57.5318 457.74 56.3438 456.606 56.3438 454.59C56.3438 452.574 57.5318 451.44 59.2238 451.44ZM65.9613 452.502L67.4193 453.168C67.8333 452.142 68.6793 451.44 70.1193 451.44C71.5593 451.44 72.4053 452.16 72.4053 453.366V453.6L69.1473 453.906C66.8793 454.122 65.7813 454.986 65.7813 456.588C65.7813 458.172 67.0593 459.252 69.0393 459.252C70.8573 459.252 71.7753 458.406 72.1533 457.614H72.4053V459H74.0613V453.438C74.0613 451.314 72.5313 449.928 70.1553 449.928C67.9953 449.928 66.5913 451.134 65.9613 452.502ZM67.4913 456.516C67.4913 455.616 68.3013 455.31 69.3273 455.22L72.4053 454.932V455.076C72.4053 456.606 71.3973 457.848 69.3273 457.848C68.1573 457.848 67.4913 457.344 67.4913 456.516ZM75.1227 450.18L78.4167 459H80.8287L84.1227 450.18H82.2867L79.7307 457.38H79.5147L76.9587 450.18H75.1227ZM85.2796 452.502L86.7376 453.168C87.1516 452.142 87.9976 451.44 89.4376 451.44C90.8776 451.44 91.7236 452.16 91.7236 453.366V453.6L88.4656 453.906C86.1976 454.122 85.0996 454.986 85.0996 456.588C85.0996 458.172 86.3776 459.252 88.3576 459.252C90.1756 459.252 91.0936 458.406 91.4716 457.614H91.7236V459H93.3796V453.438C93.3796 451.314 91.8496 449.928 89.4736 449.928C87.3136 449.928 85.9096 451.134 85.2796 452.502ZM86.8096 456.516C86.8096 455.616 87.6196 455.31 88.6456 455.22L91.7236 454.932V455.076C91.7236 456.606 90.7156 457.848 88.6456 457.848C87.4756 457.848 86.8096 457.344 86.8096 456.516ZM94.6143 450.18V451.656H97.0623V457.488C97.0623 458.388 97.6743 459 98.5383 459H100.842V457.524H99.2223C98.8983 457.524 98.7543 457.38 98.7543 457.02V451.656H101.346V450.18H98.7543V447.12H97.0623V450.18H94.6143ZM102.447 454.518C102.447 457.182 104.319 459.252 107.055 459.252C109.161 459.252 110.295 458.082 110.961 457.002L109.539 456.192C109.071 457.128 108.315 457.776 107.019 457.776C105.435 457.776 104.319 456.786 104.211 455.202H111.159V454.356C111.159 451.8 109.431 449.892 106.839 449.892C104.283 449.892 102.447 451.926 102.447 454.518ZM104.211 453.834C104.337 452.268 105.291 451.368 106.839 451.368C108.387 451.368 109.359 452.322 109.395 453.834H104.211ZM114.717 446.4H113.025V459H114.717V446.4ZM121.023 446.4L119.925 448.74H121.473L122.985 446.4H121.023ZM116.667 454.518C116.667 457.182 118.539 459.252 121.275 459.252C123.381 459.252 124.515 458.082 125.181 457.002L123.759 456.192C123.291 457.128 122.535 457.776 121.239 457.776C119.655 457.776 118.539 456.786 118.431 455.202H125.379V454.356C125.379 451.8 123.651 449.892 121.059 449.892C118.503 449.892 116.667 451.926 116.667 454.518ZM118.431 453.834C118.557 452.268 119.511 451.368 121.059 451.368C122.607 451.368 123.579 452.322 123.615 453.834H118.431Z" fill="#407C1B"/>
<rect y="240" width="113" height="41" rx="6" fill="#EBEFFC"/>
<path d="M11.6446 254.4H15.5326C17.1646 254.4 18.4246 254.814 19.3126 255.642C20.2006 256.47 20.6446 257.688 20.6446 259.296V262.104C20.6446 263.712 20.2006 264.93 19.3126 265.758C18.4246 266.586 17.1646 267 15.5326 267H11.6446V254.4ZM13.4446 256.056V265.344H15.4966C16.6126 265.344 17.4466 265.08 17.9986 264.552C18.5626 264.024 18.8446 263.196 18.8446 262.068V259.332C18.8446 258.204 18.5626 257.376 17.9986 256.848C17.4466 256.32 16.6126 256.056 15.4966 256.056H13.4446ZM22.1947 262.518C22.1947 261.21 22.6087 260.112 23.4367 259.224C24.2647 258.336 25.3147 257.892 26.5867 257.892C27.8707 257.892 28.9087 258.312 29.7007 259.152C30.5047 259.992 30.9067 261.06 30.9067 262.356V263.202H23.9587C24.0067 263.994 24.2887 264.624 24.8047 265.092C25.3207 265.548 25.9747 265.776 26.7667 265.776C27.9187 265.776 28.7587 265.248 29.2867 264.192L30.7087 265.002C29.7847 266.502 28.4827 267.252 26.8027 267.252C25.4467 267.252 24.3367 266.802 23.4727 265.902C22.6207 264.99 22.1947 263.862 22.1947 262.518ZM23.9587 261.834H29.1427C29.1187 261.078 28.8787 260.478 28.4227 260.034C27.9667 259.59 27.3547 259.368 26.5867 259.368C25.8187 259.368 25.2007 259.584 24.7327 260.016C24.2767 260.448 24.0187 261.054 23.9587 261.834ZM31.6969 258.18H33.5329L36.0889 265.38H36.3049L38.8609 258.18H40.6969L37.4029 267H34.9909L31.6969 258.18ZM41.5658 262.518C41.5658 261.21 41.9798 260.112 42.8078 259.224C43.6358 258.336 44.6858 257.892 45.9578 257.892C47.2418 257.892 48.2798 258.312 49.0718 259.152C49.8758 259.992 50.2778 261.06 50.2778 262.356V263.202H43.3298C43.3778 263.994 43.6598 264.624 44.1758 265.092C44.6918 265.548 45.3458 265.776 46.1378 265.776C47.2898 265.776 48.1298 265.248 48.6578 264.192L50.0798 265.002C49.1558 266.502 47.8538 267.252 46.1738 267.252C44.8178 267.252 43.7078 266.802 42.8438 265.902C41.9918 264.99 41.5658 263.862 41.5658 262.518ZM43.3298 261.834H48.5138C48.4898 261.078 48.2498 260.478 47.7938 260.034C47.3378 259.59 46.7258 259.368 45.9578 259.368C45.1898 259.368 44.5718 259.584 44.1038 260.016C43.6478 260.448 43.3898 261.054 43.3298 261.834ZM53.8358 254.4V267H52.1438V254.4H53.8358ZM57.0645 265.938C56.2125 265.062 55.7865 263.946 55.7865 262.59C55.7865 261.234 56.2125 260.118 57.0645 259.242C57.9285 258.366 59.0145 257.928 60.3225 257.928C61.6305 257.928 62.7105 258.366 63.5625 259.242C64.4265 260.118 64.8585 261.234 64.8585 262.59C64.8585 263.946 64.4265 265.062 63.5625 265.938C62.7105 266.814 61.6305 267.252 60.3225 267.252C59.0145 267.252 57.9285 266.814 57.0645 265.938ZM58.2525 260.322C57.7365 260.874 57.4785 261.63 57.4785 262.59C57.4785 263.55 57.7365 264.312 58.2525 264.876C58.7805 265.428 59.4705 265.704 60.3225 265.704C61.1745 265.704 61.8585 265.428 62.3745 264.876C62.9025 264.312 63.1665 263.55 63.1665 262.59C63.1665 261.63 62.9025 260.874 62.3745 260.322C61.8585 259.758 61.1745 259.476 60.3225 259.476C59.4705 259.476 58.7805 259.758 58.2525 260.322ZM66.8039 270.6V258.18H68.4599V259.566H68.7119C69.3719 258.474 70.3799 257.928 71.7359 257.928C72.9119 257.928 73.8959 258.366 74.6879 259.242C75.4799 260.118 75.8759 261.234 75.8759 262.59C75.8759 263.946 75.4799 265.062 74.6879 265.938C73.8959 266.814 72.9119 267.252 71.7359 267.252C70.3799 267.252 69.3719 266.706 68.7119 265.614H68.4959V270.6H66.8039ZM69.2519 264.894C69.7559 265.458 70.4399 265.74 71.3039 265.74C72.1679 265.74 72.8639 265.464 73.3919 264.912C73.9199 264.348 74.1839 263.574 74.1839 262.59C74.1839 261.606 73.9199 260.838 73.3919 260.286C72.8639 259.722 72.1679 259.44 71.3039 259.44C70.4399 259.44 69.7559 259.722 69.2519 260.286C68.7479 260.85 68.4959 261.618 68.4959 262.59C68.4959 263.562 68.7479 264.33 69.2519 264.894ZM77.2494 262.518C77.2494 261.21 77.6634 260.112 78.4914 259.224C79.3194 258.336 80.3694 257.892 81.6414 257.892C82.9254 257.892 83.9634 258.312 84.7554 259.152C85.5594 259.992 85.9614 261.06 85.9614 262.356V263.202H79.0134C79.0614 263.994 79.3434 264.624 79.8594 265.092C80.3754 265.548 81.0294 265.776 81.8214 265.776C82.9734 265.776 83.8134 265.248 84.3414 264.192L85.7634 265.002C84.8394 266.502 83.5374 267.252 81.8574 267.252C80.5014 267.252 79.3914 266.802 78.5274 265.902C77.6754 264.99 77.2494 263.862 77.2494 262.518ZM79.0134 261.834H84.1974C84.1734 261.078 83.9334 260.478 83.4774 260.034C83.0214 259.59 82.4094 259.368 81.6414 259.368C80.8734 259.368 80.2554 259.584 79.7874 260.016C79.3314 260.448 79.0734 261.054 79.0134 261.834ZM89.4474 258.18V259.62H89.6994C90.0234 258.636 90.7914 258.144 92.0034 258.144H93.0114V259.8H91.4634C90.8274 259.8 90.3414 259.98 90.0054 260.34C89.6814 260.688 89.5194 261.192 89.5194 261.852V267H87.8274V258.18H89.4474ZM94.2392 260.538C94.2392 259.734 94.5632 259.098 95.2112 258.63C95.8592 258.162 96.6572 257.928 97.6052 257.928C98.4812 257.928 99.2492 258.108 99.9092 258.468C100.581 258.816 101.271 259.386 101.979 260.178L100.719 261.078C99.8192 259.914 98.7932 259.332 97.6412 259.332C97.1372 259.332 96.7232 259.44 96.3992 259.656C96.0752 259.86 95.9132 260.148 95.9132 260.52C95.9132 260.724 95.9552 260.892 96.0392 261.024C96.1232 261.156 96.2732 261.264 96.4892 261.348C96.7172 261.42 96.8912 261.474 97.0112 261.51C97.1432 261.534 97.3832 261.57 97.7312 261.618L98.4692 261.726C99.6332 261.894 100.515 262.164 101.115 262.536C101.727 262.896 102.033 263.496 102.033 264.336C102.033 265.212 101.667 265.92 100.935 266.46C100.215 266.988 99.2852 267.252 98.1452 267.252C97.0052 267.252 96.0572 266.988 95.3012 266.46C94.5452 265.92 93.9632 265.26 93.5552 264.48L95.0672 263.67C95.3432 264.342 95.7572 264.87 96.3092 265.254C96.8612 265.626 97.4912 265.812 98.1992 265.812C98.8352 265.812 99.3512 265.686 99.7472 265.434C100.155 265.17 100.359 264.822 100.359 264.39C100.359 264.294 100.347 264.204 100.323 264.12C100.299 264.036 100.257 263.964 100.197 263.904C100.137 263.832 100.083 263.772 100.035 263.724C99.9872 263.676 99.9092 263.634 99.8012 263.598C99.6932 263.55 99.6032 263.514 99.5312 263.49C99.4712 263.466 99.3692 263.442 99.2252 263.418C99.0812 263.382 98.9792 263.358 98.9192 263.346C98.8592 263.334 98.7452 263.322 98.5772 263.31C98.4212 263.286 98.3192 263.268 98.2712 263.256L97.5332 263.148C96.4652 262.992 95.6492 262.716 95.0852 262.32C94.5212 261.924 94.2392 261.33 94.2392 260.538Z" fill="#1B317C"/>
<rect x="160" y="113" width="91" height="41" rx="6" fill="#EDFAFC"/>
<path d="M171.772 127.4V140H173.572V129.02H173.788L177.676 140H181.024V127.4H179.224V138.398H179.008L175.084 127.4H171.772ZM187.399 127.4L186.301 129.74H187.849L189.361 127.4H187.399ZM183.295 133.502L184.753 134.168C185.167 133.142 186.013 132.44 187.453 132.44C188.893 132.44 189.739 133.16 189.739 134.366V134.6L186.481 134.906C184.213 135.122 183.115 135.986 183.115 137.588C183.115 139.172 184.393 140.252 186.373 140.252C188.191 140.252 189.109 139.406 189.487 138.614H189.739V140H191.395V134.438C191.395 132.314 189.865 130.928 187.489 130.928C185.329 130.928 183.925 132.134 183.295 133.502ZM184.825 137.516C184.825 136.616 185.635 136.31 186.661 136.22L189.739 135.932V136.076C189.739 137.606 188.731 138.848 186.661 138.848C185.491 138.848 184.825 138.344 184.825 137.516ZM192.457 131.18L195.751 140H198.163L201.457 131.18H199.621L197.065 138.38H196.849L194.293 131.18H192.457ZM204.697 131.18H203.077V140H204.769V134.852C204.769 133.52 205.453 132.8 206.713 132.8H208.261V131.144H207.253C205.975 131.144 205.255 131.684 204.949 132.62H204.697V131.18ZM209.845 127.4V140H211.537V135.392C211.537 133.556 212.563 132.512 214.201 132.512C215.641 132.512 216.469 133.304 216.469 134.834V140H218.161V134.69C218.161 132.26 216.577 131.036 214.723 131.036C212.977 131.036 212.167 131.846 211.753 132.674H211.537V127.4H209.845ZM224.384 127.4L223.286 129.74H224.834L226.346 127.4H224.384ZM220.28 133.502L221.738 134.168C222.152 133.142 222.998 132.44 224.438 132.44C225.878 132.44 226.724 133.16 226.724 134.366V134.6L223.466 134.906C221.198 135.122 220.1 135.986 220.1 137.588C220.1 139.172 221.378 140.252 223.358 140.252C225.176 140.252 226.094 139.406 226.472 138.614H226.724V140H228.38V134.438C228.38 132.314 226.85 130.928 224.474 130.928C222.314 130.928 220.91 132.134 220.28 133.502ZM221.81 137.516C221.81 136.616 222.62 136.31 223.646 136.22L226.724 135.932V136.076C226.724 137.606 225.716 138.848 223.646 138.848C222.476 138.848 221.81 138.344 221.81 137.516ZM234.47 127.4L233.588 128.678H233.372L232.49 127.4H230.69L232.382 129.74H234.578L236.27 127.4H234.47ZM232.418 131.18H230.798V140H232.49V134.852C232.49 133.52 233.174 132.8 234.434 132.8H235.982V131.144H234.974C233.696 131.144 232.976 131.684 232.67 132.62H232.418V131.18ZM237.044 128.48C237.044 129.236 237.656 129.812 238.412 129.812C239.168 129.812 239.78 129.236 239.78 128.48C239.78 127.724 239.168 127.148 238.412 127.148C237.656 127.148 237.044 127.724 237.044 128.48ZM239.258 131.18H237.566V140H239.258V131.18Z" fill="#1B7C77"/>
<rect x="252" y="473" width="112" height="41" rx="6" fill="#EFF2FC"/>
<path d="M268.331 484.16L267.485 485.168H267.269L266.423 484.16H264.479L266.315 486.23H268.439L270.275 484.16H268.331ZM263.075 487.4V489.056H269.465L262.895 498.416V500H271.769V498.344H265.091L271.661 488.984V487.4H263.075ZM273.23 488.48C273.23 489.236 273.842 489.812 274.598 489.812C275.354 489.812 275.966 489.236 275.966 488.48C275.966 487.724 275.354 487.148 274.598 487.148C273.842 487.148 273.23 487.724 273.23 488.48ZM275.444 491.18H273.752V500H275.444V491.18ZM277.071 491.18L280.365 500H282.777L286.071 491.18H284.235L281.679 498.38H281.463L278.907 491.18H277.071ZM287.692 491.18V500H289.384V495.392C289.384 493.556 290.41 492.512 292.048 492.512C293.488 492.512 294.316 493.304 294.316 494.834V500H296.008V494.69C296.008 492.26 294.424 491.036 292.57 491.036C290.824 491.036 290.014 491.846 289.6 492.674H289.348V491.18H287.692ZM297.838 495.59C297.838 498.326 299.782 500.252 302.374 500.252C304.966 500.252 306.91 498.326 306.91 495.59C306.91 492.854 304.966 490.928 302.374 490.928C299.782 490.928 297.838 492.854 297.838 495.59ZM299.53 495.59C299.53 493.646 300.682 492.476 302.374 492.476C304.066 492.476 305.218 493.646 305.218 495.59C305.218 497.534 304.066 498.704 302.374 498.704C300.682 498.704 299.53 497.534 299.53 495.59ZM308.605 493.538C308.605 495.212 309.919 495.86 311.899 496.148L312.637 496.256C313.591 496.4 314.725 496.472 314.725 497.39C314.725 498.254 313.825 498.812 312.565 498.812C311.125 498.812 309.991 498.002 309.433 496.67L307.921 497.48C308.605 498.776 310.009 500.252 312.511 500.252C314.779 500.252 316.399 499.1 316.399 497.336C316.399 495.5 314.833 495.014 312.835 494.726L312.097 494.618C311.143 494.474 310.279 494.384 310.279 493.52C310.279 492.764 311.017 492.332 312.007 492.332C313.051 492.332 314.113 492.818 315.085 494.078L316.345 493.178C314.959 491.63 313.771 490.928 311.971 490.928C310.171 490.928 308.605 491.864 308.605 493.538ZM317.27 491.18V492.656H319.718V498.488C319.718 499.388 320.33 500 321.194 500H323.498V498.524H321.878C321.554 498.524 321.41 498.38 321.41 498.02V492.656H324.002V491.18H321.41V488.12H319.718V491.18H317.27ZM325.766 491.18V500H327.458V495.392C327.458 493.556 328.484 492.512 330.122 492.512C331.562 492.512 332.39 493.304 332.39 494.834V500H334.082V494.69C334.082 492.26 332.498 491.036 330.644 491.036C328.898 491.036 328.088 491.846 327.674 492.674H327.422V491.18H325.766ZM337.281 487.4L336.183 489.74H337.731L339.243 487.4H337.281ZM338.181 491.18H336.489V500H338.181V491.18ZM340.131 495.59C340.131 498.29 342.075 500.252 344.739 500.252C347.349 500.252 348.627 498.506 349.023 496.832L347.349 496.508C347.115 497.642 346.431 498.704 344.739 498.704C343.011 498.704 341.823 497.462 341.823 495.59C341.823 493.718 343.011 492.476 344.703 492.476C346.269 492.476 347.187 493.448 347.331 494.69L348.987 494.348C348.627 492.386 347.079 490.928 344.703 490.928C342.075 490.928 340.131 492.89 340.131 495.59ZM350.381 488.48C350.381 489.236 350.993 489.812 351.749 489.812C352.505 489.812 353.117 489.236 353.117 488.48C353.117 487.724 352.505 487.148 351.749 487.148C350.993 487.148 350.381 487.724 350.381 488.48ZM352.595 491.18H350.903V500H352.595V491.18Z" fill="#1B317C"/>
<rect x="157" y="192" width="119" height="41" rx="6" fill="#EFF2FC"/>
<path d="M168.419 206.4V219H170.219V213.96H173.315C175.565 213.96 177.203 212.466 177.203 210.18C177.203 207.894 175.619 206.4 173.315 206.4H168.419ZM170.219 208.056H173.117C174.611 208.056 175.403 208.812 175.403 210.18C175.403 211.548 174.575 212.304 173.117 212.304H170.219V208.056ZM178.178 214.59C178.178 217.326 180.122 219.252 182.714 219.252C185.306 219.252 187.25 217.326 187.25 214.59C187.25 211.854 185.306 209.928 182.714 209.928C180.122 209.928 178.178 211.854 178.178 214.59ZM179.87 214.59C179.87 212.646 181.022 211.476 182.714 211.476C184.406 211.476 185.558 212.646 185.558 214.59C185.558 216.534 184.406 217.704 182.714 217.704C181.022 217.704 179.87 216.534 179.87 214.59ZM197.692 206.4H196V211.566H195.784C195.298 210.756 194.488 209.928 192.76 209.928C190.438 209.928 188.62 211.854 188.62 214.59C188.62 217.326 190.438 219.252 192.76 219.252C194.488 219.252 195.298 218.424 195.784 217.614H196.036V219H197.692V206.4ZM193.192 211.44C194.92 211.44 196 212.646 196 214.59C196 216.534 194.92 217.74 193.192 217.74C191.5 217.74 190.312 216.606 190.312 214.59C190.312 212.574 191.5 211.44 193.192 211.44ZM200.217 210.18V219H201.909V214.392C201.909 212.556 202.935 211.512 204.573 211.512C206.013 211.512 206.841 212.304 206.841 213.834V219H208.533V213.69C208.533 211.26 206.949 210.036 205.095 210.036C203.349 210.036 202.539 210.846 202.125 211.674H201.873V210.18H200.217ZM210.418 207.48C210.418 208.236 211.03 208.812 211.786 208.812C212.542 208.812 213.154 208.236 213.154 207.48C213.154 206.724 212.542 206.148 211.786 206.148C211.03 206.148 210.418 206.724 210.418 207.48ZM212.632 210.18H210.94V219H212.632V210.18ZM223.942 210.18H221.458L217.066 213.906H216.85V206.4H215.158V219H216.85V216.138L218.668 214.626L221.836 219H223.87L219.892 213.582L223.942 210.18ZM225.171 212.502L226.629 213.168C227.043 212.142 227.889 211.44 229.329 211.44C230.769 211.44 231.615 212.16 231.615 213.366V213.6L228.357 213.906C226.089 214.122 224.991 214.986 224.991 216.588C224.991 218.172 226.269 219.252 228.249 219.252C230.067 219.252 230.985 218.406 231.363 217.614H231.615V219H233.271V213.438C233.271 211.314 231.741 209.928 229.365 209.928C227.205 209.928 225.801 211.134 225.171 212.502ZM226.701 216.516C226.701 215.616 227.511 215.31 228.537 215.22L231.615 214.932V215.076C231.615 216.606 230.607 217.848 228.537 217.848C227.367 217.848 226.701 217.344 226.701 216.516ZM234.506 210.18V211.656H236.954V217.488C236.954 218.388 237.566 219 238.43 219H240.734V217.524H239.114C238.79 217.524 238.646 217.38 238.646 217.02V211.656H241.238V210.18H238.646V207.12H236.954V210.18H234.506ZM242.338 214.518C242.338 217.182 244.21 219.252 246.946 219.252C249.052 219.252 250.186 218.082 250.852 217.002L249.43 216.192C248.962 217.128 248.206 217.776 246.91 217.776C245.326 217.776 244.21 216.786 244.102 215.202H251.05V214.356C251.05 211.8 249.322 209.892 246.73 209.892C244.174 209.892 242.338 211.926 242.338 214.518ZM244.102 213.834C244.228 212.268 245.182 211.368 246.73 211.368C248.278 211.368 249.25 212.322 249.286 213.834H244.102ZM254.608 206.4H252.916V219H254.608V206.4ZM260.915 206.4L259.817 208.74H261.365L262.877 206.4H260.915ZM256.559 214.518C256.559 217.182 258.431 219.252 261.167 219.252C263.273 219.252 264.407 218.082 265.073 217.002L263.651 216.192C263.183 217.128 262.427 217.776 261.131 217.776C259.547 217.776 258.431 216.786 258.323 215.202H265.271V214.356C265.271 211.8 263.543 209.892 260.951 209.892C258.395 209.892 256.559 211.926 256.559 214.518ZM258.323 213.834C258.449 212.268 259.403 211.368 260.951 211.368C262.499 211.368 263.471 212.322 263.507 213.834H258.323Z" fill="#1B317C"/>
<rect x="143" y="297" width="106" height="41" rx="6" fill="#F6F6EF"/>
<path d="M154.361 311.4V324H162.497V322.344H156.161V318.51H161.921V316.854H156.161V313.056H162.425V311.4H154.361ZM164.702 320.238H170.03V318.69H164.702V320.238ZM172.765 327.6H174.457V322.614H174.673C175.159 323.424 175.969 324.252 177.697 324.252C180.019 324.252 181.837 322.326 181.837 319.59C181.837 316.854 180.019 314.928 177.697 314.928C175.969 314.928 175.159 315.756 174.673 316.566H174.421V315.18H172.765V327.6ZM177.265 322.74C175.537 322.74 174.457 321.534 174.457 319.59C174.457 317.646 175.537 316.44 177.265 316.44C178.957 316.44 180.145 317.574 180.145 319.59C180.145 321.606 178.957 322.74 177.265 322.74ZM185.406 315.18H183.786V324H185.478V318.852C185.478 317.52 186.162 316.8 187.422 316.8H188.97V315.144H187.962C186.684 315.144 185.964 315.684 185.658 316.62H185.406V315.18ZM189.521 319.59C189.521 322.326 191.465 324.252 194.057 324.252C196.649 324.252 198.593 322.326 198.593 319.59C198.593 316.854 196.649 314.928 194.057 314.928C191.465 314.928 189.521 316.854 189.521 319.59ZM191.213 319.59C191.213 317.646 192.365 316.476 194.057 316.476C195.749 316.476 196.901 317.646 196.901 319.59C196.901 321.534 195.749 322.704 194.057 322.704C192.365 322.704 191.213 321.534 191.213 319.59ZM209.034 311.4H207.342V316.566H207.126C206.64 315.756 205.83 314.928 204.102 314.928C201.78 314.928 199.962 316.854 199.962 319.59C199.962 322.326 201.78 324.252 204.102 324.252C205.83 324.252 206.64 323.424 207.126 322.614H207.378V324H209.034V311.4ZM204.534 316.44C206.262 316.44 207.342 317.646 207.342 319.59C207.342 321.534 206.262 322.74 204.534 322.74C202.842 322.74 201.654 321.606 201.654 319.59C201.654 317.574 202.842 316.44 204.534 316.44ZM210.984 319.518C210.984 322.182 212.856 324.252 215.592 324.252C217.698 324.252 218.832 323.082 219.498 322.002L218.076 321.192C217.608 322.128 216.852 322.776 215.556 322.776C213.972 322.776 212.856 321.786 212.748 320.202H219.696V319.356C219.696 316.8 217.968 314.892 215.376 314.892C212.82 314.892 210.984 316.926 210.984 319.518ZM212.748 318.834C212.874 317.268 213.828 316.368 215.376 316.368C216.924 316.368 217.896 317.322 217.932 318.834H212.748ZM221.04 312.48C221.04 313.236 221.652 313.812 222.408 313.812C223.164 313.812 223.776 313.236 223.776 312.48C223.776 311.724 223.164 311.148 222.408 311.148C221.652 311.148 221.04 311.724 221.04 312.48ZM223.254 315.18H221.562V325.584C221.562 325.944 221.382 326.124 221.058 326.124H219.51V327.6H221.778C222.642 327.6 223.254 326.988 223.254 326.088V315.18ZM225.205 319.59C225.205 322.29 227.149 324.252 229.813 324.252C232.423 324.252 233.701 322.506 234.097 320.832L232.423 320.508C232.189 321.642 231.505 322.704 229.813 322.704C228.085 322.704 226.897 321.462 226.897 319.59C226.897 317.718 228.085 316.476 229.777 316.476C231.343 316.476 232.261 317.448 232.405 318.69L234.061 318.348C233.701 316.386 232.153 314.928 229.777 314.928C227.149 314.928 225.205 316.89 225.205 319.59ZM235.454 312.48C235.454 313.236 236.066 313.812 236.822 313.812C237.578 313.812 238.19 313.236 238.19 312.48C238.19 311.724 237.578 311.148 236.822 311.148C236.066 311.148 235.454 311.724 235.454 312.48ZM237.668 315.18H235.976V324H237.668V315.18Z" fill="#7C611B"/>
<rect x="143" y="559" width="166" height="41" rx="6" fill="#EDEDFC"/>
<path d="M153.941 578.296V581.104C153.941 584.38 155.777 586.252 158.873 586.252C161.897 586.252 163.589 584.452 163.589 581.644V581.392H161.789V581.644C161.789 583.408 160.889 584.596 158.873 584.596C156.857 584.596 155.741 583.372 155.741 581.176V578.224C155.741 576.028 156.857 574.804 158.873 574.804C160.889 574.804 161.789 576.01 161.789 577.756V578.008H163.589V577.684C163.589 574.984 161.897 573.148 158.873 573.148C155.777 573.148 153.941 575.02 153.941 578.296ZM165.029 581.59C165.029 584.326 166.973 586.252 169.565 586.252C172.157 586.252 174.101 584.326 174.101 581.59C174.101 578.854 172.157 576.928 169.565 576.928C166.973 576.928 165.029 578.854 165.029 581.59ZM166.721 581.59C166.721 579.646 167.873 578.476 169.565 578.476C171.257 578.476 172.409 579.646 172.409 581.59C172.409 583.534 171.257 584.704 169.565 584.704C167.873 584.704 166.721 583.534 166.721 581.59ZM176.046 577.18V586H177.738V581.392C177.738 579.556 178.764 578.512 180.402 578.512C181.842 578.512 182.67 579.304 182.67 580.834V586H184.362V580.69C184.362 578.26 182.778 577.036 180.924 577.036C179.178 577.036 178.368 577.846 177.954 578.674H177.702V577.18H176.046ZM185.585 577.18V578.656H188.033V584.488C188.033 585.388 188.645 586 189.509 586H191.813V584.524H190.193C189.869 584.524 189.725 584.38 189.725 584.02V578.656H192.317V577.18H189.725V574.12H188.033V577.18H185.585ZM193.417 581.518C193.417 584.182 195.289 586.252 198.025 586.252C200.131 586.252 201.265 585.082 201.931 584.002L200.509 583.192C200.041 584.128 199.285 584.776 197.989 584.776C196.405 584.776 195.289 583.786 195.181 582.202H202.129V581.356C202.129 578.8 200.401 576.892 197.809 576.892C195.253 576.892 193.417 578.926 193.417 581.518ZM195.181 580.834C195.307 579.268 196.261 578.368 197.809 578.368C199.357 578.368 200.329 579.322 200.365 580.834H195.181ZM203.995 577.18V586H205.687V581.392C205.687 579.556 206.713 578.512 208.351 578.512C209.791 578.512 210.619 579.304 210.619 580.834V586H212.311V580.69C212.311 578.26 210.727 577.036 208.873 577.036C207.127 577.036 206.317 577.846 205.903 578.674H205.651V577.18H203.995ZM213.534 577.18V578.656H215.982V584.488C215.982 585.388 216.594 586 217.458 586H219.762V584.524H218.142C217.818 584.524 217.674 584.38 217.674 584.02V578.656H220.266V577.18H217.674V574.12H215.982V577.18H213.534ZM227.031 578.296V581.104C227.031 584.38 228.867 586.252 231.963 586.252C234.987 586.252 236.679 584.452 236.679 581.644V581.392H234.879V581.644C234.879 583.408 233.979 584.596 231.963 584.596C229.947 584.596 228.831 583.372 228.831 581.176V578.224C228.831 576.028 229.947 574.804 231.963 574.804C233.979 574.804 234.879 576.01 234.879 577.756V578.008H236.679V577.684C236.679 574.984 234.987 573.148 231.963 573.148C228.867 573.148 227.031 575.02 227.031 578.296ZM240.315 577.18H238.695V586H240.387V580.852C240.387 579.52 241.071 578.8 242.331 578.8H243.879V577.144H242.871C241.593 577.144 240.873 577.684 240.567 578.62H240.315V577.18ZM244.429 581.518C244.429 584.182 246.301 586.252 249.037 586.252C251.143 586.252 252.277 585.082 252.943 584.002L251.521 583.192C251.053 584.128 250.297 584.776 249.001 584.776C247.417 584.776 246.301 583.786 246.193 582.202H253.141V581.356C253.141 578.8 251.413 576.892 248.821 576.892C246.265 576.892 244.429 578.926 244.429 581.518ZM246.193 580.834C246.319 579.268 247.273 578.368 248.821 578.368C250.369 578.368 251.341 579.322 251.377 580.834H246.193ZM254.649 579.502L256.107 580.168C256.521 579.142 257.367 578.44 258.807 578.44C260.247 578.44 261.093 579.16 261.093 580.366V580.6L257.835 580.906C255.567 581.122 254.469 581.986 254.469 583.588C254.469 585.172 255.747 586.252 257.727 586.252C259.545 586.252 260.463 585.406 260.841 584.614H261.093V586H262.749V580.438C262.749 578.314 261.219 576.928 258.843 576.928C256.683 576.928 255.279 578.134 254.649 579.502ZM256.179 583.516C256.179 582.616 256.989 582.31 258.015 582.22L261.093 581.932V582.076C261.093 583.606 260.085 584.848 258.015 584.848C256.845 584.848 256.179 584.344 256.179 583.516ZM263.983 577.18V578.656H266.431V584.488C266.431 585.388 267.043 586 267.907 586H270.211V584.524H268.591C268.267 584.524 268.123 584.38 268.123 584.02V578.656H270.715V577.18H268.123V574.12H266.431V577.18H263.983ZM271.816 581.59C271.816 584.326 273.76 586.252 276.352 586.252C278.944 586.252 280.888 584.326 280.888 581.59C280.888 578.854 278.944 576.928 276.352 576.928C273.76 576.928 271.816 578.854 271.816 581.59ZM273.508 581.59C273.508 579.646 274.66 578.476 276.352 578.476C278.044 578.476 279.196 579.646 279.196 581.59C279.196 583.534 278.044 584.704 276.352 584.704C274.66 584.704 273.508 583.534 273.508 581.59ZM284.453 577.18H282.833V586H284.525V580.852C284.525 579.52 285.209 578.8 286.469 578.8H288.017V577.144H287.009C285.731 577.144 285.011 577.684 284.705 578.62H284.453V577.18ZM296.734 577.18L294.016 583.876H293.8L291.082 577.18H289.246L293.008 586.162L291.514 589.6H293.35L298.57 577.18H296.734Z" fill="#521B7C"/>
</svg>
