<svg width="65" height="54" viewBox="0 0 65 54" fill="none" xmlns="http://www.w3.org/2000/svg">
<rect width="65" height="54" rx="9" fill="#F2D0B0"/>
<path d="M32.5002 9C22.8506 9 15 17.0745 15 26.9995C15 36.9251 22.8506 45 32.5002 45C42.1496 45 50 36.9249 50 26.9995C50 17.0745 42.1496 9 32.5002 9ZM32.5002 42.4197C24.2338 42.4197 17.5086 35.5022 17.5086 26.9995C17.5086 18.4973 24.2338 11.5803 32.5002 11.5803C40.7663 11.5803 47.4914 18.4973 47.4914 26.9995C47.4914 35.5022 40.7663 42.4197 32.5002 42.4197Z" fill="#643000"/>
<path d="M41.4983 26.6986H33.2743V17.4522C33.2743 16.7397 32.7128 16.1621 32.0199 16.1621C31.3272 16.1621 30.7656 16.7397 30.7656 17.4522V27.9887C30.7656 28.7012 31.3272 29.2789 32.0199 29.2789H41.4983C42.1912 29.2789 42.7526 28.7012 42.7526 27.9887C42.7526 27.2762 42.191 26.6986 41.4983 26.6986Z" fill="#643000"/>
</svg>
