<svg width="65" height="53" viewBox="0 0 65 53" fill="none" xmlns="http://www.w3.org/2000/svg">
<rect width="65" height="53" rx="9" fill="#F2EBB0"/>
<path d="M31.9999 16.7139C31.3687 16.7139 30.8571 17.2255 30.8571 17.8567V25.8568H22.8571C22.2259 25.8568 21.7142 26.3684 21.7142 26.9996C21.7142 27.6308 22.2259 28.1425 22.8571 28.1425H31.9999C32.6311 28.1425 33.1428 27.6308 33.1428 26.9996V17.8567C33.1428 17.2255 32.6311 16.7139 31.9999 16.7139Z" fill="#796D00"/>
<path d="M32 11C23.1634 11 16 18.1634 16 27C16 35.8365 23.1634 42.9999 32 42.9999C40.8365 42.9999 47.9999 35.8365 47.9999 27C47.9906 18.1674 40.8326 11.0094 32 11ZM32 40.7142C24.4258 40.7142 18.2857 34.5742 18.2857 27C18.2857 19.4258 24.4258 13.2857 32 13.2857C39.5742 13.2857 45.7142 19.4258 45.7142 27C45.7061 34.5708 39.5708 40.7061 32 40.7142Z" fill="#796D00"/>
</svg>
