<svg width="392" height="650" viewBox="0 0 392 650" fill="none" xmlns="http://www.w3.org/2000/svg">
<mask id="mask0" mask-type="alpha" maskUnits="userSpaceOnUse" x="72" y="0" width="408" height="650">
<rect x="72" width="408" height="650" fill="#C4C4C4"/>
</mask>
<g mask="url(#mask0)">
<path d="M679 313C679 479.75 543.346 614.933 376 614.933C208.654 614.933 73 479.75 73 313C73 146.25 208.654 11.0667 376 11.0667C543.346 11.0667 679 146.25 679 313Z" stroke="#2550E5" stroke-opacity="0.05" stroke-width="2"/>
<path d="M556.972 313C556.972 412.592 475.951 493.333 376 493.333C276.049 493.333 195.028 412.592 195.028 313C195.028 213.408 276.049 132.667 376 132.667C475.951 132.667 556.972 213.408 556.972 313Z" stroke="#2550E5" stroke-opacity="0.2" stroke-width="2"/>
<path d="M616.916 313C616.916 445.582 509.058 553.067 376 553.067C242.943 553.067 135.085 445.582 135.085 313C135.085 180.418 242.943 72.9333 376 72.9333C509.058 72.9333 616.916 180.418 616.916 313Z" stroke="#2550E5" stroke-opacity="0.06" stroke-width="2"/>
</g>
<rect x="173" y="378" width="164" height="41" rx="6" fill="#EFF2FC"/>
<path d="M184.481 392.4H188.369C190.001 392.4 191.261 392.814 192.149 393.642C193.037 394.47 193.481 395.688 193.481 397.296V400.104C193.481 401.712 193.037 402.93 192.149 403.758C191.261 404.586 190.001 405 188.369 405H184.481V392.4ZM186.281 394.056V403.344H188.333C189.449 403.344 190.283 403.08 190.835 402.552C191.399 402.024 191.681 401.196 191.681 400.068V397.332C191.681 396.204 191.399 395.376 190.835 394.848C190.283 394.32 189.449 394.056 188.333 394.056H186.281ZM195.481 394.434C195.217 394.17 195.085 393.852 195.085 393.48C195.085 393.108 195.217 392.796 195.481 392.544C195.745 392.28 196.069 392.148 196.453 392.148C196.837 392.148 197.161 392.28 197.425 392.544C197.689 392.796 197.821 393.108 197.821 393.48C197.821 393.852 197.689 394.17 197.425 394.434C197.161 394.686 196.837 394.812 196.453 394.812C196.069 394.812 195.745 394.686 195.481 394.434ZM197.299 396.18V405H195.607V396.18H197.299ZM206.665 396.18H208.321V404.73C208.321 405.93 207.925 406.914 207.133 407.682C206.341 408.462 205.291 408.852 203.983 408.852C202.027 408.852 200.497 408.036 199.393 406.404L200.905 405.522C201.541 406.734 202.531 407.34 203.875 407.34C204.715 407.34 205.381 407.112 205.873 406.656C206.377 406.2 206.629 405.528 206.629 404.64V403.398H206.413C205.753 404.49 204.745 405.036 203.389 405.036C202.213 405.036 201.229 404.61 200.437 403.758C199.645 402.906 199.249 401.814 199.249 400.482C199.249 399.15 199.645 398.058 200.437 397.206C201.229 396.354 202.213 395.928 203.389 395.928C204.745 395.928 205.753 396.474 206.413 397.566H206.665V396.18ZM201.733 402.732C202.261 403.26 202.957 403.524 203.821 403.524C204.685 403.524 205.369 403.254 205.873 402.714C206.377 402.174 206.629 401.43 206.629 400.482C206.629 399.534 206.377 398.79 205.873 398.25C205.369 397.71 204.685 397.44 203.821 397.44C202.957 397.44 202.261 397.71 201.733 398.25C201.205 398.778 200.941 399.522 200.941 400.482C200.941 401.442 201.205 402.192 201.733 402.732ZM210.721 394.434C210.457 394.17 210.325 393.852 210.325 393.48C210.325 393.108 210.457 392.796 210.721 392.544C210.985 392.28 211.309 392.148 211.693 392.148C212.077 392.148 212.401 392.28 212.665 392.544C212.929 392.796 213.061 393.108 213.061 393.48C213.061 393.852 212.929 394.17 212.665 394.434C212.401 394.686 212.077 394.812 211.693 394.812C211.309 394.812 210.985 394.686 210.721 394.434ZM212.539 396.18V405H210.847V396.18H212.539ZM214.058 396.18H216.506V393.12H218.198V396.18H220.79V397.656H218.198V403.02C218.198 403.356 218.354 403.524 218.666 403.524H220.286V405H217.982C217.55 405 217.196 404.862 216.92 404.586C216.644 404.298 216.506 403.932 216.506 403.488V397.656H214.058V396.18ZM222.266 398.502C222.614 397.758 223.142 397.146 223.85 396.666C224.57 396.174 225.44 395.928 226.46 395.928C227.648 395.928 228.596 396.246 229.304 396.882C230.012 397.518 230.366 398.37 230.366 399.438V405H228.71V403.614H228.458C228.242 404.082 227.876 404.472 227.36 404.784C226.844 405.096 226.172 405.252 225.344 405.252C224.36 405.252 223.568 405.006 222.968 404.514C222.38 404.022 222.086 403.38 222.086 402.588C222.086 401.016 223.208 400.122 225.452 399.906L228.71 399.6V399.366C228.71 398.766 228.506 398.298 228.098 397.962C227.702 397.614 227.144 397.44 226.424 397.44C225.092 397.44 224.192 398.016 223.724 399.168L222.266 398.502ZM223.796 402.516C223.796 402.936 223.958 403.266 224.282 403.506C224.606 403.734 225.056 403.848 225.632 403.848C226.628 403.848 227.39 403.59 227.918 403.074C228.446 402.546 228.71 401.88 228.71 401.076V400.932L225.632 401.22C224.408 401.328 223.796 401.76 223.796 402.516ZM234.476 392.4V405H232.784V392.4H234.476ZM242.436 392.4H245.676L248.88 403.128H249.096L252.3 392.4H255.54V405H253.74V394.308H253.524L250.338 405H247.638L244.452 394.308H244.236V405H242.436V392.4ZM257.809 398.502C258.157 397.758 258.685 397.146 259.393 396.666C260.113 396.174 260.983 395.928 262.003 395.928C263.191 395.928 264.139 396.246 264.847 396.882C265.555 397.518 265.909 398.37 265.909 399.438V405H264.253V403.614H264.001C263.785 404.082 263.419 404.472 262.903 404.784C262.387 405.096 261.715 405.252 260.887 405.252C259.903 405.252 259.111 405.006 258.511 404.514C257.923 404.022 257.629 403.38 257.629 402.588C257.629 401.016 258.751 400.122 260.995 399.906L264.253 399.6V399.366C264.253 398.766 264.049 398.298 263.641 397.962C263.245 397.614 262.687 397.44 261.967 397.44C260.635 397.44 259.735 398.016 259.267 399.168L257.809 398.502ZM259.339 402.516C259.339 402.936 259.501 403.266 259.825 403.506C260.149 403.734 260.599 403.848 261.175 403.848C262.171 403.848 262.933 403.59 263.461 403.074C263.989 402.546 264.253 401.88 264.253 401.076V400.932L261.175 401.22C259.951 401.328 259.339 401.76 259.339 402.516ZM269.947 396.18V397.62H270.199C270.523 396.636 271.291 396.144 272.503 396.144H273.511V397.8H271.963C271.327 397.8 270.841 397.98 270.505 398.34C270.181 398.688 270.019 399.192 270.019 399.852V405H268.327V396.18H269.947ZM283.879 396.18L279.829 399.582L283.807 405H281.773L278.605 400.626L276.787 402.138V405H275.095V392.4H276.787V399.906H277.003L281.395 396.18H283.879ZM284.099 400.518C284.099 399.21 284.513 398.112 285.341 397.224C286.169 396.336 287.219 395.892 288.491 395.892C289.775 395.892 290.813 396.312 291.605 397.152C292.409 397.992 292.811 399.06 292.811 400.356V401.202H285.863C285.911 401.994 286.193 402.624 286.709 403.092C287.225 403.548 287.879 403.776 288.671 403.776C289.823 403.776 290.663 403.248 291.191 402.192L292.613 403.002C291.689 404.502 290.387 405.252 288.707 405.252C287.351 405.252 286.241 404.802 285.377 403.902C284.525 402.99 284.099 401.862 284.099 400.518ZM285.863 399.834H291.047C291.023 399.078 290.783 398.478 290.327 398.034C289.871 397.59 289.259 397.368 288.491 397.368C287.723 397.368 287.105 397.584 286.637 398.016C286.181 398.448 285.923 399.054 285.863 399.834ZM293.581 396.18H296.029V393.12H297.721V396.18H300.313V397.656H297.721V403.02C297.721 403.356 297.877 403.524 298.189 403.524H299.809V405H297.505C297.073 405 296.719 404.862 296.443 404.586C296.167 404.298 296.029 403.932 296.029 403.488V397.656H293.581V396.18ZM301.413 400.518C301.413 399.21 301.827 398.112 302.655 397.224C303.483 396.336 304.533 395.892 305.805 395.892C307.089 395.892 308.127 396.312 308.919 397.152C309.723 397.992 310.125 399.06 310.125 400.356V401.202H303.177C303.225 401.994 303.507 402.624 304.023 403.092C304.539 403.548 305.193 403.776 305.985 403.776C307.137 403.776 307.977 403.248 308.505 402.192L309.927 403.002C309.003 404.502 307.701 405.252 306.021 405.252C304.665 405.252 303.555 404.802 302.691 403.902C301.839 402.99 301.413 401.862 301.413 400.518ZM303.177 399.834H308.361C308.337 399.078 308.097 398.478 307.641 398.034C307.185 397.59 306.573 397.368 305.805 397.368C305.037 397.368 304.419 397.584 303.951 398.016C303.495 398.448 303.237 399.054 303.177 399.834ZM313.611 396.18V397.62H313.863C314.187 396.636 314.955 396.144 316.167 396.144H317.175V397.8H315.627C314.991 397.8 314.505 397.98 314.169 398.34C313.845 398.688 313.683 399.192 313.683 399.852V405H311.991V396.18H313.611ZM318.403 398.538C318.403 397.734 318.727 397.098 319.375 396.63C320.023 396.162 320.821 395.928 321.769 395.928C322.645 395.928 323.413 396.108 324.073 396.468C324.745 396.816 325.435 397.386 326.143 398.178L324.883 399.078C323.983 397.914 322.957 397.332 321.805 397.332C321.301 397.332 320.887 397.44 320.563 397.656C320.239 397.86 320.077 398.148 320.077 398.52C320.077 398.724 320.119 398.892 320.203 399.024C320.287 399.156 320.437 399.264 320.653 399.348C320.881 399.42 321.055 399.474 321.175 399.51C321.307 399.534 321.547 399.57 321.895 399.618L322.633 399.726C323.797 399.894 324.679 400.164 325.279 400.536C325.891 400.896 326.197 401.496 326.197 402.336C326.197 403.212 325.831 403.92 325.099 404.46C324.379 404.988 323.449 405.252 322.309 405.252C321.169 405.252 320.221 404.988 319.465 404.46C318.709 403.92 318.127 403.26 317.719 402.48L319.231 401.67C319.507 402.342 319.921 402.87 320.473 403.254C321.025 403.626 321.655 403.812 322.363 403.812C322.999 403.812 323.515 403.686 323.911 403.434C324.319 403.17 324.523 402.822 324.523 402.39C324.523 402.294 324.511 402.204 324.487 402.12C324.463 402.036 324.421 401.964 324.361 401.904C324.301 401.832 324.247 401.772 324.199 401.724C324.151 401.676 324.073 401.634 323.965 401.598C323.857 401.55 323.767 401.514 323.695 401.49C323.635 401.466 323.533 401.442 323.389 401.418C323.245 401.382 323.143 401.358 323.083 401.346C323.023 401.334 322.909 401.322 322.741 401.31C322.585 401.286 322.483 401.268 322.435 401.256L321.697 401.148C320.629 400.992 319.813 400.716 319.249 400.32C318.685 399.924 318.403 399.33 318.403 398.538Z" fill="#1B317C"/>
<rect x="275" y="50" width="93" height="41" rx="6" fill="#EFF2FC"/>
<path d="M289.3 64.4H292.144L296.086 77H294.178L293.26 73.976H288.184L287.266 77H285.358L289.3 64.4ZM288.67 72.32H292.774L290.83 65.984H290.614L288.67 72.32ZM309.565 64.544C309.829 64.28 310.153 64.148 310.537 64.148C310.921 64.148 311.245 64.28 311.509 64.544C311.773 64.796 311.905 65.108 311.905 65.48C311.905 65.852 311.773 66.17 311.509 66.434C311.245 66.686 310.921 66.812 310.537 66.812C310.153 66.812 309.829 66.686 309.565 66.434C309.301 66.17 309.169 65.852 309.169 65.48C309.169 65.108 309.301 64.796 309.565 64.544ZM306.091 68.18H311.383V77H309.691V69.656H306.091V77H304.399V69.656H300.799V77H299.107V69.656H296.659V68.18H299.107V65.948C299.107 65.48 299.245 65.108 299.521 64.832C299.797 64.544 300.163 64.4 300.619 64.4H302.851V65.876H301.267C300.955 65.876 300.799 66.044 300.799 66.38V68.18H304.399V65.948C304.399 65.48 304.537 65.108 304.813 64.832C305.089 64.544 305.455 64.4 305.911 64.4H307.963V65.876H306.559C306.247 65.876 306.091 66.044 306.091 66.38V68.18ZM315.601 64.4V77H313.909V64.4H315.601ZM318.002 66.434C317.738 66.17 317.606 65.852 317.606 65.48C317.606 65.108 317.738 64.796 318.002 64.544C318.266 64.28 318.59 64.148 318.974 64.148C319.358 64.148 319.682 64.28 319.946 64.544C320.21 64.796 320.342 65.108 320.342 65.48C320.342 65.852 320.21 66.17 319.946 66.434C319.682 66.686 319.358 66.812 318.974 66.812C318.59 66.812 318.266 66.686 318.002 66.434ZM319.82 68.18V77H318.128V68.18H319.82ZM322.059 70.502C322.407 69.758 322.935 69.146 323.643 68.666C324.363 68.174 325.233 67.928 326.253 67.928C327.441 67.928 328.389 68.246 329.097 68.882C329.805 69.518 330.159 70.37 330.159 71.438V77H328.503V75.614H328.251C328.035 76.082 327.669 76.472 327.153 76.784C326.637 77.096 325.965 77.252 325.137 77.252C324.153 77.252 323.361 77.006 322.761 76.514C322.173 76.022 321.879 75.38 321.879 74.588C321.879 73.016 323.001 72.122 325.245 71.906L328.503 71.6V71.366C328.503 70.766 328.299 70.298 327.891 69.962C327.495 69.614 326.937 69.44 326.217 69.44C324.885 69.44 323.985 70.016 323.517 71.168L322.059 70.502ZM323.589 74.516C323.589 74.936 323.751 75.266 324.075 75.506C324.399 75.734 324.849 75.848 325.425 75.848C326.421 75.848 327.183 75.59 327.711 75.074C328.239 74.546 328.503 73.88 328.503 73.076V72.932L325.425 73.22C324.201 73.328 323.589 73.76 323.589 74.516ZM331.394 68.18H333.842V65.12H335.534V68.18H338.126V69.656H335.534V75.02C335.534 75.356 335.69 75.524 336.002 75.524H337.622V77H335.318C334.886 77 334.532 76.862 334.256 76.586C333.98 76.298 333.842 75.932 333.842 75.488V69.656H331.394V68.18ZM339.226 72.518C339.226 71.21 339.64 70.112 340.468 69.224C341.296 68.336 342.346 67.892 343.618 67.892C344.902 67.892 345.94 68.312 346.732 69.152C347.536 69.992 347.938 71.06 347.938 72.356V73.202H340.99C341.038 73.994 341.32 74.624 341.836 75.092C342.352 75.548 343.006 75.776 343.798 75.776C344.95 75.776 345.79 75.248 346.318 74.192L347.74 75.002C346.816 76.502 345.514 77.252 343.834 77.252C342.478 77.252 341.368 76.802 340.504 75.902C339.652 74.99 339.226 73.862 339.226 72.518ZM340.99 71.834H346.174C346.15 71.078 345.91 70.478 345.454 70.034C344.998 69.59 344.386 69.368 343.618 69.368C342.85 69.368 342.232 69.584 341.764 70.016C341.308 70.448 341.05 71.054 340.99 71.834ZM349.554 70.538C349.554 69.734 349.878 69.098 350.526 68.63C351.174 68.162 351.972 67.928 352.92 67.928C353.796 67.928 354.564 68.108 355.224 68.468C355.896 68.816 356.586 69.386 357.294 70.178L356.034 71.078C355.134 69.914 354.108 69.332 352.956 69.332C352.452 69.332 352.038 69.44 351.714 69.656C351.39 69.86 351.228 70.148 351.228 70.52C351.228 70.724 351.27 70.892 351.354 71.024C351.438 71.156 351.588 71.264 351.804 71.348C352.032 71.42 352.206 71.474 352.326 71.51C352.458 71.534 352.698 71.57 353.046 71.618L353.784 71.726C354.948 71.894 355.83 72.164 356.43 72.536C357.042 72.896 357.348 73.496 357.348 74.336C357.348 75.212 356.982 75.92 356.25 76.46C355.53 76.988 354.6 77.252 353.46 77.252C352.32 77.252 351.372 76.988 350.616 76.46C349.86 75.92 349.278 75.26 348.87 74.48L350.382 73.67C350.658 74.342 351.072 74.87 351.624 75.254C352.176 75.626 352.806 75.812 353.514 75.812C354.15 75.812 354.666 75.686 355.062 75.434C355.47 75.17 355.674 74.822 355.674 74.39C355.674 74.294 355.662 74.204 355.638 74.12C355.614 74.036 355.572 73.964 355.512 73.904C355.452 73.832 355.398 73.772 355.35 73.724C355.302 73.676 355.224 73.634 355.116 73.598C355.008 73.55 354.918 73.514 354.846 73.49C354.786 73.466 354.684 73.442 354.54 73.418C354.396 73.382 354.294 73.358 354.234 73.346C354.174 73.334 354.06 73.322 353.892 73.31C353.736 73.286 353.634 73.268 353.586 73.256L352.848 73.148C351.78 72.992 350.964 72.716 350.4 72.32C349.836 71.924 349.554 71.33 349.554 70.538Z" fill="#1B317C"/>
<rect x="23" y="432" width="108" height="41" rx="6" fill="#EBF5F4"/>
<path d="M34.7814 446.4H39.6774C40.8294 446.4 41.7654 446.748 42.4854 447.444C43.2054 448.128 43.5654 449.04 43.5654 450.18C43.5654 451.308 43.1994 452.22 42.4674 452.916C41.7474 453.612 40.8174 453.96 39.6774 453.96H36.5814V459H34.7814V446.4ZM36.5814 448.056V452.304H39.4794C40.2114 452.304 40.7754 452.124 41.1714 451.764C41.5674 451.392 41.7654 450.864 41.7654 450.18C41.7654 449.496 41.5674 448.974 41.1714 448.614C40.7874 448.242 40.2234 448.056 39.4794 448.056H36.5814ZM53.5002 459H51.8442V457.506H51.5922C51.0402 458.598 50.0502 459.144 48.6222 459.144C47.6382 459.144 46.8162 458.826 46.1562 458.19C45.5082 457.554 45.1842 456.654 45.1842 455.49V450.18H46.8762V455.346C46.8762 456.102 47.0682 456.678 47.4522 457.074C47.8482 457.47 48.4122 457.668 49.1442 457.668C49.9722 457.668 50.6202 457.416 51.0882 456.912C51.5682 456.408 51.8082 455.7 51.8082 454.788V450.18H53.5002V459ZM56.0149 446.4H57.7069V451.566H57.9229C58.5829 450.474 59.5909 449.928 60.9469 449.928C62.1229 449.928 63.1069 450.366 63.8989 451.242C64.6909 452.118 65.0869 453.234 65.0869 454.59C65.0869 455.946 64.6909 457.062 63.8989 457.938C63.1069 458.814 62.1229 459.252 60.9469 459.252C59.5909 459.252 58.5829 458.706 57.9229 457.614H57.6709V459H56.0149V446.4ZM62.6029 452.286C62.0749 451.722 61.3789 451.44 60.5149 451.44C59.6509 451.44 58.9669 451.722 58.4629 452.286C57.9589 452.85 57.7069 453.618 57.7069 454.59C57.7069 455.562 57.9589 456.33 58.4629 456.894C58.9669 457.458 59.6509 457.74 60.5149 457.74C61.3789 457.74 62.0749 457.464 62.6029 456.912C63.1309 456.348 63.3949 455.574 63.3949 454.59C63.3949 453.606 63.1309 452.838 62.6029 452.286ZM68.7284 446.4V459H67.0364V446.4H68.7284ZM71.1291 448.434C70.8651 448.17 70.7331 447.852 70.7331 447.48C70.7331 447.108 70.8651 446.796 71.1291 446.544C71.3931 446.28 71.7171 446.148 72.1011 446.148C72.4851 446.148 72.8091 446.28 73.0731 446.544C73.3371 446.796 73.4691 447.108 73.4691 447.48C73.4691 447.852 73.3371 448.17 73.0731 448.434C72.8091 448.686 72.4851 448.812 72.1011 448.812C71.7171 448.812 71.3931 448.686 71.1291 448.434ZM72.9471 450.18V459H71.2551V450.18H72.9471ZM75.2939 452.538C75.2939 451.734 75.6179 451.098 76.2659 450.63C76.9139 450.162 77.7119 449.928 78.6599 449.928C79.5359 449.928 80.3039 450.108 80.9639 450.468C81.6359 450.816 82.3259 451.386 83.0339 452.178L81.7739 453.078C80.8739 451.914 79.8479 451.332 78.6959 451.332C78.1919 451.332 77.7779 451.44 77.4539 451.656C77.1299 451.86 76.9679 452.148 76.9679 452.52C76.9679 452.724 77.0099 452.892 77.0939 453.024C77.1779 453.156 77.3279 453.264 77.5439 453.348C77.7719 453.42 77.9459 453.474 78.0659 453.51C78.1979 453.534 78.4379 453.57 78.7859 453.618L79.5239 453.726C80.6879 453.894 81.5699 454.164 82.1699 454.536C82.7819 454.896 83.0879 455.496 83.0879 456.336C83.0879 457.212 82.7219 457.92 81.9899 458.46C81.2699 458.988 80.3399 459.252 79.1999 459.252C78.0599 459.252 77.1119 458.988 76.3559 458.46C75.5999 457.92 75.0179 457.26 74.6099 456.48L76.1219 455.67C76.3979 456.342 76.8119 456.87 77.3639 457.254C77.9159 457.626 78.5459 457.812 79.2539 457.812C79.8899 457.812 80.4059 457.686 80.8019 457.434C81.2099 457.17 81.4139 456.822 81.4139 456.39C81.4139 456.294 81.4019 456.204 81.3779 456.12C81.3539 456.036 81.3119 455.964 81.2519 455.904C81.1919 455.832 81.1379 455.772 81.0899 455.724C81.0419 455.676 80.9639 455.634 80.8559 455.598C80.7479 455.55 80.6579 455.514 80.5859 455.49C80.5259 455.466 80.4239 455.442 80.2799 455.418C80.1359 455.382 80.0339 455.358 79.9739 455.346C79.9139 455.334 79.7999 455.322 79.6319 455.31C79.4759 455.286 79.3739 455.268 79.3259 455.256L78.5879 455.148C77.5199 454.992 76.7039 454.716 76.1399 454.32C75.5759 453.924 75.2939 453.33 75.2939 452.538ZM84.9661 446.4H86.6581V451.674H86.8741C87.4261 450.582 88.4161 450.036 89.8441 450.036C90.8281 450.036 91.6441 450.354 92.2921 450.99C92.9521 451.626 93.2821 452.526 93.2821 453.69V459H91.5901V453.834C91.5901 453.078 91.3921 452.502 90.9961 452.106C90.6121 451.71 90.0541 451.512 89.3221 451.512C88.4941 451.512 87.8401 451.764 87.3601 452.268C86.8921 452.772 86.6581 453.48 86.6581 454.392V459H84.9661V446.4ZM95.1127 454.518C95.1127 453.21 95.5267 452.112 96.3547 451.224C97.1827 450.336 98.2327 449.892 99.5047 449.892C100.789 449.892 101.827 450.312 102.619 451.152C103.423 451.992 103.825 453.06 103.825 454.356V455.202H96.8767C96.9247 455.994 97.2067 456.624 97.7227 457.092C98.2387 457.548 98.8927 457.776 99.6847 457.776C100.837 457.776 101.677 457.248 102.205 456.192L103.627 457.002C102.703 458.502 101.401 459.252 99.7207 459.252C98.3647 459.252 97.2547 458.802 96.3907 457.902C95.5387 456.99 95.1127 455.862 95.1127 454.518ZM96.8767 453.834H102.061C102.037 453.078 101.797 452.478 101.341 452.034C100.885 451.59 100.273 451.368 99.5047 451.368C98.7367 451.368 98.1187 451.584 97.6507 452.016C97.1947 452.448 96.9367 453.054 96.8767 453.834ZM107.311 450.18V451.62H107.563C107.887 450.636 108.655 450.144 109.867 450.144H110.875V451.8H109.327C108.691 451.8 108.205 451.98 107.869 452.34C107.545 452.688 107.383 453.192 107.383 453.852V459H105.691V450.18H107.311ZM112.102 452.538C112.102 451.734 112.426 451.098 113.074 450.63C113.722 450.162 114.52 449.928 115.468 449.928C116.344 449.928 117.112 450.108 117.772 450.468C118.444 450.816 119.134 451.386 119.842 452.178L118.582 453.078C117.682 451.914 116.656 451.332 115.504 451.332C115 451.332 114.586 451.44 114.262 451.656C113.938 451.86 113.776 452.148 113.776 452.52C113.776 452.724 113.818 452.892 113.902 453.024C113.986 453.156 114.136 453.264 114.352 453.348C114.58 453.42 114.754 453.474 114.874 453.51C115.006 453.534 115.246 453.57 115.594 453.618L116.332 453.726C117.496 453.894 118.378 454.164 118.978 454.536C119.59 454.896 119.896 455.496 119.896 456.336C119.896 457.212 119.53 457.92 118.798 458.46C118.078 458.988 117.148 459.252 116.008 459.252C114.868 459.252 113.92 458.988 113.164 458.46C112.408 457.92 111.826 457.26 111.418 456.48L112.93 455.67C113.206 456.342 113.62 456.87 114.172 457.254C114.724 457.626 115.354 457.812 116.062 457.812C116.698 457.812 117.214 457.686 117.61 457.434C118.018 457.17 118.222 456.822 118.222 456.39C118.222 456.294 118.21 456.204 118.186 456.12C118.162 456.036 118.12 455.964 118.06 455.904C118 455.832 117.946 455.772 117.898 455.724C117.85 455.676 117.772 455.634 117.664 455.598C117.556 455.55 117.466 455.514 117.394 455.49C117.334 455.466 117.232 455.442 117.088 455.418C116.944 455.382 116.842 455.358 116.782 455.346C116.722 455.334 116.608 455.322 116.44 455.31C116.284 455.286 116.182 455.268 116.134 455.256L115.396 455.148C114.328 454.992 113.512 454.716 112.948 454.32C112.384 453.924 112.102 453.33 112.102 452.538Z" fill="#407C1B"/>
<rect y="240" width="113" height="41" rx="6" fill="#EBEFFC"/>
<path d="M11.6446 254.4H15.5326C17.1646 254.4 18.4246 254.814 19.3126 255.642C20.2006 256.47 20.6446 257.688 20.6446 259.296V262.104C20.6446 263.712 20.2006 264.93 19.3126 265.758C18.4246 266.586 17.1646 267 15.5326 267H11.6446V254.4ZM13.4446 256.056V265.344H15.4966C16.6126 265.344 17.4466 265.08 17.9986 264.552C18.5626 264.024 18.8446 263.196 18.8446 262.068V259.332C18.8446 258.204 18.5626 257.376 17.9986 256.848C17.4466 256.32 16.6126 256.056 15.4966 256.056H13.4446ZM22.1947 262.518C22.1947 261.21 22.6087 260.112 23.4367 259.224C24.2647 258.336 25.3147 257.892 26.5867 257.892C27.8707 257.892 28.9087 258.312 29.7007 259.152C30.5047 259.992 30.9067 261.06 30.9067 262.356V263.202H23.9587C24.0067 263.994 24.2887 264.624 24.8047 265.092C25.3207 265.548 25.9747 265.776 26.7667 265.776C27.9187 265.776 28.7587 265.248 29.2867 264.192L30.7087 265.002C29.7847 266.502 28.4827 267.252 26.8027 267.252C25.4467 267.252 24.3367 266.802 23.4727 265.902C22.6207 264.99 22.1947 263.862 22.1947 262.518ZM23.9587 261.834H29.1427C29.1187 261.078 28.8787 260.478 28.4227 260.034C27.9667 259.59 27.3547 259.368 26.5867 259.368C25.8187 259.368 25.2007 259.584 24.7327 260.016C24.2767 260.448 24.0187 261.054 23.9587 261.834ZM31.6969 258.18H33.5329L36.0889 265.38H36.3049L38.8609 258.18H40.6969L37.4029 267H34.9909L31.6969 258.18ZM41.5658 262.518C41.5658 261.21 41.9798 260.112 42.8078 259.224C43.6358 258.336 44.6858 257.892 45.9578 257.892C47.2418 257.892 48.2798 258.312 49.0718 259.152C49.8758 259.992 50.2778 261.06 50.2778 262.356V263.202H43.3298C43.3778 263.994 43.6598 264.624 44.1758 265.092C44.6918 265.548 45.3458 265.776 46.1378 265.776C47.2898 265.776 48.1298 265.248 48.6578 264.192L50.0798 265.002C49.1558 266.502 47.8538 267.252 46.1738 267.252C44.8178 267.252 43.7078 266.802 42.8438 265.902C41.9918 264.99 41.5658 263.862 41.5658 262.518ZM43.3298 261.834H48.5138C48.4898 261.078 48.2498 260.478 47.7938 260.034C47.3378 259.59 46.7258 259.368 45.9578 259.368C45.1898 259.368 44.5718 259.584 44.1038 260.016C43.6478 260.448 43.3898 261.054 43.3298 261.834ZM53.8358 254.4V267H52.1438V254.4H53.8358ZM57.0645 265.938C56.2125 265.062 55.7865 263.946 55.7865 262.59C55.7865 261.234 56.2125 260.118 57.0645 259.242C57.9285 258.366 59.0145 257.928 60.3225 257.928C61.6305 257.928 62.7105 258.366 63.5625 259.242C64.4265 260.118 64.8585 261.234 64.8585 262.59C64.8585 263.946 64.4265 265.062 63.5625 265.938C62.7105 266.814 61.6305 267.252 60.3225 267.252C59.0145 267.252 57.9285 266.814 57.0645 265.938ZM58.2525 260.322C57.7365 260.874 57.4785 261.63 57.4785 262.59C57.4785 263.55 57.7365 264.312 58.2525 264.876C58.7805 265.428 59.4705 265.704 60.3225 265.704C61.1745 265.704 61.8585 265.428 62.3745 264.876C62.9025 264.312 63.1665 263.55 63.1665 262.59C63.1665 261.63 62.9025 260.874 62.3745 260.322C61.8585 259.758 61.1745 259.476 60.3225 259.476C59.4705 259.476 58.7805 259.758 58.2525 260.322ZM66.8039 270.6V258.18H68.4599V259.566H68.7119C69.3719 258.474 70.3799 257.928 71.7359 257.928C72.9119 257.928 73.8959 258.366 74.6879 259.242C75.4799 260.118 75.8759 261.234 75.8759 262.59C75.8759 263.946 75.4799 265.062 74.6879 265.938C73.8959 266.814 72.9119 267.252 71.7359 267.252C70.3799 267.252 69.3719 266.706 68.7119 265.614H68.4959V270.6H66.8039ZM69.2519 264.894C69.7559 265.458 70.4399 265.74 71.3039 265.74C72.1679 265.74 72.8639 265.464 73.3919 264.912C73.9199 264.348 74.1839 263.574 74.1839 262.59C74.1839 261.606 73.9199 260.838 73.3919 260.286C72.8639 259.722 72.1679 259.44 71.3039 259.44C70.4399 259.44 69.7559 259.722 69.2519 260.286C68.7479 260.85 68.4959 261.618 68.4959 262.59C68.4959 263.562 68.7479 264.33 69.2519 264.894ZM77.2494 262.518C77.2494 261.21 77.6634 260.112 78.4914 259.224C79.3194 258.336 80.3694 257.892 81.6414 257.892C82.9254 257.892 83.9634 258.312 84.7554 259.152C85.5594 259.992 85.9614 261.06 85.9614 262.356V263.202H79.0134C79.0614 263.994 79.3434 264.624 79.8594 265.092C80.3754 265.548 81.0294 265.776 81.8214 265.776C82.9734 265.776 83.8134 265.248 84.3414 264.192L85.7634 265.002C84.8394 266.502 83.5374 267.252 81.8574 267.252C80.5014 267.252 79.3914 266.802 78.5274 265.902C77.6754 264.99 77.2494 263.862 77.2494 262.518ZM79.0134 261.834H84.1974C84.1734 261.078 83.9334 260.478 83.4774 260.034C83.0214 259.59 82.4094 259.368 81.6414 259.368C80.8734 259.368 80.2554 259.584 79.7874 260.016C79.3314 260.448 79.0734 261.054 79.0134 261.834ZM89.4474 258.18V259.62H89.6994C90.0234 258.636 90.7914 258.144 92.0034 258.144H93.0114V259.8H91.4634C90.8274 259.8 90.3414 259.98 90.0054 260.34C89.6814 260.688 89.5194 261.192 89.5194 261.852V267H87.8274V258.18H89.4474ZM94.2392 260.538C94.2392 259.734 94.5632 259.098 95.2112 258.63C95.8592 258.162 96.6572 257.928 97.6052 257.928C98.4812 257.928 99.2492 258.108 99.9092 258.468C100.581 258.816 101.271 259.386 101.979 260.178L100.719 261.078C99.8192 259.914 98.7932 259.332 97.6412 259.332C97.1372 259.332 96.7232 259.44 96.3992 259.656C96.0752 259.86 95.9132 260.148 95.9132 260.52C95.9132 260.724 95.9552 260.892 96.0392 261.024C96.1232 261.156 96.2732 261.264 96.4892 261.348C96.7172 261.42 96.8912 261.474 97.0112 261.51C97.1432 261.534 97.3832 261.57 97.7312 261.618L98.4692 261.726C99.6332 261.894 100.515 262.164 101.115 262.536C101.727 262.896 102.033 263.496 102.033 264.336C102.033 265.212 101.667 265.92 100.935 266.46C100.215 266.988 99.2852 267.252 98.1452 267.252C97.0052 267.252 96.0572 266.988 95.3012 266.46C94.5452 265.92 93.9632 265.26 93.5552 264.48L95.0672 263.67C95.3432 264.342 95.7572 264.87 96.3092 265.254C96.8612 265.626 97.4912 265.812 98.1992 265.812C98.8352 265.812 99.3512 265.686 99.7472 265.434C100.155 265.17 100.359 264.822 100.359 264.39C100.359 264.294 100.347 264.204 100.323 264.12C100.299 264.036 100.257 263.964 100.197 263.904C100.137 263.832 100.083 263.772 100.035 263.724C99.9872 263.676 99.9092 263.634 99.8012 263.598C99.6932 263.55 99.6032 263.514 99.5312 263.49C99.4712 263.466 99.3692 263.442 99.2252 263.418C99.0812 263.382 98.9792 263.358 98.9192 263.346C98.8592 263.334 98.7452 263.322 98.5772 263.31C98.4212 263.286 98.3192 263.268 98.2712 263.256L97.5332 263.148C96.4652 262.992 95.6492 262.716 95.0852 262.32C94.5212 261.924 94.2392 261.33 94.2392 260.538Z" fill="#1B317C"/>
<rect x="160" y="113" width="103" height="41" rx="6" fill="#EDFAFC"/>
<path d="M171.479 127.4H175.367C176.999 127.4 178.259 127.814 179.147 128.642C180.035 129.47 180.479 130.688 180.479 132.296V135.104C180.479 136.712 180.035 137.93 179.147 138.758C178.259 139.586 176.999 140 175.367 140H171.479V127.4ZM173.279 129.056V138.344H175.331C176.447 138.344 177.281 138.08 177.833 137.552C178.397 137.024 178.679 136.196 178.679 135.068V132.332C178.679 131.204 178.397 130.376 177.833 129.848C177.281 129.32 176.447 129.056 175.331 129.056H173.279ZM182.029 135.518C182.029 134.21 182.443 133.112 183.271 132.224C184.099 131.336 185.149 130.892 186.421 130.892C187.705 130.892 188.743 131.312 189.535 132.152C190.339 132.992 190.741 134.06 190.741 135.356V136.202H183.793C183.841 136.994 184.123 137.624 184.639 138.092C185.155 138.548 185.809 138.776 186.601 138.776C187.753 138.776 188.593 138.248 189.121 137.192L190.543 138.002C189.619 139.502 188.317 140.252 186.637 140.252C185.281 140.252 184.171 139.802 183.307 138.902C182.455 137.99 182.029 136.862 182.029 135.518ZM183.793 134.834H188.977C188.953 134.078 188.713 133.478 188.257 133.034C187.801 132.59 187.189 132.368 186.421 132.368C185.653 132.368 185.035 132.584 184.567 133.016C184.111 133.448 183.853 134.054 183.793 134.834ZM192.356 133.538C192.356 132.734 192.68 132.098 193.328 131.63C193.976 131.162 194.774 130.928 195.722 130.928C196.598 130.928 197.366 131.108 198.026 131.468C198.698 131.816 199.388 132.386 200.096 133.178L198.836 134.078C197.936 132.914 196.91 132.332 195.758 132.332C195.254 132.332 194.84 132.44 194.516 132.656C194.192 132.86 194.03 133.148 194.03 133.52C194.03 133.724 194.072 133.892 194.156 134.024C194.24 134.156 194.39 134.264 194.606 134.348C194.834 134.42 195.008 134.474 195.128 134.51C195.26 134.534 195.5 134.57 195.848 134.618L196.586 134.726C197.75 134.894 198.632 135.164 199.232 135.536C199.844 135.896 200.15 136.496 200.15 137.336C200.15 138.212 199.784 138.92 199.052 139.46C198.332 139.988 197.402 140.252 196.262 140.252C195.122 140.252 194.174 139.988 193.418 139.46C192.662 138.92 192.08 138.26 191.672 137.48L193.184 136.67C193.46 137.342 193.874 137.87 194.426 138.254C194.978 138.626 195.608 138.812 196.316 138.812C196.952 138.812 197.468 138.686 197.864 138.434C198.272 138.17 198.476 137.822 198.476 137.39C198.476 137.294 198.464 137.204 198.44 137.12C198.416 137.036 198.374 136.964 198.314 136.904C198.254 136.832 198.2 136.772 198.152 136.724C198.104 136.676 198.026 136.634 197.918 136.598C197.81 136.55 197.72 136.514 197.648 136.49C197.588 136.466 197.486 136.442 197.342 136.418C197.198 136.382 197.096 136.358 197.036 136.346C196.976 136.334 196.862 136.322 196.694 136.31C196.538 136.286 196.436 136.268 196.388 136.256L195.65 136.148C194.582 135.992 193.766 135.716 193.202 135.32C192.638 134.924 192.356 134.33 192.356 133.538ZM201.903 129.434C201.639 129.17 201.507 128.852 201.507 128.48C201.507 128.108 201.639 127.796 201.903 127.544C202.167 127.28 202.491 127.148 202.875 127.148C203.259 127.148 203.583 127.28 203.847 127.544C204.111 127.796 204.243 128.108 204.243 128.48C204.243 128.852 204.111 129.17 203.847 129.434C203.583 129.686 203.259 129.812 202.875 129.812C202.491 129.812 202.167 129.686 201.903 129.434ZM203.721 131.18V140H202.029V131.18H203.721ZM213.087 131.18H214.743V139.73C214.743 140.93 214.347 141.914 213.555 142.682C212.763 143.462 211.713 143.852 210.405 143.852C208.449 143.852 206.919 143.036 205.815 141.404L207.327 140.522C207.963 141.734 208.953 142.34 210.297 142.34C211.137 142.34 211.803 142.112 212.295 141.656C212.799 141.2 213.051 140.528 213.051 139.64V138.398H212.835C212.175 139.49 211.167 140.036 209.811 140.036C208.635 140.036 207.651 139.61 206.859 138.758C206.067 137.906 205.671 136.814 205.671 135.482C205.671 134.15 206.067 133.058 206.859 132.206C207.651 131.354 208.635 130.928 209.811 130.928C211.167 130.928 212.175 131.474 212.835 132.566H213.087V131.18ZM208.155 137.732C208.683 138.26 209.379 138.524 210.243 138.524C211.107 138.524 211.791 138.254 212.295 137.714C212.799 137.174 213.051 136.43 213.051 135.482C213.051 134.534 212.799 133.79 212.295 133.25C211.791 132.71 211.107 132.44 210.243 132.44C209.379 132.44 208.683 132.71 208.155 133.25C207.627 133.778 207.363 134.522 207.363 135.482C207.363 136.442 207.627 137.192 208.155 137.732ZM217.269 131.18H218.925V132.674H219.177C219.729 131.582 220.719 131.036 222.147 131.036C223.131 131.036 223.947 131.354 224.595 131.99C225.255 132.626 225.585 133.526 225.585 134.69V140H223.893V134.834C223.893 134.078 223.695 133.502 223.299 133.106C222.915 132.71 222.357 132.512 221.625 132.512C220.797 132.512 220.143 132.764 219.663 133.268C219.195 133.772 218.961 134.48 218.961 135.392V140H217.269V131.18ZM227.415 135.518C227.415 134.21 227.829 133.112 228.657 132.224C229.485 131.336 230.535 130.892 231.807 130.892C233.091 130.892 234.129 131.312 234.921 132.152C235.725 132.992 236.127 134.06 236.127 135.356V136.202H229.179C229.227 136.994 229.509 137.624 230.025 138.092C230.541 138.548 231.195 138.776 231.987 138.776C233.139 138.776 233.979 138.248 234.507 137.192L235.929 138.002C235.005 139.502 233.703 140.252 232.023 140.252C230.667 140.252 229.557 139.802 228.693 138.902C227.841 137.99 227.415 136.862 227.415 135.518ZM229.179 134.834H234.363C234.339 134.078 234.099 133.478 233.643 133.034C233.187 132.59 232.575 132.368 231.807 132.368C231.039 132.368 230.421 132.584 229.953 133.016C229.497 133.448 229.239 134.054 229.179 134.834ZM239.613 131.18V132.62H239.865C240.189 131.636 240.957 131.144 242.169 131.144H243.177V132.8H241.629C240.993 132.8 240.507 132.98 240.171 133.34C239.847 133.688 239.685 134.192 239.685 134.852V140H237.993V131.18H239.613ZM244.405 133.538C244.405 132.734 244.729 132.098 245.377 131.63C246.025 131.162 246.823 130.928 247.771 130.928C248.647 130.928 249.415 131.108 250.075 131.468C250.747 131.816 251.437 132.386 252.145 133.178L250.885 134.078C249.985 132.914 248.959 132.332 247.807 132.332C247.303 132.332 246.889 132.44 246.565 132.656C246.241 132.86 246.079 133.148 246.079 133.52C246.079 133.724 246.121 133.892 246.205 134.024C246.289 134.156 246.439 134.264 246.655 134.348C246.883 134.42 247.057 134.474 247.177 134.51C247.309 134.534 247.549 134.57 247.897 134.618L248.635 134.726C249.799 134.894 250.681 135.164 251.281 135.536C251.893 135.896 252.199 136.496 252.199 137.336C252.199 138.212 251.833 138.92 251.101 139.46C250.381 139.988 249.451 140.252 248.311 140.252C247.171 140.252 246.223 139.988 245.467 139.46C244.711 138.92 244.129 138.26 243.721 137.48L245.233 136.67C245.509 137.342 245.923 137.87 246.475 138.254C247.027 138.626 247.657 138.812 248.365 138.812C249.001 138.812 249.517 138.686 249.913 138.434C250.321 138.17 250.525 137.822 250.525 137.39C250.525 137.294 250.513 137.204 250.489 137.12C250.465 137.036 250.423 136.964 250.363 136.904C250.303 136.832 250.249 136.772 250.201 136.724C250.153 136.676 250.075 136.634 249.967 136.598C249.859 136.55 249.769 136.514 249.697 136.49C249.637 136.466 249.535 136.442 249.391 136.418C249.247 136.382 249.145 136.358 249.085 136.346C249.025 136.334 248.911 136.322 248.743 136.31C248.587 136.286 248.485 136.268 248.437 136.256L247.699 136.148C246.631 135.992 245.815 135.716 245.251 135.32C244.687 134.924 244.405 134.33 244.405 133.538Z" fill="#1B7C77"/>
<rect x="244" y="478" width="124" height="41" rx="6" fill="#EFF2FC"/>
<path d="M259.465 492.148C260.821 492.148 261.925 492.496 262.777 493.192C263.641 493.888 264.073 494.86 264.073 496.108V496.684H262.273V496.252C262.273 495.46 262.015 494.848 261.499 494.416C260.995 493.984 260.317 493.768 259.465 493.768C258.757 493.768 258.175 493.942 257.719 494.29C257.275 494.626 257.053 495.07 257.053 495.622C257.053 496.174 257.245 496.594 257.629 496.882C258.013 497.17 258.667 497.416 259.591 497.62L260.419 497.8C261.655 498.064 262.591 498.484 263.227 499.06C263.863 499.636 264.181 500.44 264.181 501.472C264.181 502.612 263.761 503.53 262.921 504.226C262.081 504.91 261.001 505.252 259.681 505.252C258.145 505.252 256.927 504.838 256.027 504.01C255.127 503.182 254.677 502.072 254.677 500.68V500.104H256.477V500.536C256.477 501.532 256.753 502.3 257.305 502.84C257.869 503.368 258.667 503.632 259.699 503.632C260.515 503.632 261.163 503.434 261.643 503.038C262.135 502.642 262.381 502.138 262.381 501.526C262.381 500.95 262.189 500.512 261.805 500.212C261.421 499.912 260.809 499.672 259.969 499.492L259.141 499.312C257.881 499.036 256.915 498.628 256.243 498.088C255.583 497.548 255.253 496.732 255.253 495.64C255.253 494.596 255.655 493.756 256.459 493.12C257.263 492.472 258.265 492.148 259.465 492.148ZM266.926 503.938C266.074 503.062 265.648 501.946 265.648 500.59C265.648 499.234 266.074 498.118 266.926 497.242C267.79 496.366 268.876 495.928 270.184 495.928C271.492 495.928 272.572 496.366 273.424 497.242C274.288 498.118 274.72 499.234 274.72 500.59C274.72 501.946 274.288 503.062 273.424 503.938C272.572 504.814 271.492 505.252 270.184 505.252C268.876 505.252 267.79 504.814 266.926 503.938ZM268.114 498.322C267.598 498.874 267.34 499.63 267.34 500.59C267.34 501.55 267.598 502.312 268.114 502.876C268.642 503.428 269.332 503.704 270.184 503.704C271.036 503.704 271.72 503.428 272.236 502.876C272.764 502.312 273.028 501.55 273.028 500.59C273.028 499.63 272.764 498.874 272.236 498.322C271.72 497.758 271.036 497.476 270.184 497.476C269.332 497.476 268.642 497.758 268.114 498.322ZM278.357 492.4V505H276.665V492.4H278.357ZM280.308 500.518C280.308 499.21 280.722 498.112 281.55 497.224C282.378 496.336 283.428 495.892 284.7 495.892C285.984 495.892 287.022 496.312 287.814 497.152C288.618 497.992 289.02 499.06 289.02 500.356V501.202H282.072C282.12 501.994 282.402 502.624 282.918 503.092C283.434 503.548 284.088 503.776 284.88 503.776C286.032 503.776 286.872 503.248 287.4 502.192L288.822 503.002C287.898 504.502 286.596 505.252 284.916 505.252C283.56 505.252 282.45 504.802 281.586 503.902C280.734 502.99 280.308 501.862 280.308 500.518ZM282.072 499.834H287.256C287.232 499.078 286.992 498.478 286.536 498.034C286.08 497.59 285.468 497.368 284.7 497.368C283.932 497.368 283.314 497.584 282.846 498.016C282.39 498.448 282.132 499.054 282.072 499.834ZM295.382 492.4H305.318V494.056H301.25V505H299.45V494.056H295.382V492.4ZM306.762 496.18V497.62H307.014C307.338 496.636 308.106 496.144 309.318 496.144H310.326V497.8H308.778C308.142 497.8 307.656 497.98 307.32 498.34C306.996 498.688 306.834 499.192 306.834 499.852V505H305.142V496.18H306.762ZM311.534 498.502C311.882 497.758 312.41 497.146 313.118 496.666C313.838 496.174 314.708 495.928 315.728 495.928C316.916 495.928 317.864 496.246 318.572 496.882C319.28 497.518 319.634 498.37 319.634 499.438V505H317.978V503.614H317.726C317.51 504.082 317.144 504.472 316.628 504.784C316.112 505.096 315.44 505.252 314.612 505.252C313.628 505.252 312.836 505.006 312.236 504.514C311.648 504.022 311.354 503.38 311.354 502.588C311.354 501.016 312.476 500.122 314.72 499.906L317.978 499.6V499.366C317.978 498.766 317.774 498.298 317.366 497.962C316.97 497.614 316.412 497.44 315.692 497.44C314.36 497.44 313.46 498.016 312.992 499.168L311.534 498.502ZM313.064 502.516C313.064 502.936 313.226 503.266 313.55 503.506C313.874 503.734 314.324 503.848 314.9 503.848C315.896 503.848 316.658 503.59 317.186 503.074C317.714 502.546 317.978 501.88 317.978 501.076V500.932L314.9 501.22C313.676 501.328 313.064 501.76 313.064 502.516ZM330.548 492.4V505H328.892V503.614H328.64C327.98 504.706 326.972 505.252 325.616 505.252C324.44 505.252 323.456 504.814 322.664 503.938C321.872 503.062 321.476 501.946 321.476 500.59C321.476 499.234 321.872 498.118 322.664 497.242C323.456 496.366 324.44 495.928 325.616 495.928C326.972 495.928 327.98 496.474 328.64 497.566H328.856V492.4H330.548ZM328.1 498.286C327.596 497.722 326.912 497.44 326.048 497.44C325.184 497.44 324.488 497.722 323.96 498.286C323.432 498.838 323.168 499.606 323.168 500.59C323.168 501.574 323.432 502.348 323.96 502.912C324.488 503.464 325.184 503.74 326.048 503.74C326.912 503.74 327.596 503.458 328.1 502.894C328.604 502.33 328.856 501.562 328.856 500.59C328.856 499.618 328.604 498.85 328.1 498.286ZM332.497 500.518C332.497 499.21 332.911 498.112 333.739 497.224C334.567 496.336 335.617 495.892 336.889 495.892C338.173 495.892 339.211 496.312 340.003 497.152C340.807 497.992 341.209 499.06 341.209 500.356V501.202H334.261C334.309 501.994 334.591 502.624 335.107 503.092C335.623 503.548 336.277 503.776 337.069 503.776C338.221 503.776 339.061 503.248 339.589 502.192L341.011 503.002C340.087 504.502 338.785 505.252 337.105 505.252C335.749 505.252 334.639 504.802 333.775 503.902C332.923 502.99 332.497 501.862 332.497 500.518ZM334.261 499.834H339.445C339.421 499.078 339.181 498.478 338.725 498.034C338.269 497.59 337.657 497.368 336.889 497.368C336.121 497.368 335.503 497.584 335.035 498.016C334.579 498.448 334.321 499.054 334.261 499.834ZM344.695 496.18V497.62H344.947C345.271 496.636 346.039 496.144 347.251 496.144H348.259V497.8H346.711C346.075 497.8 345.589 497.98 345.253 498.34C344.929 498.688 344.767 499.192 344.767 499.852V505H343.075V496.18H344.695ZM349.487 498.538C349.487 497.734 349.811 497.098 350.459 496.63C351.107 496.162 351.905 495.928 352.853 495.928C353.729 495.928 354.497 496.108 355.157 496.468C355.829 496.816 356.519 497.386 357.227 498.178L355.967 499.078C355.067 497.914 354.041 497.332 352.889 497.332C352.385 497.332 351.971 497.44 351.647 497.656C351.323 497.86 351.161 498.148 351.161 498.52C351.161 498.724 351.203 498.892 351.287 499.024C351.371 499.156 351.521 499.264 351.737 499.348C351.965 499.42 352.139 499.474 352.259 499.51C352.391 499.534 352.631 499.57 352.979 499.618L353.717 499.726C354.881 499.894 355.763 500.164 356.363 500.536C356.975 500.896 357.281 501.496 357.281 502.336C357.281 503.212 356.915 503.92 356.183 504.46C355.463 504.988 354.533 505.252 353.393 505.252C352.253 505.252 351.305 504.988 350.549 504.46C349.793 503.92 349.211 503.26 348.803 502.48L350.315 501.67C350.591 502.342 351.005 502.87 351.557 503.254C352.109 503.626 352.739 503.812 353.447 503.812C354.083 503.812 354.599 503.686 354.995 503.434C355.403 503.17 355.607 502.822 355.607 502.39C355.607 502.294 355.595 502.204 355.571 502.12C355.547 502.036 355.505 501.964 355.445 501.904C355.385 501.832 355.331 501.772 355.283 501.724C355.235 501.676 355.157 501.634 355.049 501.598C354.941 501.55 354.851 501.514 354.779 501.49C354.719 501.466 354.617 501.442 354.473 501.418C354.329 501.382 354.227 501.358 354.167 501.346C354.107 501.334 353.993 501.322 353.825 501.31C353.669 501.286 353.567 501.268 353.519 501.256L352.781 501.148C351.713 500.992 350.897 500.716 350.333 500.32C349.769 499.924 349.487 499.33 349.487 498.538Z" fill="#1B317C"/>
<rect x="143" y="192" width="140" height="41" rx="6" fill="#EFF2FC"/>
<path d="M154.609 206.4H162.673V208.056H156.409V211.854H162.169V213.51H156.409V217.344H162.745V219H154.609V206.4ZM164.734 210.18H166.39V211.674H166.642C167.194 210.582 168.184 210.036 169.612 210.036C170.596 210.036 171.412 210.354 172.06 210.99C172.72 211.626 173.05 212.526 173.05 213.69V219H171.358V213.834C171.358 213.078 171.16 212.502 170.764 212.106C170.38 211.71 169.822 211.512 169.09 211.512C168.262 211.512 167.608 211.764 167.128 212.268C166.66 212.772 166.426 213.48 166.426 214.392V219H164.734V210.18ZM174.273 210.18H176.721V207.12H178.413V210.18H181.005V211.656H178.413V217.02C178.413 217.356 178.569 217.524 178.881 217.524H180.501V219H178.197C177.765 219 177.411 218.862 177.135 218.586C176.859 218.298 176.721 217.932 176.721 217.488V211.656H174.273V210.18ZM184.389 210.18V211.62H184.641C184.965 210.636 185.733 210.144 186.945 210.144H187.953V211.8H186.405C185.769 211.8 185.283 211.98 184.947 212.34C184.623 212.688 184.461 213.192 184.461 213.852V219H182.769V210.18H184.389ZM188.503 214.518C188.503 213.21 188.917 212.112 189.745 211.224C190.573 210.336 191.623 209.892 192.895 209.892C194.179 209.892 195.217 210.312 196.009 211.152C196.813 211.992 197.215 213.06 197.215 214.356V215.202H190.267C190.315 215.994 190.597 216.624 191.113 217.092C191.629 217.548 192.283 217.776 193.075 217.776C194.227 217.776 195.067 217.248 195.595 216.192L197.017 217.002C196.093 218.502 194.791 219.252 193.111 219.252C191.755 219.252 190.645 218.802 189.781 217.902C188.929 216.99 188.503 215.862 188.503 214.518ZM190.267 213.834H195.451C195.427 213.078 195.187 212.478 194.731 212.034C194.275 211.59 193.663 211.368 192.895 211.368C192.127 211.368 191.509 211.584 191.041 212.016C190.585 212.448 190.327 213.054 190.267 213.834ZM199.081 222.6V210.18H200.737V211.566H200.989C201.649 210.474 202.657 209.928 204.013 209.928C205.189 209.928 206.173 210.366 206.965 211.242C207.757 212.118 208.153 213.234 208.153 214.59C208.153 215.946 207.757 217.062 206.965 217.938C206.173 218.814 205.189 219.252 204.013 219.252C202.657 219.252 201.649 218.706 200.989 217.614H200.773V222.6H199.081ZM201.529 216.894C202.033 217.458 202.717 217.74 203.581 217.74C204.445 217.74 205.141 217.464 205.669 216.912C206.197 216.348 206.461 215.574 206.461 214.59C206.461 213.606 206.197 212.838 205.669 212.286C205.141 211.722 204.445 211.44 203.581 211.44C202.717 211.44 202.033 211.722 201.529 212.286C201.025 212.85 200.773 213.618 200.773 214.59C200.773 215.562 201.025 216.33 201.529 216.894ZM211.723 210.18V211.62H211.975C212.299 210.636 213.067 210.144 214.279 210.144H215.287V211.8H213.739C213.103 211.8 212.617 211.98 212.281 212.34C211.957 212.688 211.795 213.192 211.795 213.852V219H210.103V210.18H211.723ZM215.837 214.518C215.837 213.21 216.251 212.112 217.079 211.224C217.907 210.336 218.957 209.892 220.229 209.892C221.513 209.892 222.551 210.312 223.343 211.152C224.147 211.992 224.549 213.06 224.549 214.356V215.202H217.601C217.649 215.994 217.931 216.624 218.447 217.092C218.963 217.548 219.617 217.776 220.409 217.776C221.561 217.776 222.401 217.248 222.929 216.192L224.351 217.002C223.427 218.502 222.125 219.252 220.445 219.252C219.089 219.252 217.979 218.802 217.115 217.902C216.263 216.99 215.837 215.862 215.837 214.518ZM217.601 213.834H222.785C222.761 213.078 222.521 212.478 222.065 212.034C221.609 211.59 220.997 211.368 220.229 211.368C219.461 211.368 218.843 211.584 218.375 212.016C217.919 212.448 217.661 213.054 217.601 213.834ZM226.415 210.18H228.071V211.674H228.323C228.875 210.582 229.865 210.036 231.293 210.036C232.277 210.036 233.093 210.354 233.741 210.99C234.401 211.626 234.731 212.526 234.731 213.69V219H233.039V213.834C233.039 213.078 232.841 212.502 232.445 212.106C232.061 211.71 231.503 211.512 230.771 211.512C229.943 211.512 229.289 211.764 228.809 212.268C228.341 212.772 228.107 213.48 228.107 214.392V219H226.415V210.18ZM236.562 214.518C236.562 213.21 236.976 212.112 237.804 211.224C238.632 210.336 239.682 209.892 240.954 209.892C242.238 209.892 243.276 210.312 244.068 211.152C244.872 211.992 245.274 213.06 245.274 214.356V215.202H238.326C238.374 215.994 238.656 216.624 239.172 217.092C239.688 217.548 240.342 217.776 241.134 217.776C242.286 217.776 243.126 217.248 243.654 216.192L245.076 217.002C244.152 218.502 242.85 219.252 241.17 219.252C239.814 219.252 238.704 218.802 237.84 217.902C236.988 216.99 236.562 215.862 236.562 214.518ZM238.326 213.834H243.51C243.486 213.078 243.246 212.478 242.79 212.034C242.334 211.59 241.722 211.368 240.954 211.368C240.186 211.368 239.568 211.584 239.1 212.016C238.644 212.448 238.386 213.054 238.326 213.834ZM255.348 219H253.692V217.506H253.44C252.888 218.598 251.898 219.144 250.47 219.144C249.486 219.144 248.664 218.826 248.004 218.19C247.356 217.554 247.032 216.654 247.032 215.49V210.18H248.724V215.346C248.724 216.102 248.916 216.678 249.3 217.074C249.696 217.47 250.26 217.668 250.992 217.668C251.82 217.668 252.468 217.416 252.936 216.912C253.416 216.408 253.656 215.7 253.656 214.788V210.18H255.348V219ZM259.483 210.18V211.62H259.735C260.059 210.636 260.827 210.144 262.039 210.144H263.047V211.8H261.499C260.863 211.8 260.377 211.98 260.041 212.34C259.717 212.688 259.555 213.192 259.555 213.852V219H257.863V210.18H259.483ZM264.274 212.538C264.274 211.734 264.598 211.098 265.246 210.63C265.894 210.162 266.692 209.928 267.64 209.928C268.516 209.928 269.284 210.108 269.944 210.468C270.616 210.816 271.306 211.386 272.014 212.178L270.754 213.078C269.854 211.914 268.828 211.332 267.676 211.332C267.172 211.332 266.758 211.44 266.434 211.656C266.11 211.86 265.948 212.148 265.948 212.52C265.948 212.724 265.99 212.892 266.074 213.024C266.158 213.156 266.308 213.264 266.524 213.348C266.752 213.42 266.926 213.474 267.046 213.51C267.178 213.534 267.418 213.57 267.766 213.618L268.504 213.726C269.668 213.894 270.55 214.164 271.15 214.536C271.762 214.896 272.068 215.496 272.068 216.336C272.068 217.212 271.702 217.92 270.97 218.46C270.25 218.988 269.32 219.252 268.18 219.252C267.04 219.252 266.092 218.988 265.336 218.46C264.58 217.92 263.998 217.26 263.59 216.48L265.102 215.67C265.378 216.342 265.792 216.87 266.344 217.254C266.896 217.626 267.526 217.812 268.234 217.812C268.87 217.812 269.386 217.686 269.782 217.434C270.19 217.17 270.394 216.822 270.394 216.39C270.394 216.294 270.382 216.204 270.358 216.12C270.334 216.036 270.292 215.964 270.232 215.904C270.172 215.832 270.118 215.772 270.07 215.724C270.022 215.676 269.944 215.634 269.836 215.598C269.728 215.55 269.638 215.514 269.566 215.49C269.506 215.466 269.404 215.442 269.26 215.418C269.116 215.382 269.014 215.358 268.954 215.346C268.894 215.334 268.78 215.322 268.612 215.31C268.456 215.286 268.354 215.268 268.306 215.256L267.568 215.148C266.5 214.992 265.684 214.716 265.12 214.32C264.556 213.924 264.274 213.33 264.274 212.538Z" fill="#1B317C"/>
<rect x="143" y="297" width="94" height="41" rx="6" fill="#F6F6EF"/>
<path d="M154.382 311.4H162.446V313.056H156.182V316.854H161.942V318.51H156.182V322.344H162.518V324H154.382V311.4ZM164.722 320.238V318.69H170.05V320.238H164.722ZM176.889 311.148C178.245 311.148 179.349 311.496 180.201 312.192C181.065 312.888 181.497 313.86 181.497 315.108V315.684H179.697V315.252C179.697 314.46 179.439 313.848 178.923 313.416C178.419 312.984 177.741 312.768 176.889 312.768C176.181 312.768 175.599 312.942 175.143 313.29C174.699 313.626 174.477 314.07 174.477 314.622C174.477 315.174 174.669 315.594 175.053 315.882C175.437 316.17 176.091 316.416 177.015 316.62L177.843 316.8C179.079 317.064 180.015 317.484 180.651 318.06C181.287 318.636 181.605 319.44 181.605 320.472C181.605 321.612 181.185 322.53 180.345 323.226C179.505 323.91 178.425 324.252 177.105 324.252C175.569 324.252 174.351 323.838 173.451 323.01C172.551 322.182 172.101 321.072 172.101 319.68V319.104H173.901V319.536C173.901 320.532 174.177 321.3 174.729 321.84C175.293 322.368 176.091 322.632 177.123 322.632C177.939 322.632 178.587 322.434 179.067 322.038C179.559 321.642 179.805 321.138 179.805 320.526C179.805 319.95 179.613 319.512 179.229 319.212C178.845 318.912 178.233 318.672 177.393 318.492L176.565 318.312C175.305 318.036 174.339 317.628 173.667 317.088C173.007 316.548 172.677 315.732 172.677 314.64C172.677 313.596 173.079 312.756 173.883 312.12C174.687 311.472 175.689 311.148 176.889 311.148ZM183.073 319.518C183.073 318.21 183.487 317.112 184.315 316.224C185.143 315.336 186.193 314.892 187.465 314.892C188.749 314.892 189.787 315.312 190.579 316.152C191.383 316.992 191.785 318.06 191.785 319.356V320.202H184.837C184.885 320.994 185.167 321.624 185.683 322.092C186.199 322.548 186.853 322.776 187.645 322.776C188.797 322.776 189.637 322.248 190.165 321.192L191.587 322.002C190.663 323.502 189.361 324.252 187.681 324.252C186.325 324.252 185.215 323.802 184.351 322.902C183.499 321.99 183.073 320.862 183.073 319.518ZM184.837 318.834H190.021C189.997 318.078 189.757 317.478 189.301 317.034C188.845 316.59 188.233 316.368 187.465 316.368C186.697 316.368 186.079 316.584 185.611 317.016C185.155 317.448 184.897 318.054 184.837 318.834ZM195.343 311.4V324H193.651V311.4H195.343ZM199.561 311.4V324H197.869V311.4H199.561ZM201.512 319.518C201.512 318.21 201.926 317.112 202.754 316.224C203.582 315.336 204.632 314.892 205.904 314.892C207.188 314.892 208.226 315.312 209.018 316.152C209.822 316.992 210.224 318.06 210.224 319.356V320.202H203.276C203.324 320.994 203.606 321.624 204.122 322.092C204.638 322.548 205.292 322.776 206.084 322.776C207.236 322.776 208.076 322.248 208.604 321.192L210.026 322.002C209.102 323.502 207.8 324.252 206.12 324.252C204.764 324.252 203.654 323.802 202.79 322.902C201.938 321.99 201.512 320.862 201.512 319.518ZM203.276 318.834H208.46C208.436 318.078 208.196 317.478 207.74 317.034C207.284 316.59 206.672 316.368 205.904 316.368C205.136 316.368 204.518 316.584 204.05 317.016C203.594 317.448 203.336 318.054 203.276 318.834ZM213.71 315.18V316.62H213.962C214.286 315.636 215.054 315.144 216.266 315.144H217.274V316.8H215.726C215.09 316.8 214.604 316.98 214.268 317.34C213.944 317.688 213.782 318.192 213.782 318.852V324H212.09V315.18H213.71ZM218.502 317.538C218.502 316.734 218.826 316.098 219.474 315.63C220.122 315.162 220.92 314.928 221.868 314.928C222.744 314.928 223.512 315.108 224.172 315.468C224.844 315.816 225.534 316.386 226.242 317.178L224.982 318.078C224.082 316.914 223.056 316.332 221.904 316.332C221.4 316.332 220.986 316.44 220.662 316.656C220.338 316.86 220.176 317.148 220.176 317.52C220.176 317.724 220.218 317.892 220.302 318.024C220.386 318.156 220.536 318.264 220.752 318.348C220.98 318.42 221.154 318.474 221.274 318.51C221.406 318.534 221.646 318.57 221.994 318.618L222.732 318.726C223.896 318.894 224.778 319.164 225.378 319.536C225.99 319.896 226.296 320.496 226.296 321.336C226.296 322.212 225.93 322.92 225.198 323.46C224.478 323.988 223.548 324.252 222.408 324.252C221.268 324.252 220.32 323.988 219.564 323.46C218.808 322.92 218.226 322.26 217.818 321.48L219.33 320.67C219.606 321.342 220.02 321.87 220.572 322.254C221.124 322.626 221.754 322.812 222.462 322.812C223.098 322.812 223.614 322.686 224.01 322.434C224.418 322.17 224.622 321.822 224.622 321.39C224.622 321.294 224.61 321.204 224.586 321.12C224.562 321.036 224.52 320.964 224.46 320.904C224.4 320.832 224.346 320.772 224.298 320.724C224.25 320.676 224.172 320.634 224.064 320.598C223.956 320.55 223.866 320.514 223.794 320.49C223.734 320.466 223.632 320.442 223.488 320.418C223.344 320.382 223.242 320.358 223.182 320.346C223.122 320.334 223.008 320.322 222.84 320.31C222.684 320.286 222.582 320.268 222.534 320.256L221.796 320.148C220.728 319.992 219.912 319.716 219.348 319.32C218.784 318.924 218.502 318.33 218.502 317.538Z" fill="#7C611B"/>
<rect x="143" y="559" width="165" height="41" rx="6" fill="#EDEDFC"/>
<path d="M154.074 578.296C154.074 576.664 154.506 575.398 155.37 574.498C156.246 573.598 157.458 573.148 159.006 573.148C160.494 573.148 161.652 573.562 162.48 574.39C163.308 575.206 163.722 576.304 163.722 577.684V578.008H161.922V577.756C161.922 576.844 161.676 576.124 161.184 575.596C160.704 575.068 159.978 574.804 159.006 574.804C157.998 574.804 157.224 575.098 156.684 575.686C156.144 576.274 155.874 577.12 155.874 578.224V581.176C155.874 582.28 156.144 583.126 156.684 583.714C157.224 584.302 157.998 584.596 159.006 584.596C159.978 584.596 160.704 584.332 161.184 583.804C161.676 583.276 161.922 582.556 161.922 581.644V581.392H163.722V581.644C163.722 583.06 163.308 584.182 162.48 585.01C161.652 585.838 160.494 586.252 159.006 586.252C157.458 586.252 156.246 585.802 155.37 584.902C154.506 584.002 154.074 582.736 154.074 581.104V578.296ZM166.44 584.938C165.588 584.062 165.162 582.946 165.162 581.59C165.162 580.234 165.588 579.118 166.44 578.242C167.304 577.366 168.39 576.928 169.698 576.928C171.006 576.928 172.086 577.366 172.938 578.242C173.802 579.118 174.234 580.234 174.234 581.59C174.234 582.946 173.802 584.062 172.938 584.938C172.086 585.814 171.006 586.252 169.698 586.252C168.39 586.252 167.304 585.814 166.44 584.938ZM167.628 579.322C167.112 579.874 166.854 580.63 166.854 581.59C166.854 582.55 167.112 583.312 167.628 583.876C168.156 584.428 168.846 584.704 169.698 584.704C170.55 584.704 171.234 584.428 171.75 583.876C172.278 583.312 172.542 582.55 172.542 581.59C172.542 580.63 172.278 579.874 171.75 579.322C171.234 578.758 170.55 578.476 169.698 578.476C168.846 578.476 168.156 578.758 167.628 579.322ZM176.179 577.18H177.835V578.674H178.087C178.639 577.582 179.629 577.036 181.057 577.036C182.041 577.036 182.857 577.354 183.505 577.99C184.165 578.626 184.495 579.526 184.495 580.69V586H182.803V580.834C182.803 580.078 182.605 579.502 182.209 579.106C181.825 578.71 181.267 578.512 180.535 578.512C179.707 578.512 179.053 578.764 178.573 579.268C178.105 579.772 177.871 580.48 177.871 581.392V586H176.179V577.18ZM185.718 577.18H188.166V574.12H189.858V577.18H192.45V578.656H189.858V584.02C189.858 584.356 190.014 584.524 190.326 584.524H191.946V586H189.642C189.21 586 188.856 585.862 188.58 585.586C188.304 585.298 188.166 584.932 188.166 584.488V578.656H185.718V577.18ZM193.55 581.518C193.55 580.21 193.964 579.112 194.792 578.224C195.62 577.336 196.67 576.892 197.942 576.892C199.226 576.892 200.264 577.312 201.056 578.152C201.86 578.992 202.262 580.06 202.262 581.356V582.202H195.314C195.362 582.994 195.644 583.624 196.16 584.092C196.676 584.548 197.33 584.776 198.122 584.776C199.274 584.776 200.114 584.248 200.642 583.192L202.064 584.002C201.14 585.502 199.838 586.252 198.158 586.252C196.802 586.252 195.692 585.802 194.828 584.902C193.976 583.99 193.55 582.862 193.55 581.518ZM195.314 580.834H200.498C200.474 580.078 200.234 579.478 199.778 579.034C199.322 578.59 198.71 578.368 197.942 578.368C197.174 578.368 196.556 578.584 196.088 579.016C195.632 579.448 195.374 580.054 195.314 580.834ZM204.128 577.18H205.784V578.674H206.036C206.588 577.582 207.578 577.036 209.006 577.036C209.99 577.036 210.806 577.354 211.454 577.99C212.114 578.626 212.444 579.526 212.444 580.69V586H210.752V580.834C210.752 580.078 210.554 579.502 210.158 579.106C209.774 578.71 209.216 578.512 208.484 578.512C207.656 578.512 207.002 578.764 206.522 579.268C206.054 579.772 205.82 580.48 205.82 581.392V586H204.128V577.18ZM213.667 577.18H216.115V574.12H217.807V577.18H220.399V578.656H217.807V584.02C217.807 584.356 217.963 584.524 218.275 584.524H219.895V586H217.591C217.159 586 216.805 585.862 216.529 585.586C216.253 585.298 216.115 584.932 216.115 584.488V578.656H213.667V577.18ZM227.164 578.296C227.164 576.664 227.596 575.398 228.46 574.498C229.336 573.598 230.548 573.148 232.096 573.148C233.584 573.148 234.742 573.562 235.57 574.39C236.398 575.206 236.812 576.304 236.812 577.684V578.008H235.012V577.756C235.012 576.844 234.766 576.124 234.274 575.596C233.794 575.068 233.068 574.804 232.096 574.804C231.088 574.804 230.314 575.098 229.774 575.686C229.234 576.274 228.964 577.12 228.964 578.224V581.176C228.964 582.28 229.234 583.126 229.774 583.714C230.314 584.302 231.088 584.596 232.096 584.596C233.068 584.596 233.794 584.332 234.274 583.804C234.766 583.276 235.012 582.556 235.012 581.644V581.392H236.812V581.644C236.812 583.06 236.398 584.182 235.57 585.01C234.742 585.838 233.584 586.252 232.096 586.252C230.548 586.252 229.336 585.802 228.46 584.902C227.596 584.002 227.164 582.736 227.164 581.104V578.296ZM240.447 577.18V578.62H240.699C241.023 577.636 241.791 577.144 243.003 577.144H244.011V578.8H242.463C241.827 578.8 241.341 578.98 241.005 579.34C240.681 579.688 240.519 580.192 240.519 580.852V586H238.827V577.18H240.447ZM244.562 581.518C244.562 580.21 244.976 579.112 245.804 578.224C246.632 577.336 247.682 576.892 248.954 576.892C250.238 576.892 251.276 577.312 252.068 578.152C252.872 578.992 253.274 580.06 253.274 581.356V582.202H246.326C246.374 582.994 246.656 583.624 247.172 584.092C247.688 584.548 248.342 584.776 249.134 584.776C250.286 584.776 251.126 584.248 251.654 583.192L253.076 584.002C252.152 585.502 250.85 586.252 249.17 586.252C247.814 586.252 246.704 585.802 245.84 584.902C244.988 583.99 244.562 582.862 244.562 581.518ZM246.326 580.834H251.51C251.486 580.078 251.246 579.478 250.79 579.034C250.334 578.59 249.722 578.368 248.954 578.368C248.186 578.368 247.568 578.584 247.1 579.016C246.644 579.448 246.386 580.054 246.326 580.834ZM254.782 579.502C255.13 578.758 255.658 578.146 256.366 577.666C257.086 577.174 257.956 576.928 258.976 576.928C260.164 576.928 261.112 577.246 261.82 577.882C262.528 578.518 262.882 579.37 262.882 580.438V586H261.226V584.614H260.974C260.758 585.082 260.392 585.472 259.876 585.784C259.36 586.096 258.688 586.252 257.86 586.252C256.876 586.252 256.084 586.006 255.484 585.514C254.896 585.022 254.602 584.38 254.602 583.588C254.602 582.016 255.724 581.122 257.968 580.906L261.226 580.6V580.366C261.226 579.766 261.022 579.298 260.614 578.962C260.218 578.614 259.66 578.44 258.94 578.44C257.608 578.44 256.708 579.016 256.24 580.168L254.782 579.502ZM256.312 583.516C256.312 583.936 256.474 584.266 256.798 584.506C257.122 584.734 257.572 584.848 258.148 584.848C259.144 584.848 259.906 584.59 260.434 584.074C260.962 583.546 261.226 582.88 261.226 582.076V581.932L258.148 582.22C256.924 582.328 256.312 582.76 256.312 583.516ZM264.116 577.18H266.564V574.12H268.256V577.18H270.848V578.656H268.256V584.02C268.256 584.356 268.412 584.524 268.724 584.524H270.344V586H268.04C267.608 586 267.254 585.862 266.978 585.586C266.702 585.298 266.564 584.932 266.564 584.488V578.656H264.116V577.18ZM273.227 584.938C272.375 584.062 271.949 582.946 271.949 581.59C271.949 580.234 272.375 579.118 273.227 578.242C274.091 577.366 275.177 576.928 276.485 576.928C277.793 576.928 278.873 577.366 279.725 578.242C280.589 579.118 281.021 580.234 281.021 581.59C281.021 582.946 280.589 584.062 279.725 584.938C278.873 585.814 277.793 586.252 276.485 586.252C275.177 586.252 274.091 585.814 273.227 584.938ZM274.415 579.322C273.899 579.874 273.641 580.63 273.641 581.59C273.641 582.55 273.899 583.312 274.415 583.876C274.943 584.428 275.633 584.704 276.485 584.704C277.337 584.704 278.021 584.428 278.537 583.876C279.065 583.312 279.329 582.55 279.329 581.59C279.329 580.63 279.065 579.874 278.537 579.322C278.021 578.758 277.337 578.476 276.485 578.476C275.633 578.476 274.943 578.758 274.415 579.322ZM284.586 577.18V578.62H284.838C285.162 577.636 285.93 577.144 287.142 577.144H288.15V578.8H286.602C285.966 578.8 285.48 578.98 285.144 579.34C284.82 579.688 284.658 580.192 284.658 580.852V586H282.966V577.18H284.586ZM289.378 579.538C289.378 578.734 289.702 578.098 290.35 577.63C290.998 577.162 291.796 576.928 292.744 576.928C293.62 576.928 294.388 577.108 295.048 577.468C295.72 577.816 296.41 578.386 297.118 579.178L295.858 580.078C294.958 578.914 293.932 578.332 292.78 578.332C292.276 578.332 291.862 578.44 291.538 578.656C291.214 578.86 291.052 579.148 291.052 579.52C291.052 579.724 291.094 579.892 291.178 580.024C291.262 580.156 291.412 580.264 291.628 580.348C291.856 580.42 292.03 580.474 292.15 580.51C292.282 580.534 292.522 580.57 292.87 580.618L293.608 580.726C294.772 580.894 295.654 581.164 296.254 581.536C296.866 581.896 297.172 582.496 297.172 583.336C297.172 584.212 296.806 584.92 296.074 585.46C295.354 585.988 294.424 586.252 293.284 586.252C292.144 586.252 291.196 585.988 290.44 585.46C289.684 584.92 289.102 584.26 288.694 583.48L290.206 582.67C290.482 583.342 290.896 583.87 291.448 584.254C292 584.626 292.63 584.812 293.338 584.812C293.974 584.812 294.49 584.686 294.886 584.434C295.294 584.17 295.498 583.822 295.498 583.39C295.498 583.294 295.486 583.204 295.462 583.12C295.438 583.036 295.396 582.964 295.336 582.904C295.276 582.832 295.222 582.772 295.174 582.724C295.126 582.676 295.048 582.634 294.94 582.598C294.832 582.55 294.742 582.514 294.67 582.49C294.61 582.466 294.508 582.442 294.364 582.418C294.22 582.382 294.118 582.358 294.058 582.346C293.998 582.334 293.884 582.322 293.716 582.31C293.56 582.286 293.458 582.268 293.41 582.256L292.672 582.148C291.604 581.992 290.788 581.716 290.224 581.32C289.66 580.924 289.378 580.33 289.378 579.538Z" fill="#521B7C"/>
</svg>
