<svg width="392" height="650" viewBox="0 0 392 650" fill="none" xmlns="http://www.w3.org/2000/svg">
<mask id="mask0" mask-type="alpha" maskUnits="userSpaceOnUse" x="72" y="0" width="408" height="650">
<rect x="72" width="408" height="650" fill="#C4C4C4"/>
</mask>
<g mask="url(#mask0)">
<path d="M679 313C679 479.75 543.346 614.933 376 614.933C208.654 614.933 73 479.75 73 313C73 146.25 208.654 11.0667 376 11.0667C543.346 11.0667 679 146.25 679 313Z" stroke="#2550E5" stroke-opacity="0.05" stroke-width="2"/>
<path d="M556.972 313C556.972 412.592 475.951 493.333 376 493.333C276.049 493.333 195.028 412.592 195.028 313C195.028 213.408 276.049 132.667 376 132.667C475.951 132.667 556.972 213.408 556.972 313Z" stroke="#2550E5" stroke-opacity="0.2" stroke-width="2"/>
<path d="M616.915 313C616.915 445.582 509.057 553.067 376 553.067C242.943 553.067 135.084 445.582 135.084 313C135.084 180.418 242.943 72.9333 376 72.9333C509.057 72.9333 616.915 180.418 616.915 313Z" stroke="#2550E5" stroke-opacity="0.06" stroke-width="2"/>
</g>
<rect x="173" y="378" width="137" height="34" rx="6" fill="#EFF2FC"/>
<path d="M184.422 389.4H187.662L190.866 400.128H191.082L194.286 389.4H197.526V402H195.726V391.308H195.51L192.324 402H189.624L186.438 391.308H186.222V402H184.422V389.4ZM199.975 395.502C200.323 394.758 200.851 394.146 201.559 393.666C202.279 393.174 203.149 392.928 204.169 392.928C205.357 392.928 206.305 393.246 207.013 393.882C207.721 394.518 208.075 395.37 208.075 396.438V402H206.419V400.614H206.167C205.951 401.082 205.585 401.472 205.069 401.784C204.553 402.096 203.881 402.252 203.053 402.252C202.069 402.252 201.277 402.006 200.677 401.514C200.089 401.022 199.795 400.38 199.795 399.588C199.795 398.016 200.917 397.122 203.161 396.906L206.419 396.6V396.366C206.419 395.766 206.215 395.298 205.807 394.962C205.411 394.614 204.853 394.44 204.133 394.44C202.801 394.44 201.901 395.016 201.433 396.168L199.975 395.502ZM201.505 399.516C201.505 399.936 201.667 400.266 201.991 400.506C202.315 400.734 202.765 400.848 203.341 400.848C204.337 400.848 205.099 400.59 205.627 400.074C206.155 399.546 206.419 398.88 206.419 398.076V397.932L203.341 398.22C202.117 398.328 201.505 398.76 201.505 399.516ZM212.294 393.18V394.62H212.546C212.87 393.636 213.638 393.144 214.85 393.144H215.858V394.8H214.31C213.674 394.8 213.188 394.98 212.852 395.34C212.528 395.688 212.366 396.192 212.366 396.852V402H210.674V393.18H212.294ZM226.406 393.18L222.356 396.582L226.334 402H224.3L221.132 397.626L219.314 399.138V402H217.622V389.4H219.314V396.906H219.53L223.922 393.18H226.406ZM226.806 397.518C226.806 396.21 227.22 395.112 228.048 394.224C228.876 393.336 229.926 392.892 231.198 392.892C232.482 392.892 233.52 393.312 234.312 394.152C235.116 394.992 235.518 396.06 235.518 397.356V398.202H228.57C228.618 398.994 228.9 399.624 229.416 400.092C229.932 400.548 230.586 400.776 231.378 400.776C232.53 400.776 233.37 400.248 233.898 399.192L235.32 400.002C234.396 401.502 233.094 402.252 231.414 402.252C230.058 402.252 228.948 401.802 228.084 400.902C227.232 399.99 226.806 398.862 226.806 397.518ZM228.57 396.834H233.754C233.73 396.078 233.49 395.478 233.034 395.034C232.578 394.59 231.966 394.368 231.198 394.368C230.43 394.368 229.812 394.584 229.344 395.016C228.888 395.448 228.63 396.054 228.57 396.834ZM236.468 393.18H238.916V390.12H240.608V393.18H243.2V394.656H240.608V400.02C240.608 400.356 240.764 400.524 241.076 400.524H242.696V402H240.392C239.96 402 239.606 401.862 239.33 401.586C239.054 401.298 238.916 400.932 238.916 400.488V394.656H236.468V393.18ZM245.144 405.6V393.18H246.8V394.566H247.052C247.712 393.474 248.72 392.928 250.076 392.928C251.252 392.928 252.236 393.366 253.028 394.242C253.82 395.118 254.216 396.234 254.216 397.59C254.216 398.946 253.82 400.062 253.028 400.938C252.236 401.814 251.252 402.252 250.076 402.252C248.72 402.252 247.712 401.706 247.052 400.614H246.836V405.6H245.144ZM247.592 399.894C248.096 400.458 248.78 400.74 249.644 400.74C250.508 400.74 251.204 400.464 251.732 399.912C252.26 399.348 252.524 398.574 252.524 397.59C252.524 396.606 252.26 395.838 251.732 395.286C251.204 394.722 250.508 394.44 249.644 394.44C248.78 394.44 248.096 394.722 247.592 395.286C247.088 395.85 246.836 396.618 246.836 397.59C246.836 398.562 247.088 399.33 247.592 399.894ZM258.037 389.4V402H256.345V389.4H258.037ZM260.456 395.502C260.804 394.758 261.332 394.146 262.04 393.666C262.76 393.174 263.63 392.928 264.65 392.928C265.838 392.928 266.786 393.246 267.494 393.882C268.202 394.518 268.556 395.37 268.556 396.438V402H266.9V400.614H266.648C266.432 401.082 266.066 401.472 265.55 401.784C265.034 402.096 264.362 402.252 263.534 402.252C262.55 402.252 261.758 402.006 261.158 401.514C260.57 401.022 260.276 400.38 260.276 399.588C260.276 398.016 261.398 397.122 263.642 396.906L266.9 396.6V396.366C266.9 395.766 266.696 395.298 266.288 394.962C265.892 394.614 265.334 394.44 264.614 394.44C263.282 394.44 262.382 395.016 261.914 396.168L260.456 395.502ZM261.986 399.516C261.986 399.936 262.148 400.266 262.472 400.506C262.796 400.734 263.246 400.848 263.822 400.848C264.818 400.848 265.58 400.59 266.108 400.074C266.636 399.546 266.9 398.88 266.9 398.076V397.932L263.822 398.22C262.598 398.328 261.986 398.76 261.986 399.516ZM271.875 400.938C271.011 400.05 270.579 398.934 270.579 397.59C270.579 396.246 271.011 395.136 271.875 394.26C272.739 393.372 273.831 392.928 275.151 392.928C276.303 392.928 277.257 393.246 278.013 393.882C278.781 394.518 279.255 395.34 279.435 396.348L277.779 396.69C277.707 396.042 277.437 395.514 276.969 395.106C276.513 394.686 275.907 394.476 275.151 394.476C274.299 394.476 273.603 394.764 273.063 395.34C272.535 395.904 272.271 396.654 272.271 397.59C272.271 398.526 272.541 399.282 273.081 399.858C273.621 400.422 274.323 400.704 275.187 400.704C276.627 400.704 277.497 399.972 277.797 398.508L279.471 398.832C279.243 399.792 278.769 400.602 278.049 401.262C277.341 401.922 276.387 402.252 275.187 402.252C273.855 402.252 272.751 401.814 271.875 400.938ZM280.954 397.518C280.954 396.21 281.368 395.112 282.196 394.224C283.024 393.336 284.074 392.892 285.346 392.892C286.63 392.892 287.668 393.312 288.46 394.152C289.264 394.992 289.666 396.06 289.666 397.356V398.202H282.718C282.766 398.994 283.048 399.624 283.564 400.092C284.08 400.548 284.734 400.776 285.526 400.776C286.678 400.776 287.518 400.248 288.046 399.192L289.468 400.002C288.544 401.502 287.242 402.252 285.562 402.252C284.206 402.252 283.096 401.802 282.232 400.902C281.38 399.99 280.954 398.862 280.954 397.518ZM282.718 396.834H287.902C287.878 396.078 287.638 395.478 287.182 395.034C286.726 394.59 286.114 394.368 285.346 394.368C284.578 394.368 283.96 394.584 283.492 395.016C283.036 395.448 282.778 396.054 282.718 396.834ZM291.462 395.538C291.462 394.734 291.786 394.098 292.434 393.63C293.082 393.162 293.88 392.928 294.828 392.928C295.704 392.928 296.472 393.108 297.132 393.468C297.804 393.816 298.494 394.386 299.202 395.178L297.942 396.078C297.042 394.914 296.016 394.332 294.864 394.332C294.36 394.332 293.946 394.44 293.622 394.656C293.298 394.86 293.136 395.148 293.136 395.52C293.136 395.724 293.178 395.892 293.262 396.024C293.346 396.156 293.496 396.264 293.712 396.348C293.94 396.42 294.114 396.474 294.234 396.51C294.366 396.534 294.606 396.57 294.954 396.618L295.692 396.726C296.856 396.894 297.738 397.164 298.338 397.536C298.95 397.896 299.256 398.496 299.256 399.336C299.256 400.212 298.89 400.92 298.158 401.46C297.438 401.988 296.508 402.252 295.368 402.252C294.228 402.252 293.28 401.988 292.524 401.46C291.768 400.92 291.186 400.26 290.778 399.48L292.29 398.67C292.566 399.342 292.98 399.87 293.532 400.254C294.084 400.626 294.714 400.812 295.422 400.812C296.058 400.812 296.574 400.686 296.97 400.434C297.378 400.17 297.582 399.822 297.582 399.39C297.582 399.294 297.57 399.204 297.546 399.12C297.522 399.036 297.48 398.964 297.42 398.904C297.36 398.832 297.306 398.772 297.258 398.724C297.21 398.676 297.132 398.634 297.024 398.598C296.916 398.55 296.826 398.514 296.754 398.49C296.694 398.466 296.592 398.442 296.448 398.418C296.304 398.382 296.202 398.358 296.142 398.346C296.082 398.334 295.968 398.322 295.8 398.31C295.644 398.286 295.542 398.268 295.494 398.256L294.756 398.148C293.688 397.992 292.872 397.716 292.308 397.32C291.744 396.924 291.462 396.33 291.462 395.538Z" fill="#1B317C"/>
<rect x="23" y="432" width="128" height="34" rx="6" fill="#EBF5F4"/>
<path d="M34.7165 443.4H42.7805V445.056H36.5165V448.854H42.2765V450.51H36.5165V454.344H42.8525V456H34.7165V443.4ZM45.2366 452.238V450.69H50.5646V452.238H45.2366ZM54.1999 454.938C53.3359 454.05 52.9039 452.934 52.9039 451.59C52.9039 450.246 53.3359 449.136 54.1999 448.26C55.0639 447.372 56.1559 446.928 57.4759 446.928C58.6279 446.928 59.5819 447.246 60.3379 447.882C61.1059 448.518 61.5799 449.34 61.7599 450.348L60.1039 450.69C60.0319 450.042 59.7619 449.514 59.2939 449.106C58.8379 448.686 58.2319 448.476 57.4759 448.476C56.6239 448.476 55.9279 448.764 55.3879 449.34C54.8599 449.904 54.5959 450.654 54.5959 451.59C54.5959 452.526 54.8659 453.282 55.4059 453.858C55.9459 454.422 56.6479 454.704 57.5119 454.704C58.9519 454.704 59.8219 453.972 60.1219 452.508L61.7959 452.832C61.5679 453.792 61.0939 454.602 60.3739 455.262C59.6659 455.922 58.7119 456.252 57.5119 456.252C56.1799 456.252 55.0759 455.814 54.1999 454.938ZM64.5572 454.938C63.7052 454.062 63.2792 452.946 63.2792 451.59C63.2792 450.234 63.7052 449.118 64.5572 448.242C65.4212 447.366 66.5072 446.928 67.8152 446.928C69.1232 446.928 70.2032 447.366 71.0552 448.242C71.9192 449.118 72.3512 450.234 72.3512 451.59C72.3512 452.946 71.9192 454.062 71.0552 454.938C70.2032 455.814 69.1232 456.252 67.8152 456.252C66.5072 456.252 65.4212 455.814 64.5572 454.938ZM65.7452 449.322C65.2292 449.874 64.9712 450.63 64.9712 451.59C64.9712 452.55 65.2292 453.312 65.7452 453.876C66.2732 454.428 66.9632 454.704 67.8152 454.704C68.6672 454.704 69.3512 454.428 69.8672 453.876C70.3952 453.312 70.6592 452.55 70.6592 451.59C70.6592 450.63 70.3952 449.874 69.8672 449.322C69.3512 448.758 68.6672 448.476 67.8152 448.476C66.9632 448.476 66.2732 448.758 65.7452 449.322ZM74.4766 447.18H76.1326V448.332H76.3846C76.9006 447.468 77.7046 447.036 78.7966 447.036C79.9006 447.036 80.7166 447.528 81.2446 448.512H81.4966C81.9766 447.528 82.8286 447.036 84.0526 447.036C84.8686 447.036 85.5706 447.306 86.1586 447.846C86.7466 448.386 87.0406 449.094 87.0406 449.97V456H85.3486V450.078C85.3486 449.574 85.1806 449.184 84.8446 448.908C84.5086 448.62 84.0706 448.476 83.5306 448.476C82.9546 448.476 82.4866 448.65 82.1266 448.998C81.7786 449.346 81.6046 449.844 81.6046 450.492V456H79.9126V450.078C79.9126 449.574 79.7566 449.184 79.4446 448.908C79.1326 448.62 78.7126 448.476 78.1846 448.476C77.5966 448.476 77.1106 448.65 76.7266 448.998C76.3546 449.346 76.1686 449.844 76.1686 450.492V456H74.4766V447.18ZM89.6332 447.18H91.2892V448.332H91.5412C92.0572 447.468 92.8612 447.036 93.9532 447.036C95.0572 447.036 95.8732 447.528 96.4012 448.512H96.6532C97.1332 447.528 97.9852 447.036 99.2092 447.036C100.025 447.036 100.727 447.306 101.315 447.846C101.903 448.386 102.197 449.094 102.197 449.97V456H100.505V450.078C100.505 449.574 100.337 449.184 100.001 448.908C99.6652 448.62 99.2272 448.476 98.6872 448.476C98.1112 448.476 97.6432 448.65 97.2832 448.998C96.9352 449.346 96.7612 449.844 96.7612 450.492V456H95.0692V450.078C95.0692 449.574 94.9132 449.184 94.6012 448.908C94.2892 448.62 93.8692 448.476 93.3412 448.476C92.7532 448.476 92.2672 448.65 91.8832 448.998C91.5112 449.346 91.3252 449.844 91.3252 450.492V456H89.6332V447.18ZM104.214 451.518C104.214 450.21 104.628 449.112 105.456 448.224C106.284 447.336 107.334 446.892 108.606 446.892C109.89 446.892 110.928 447.312 111.72 448.152C112.524 448.992 112.926 450.06 112.926 451.356V452.202H105.978C106.026 452.994 106.308 453.624 106.824 454.092C107.34 454.548 107.994 454.776 108.786 454.776C109.938 454.776 110.778 454.248 111.306 453.192L112.728 454.002C111.804 455.502 110.502 456.252 108.822 456.252C107.466 456.252 106.356 455.802 105.492 454.902C104.64 453.99 104.214 452.862 104.214 451.518ZM105.978 450.834H111.162C111.138 450.078 110.898 449.478 110.442 449.034C109.986 448.59 109.374 448.368 108.606 448.368C107.838 448.368 107.22 448.584 106.752 449.016C106.296 449.448 106.038 450.054 105.978 450.834ZM116.592 447.18V448.62H116.844C117.168 447.636 117.936 447.144 119.148 447.144H120.156V448.8H118.608C117.972 448.8 117.486 448.98 117.15 449.34C116.826 449.688 116.664 450.192 116.664 450.852V456H114.972V447.18H116.592ZM122.182 454.938C121.318 454.05 120.886 452.934 120.886 451.59C120.886 450.246 121.318 449.136 122.182 448.26C123.046 447.372 124.138 446.928 125.458 446.928C126.61 446.928 127.564 447.246 128.32 447.882C129.088 448.518 129.562 449.34 129.742 450.348L128.086 450.69C128.014 450.042 127.744 449.514 127.276 449.106C126.82 448.686 126.214 448.476 125.458 448.476C124.606 448.476 123.91 448.764 123.37 449.34C122.842 449.904 122.578 450.654 122.578 451.59C122.578 452.526 122.848 453.282 123.388 453.858C123.928 454.422 124.63 454.704 125.494 454.704C126.934 454.704 127.804 453.972 128.104 452.508L129.778 452.832C129.55 453.792 129.076 454.602 128.356 455.262C127.648 455.922 126.694 456.252 125.494 456.252C124.162 456.252 123.058 455.814 122.182 454.938ZM131.262 451.518C131.262 450.21 131.676 449.112 132.504 448.224C133.332 447.336 134.382 446.892 135.654 446.892C136.938 446.892 137.976 447.312 138.768 448.152C139.572 448.992 139.974 450.06 139.974 451.356V452.202H133.026C133.074 452.994 133.356 453.624 133.872 454.092C134.388 454.548 135.042 454.776 135.834 454.776C136.986 454.776 137.826 454.248 138.354 453.192L139.776 454.002C138.852 455.502 137.55 456.252 135.87 456.252C134.514 456.252 133.404 455.802 132.54 454.902C131.688 453.99 131.262 452.862 131.262 451.518ZM133.026 450.834H138.21C138.186 450.078 137.946 449.478 137.49 449.034C137.034 448.59 136.422 448.368 135.654 448.368C134.886 448.368 134.268 448.584 133.8 449.016C133.344 449.448 133.086 450.054 133.026 450.834Z" fill="#407C1B"/>
<rect y="240" width="142" height="34" rx="6" fill="#EBEFFC"/>
<path d="M11.2908 256.296C11.2908 254.676 11.7228 253.416 12.5868 252.516C13.4508 251.604 14.6508 251.148 16.1868 251.148C17.6868 251.148 18.8748 251.604 19.7508 252.516C20.6388 253.428 21.0828 254.688 21.0828 256.296V259.104C21.0828 260.724 20.6508 261.99 19.7868 262.902C18.9228 263.802 17.7228 264.252 16.1868 264.252C14.6508 264.252 13.4508 263.802 12.5868 262.902C11.7228 261.99 11.2908 260.724 11.2908 259.104V256.296ZM13.0908 256.26V259.14C13.0908 261.444 14.1228 262.596 16.1868 262.596C18.2508 262.596 19.2828 261.444 19.2828 259.14V256.26C19.2828 253.956 18.2508 252.804 16.1868 252.804C14.1228 252.804 13.0908 253.956 13.0908 256.26ZM23.3805 255.18H25.0365V256.674H25.2885C25.8405 255.582 26.8305 255.036 28.2585 255.036C29.2425 255.036 30.0585 255.354 30.7065 255.99C31.3665 256.626 31.6965 257.526 31.6965 258.69V264H30.0045V258.834C30.0045 258.078 29.8065 257.502 29.4105 257.106C29.0265 256.71 28.4685 256.512 27.7365 256.512C26.9085 256.512 26.2545 256.764 25.7745 257.268C25.3065 257.772 25.0725 258.48 25.0725 259.392V264H23.3805V255.18ZM35.9752 251.4V264H34.2832V251.4H35.9752ZM38.5559 253.434C38.2919 253.17 38.1599 252.852 38.1599 252.48C38.1599 252.108 38.2919 251.796 38.5559 251.544C38.8199 251.28 39.1439 251.148 39.5279 251.148C39.9119 251.148 40.2359 251.28 40.4999 251.544C40.7639 251.796 40.8959 252.108 40.8959 252.48C40.8959 252.852 40.7639 253.17 40.4999 253.434C40.2359 253.686 39.9119 253.812 39.5279 253.812C39.1439 253.812 38.8199 253.686 38.5559 253.434ZM40.3739 255.18V264H38.6819V255.18H40.3739ZM43.0807 255.18H44.7367V256.674H44.9887C45.5407 255.582 46.5307 255.036 47.9587 255.036C48.9427 255.036 49.7587 255.354 50.4067 255.99C51.0667 256.626 51.3967 257.526 51.3967 258.69V264H49.7047V258.834C49.7047 258.078 49.5067 257.502 49.1107 257.106C48.7267 256.71 48.1687 256.512 47.4367 256.512C46.6087 256.512 45.9547 256.764 45.4747 257.268C45.0067 257.772 44.7727 258.48 44.7727 259.392V264H43.0807V255.18ZM53.4073 259.518C53.4073 258.21 53.8213 257.112 54.6493 256.224C55.4773 255.336 56.5273 254.892 57.7993 254.892C59.0833 254.892 60.1213 255.312 60.9133 256.152C61.7173 256.992 62.1193 258.06 62.1193 259.356V260.202H55.1713C55.2193 260.994 55.5013 261.624 56.0173 262.092C56.5333 262.548 57.1873 262.776 57.9793 262.776C59.1313 262.776 59.9713 262.248 60.4993 261.192L61.9213 262.002C60.9973 263.502 59.6953 264.252 58.0153 264.252C56.6593 264.252 55.5493 263.802 54.6853 262.902C53.8333 261.99 53.4073 260.862 53.4073 259.518ZM55.1713 258.834H60.3553C60.3313 258.078 60.0913 257.478 59.6353 257.034C59.1793 256.59 58.5673 256.368 57.7993 256.368C57.0313 256.368 56.4133 256.584 55.9453 257.016C55.4893 257.448 55.2313 258.054 55.1713 258.834ZM76.5818 255.18H78.2378V263.73C78.2378 264.93 77.8418 265.914 77.0498 266.682C76.2578 267.462 75.2078 267.852 73.8998 267.852C71.9438 267.852 70.4138 267.036 69.3098 265.404L70.8218 264.522C71.4578 265.734 72.4478 266.34 73.7918 266.34C74.6318 266.34 75.2978 266.112 75.7898 265.656C76.2938 265.2 76.5458 264.528 76.5458 263.64V262.398H76.3298C75.6698 263.49 74.6618 264.036 73.3058 264.036C72.1298 264.036 71.1458 263.61 70.3538 262.758C69.5618 261.906 69.1658 260.814 69.1658 259.482C69.1658 258.15 69.5618 257.058 70.3538 256.206C71.1458 255.354 72.1298 254.928 73.3058 254.928C74.6618 254.928 75.6698 255.474 76.3298 256.566H76.5818V255.18ZM71.6498 261.732C72.1778 262.26 72.8738 262.524 73.7378 262.524C74.6018 262.524 75.2858 262.254 75.7898 261.714C76.2938 261.174 76.5458 260.43 76.5458 259.482C76.5458 258.534 76.2938 257.79 75.7898 257.25C75.2858 256.71 74.6018 256.44 73.7378 256.44C72.8738 256.44 72.1778 256.71 71.6498 257.25C71.1218 257.778 70.8578 258.522 70.8578 259.482C70.8578 260.442 71.1218 261.192 71.6498 261.732ZM80.6552 257.502C81.0032 256.758 81.5312 256.146 82.2392 255.666C82.9592 255.174 83.8292 254.928 84.8492 254.928C86.0372 254.928 86.9852 255.246 87.6932 255.882C88.4012 256.518 88.7552 257.37 88.7552 258.438V264H87.0992V262.614H86.8472C86.6312 263.082 86.2652 263.472 85.7492 263.784C85.2332 264.096 84.5612 264.252 83.7332 264.252C82.7492 264.252 81.9572 264.006 81.3572 263.514C80.7692 263.022 80.4752 262.38 80.4752 261.588C80.4752 260.016 81.5972 259.122 83.8412 258.906L87.0992 258.6V258.366C87.0992 257.766 86.8952 257.298 86.4872 256.962C86.0912 256.614 85.5332 256.44 84.8132 256.44C83.4812 256.44 82.5812 257.016 82.1132 258.168L80.6552 257.502ZM82.1852 261.516C82.1852 261.936 82.3472 262.266 82.6712 262.506C82.9952 262.734 83.4452 262.848 84.0212 262.848C85.0172 262.848 85.7792 262.59 86.3072 262.074C86.8352 261.546 87.0992 260.88 87.0992 260.076V259.932L84.0212 260.22C82.7972 260.328 82.1852 260.76 82.1852 261.516ZM91.3537 255.18H93.0097V256.332H93.2617C93.7777 255.468 94.5817 255.036 95.6737 255.036C96.7777 255.036 97.5937 255.528 98.1217 256.512H98.3737C98.8537 255.528 99.7057 255.036 100.93 255.036C101.746 255.036 102.448 255.306 103.036 255.846C103.624 256.386 103.918 257.094 103.918 257.97V264H102.226V258.078C102.226 257.574 102.058 257.184 101.722 256.908C101.386 256.62 100.948 256.476 100.408 256.476C99.8317 256.476 99.3637 256.65 99.0037 256.998C98.6557 257.346 98.4817 257.844 98.4817 258.492V264H96.7897V258.078C96.7897 257.574 96.6337 257.184 96.3217 256.908C96.0097 256.62 95.5897 256.476 95.0617 256.476C94.4737 256.476 93.9877 256.65 93.6037 256.998C93.2317 257.346 93.0457 257.844 93.0457 258.492V264H91.3537V255.18ZM106.384 253.434C106.12 253.17 105.988 252.852 105.988 252.48C105.988 252.108 106.12 251.796 106.384 251.544C106.648 251.28 106.972 251.148 107.356 251.148C107.74 251.148 108.064 251.28 108.328 251.544C108.592 251.796 108.724 252.108 108.724 252.48C108.724 252.852 108.592 253.17 108.328 253.434C108.064 253.686 107.74 253.812 107.356 253.812C106.972 253.812 106.648 253.686 106.384 253.434ZM108.202 255.18V264H106.51V255.18H108.202ZM110.909 255.18H112.565V256.674H112.817C113.369 255.582 114.359 255.036 115.787 255.036C116.771 255.036 117.587 255.354 118.235 255.99C118.895 256.626 119.225 257.526 119.225 258.69V264H117.533V258.834C117.533 258.078 117.335 257.502 116.939 257.106C116.555 256.71 115.997 256.512 115.265 256.512C114.437 256.512 113.783 256.764 113.303 257.268C112.835 257.772 112.601 258.48 112.601 259.392V264H110.909V255.18ZM128.652 255.18H130.308V263.73C130.308 264.93 129.912 265.914 129.12 266.682C128.328 267.462 127.278 267.852 125.97 267.852C124.014 267.852 122.484 267.036 121.38 265.404L122.892 264.522C123.528 265.734 124.518 266.34 125.862 266.34C126.702 266.34 127.368 266.112 127.86 265.656C128.364 265.2 128.616 264.528 128.616 263.64V262.398H128.4C127.74 263.49 126.732 264.036 125.376 264.036C124.2 264.036 123.216 263.61 122.424 262.758C121.632 261.906 121.236 260.814 121.236 259.482C121.236 258.15 121.632 257.058 122.424 256.206C123.216 255.354 124.2 254.928 125.376 254.928C126.732 254.928 127.74 255.474 128.4 256.566H128.652V255.18ZM123.72 261.732C124.248 262.26 124.944 262.524 125.808 262.524C126.672 262.524 127.356 262.254 127.86 261.714C128.364 261.174 128.616 260.43 128.616 259.482C128.616 258.534 128.364 257.79 127.86 257.25C127.356 256.71 126.672 256.44 125.808 256.44C124.944 256.44 124.248 256.71 123.72 257.25C123.192 257.778 122.928 258.522 122.928 259.482C122.928 260.442 123.192 261.192 123.72 261.732Z" fill="#1B317C"/>
<rect x="160" y="113" width="96" height="34" rx="6" fill="#EDFAFC"/>
<path d="M175.6 124.148C176.956 124.148 178.06 124.496 178.912 125.192C179.776 125.888 180.208 126.86 180.208 128.108V128.684H178.408V128.252C178.408 127.46 178.15 126.848 177.634 126.416C177.13 125.984 176.452 125.768 175.6 125.768C174.892 125.768 174.31 125.942 173.854 126.29C173.41 126.626 173.188 127.07 173.188 127.622C173.188 128.174 173.38 128.594 173.764 128.882C174.148 129.17 174.802 129.416 175.726 129.62L176.554 129.8C177.79 130.064 178.726 130.484 179.362 131.06C179.998 131.636 180.316 132.44 180.316 133.472C180.316 134.612 179.896 135.53 179.056 136.226C178.216 136.91 177.136 137.252 175.816 137.252C174.28 137.252 173.062 136.838 172.162 136.01C171.262 135.182 170.812 134.072 170.812 132.68V132.104H172.612V132.536C172.612 133.532 172.888 134.3 173.44 134.84C174.004 135.368 174.802 135.632 175.834 135.632C176.65 135.632 177.298 135.434 177.778 135.038C178.27 134.642 178.516 134.138 178.516 133.526C178.516 132.95 178.324 132.512 177.94 132.212C177.556 131.912 176.944 131.672 176.104 131.492L175.276 131.312C174.016 131.036 173.05 130.628 172.378 130.088C171.718 129.548 171.388 128.732 171.388 127.64C171.388 126.596 171.79 125.756 172.594 125.12C173.398 124.472 174.4 124.148 175.6 124.148ZM181.531 128.18H183.979V125.12H185.671V128.18H188.263V129.656H185.671V135.02C185.671 135.356 185.827 135.524 186.139 135.524H187.759V137H185.455C185.023 137 184.669 136.862 184.393 136.586C184.117 136.298 183.979 135.932 183.979 135.488V129.656H181.531V128.18ZM189.92 130.502C190.268 129.758 190.796 129.146 191.504 128.666C192.224 128.174 193.094 127.928 194.114 127.928C195.302 127.928 196.25 128.246 196.958 128.882C197.666 129.518 198.02 130.37 198.02 131.438V137H196.364V135.614H196.112C195.896 136.082 195.53 136.472 195.014 136.784C194.498 137.096 193.826 137.252 192.998 137.252C192.014 137.252 191.222 137.006 190.622 136.514C190.034 136.022 189.74 135.38 189.74 134.588C189.74 133.016 190.862 132.122 193.106 131.906L196.364 131.6V131.366C196.364 130.766 196.16 130.298 195.752 129.962C195.356 129.614 194.798 129.44 194.078 129.44C192.746 129.44 191.846 130.016 191.378 131.168L189.92 130.502ZM191.45 134.516C191.45 134.936 191.612 135.266 191.936 135.506C192.26 135.734 192.71 135.848 193.286 135.848C194.282 135.848 195.044 135.59 195.572 135.074C196.1 134.546 196.364 133.88 196.364 133.076V132.932L193.286 133.22C192.062 133.328 191.45 133.76 191.45 134.516ZM202.238 128.18V129.62H202.49C202.814 128.636 203.582 128.144 204.794 128.144H205.802V129.8H204.254C203.618 129.8 203.132 129.98 202.796 130.34C202.472 130.688 202.31 131.192 202.31 131.852V137H200.618V128.18H202.238ZM206.821 128.18H209.269V125.12H210.961V128.18H213.553V129.656H210.961V135.02C210.961 135.356 211.117 135.524 211.429 135.524H213.049V137H210.745C210.313 137 209.959 136.862 209.683 136.586C209.407 136.298 209.269 135.932 209.269 135.488V129.656H206.821V128.18ZM223.706 137H222.05V135.506H221.798C221.246 136.598 220.256 137.144 218.828 137.144C217.844 137.144 217.022 136.826 216.362 136.19C215.714 135.554 215.39 134.654 215.39 133.49V128.18H217.082V133.346C217.082 134.102 217.274 134.678 217.658 135.074C218.054 135.47 218.618 135.668 219.35 135.668C220.178 135.668 220.826 135.416 221.294 134.912C221.774 134.408 222.014 133.7 222.014 132.788V128.18H223.706V137ZM226.4 140.6V128.18H228.056V129.566H228.308C228.968 128.474 229.976 127.928 231.332 127.928C232.508 127.928 233.492 128.366 234.284 129.242C235.076 130.118 235.472 131.234 235.472 132.59C235.472 133.946 235.076 135.062 234.284 135.938C233.492 136.814 232.508 137.252 231.332 137.252C229.976 137.252 228.968 136.706 228.308 135.614H228.092V140.6H226.4ZM228.848 134.894C229.352 135.458 230.036 135.74 230.9 135.74C231.764 135.74 232.46 135.464 232.988 134.912C233.516 134.348 233.78 133.574 233.78 132.59C233.78 131.606 233.516 130.838 232.988 130.286C232.46 129.722 231.764 129.44 230.9 129.44C230.036 129.44 229.352 129.722 228.848 130.286C228.344 130.85 228.092 131.618 228.092 132.59C228.092 133.562 228.344 134.33 228.848 134.894ZM237.352 130.538C237.352 129.734 237.676 129.098 238.324 128.63C238.972 128.162 239.77 127.928 240.718 127.928C241.594 127.928 242.362 128.108 243.022 128.468C243.694 128.816 244.384 129.386 245.092 130.178L243.832 131.078C242.932 129.914 241.906 129.332 240.754 129.332C240.25 129.332 239.836 129.44 239.512 129.656C239.188 129.86 239.026 130.148 239.026 130.52C239.026 130.724 239.068 130.892 239.152 131.024C239.236 131.156 239.386 131.264 239.602 131.348C239.83 131.42 240.004 131.474 240.124 131.51C240.256 131.534 240.496 131.57 240.844 131.618L241.582 131.726C242.746 131.894 243.628 132.164 244.228 132.536C244.84 132.896 245.146 133.496 245.146 134.336C245.146 135.212 244.78 135.92 244.048 136.46C243.328 136.988 242.398 137.252 241.258 137.252C240.118 137.252 239.17 136.988 238.414 136.46C237.658 135.92 237.076 135.26 236.668 134.48L238.18 133.67C238.456 134.342 238.87 134.87 239.422 135.254C239.974 135.626 240.604 135.812 241.312 135.812C241.948 135.812 242.464 135.686 242.86 135.434C243.268 135.17 243.472 134.822 243.472 134.39C243.472 134.294 243.46 134.204 243.436 134.12C243.412 134.036 243.37 133.964 243.31 133.904C243.25 133.832 243.196 133.772 243.148 133.724C243.1 133.676 243.022 133.634 242.914 133.598C242.806 133.55 242.716 133.514 242.644 133.49C242.584 133.466 242.482 133.442 242.338 133.418C242.194 133.382 242.092 133.358 242.032 133.346C241.972 133.334 241.858 133.322 241.69 133.31C241.534 133.286 241.432 133.268 241.384 133.256L240.646 133.148C239.578 132.992 238.762 132.716 238.198 132.32C237.634 131.924 237.352 131.33 237.352 130.538Z" fill="#1B7C77"/>
<rect x="244" y="478" width="114" height="34" rx="6" fill="#EFF2FC"/>
<path d="M255.561 489.4H263.625V491.056H257.361V494.854H263.121V496.51H257.361V500.344H263.697V502H255.561V489.4ZM266.081 498.238V496.69H271.409V498.238H266.081ZM281.593 489.4V502H279.901V489.4H281.593ZM283.724 497.518C283.724 496.21 284.138 495.112 284.966 494.224C285.794 493.336 286.844 492.892 288.116 492.892C289.4 492.892 290.438 493.312 291.23 494.152C292.034 494.992 292.436 496.06 292.436 497.356V498.202H285.488C285.536 498.994 285.818 499.624 286.334 500.092C286.85 500.548 287.504 500.776 288.296 500.776C289.448 500.776 290.288 500.248 290.816 499.192L292.238 500.002C291.314 501.502 290.012 502.252 288.332 502.252C286.976 502.252 285.866 501.802 285.002 500.902C284.15 499.99 283.724 498.862 283.724 497.518ZM285.488 496.834H290.672C290.648 496.078 290.408 495.478 289.952 495.034C289.496 494.59 288.884 494.368 288.116 494.368C287.348 494.368 286.73 494.584 286.262 495.016C285.806 495.448 285.548 496.054 285.488 496.834ZM294.123 495.502C294.471 494.758 294.999 494.146 295.707 493.666C296.427 493.174 297.297 492.928 298.317 492.928C299.505 492.928 300.453 493.246 301.161 493.882C301.869 494.518 302.223 495.37 302.223 496.438V502H300.567V500.614H300.315C300.099 501.082 299.733 501.472 299.217 501.784C298.701 502.096 298.029 502.252 297.201 502.252C296.217 502.252 295.425 502.006 294.825 501.514C294.237 501.022 293.943 500.38 293.943 499.588C293.943 498.016 295.065 497.122 297.309 496.906L300.567 496.6V496.366C300.567 495.766 300.363 495.298 299.955 494.962C299.559 494.614 299.001 494.44 298.281 494.44C296.949 494.44 296.049 495.016 295.581 496.168L294.123 495.502ZM295.653 499.516C295.653 499.936 295.815 500.266 296.139 500.506C296.463 500.734 296.913 500.848 297.489 500.848C298.485 500.848 299.247 500.59 299.775 500.074C300.303 499.546 300.567 498.88 300.567 498.076V497.932L297.489 498.22C296.265 498.328 295.653 498.76 295.653 499.516ZM306.442 493.18V494.62H306.694C307.018 493.636 307.786 493.144 308.998 493.144H310.006V494.8H308.458C307.822 494.8 307.336 494.98 307 495.34C306.676 495.688 306.514 496.192 306.514 496.852V502H304.822V493.18H306.442ZM311.769 493.18H313.425V494.674H313.677C314.229 493.582 315.219 493.036 316.647 493.036C317.631 493.036 318.447 493.354 319.095 493.99C319.755 494.626 320.085 495.526 320.085 496.69V502H318.393V496.834C318.393 496.078 318.195 495.502 317.799 495.106C317.415 494.71 316.857 494.512 316.125 494.512C315.297 494.512 314.643 494.764 314.163 495.268C313.695 495.772 313.461 496.48 313.461 497.392V502H311.769V493.18ZM322.546 491.434C322.282 491.17 322.15 490.852 322.15 490.48C322.15 490.108 322.282 489.796 322.546 489.544C322.81 489.28 323.134 489.148 323.518 489.148C323.902 489.148 324.226 489.28 324.49 489.544C324.754 489.796 324.886 490.108 324.886 490.48C324.886 490.852 324.754 491.17 324.49 491.434C324.226 491.686 323.902 491.812 323.518 491.812C323.134 491.812 322.81 491.686 322.546 491.434ZM324.364 493.18V502H322.672V493.18H324.364ZM327.071 493.18H328.727V494.674H328.979C329.531 493.582 330.521 493.036 331.949 493.036C332.933 493.036 333.749 493.354 334.397 493.99C335.057 494.626 335.387 495.526 335.387 496.69V502H333.695V496.834C333.695 496.078 333.497 495.502 333.101 495.106C332.717 494.71 332.159 494.512 331.427 494.512C330.599 494.512 329.945 494.764 329.465 495.268C328.997 495.772 328.763 496.48 328.763 497.392V502H327.071V493.18ZM344.813 493.18H346.469V501.73C346.469 502.93 346.073 503.914 345.281 504.682C344.489 505.462 343.439 505.852 342.131 505.852C340.175 505.852 338.645 505.036 337.541 503.404L339.053 502.522C339.689 503.734 340.679 504.34 342.023 504.34C342.863 504.34 343.529 504.112 344.021 503.656C344.525 503.2 344.777 502.528 344.777 501.64V500.398H344.561C343.901 501.49 342.893 502.036 341.537 502.036C340.361 502.036 339.377 501.61 338.585 500.758C337.793 499.906 337.397 498.814 337.397 497.482C337.397 496.15 337.793 495.058 338.585 494.206C339.377 493.354 340.361 492.928 341.537 492.928C342.893 492.928 343.901 493.474 344.561 494.566H344.813V493.18ZM339.881 499.732C340.409 500.26 341.105 500.524 341.969 500.524C342.833 500.524 343.517 500.254 344.021 499.714C344.525 499.174 344.777 498.43 344.777 497.482C344.777 496.534 344.525 495.79 344.021 495.25C343.517 494.71 342.833 494.44 341.969 494.44C341.105 494.44 340.409 494.71 339.881 495.25C339.353 495.778 339.089 496.522 339.089 497.482C339.089 498.442 339.353 499.192 339.881 499.732Z" fill="#1B317C"/>
<rect x="143" y="192" width="162" height="34" rx="6" fill="#EFF2FC"/>
<path d="M157.28 203.4H160.124L164.066 216H162.158L161.24 212.976H156.164L155.246 216H153.338L157.28 203.4ZM156.65 211.32H160.754L158.81 204.984H158.594L156.65 211.32ZM177.725 203.544C177.989 203.28 178.313 203.148 178.697 203.148C179.081 203.148 179.405 203.28 179.669 203.544C179.933 203.796 180.065 204.108 180.065 204.48C180.065 204.852 179.933 205.17 179.669 205.434C179.405 205.686 179.081 205.812 178.697 205.812C178.313 205.812 177.989 205.686 177.725 205.434C177.461 205.17 177.329 204.852 177.329 204.48C177.329 204.108 177.461 203.796 177.725 203.544ZM174.251 207.18H179.543V216H177.851V208.656H174.251V216H172.559V208.656H168.959V216H167.267V208.656H164.819V207.18H167.267V204.948C167.267 204.48 167.405 204.108 167.681 203.832C167.957 203.544 168.323 203.4 168.779 203.4H171.011V204.876H169.427C169.115 204.876 168.959 205.044 168.959 205.38V207.18H172.559V204.948C172.559 204.48 172.697 204.108 172.973 203.832C173.249 203.544 173.615 203.4 174.071 203.4H176.123V204.876H174.719C174.407 204.876 174.251 205.044 174.251 205.38V207.18ZM183.941 203.4V216H182.249V203.4H183.941ZM186.522 205.434C186.258 205.17 186.126 204.852 186.126 204.48C186.126 204.108 186.258 203.796 186.522 203.544C186.786 203.28 187.11 203.148 187.494 203.148C187.878 203.148 188.202 203.28 188.466 203.544C188.73 203.796 188.862 204.108 188.862 204.48C188.862 204.852 188.73 205.17 188.466 205.434C188.202 205.686 187.878 205.812 187.494 205.812C187.11 205.812 186.786 205.686 186.522 205.434ZM188.34 207.18V216H186.648V207.18H188.34ZM190.759 209.502C191.107 208.758 191.635 208.146 192.343 207.666C193.063 207.174 193.933 206.928 194.953 206.928C196.141 206.928 197.089 207.246 197.797 207.882C198.505 208.518 198.859 209.37 198.859 210.438V216H197.203V214.614H196.951C196.735 215.082 196.369 215.472 195.853 215.784C195.337 216.096 194.665 216.252 193.837 216.252C192.853 216.252 192.061 216.006 191.461 215.514C190.873 215.022 190.579 214.38 190.579 213.588C190.579 212.016 191.701 211.122 193.945 210.906L197.203 210.6V210.366C197.203 209.766 196.999 209.298 196.591 208.962C196.195 208.614 195.637 208.44 194.917 208.44C193.585 208.44 192.685 209.016 192.217 210.168L190.759 209.502ZM192.289 213.516C192.289 213.936 192.451 214.266 192.775 214.506C193.099 214.734 193.549 214.848 194.125 214.848C195.121 214.848 195.883 214.59 196.411 214.074C196.939 213.546 197.203 212.88 197.203 212.076V211.932L194.125 212.22C192.901 212.328 192.289 212.76 192.289 213.516ZM200.274 207.18H202.722V204.12H204.414V207.18H207.006V208.656H204.414V214.02C204.414 214.356 204.57 214.524 204.882 214.524H206.502V216H204.198C203.766 216 203.412 215.862 203.136 215.586C202.86 215.298 202.722 214.932 202.722 214.488V208.656H200.274V207.18ZM208.286 211.518C208.286 210.21 208.7 209.112 209.528 208.224C210.356 207.336 211.406 206.892 212.678 206.892C213.962 206.892 215 207.312 215.792 208.152C216.596 208.992 216.998 210.06 216.998 211.356V212.202H210.05C210.098 212.994 210.38 213.624 210.896 214.092C211.412 214.548 212.066 214.776 212.858 214.776C214.01 214.776 214.85 214.248 215.378 213.192L216.8 214.002C215.876 215.502 214.574 216.252 212.894 216.252C211.538 216.252 210.428 215.802 209.564 214.902C208.712 213.99 208.286 212.862 208.286 211.518ZM210.05 210.834H215.234C215.21 210.078 214.97 209.478 214.514 209.034C214.058 208.59 213.446 208.368 212.678 208.368C211.91 208.368 211.292 208.584 210.824 209.016C210.368 209.448 210.11 210.054 210.05 210.834ZM224.441 209.538C224.441 208.734 224.765 208.098 225.413 207.63C226.061 207.162 226.859 206.928 227.807 206.928C228.683 206.928 229.451 207.108 230.111 207.468C230.783 207.816 231.473 208.386 232.181 209.178L230.921 210.078C230.021 208.914 228.995 208.332 227.843 208.332C227.339 208.332 226.925 208.44 226.601 208.656C226.277 208.86 226.115 209.148 226.115 209.52C226.115 209.724 226.157 209.892 226.241 210.024C226.325 210.156 226.475 210.264 226.691 210.348C226.919 210.42 227.093 210.474 227.213 210.51C227.345 210.534 227.585 210.57 227.933 210.618L228.671 210.726C229.835 210.894 230.717 211.164 231.317 211.536C231.929 211.896 232.235 212.496 232.235 213.336C232.235 214.212 231.869 214.92 231.137 215.46C230.417 215.988 229.487 216.252 228.347 216.252C227.207 216.252 226.259 215.988 225.503 215.46C224.747 214.92 224.165 214.26 223.757 213.48L225.269 212.67C225.545 213.342 225.959 213.87 226.511 214.254C227.063 214.626 227.693 214.812 228.401 214.812C229.037 214.812 229.553 214.686 229.949 214.434C230.357 214.17 230.561 213.822 230.561 213.39C230.561 213.294 230.549 213.204 230.525 213.12C230.501 213.036 230.459 212.964 230.399 212.904C230.339 212.832 230.285 212.772 230.237 212.724C230.189 212.676 230.111 212.634 230.003 212.598C229.895 212.55 229.805 212.514 229.733 212.49C229.673 212.466 229.571 212.442 229.427 212.418C229.283 212.382 229.181 212.358 229.121 212.346C229.061 212.334 228.947 212.322 228.779 212.31C228.623 212.286 228.521 212.268 228.473 212.256L227.735 212.148C226.667 211.992 225.851 211.716 225.287 211.32C224.723 210.924 224.441 210.33 224.441 209.538ZM233.717 211.518C233.717 210.21 234.131 209.112 234.959 208.224C235.787 207.336 236.837 206.892 238.109 206.892C239.393 206.892 240.431 207.312 241.223 208.152C242.027 208.992 242.429 210.06 242.429 211.356V212.202H235.481C235.529 212.994 235.811 213.624 236.327 214.092C236.843 214.548 237.497 214.776 238.289 214.776C239.441 214.776 240.281 214.248 240.809 213.192L242.231 214.002C241.307 215.502 240.005 216.252 238.325 216.252C236.969 216.252 235.859 215.802 234.995 214.902C234.143 213.99 233.717 212.862 233.717 211.518ZM235.481 210.834H240.665C240.641 210.078 240.401 209.478 239.945 209.034C239.489 208.59 238.877 208.368 238.109 208.368C237.341 208.368 236.723 208.584 236.255 209.016C235.799 209.448 235.541 210.054 235.481 210.834ZM246.095 207.18V208.62H246.347C246.671 207.636 247.439 207.144 248.651 207.144H249.659V208.8H248.111C247.475 208.8 246.989 208.98 246.653 209.34C246.329 209.688 246.167 210.192 246.167 210.852V216H244.475V207.18H246.095ZM251.067 207.18H252.903L255.459 214.38H255.675L258.231 207.18H260.067L256.773 216H254.361L251.067 207.18ZM261.742 205.434C261.478 205.17 261.346 204.852 261.346 204.48C261.346 204.108 261.478 203.796 261.742 203.544C262.006 203.28 262.33 203.148 262.714 203.148C263.098 203.148 263.422 203.28 263.686 203.544C263.95 203.796 264.082 204.108 264.082 204.48C264.082 204.852 263.95 205.17 263.686 205.434C263.422 205.686 263.098 205.812 262.714 205.812C262.33 205.812 262.006 205.686 261.742 205.434ZM263.56 207.18V216H261.868V207.18H263.56ZM266.987 214.938C266.123 214.05 265.691 212.934 265.691 211.59C265.691 210.246 266.123 209.136 266.987 208.26C267.851 207.372 268.943 206.928 270.263 206.928C271.415 206.928 272.369 207.246 273.125 207.882C273.893 208.518 274.367 209.34 274.547 210.348L272.891 210.69C272.819 210.042 272.549 209.514 272.081 209.106C271.625 208.686 271.019 208.476 270.263 208.476C269.411 208.476 268.715 208.764 268.175 209.34C267.647 209.904 267.383 210.654 267.383 211.59C267.383 212.526 267.653 213.282 268.193 213.858C268.733 214.422 269.435 214.704 270.299 214.704C271.739 214.704 272.609 213.972 272.909 212.508L274.583 212.832C274.355 213.792 273.881 214.602 273.161 215.262C272.453 215.922 271.499 216.252 270.299 216.252C268.967 216.252 267.863 215.814 266.987 214.938ZM276.066 211.518C276.066 210.21 276.48 209.112 277.308 208.224C278.136 207.336 279.186 206.892 280.458 206.892C281.742 206.892 282.78 207.312 283.572 208.152C284.376 208.992 284.778 210.06 284.778 211.356V212.202H277.83C277.878 212.994 278.16 213.624 278.676 214.092C279.192 214.548 279.846 214.776 280.638 214.776C281.79 214.776 282.63 214.248 283.158 213.192L284.58 214.002C283.656 215.502 282.354 216.252 280.674 216.252C279.318 216.252 278.208 215.802 277.344 214.902C276.492 213.99 276.066 212.862 276.066 211.518ZM277.83 210.834H283.014C282.99 210.078 282.75 209.478 282.294 209.034C281.838 208.59 281.226 208.368 280.458 208.368C279.69 208.368 279.072 208.584 278.604 209.016C278.148 209.448 277.89 210.054 277.83 210.834ZM286.574 209.538C286.574 208.734 286.898 208.098 287.546 207.63C288.194 207.162 288.992 206.928 289.94 206.928C290.816 206.928 291.584 207.108 292.244 207.468C292.916 207.816 293.606 208.386 294.314 209.178L293.054 210.078C292.154 208.914 291.128 208.332 289.976 208.332C289.472 208.332 289.058 208.44 288.734 208.656C288.41 208.86 288.248 209.148 288.248 209.52C288.248 209.724 288.29 209.892 288.374 210.024C288.458 210.156 288.608 210.264 288.824 210.348C289.052 210.42 289.226 210.474 289.346 210.51C289.478 210.534 289.718 210.57 290.066 210.618L290.804 210.726C291.968 210.894 292.85 211.164 293.45 211.536C294.062 211.896 294.368 212.496 294.368 213.336C294.368 214.212 294.002 214.92 293.27 215.46C292.55 215.988 291.62 216.252 290.48 216.252C289.34 216.252 288.392 215.988 287.636 215.46C286.88 214.92 286.298 214.26 285.89 213.48L287.402 212.67C287.678 213.342 288.092 213.87 288.644 214.254C289.196 214.626 289.826 214.812 290.534 214.812C291.17 214.812 291.686 214.686 292.082 214.434C292.49 214.17 292.694 213.822 292.694 213.39C292.694 213.294 292.682 213.204 292.658 213.12C292.634 213.036 292.592 212.964 292.532 212.904C292.472 212.832 292.418 212.772 292.37 212.724C292.322 212.676 292.244 212.634 292.136 212.598C292.028 212.55 291.938 212.514 291.866 212.49C291.806 212.466 291.704 212.442 291.56 212.418C291.416 212.382 291.314 212.358 291.254 212.346C291.194 212.334 291.08 212.322 290.912 212.31C290.756 212.286 290.654 212.268 290.606 212.256L289.868 212.148C288.8 211.992 287.984 211.716 287.42 211.32C286.856 210.924 286.574 210.33 286.574 209.538Z" fill="#1B317C"/>
<rect x="143" y="297" width="173" height="34" rx="6" fill="#F6F6EF"/>
<path d="M158.638 308.148C159.994 308.148 161.098 308.496 161.95 309.192C162.814 309.888 163.246 310.86 163.246 312.108V312.684H161.446V312.252C161.446 311.46 161.188 310.848 160.672 310.416C160.168 309.984 159.49 309.768 158.638 309.768C157.93 309.768 157.348 309.942 156.892 310.29C156.448 310.626 156.226 311.07 156.226 311.622C156.226 312.174 156.418 312.594 156.802 312.882C157.186 313.17 157.84 313.416 158.764 313.62L159.592 313.8C160.828 314.064 161.764 314.484 162.4 315.06C163.036 315.636 163.354 316.44 163.354 317.472C163.354 318.612 162.934 319.53 162.094 320.226C161.254 320.91 160.174 321.252 158.854 321.252C157.318 321.252 156.1 320.838 155.2 320.01C154.3 319.182 153.85 318.072 153.85 316.68V316.104H155.65V316.536C155.65 317.532 155.926 318.3 156.478 318.84C157.042 319.368 157.84 319.632 158.872 319.632C159.688 319.632 160.336 319.434 160.816 319.038C161.308 318.642 161.554 318.138 161.554 317.526C161.554 316.95 161.362 316.512 160.978 316.212C160.594 315.912 159.982 315.672 159.142 315.492L158.314 315.312C157.054 315.036 156.088 314.628 155.416 314.088C154.756 313.548 154.426 312.732 154.426 311.64C154.426 310.596 154.828 309.756 155.632 309.12C156.436 308.472 157.438 308.148 158.638 308.148ZM165.577 308.4H167.269V313.674H167.485C168.037 312.582 169.027 312.036 170.455 312.036C171.439 312.036 172.255 312.354 172.903 312.99C173.563 313.626 173.893 314.526 173.893 315.69V321H172.201V315.834C172.201 315.078 172.003 314.502 171.607 314.106C171.223 313.71 170.665 313.512 169.933 313.512C169.105 313.512 168.451 313.764 167.971 314.268C167.503 314.772 167.269 315.48 167.269 316.392V321H165.577V308.4ZM176.354 310.434C176.09 310.17 175.958 309.852 175.958 309.48C175.958 309.108 176.09 308.796 176.354 308.544C176.618 308.28 176.942 308.148 177.326 308.148C177.71 308.148 178.034 308.28 178.298 308.544C178.562 308.796 178.694 309.108 178.694 309.48C178.694 309.852 178.562 310.17 178.298 310.434C178.034 310.686 177.71 310.812 177.326 310.812C176.942 310.812 176.618 310.686 176.354 310.434ZM178.172 312.18V321H176.48V312.18H178.172ZM180.879 324.6V312.18H182.535V313.566H182.787C183.447 312.474 184.455 311.928 185.811 311.928C186.987 311.928 187.971 312.366 188.763 313.242C189.555 314.118 189.951 315.234 189.951 316.59C189.951 317.946 189.555 319.062 188.763 319.938C187.971 320.814 186.987 321.252 185.811 321.252C184.455 321.252 183.447 320.706 182.787 319.614H182.571V324.6H180.879ZM183.327 318.894C183.831 319.458 184.515 319.74 185.379 319.74C186.243 319.74 186.939 319.464 187.467 318.912C187.995 318.348 188.259 317.574 188.259 316.59C188.259 315.606 187.995 314.838 187.467 314.286C186.939 313.722 186.243 313.44 185.379 313.44C184.515 313.44 183.831 313.722 183.327 314.286C182.823 314.85 182.571 315.618 182.571 316.59C182.571 317.562 182.823 318.33 183.327 318.894ZM192.08 324.6V312.18H193.736V313.566H193.988C194.648 312.474 195.656 311.928 197.012 311.928C198.188 311.928 199.172 312.366 199.964 313.242C200.756 314.118 201.152 315.234 201.152 316.59C201.152 317.946 200.756 319.062 199.964 319.938C199.172 320.814 198.188 321.252 197.012 321.252C195.656 321.252 194.648 320.706 193.988 319.614H193.772V324.6H192.08ZM194.528 318.894C195.032 319.458 195.716 319.74 196.58 319.74C197.444 319.74 198.14 319.464 198.668 318.912C199.196 318.348 199.46 317.574 199.46 316.59C199.46 315.606 199.196 314.838 198.668 314.286C198.14 313.722 197.444 313.44 196.58 313.44C195.716 313.44 195.032 313.722 194.528 314.286C194.024 314.85 193.772 315.618 193.772 316.59C193.772 317.562 194.024 318.33 194.528 318.894ZM203.156 310.434C202.892 310.17 202.76 309.852 202.76 309.48C202.76 309.108 202.892 308.796 203.156 308.544C203.42 308.28 203.744 308.148 204.128 308.148C204.512 308.148 204.836 308.28 205.1 308.544C205.364 308.796 205.496 309.108 205.496 309.48C205.496 309.852 205.364 310.17 205.1 310.434C204.836 310.686 204.512 310.812 204.128 310.812C203.744 310.812 203.42 310.686 203.156 310.434ZM204.974 312.18V321H203.282V312.18H204.974ZM207.68 312.18H209.336V313.674H209.588C210.14 312.582 211.13 312.036 212.558 312.036C213.542 312.036 214.358 312.354 215.006 312.99C215.666 313.626 215.996 314.526 215.996 315.69V321H214.304V315.834C214.304 315.078 214.106 314.502 213.71 314.106C213.326 313.71 212.768 313.512 212.036 313.512C211.208 313.512 210.554 313.764 210.074 314.268C209.606 314.772 209.372 315.48 209.372 316.392V321H207.68V312.18ZM225.423 312.18H227.079V320.73C227.079 321.93 226.683 322.914 225.891 323.682C225.099 324.462 224.049 324.852 222.741 324.852C220.785 324.852 219.255 324.036 218.151 322.404L219.663 321.522C220.299 322.734 221.289 323.34 222.633 323.34C223.473 323.34 224.139 323.112 224.631 322.656C225.135 322.2 225.387 321.528 225.387 320.64V319.398H225.171C224.511 320.49 223.503 321.036 222.147 321.036C220.971 321.036 219.987 320.61 219.195 319.758C218.403 318.906 218.007 317.814 218.007 316.482C218.007 315.15 218.403 314.058 219.195 313.206C219.987 312.354 220.971 311.928 222.147 311.928C223.503 311.928 224.511 312.474 225.171 313.566H225.423V312.18ZM220.491 318.732C221.019 319.26 221.715 319.524 222.579 319.524C223.443 319.524 224.127 319.254 224.631 318.714C225.135 318.174 225.387 317.43 225.387 316.482C225.387 315.534 225.135 314.79 224.631 314.25C224.127 313.71 223.443 313.44 222.579 313.44C221.715 313.44 221.019 313.71 220.491 314.25C219.963 314.778 219.699 315.522 219.699 316.482C219.699 317.442 219.963 318.192 220.491 318.732ZM235.181 314.538C235.181 313.734 235.505 313.098 236.153 312.63C236.801 312.162 237.599 311.928 238.547 311.928C239.423 311.928 240.191 312.108 240.851 312.468C241.523 312.816 242.213 313.386 242.921 314.178L241.661 315.078C240.761 313.914 239.735 313.332 238.583 313.332C238.079 313.332 237.665 313.44 237.341 313.656C237.017 313.86 236.855 314.148 236.855 314.52C236.855 314.724 236.897 314.892 236.981 315.024C237.065 315.156 237.215 315.264 237.431 315.348C237.659 315.42 237.833 315.474 237.953 315.51C238.085 315.534 238.325 315.57 238.673 315.618L239.411 315.726C240.575 315.894 241.457 316.164 242.057 316.536C242.669 316.896 242.975 317.496 242.975 318.336C242.975 319.212 242.609 319.92 241.877 320.46C241.157 320.988 240.227 321.252 239.087 321.252C237.947 321.252 236.999 320.988 236.243 320.46C235.487 319.92 234.905 319.26 234.497 318.48L236.009 317.67C236.285 318.342 236.699 318.87 237.251 319.254C237.803 319.626 238.433 319.812 239.141 319.812C239.777 319.812 240.293 319.686 240.689 319.434C241.097 319.17 241.301 318.822 241.301 318.39C241.301 318.294 241.289 318.204 241.265 318.12C241.241 318.036 241.199 317.964 241.139 317.904C241.079 317.832 241.025 317.772 240.977 317.724C240.929 317.676 240.851 317.634 240.743 317.598C240.635 317.55 240.545 317.514 240.473 317.49C240.413 317.466 240.311 317.442 240.167 317.418C240.023 317.382 239.921 317.358 239.861 317.346C239.801 317.334 239.687 317.322 239.519 317.31C239.363 317.286 239.261 317.268 239.213 317.256L238.475 317.148C237.407 316.992 236.591 316.716 236.027 316.32C235.463 315.924 235.181 315.33 235.181 314.538ZM244.457 316.518C244.457 315.21 244.871 314.112 245.699 313.224C246.527 312.336 247.577 311.892 248.849 311.892C250.133 311.892 251.171 312.312 251.963 313.152C252.767 313.992 253.169 315.06 253.169 316.356V317.202H246.221C246.269 317.994 246.551 318.624 247.067 319.092C247.583 319.548 248.237 319.776 249.029 319.776C250.181 319.776 251.021 319.248 251.549 318.192L252.971 319.002C252.047 320.502 250.745 321.252 249.065 321.252C247.709 321.252 246.599 320.802 245.735 319.902C244.883 318.99 244.457 317.862 244.457 316.518ZM246.221 315.834H251.405C251.381 315.078 251.141 314.478 250.685 314.034C250.229 313.59 249.617 313.368 248.849 313.368C248.081 313.368 247.463 313.584 246.995 314.016C246.539 314.448 246.281 315.054 246.221 315.834ZM256.835 312.18V313.62H257.087C257.411 312.636 258.179 312.144 259.391 312.144H260.399V313.8H258.851C258.215 313.8 257.729 313.98 257.393 314.34C257.069 314.688 256.907 315.192 256.907 315.852V321H255.215V312.18H256.835ZM261.808 312.18H263.644L266.2 319.38H266.416L268.972 312.18H270.808L267.514 321H265.102L261.808 312.18ZM272.482 310.434C272.218 310.17 272.086 309.852 272.086 309.48C272.086 309.108 272.218 308.796 272.482 308.544C272.746 308.28 273.07 308.148 273.454 308.148C273.838 308.148 274.162 308.28 274.426 308.544C274.69 308.796 274.822 309.108 274.822 309.48C274.822 309.852 274.69 310.17 274.426 310.434C274.162 310.686 273.838 310.812 273.454 310.812C273.07 310.812 272.746 310.686 272.482 310.434ZM274.3 312.18V321H272.608V312.18H274.3ZM277.727 319.938C276.863 319.05 276.431 317.934 276.431 316.59C276.431 315.246 276.863 314.136 277.727 313.26C278.591 312.372 279.683 311.928 281.003 311.928C282.155 311.928 283.109 312.246 283.865 312.882C284.633 313.518 285.107 314.34 285.287 315.348L283.631 315.69C283.559 315.042 283.289 314.514 282.821 314.106C282.365 313.686 281.759 313.476 281.003 313.476C280.151 313.476 279.455 313.764 278.915 314.34C278.387 314.904 278.123 315.654 278.123 316.59C278.123 317.526 278.393 318.282 278.933 318.858C279.473 319.422 280.175 319.704 281.039 319.704C282.479 319.704 283.349 318.972 283.649 317.508L285.323 317.832C285.095 318.792 284.621 319.602 283.901 320.262C283.193 320.922 282.239 321.252 281.039 321.252C279.707 321.252 278.603 320.814 277.727 319.938ZM286.806 316.518C286.806 315.21 287.22 314.112 288.048 313.224C288.876 312.336 289.926 311.892 291.198 311.892C292.482 311.892 293.52 312.312 294.312 313.152C295.116 313.992 295.518 315.06 295.518 316.356V317.202H288.57C288.618 317.994 288.9 318.624 289.416 319.092C289.932 319.548 290.586 319.776 291.378 319.776C292.53 319.776 293.37 319.248 293.898 318.192L295.32 319.002C294.396 320.502 293.094 321.252 291.414 321.252C290.058 321.252 288.948 320.802 288.084 319.902C287.232 318.99 286.806 317.862 286.806 316.518ZM288.57 315.834H293.754C293.73 315.078 293.49 314.478 293.034 314.034C292.578 313.59 291.966 313.368 291.198 313.368C290.43 313.368 289.812 313.584 289.344 314.016C288.888 314.448 288.63 315.054 288.57 315.834ZM297.314 314.538C297.314 313.734 297.638 313.098 298.286 312.63C298.934 312.162 299.732 311.928 300.68 311.928C301.556 311.928 302.324 312.108 302.984 312.468C303.656 312.816 304.346 313.386 305.054 314.178L303.794 315.078C302.894 313.914 301.868 313.332 300.716 313.332C300.212 313.332 299.798 313.44 299.474 313.656C299.15 313.86 298.988 314.148 298.988 314.52C298.988 314.724 299.03 314.892 299.114 315.024C299.198 315.156 299.348 315.264 299.564 315.348C299.792 315.42 299.966 315.474 300.086 315.51C300.218 315.534 300.458 315.57 300.806 315.618L301.544 315.726C302.708 315.894 303.59 316.164 304.19 316.536C304.802 316.896 305.108 317.496 305.108 318.336C305.108 319.212 304.742 319.92 304.01 320.46C303.29 320.988 302.36 321.252 301.22 321.252C300.08 321.252 299.132 320.988 298.376 320.46C297.62 319.92 297.038 319.26 296.63 318.48L298.142 317.67C298.418 318.342 298.832 318.87 299.384 319.254C299.936 319.626 300.566 319.812 301.274 319.812C301.91 319.812 302.426 319.686 302.822 319.434C303.23 319.17 303.434 318.822 303.434 318.39C303.434 318.294 303.422 318.204 303.398 318.12C303.374 318.036 303.332 317.964 303.272 317.904C303.212 317.832 303.158 317.772 303.11 317.724C303.062 317.676 302.984 317.634 302.876 317.598C302.768 317.55 302.678 317.514 302.606 317.49C302.546 317.466 302.444 317.442 302.3 317.418C302.156 317.382 302.054 317.358 301.994 317.346C301.934 317.334 301.82 317.322 301.652 317.31C301.496 317.286 301.394 317.268 301.346 317.256L300.608 317.148C299.54 316.992 298.724 316.716 298.16 316.32C297.596 315.924 297.314 315.33 297.314 314.538Z" fill="#7C611B"/>
<rect x="143" y="559" width="156" height="34" rx="6" fill="#EDEDFC"/>
<path d="M153.47 570.4H163.406V572.056H159.338V583H157.538V572.056H153.47V570.4ZM165.076 572.434C164.812 572.17 164.68 571.852 164.68 571.48C164.68 571.108 164.812 570.796 165.076 570.544C165.34 570.28 165.664 570.148 166.048 570.148C166.432 570.148 166.756 570.28 167.02 570.544C167.284 570.796 167.416 571.108 167.416 571.48C167.416 571.852 167.284 572.17 167.02 572.434C166.756 572.686 166.432 572.812 166.048 572.812C165.664 572.812 165.34 572.686 165.076 572.434ZM166.894 574.18V583H165.202V574.18H166.894ZM170.321 581.938C169.457 581.05 169.025 579.934 169.025 578.59C169.025 577.246 169.457 576.136 170.321 575.26C171.185 574.372 172.277 573.928 173.597 573.928C174.749 573.928 175.703 574.246 176.459 574.882C177.227 575.518 177.701 576.34 177.881 577.348L176.225 577.69C176.153 577.042 175.883 576.514 175.415 576.106C174.959 575.686 174.353 575.476 173.597 575.476C172.745 575.476 172.049 575.764 171.509 576.34C170.981 576.904 170.717 577.654 170.717 578.59C170.717 579.526 170.987 580.282 171.527 580.858C172.067 581.422 172.769 581.704 173.633 581.704C175.073 581.704 175.943 580.972 176.243 579.508L177.917 579.832C177.689 580.792 177.215 581.602 176.495 582.262C175.787 582.922 174.833 583.252 173.633 583.252C172.301 583.252 171.197 582.814 170.321 581.938ZM188.761 574.18L184.711 577.582L188.689 583H186.655L183.487 578.626L181.669 580.138V583H179.977V570.4H181.669V577.906H181.885L186.277 574.18H188.761ZM189.161 578.518C189.161 577.21 189.575 576.112 190.403 575.224C191.231 574.336 192.281 573.892 193.553 573.892C194.837 573.892 195.875 574.312 196.667 575.152C197.471 575.992 197.873 577.06 197.873 578.356V579.202H190.925C190.973 579.994 191.255 580.624 191.771 581.092C192.287 581.548 192.941 581.776 193.733 581.776C194.885 581.776 195.725 581.248 196.253 580.192L197.675 581.002C196.751 582.502 195.449 583.252 193.769 583.252C192.413 583.252 191.303 582.802 190.439 581.902C189.587 580.99 189.161 579.862 189.161 578.518ZM190.925 577.834H196.109C196.085 577.078 195.845 576.478 195.389 576.034C194.933 575.59 194.321 575.368 193.553 575.368C192.785 575.368 192.167 575.584 191.699 576.016C191.243 576.448 190.985 577.054 190.925 577.834ZM198.823 574.18H201.271V571.12H202.963V574.18H205.555V575.656H202.963V581.02C202.963 581.356 203.119 581.524 203.431 581.524H205.051V583H202.747C202.315 583 201.961 582.862 201.685 582.586C201.409 582.298 201.271 581.932 201.271 581.488V575.656H198.823V574.18ZM212.787 576.502C213.135 575.758 213.663 575.146 214.371 574.666C215.091 574.174 215.961 573.928 216.981 573.928C218.169 573.928 219.117 574.246 219.825 574.882C220.533 575.518 220.887 576.37 220.887 577.438V583H219.231V581.614H218.979C218.763 582.082 218.397 582.472 217.881 582.784C217.365 583.096 216.693 583.252 215.865 583.252C214.881 583.252 214.089 583.006 213.489 582.514C212.901 582.022 212.607 581.38 212.607 580.588C212.607 579.016 213.729 578.122 215.973 577.906L219.231 577.6V577.366C219.231 576.766 219.027 576.298 218.619 575.962C218.223 575.614 217.665 575.44 216.945 575.44C215.613 575.44 214.713 576.016 214.245 577.168L212.787 576.502ZM214.317 580.516C214.317 580.936 214.479 581.266 214.803 581.506C215.127 581.734 215.577 581.848 216.153 581.848C217.149 581.848 217.911 581.59 218.439 581.074C218.967 580.546 219.231 579.88 219.231 579.076V578.932L216.153 579.22C214.929 579.328 214.317 579.76 214.317 580.516ZM230.326 574.18H231.982V582.73C231.982 583.93 231.586 584.914 230.794 585.682C230.002 586.462 228.952 586.852 227.644 586.852C225.688 586.852 224.158 586.036 223.054 584.404L224.566 583.522C225.202 584.734 226.192 585.34 227.536 585.34C228.376 585.34 229.042 585.112 229.534 584.656C230.038 584.2 230.29 583.528 230.29 582.64V581.398H230.074C229.414 582.49 228.406 583.036 227.05 583.036C225.874 583.036 224.89 582.61 224.098 581.758C223.306 580.906 222.91 579.814 222.91 578.482C222.91 577.15 223.306 576.058 224.098 575.206C224.89 574.354 225.874 573.928 227.05 573.928C228.406 573.928 229.414 574.474 230.074 575.566H230.326V574.18ZM225.394 580.732C225.922 581.26 226.618 581.524 227.482 581.524C228.346 581.524 229.03 581.254 229.534 580.714C230.038 580.174 230.29 579.43 230.29 578.482C230.29 577.534 230.038 576.79 229.534 576.25C229.03 575.71 228.346 575.44 227.482 575.44C226.618 575.44 225.922 575.71 225.394 576.25C224.866 576.778 224.602 577.522 224.602 578.482C224.602 579.442 224.866 580.192 225.394 580.732ZM234.111 578.518C234.111 577.21 234.525 576.112 235.353 575.224C236.181 574.336 237.231 573.892 238.503 573.892C239.787 573.892 240.825 574.312 241.617 575.152C242.421 575.992 242.823 577.06 242.823 578.356V579.202H235.875C235.923 579.994 236.205 580.624 236.721 581.092C237.237 581.548 237.891 581.776 238.683 581.776C239.835 581.776 240.675 581.248 241.203 580.192L242.625 581.002C241.701 582.502 240.399 583.252 238.719 583.252C237.363 583.252 236.253 582.802 235.389 581.902C234.537 580.99 234.111 579.862 234.111 578.518ZM235.875 577.834H241.059C241.035 577.078 240.795 576.478 240.339 576.034C239.883 575.59 239.271 575.368 238.503 575.368C237.735 575.368 237.117 575.584 236.649 576.016C236.193 576.448 235.935 577.054 235.875 577.834ZM244.869 574.18H246.525V575.674H246.777C247.329 574.582 248.319 574.036 249.747 574.036C250.731 574.036 251.547 574.354 252.195 574.99C252.855 575.626 253.185 576.526 253.185 577.69V583H251.493V577.834C251.493 577.078 251.295 576.502 250.899 576.106C250.515 575.71 249.957 575.512 249.225 575.512C248.397 575.512 247.743 575.764 247.263 576.268C246.795 576.772 246.561 577.48 246.561 578.392V583H244.869V574.18ZM256.492 581.938C255.628 581.05 255.196 579.934 255.196 578.59C255.196 577.246 255.628 576.136 256.492 575.26C257.356 574.372 258.448 573.928 259.768 573.928C260.92 573.928 261.874 574.246 262.63 574.882C263.398 575.518 263.872 576.34 264.052 577.348L262.396 577.69C262.324 577.042 262.054 576.514 261.586 576.106C261.13 575.686 260.524 575.476 259.768 575.476C258.916 575.476 258.22 575.764 257.68 576.34C257.152 576.904 256.888 577.654 256.888 578.59C256.888 579.526 257.158 580.282 257.698 580.858C258.238 581.422 258.94 581.704 259.804 581.704C261.244 581.704 262.114 580.972 262.414 579.508L264.088 579.832C263.86 580.792 263.386 581.602 262.666 582.262C261.958 582.922 261.004 583.252 259.804 583.252C258.472 583.252 257.368 582.814 256.492 581.938ZM266.021 572.434C265.757 572.17 265.625 571.852 265.625 571.48C265.625 571.108 265.757 570.796 266.021 570.544C266.285 570.28 266.609 570.148 266.993 570.148C267.377 570.148 267.701 570.28 267.965 570.544C268.229 570.796 268.361 571.108 268.361 571.48C268.361 571.852 268.229 572.17 267.965 572.434C267.701 572.686 267.377 572.812 266.993 572.812C266.609 572.812 266.285 572.686 266.021 572.434ZM267.839 574.18V583H266.147V574.18H267.839ZM269.97 578.518C269.97 577.21 270.384 576.112 271.212 575.224C272.04 574.336 273.09 573.892 274.362 573.892C275.646 573.892 276.684 574.312 277.476 575.152C278.28 575.992 278.682 577.06 278.682 578.356V579.202H271.734C271.782 579.994 272.064 580.624 272.58 581.092C273.096 581.548 273.75 581.776 274.542 581.776C275.694 581.776 276.534 581.248 277.062 580.192L278.484 581.002C277.56 582.502 276.258 583.252 274.578 583.252C273.222 583.252 272.112 582.802 271.248 581.902C270.396 580.99 269.97 579.862 269.97 578.518ZM271.734 577.834H276.918C276.894 577.078 276.654 576.478 276.198 576.034C275.742 575.59 275.13 575.368 274.362 575.368C273.594 575.368 272.976 575.584 272.508 576.016C272.052 576.448 271.794 577.054 271.734 577.834ZM280.478 576.538C280.478 575.734 280.802 575.098 281.45 574.63C282.098 574.162 282.896 573.928 283.844 573.928C284.72 573.928 285.488 574.108 286.148 574.468C286.82 574.816 287.51 575.386 288.218 576.178L286.958 577.078C286.058 575.914 285.032 575.332 283.88 575.332C283.376 575.332 282.962 575.44 282.638 575.656C282.314 575.86 282.152 576.148 282.152 576.52C282.152 576.724 282.194 576.892 282.278 577.024C282.362 577.156 282.512 577.264 282.728 577.348C282.956 577.42 283.13 577.474 283.25 577.51C283.382 577.534 283.622 577.57 283.97 577.618L284.708 577.726C285.872 577.894 286.754 578.164 287.354 578.536C287.966 578.896 288.272 579.496 288.272 580.336C288.272 581.212 287.906 581.92 287.174 582.46C286.454 582.988 285.524 583.252 284.384 583.252C283.244 583.252 282.296 582.988 281.54 582.46C280.784 581.92 280.202 581.26 279.794 580.48L281.306 579.67C281.582 580.342 281.996 580.87 282.548 581.254C283.1 581.626 283.73 581.812 284.438 581.812C285.074 581.812 285.59 581.686 285.986 581.434C286.394 581.17 286.598 580.822 286.598 580.39C286.598 580.294 286.586 580.204 286.562 580.12C286.538 580.036 286.496 579.964 286.436 579.904C286.376 579.832 286.322 579.772 286.274 579.724C286.226 579.676 286.148 579.634 286.04 579.598C285.932 579.55 285.842 579.514 285.77 579.49C285.71 579.466 285.608 579.442 285.464 579.418C285.32 579.382 285.218 579.358 285.158 579.346C285.098 579.334 284.984 579.322 284.816 579.31C284.66 579.286 284.558 579.268 284.51 579.256L283.772 579.148C282.704 578.992 281.888 578.716 281.324 578.32C280.76 577.924 280.478 577.33 280.478 576.538Z" fill="#521B7C"/>
<rect x="216" y="50" width="152" height="34" rx="6" fill="#EFF2FC"/>
<path d="M233.175 61.4H234.975V74H233.175V61.4ZM237.714 65.18H239.37V66.332H239.622C240.138 65.468 240.942 65.036 242.034 65.036C243.138 65.036 243.954 65.528 244.482 66.512H244.734C245.214 65.528 246.066 65.036 247.29 65.036C248.106 65.036 248.808 65.306 249.396 65.846C249.984 66.386 250.278 67.094 250.278 67.97V74H248.586V68.078C248.586 67.574 248.418 67.184 248.082 66.908C247.746 66.62 247.308 66.476 246.768 66.476C246.192 66.476 245.724 66.65 245.364 66.998C245.016 67.346 244.842 67.844 244.842 68.492V74H243.15V68.078C243.15 67.574 242.994 67.184 242.682 66.908C242.37 66.62 241.95 66.476 241.422 66.476C240.834 66.476 240.348 66.65 239.964 66.998C239.592 67.346 239.406 67.844 239.406 68.492V74H237.714V65.18ZM252.87 77.6V65.18H254.526V66.566H254.778C255.438 65.474 256.446 64.928 257.802 64.928C258.978 64.928 259.962 65.366 260.754 66.242C261.546 67.118 261.942 68.234 261.942 69.59C261.942 70.946 261.546 72.062 260.754 72.938C259.962 73.814 258.978 74.252 257.802 74.252C256.446 74.252 255.438 73.706 254.778 72.614H254.562V77.6H252.87ZM255.318 71.894C255.822 72.458 256.506 72.74 257.37 72.74C258.234 72.74 258.93 72.464 259.458 71.912C259.986 71.348 260.25 70.574 260.25 69.59C260.25 68.606 259.986 67.838 259.458 67.286C258.93 66.722 258.234 66.44 257.37 66.44C256.506 66.44 255.822 66.722 255.318 67.286C254.814 67.85 254.562 68.618 254.562 69.59C254.562 70.562 254.814 71.33 255.318 71.894ZM264.774 72.938C263.922 72.062 263.496 70.946 263.496 69.59C263.496 68.234 263.922 67.118 264.774 66.242C265.638 65.366 266.724 64.928 268.032 64.928C269.34 64.928 270.42 65.366 271.272 66.242C272.136 67.118 272.568 68.234 272.568 69.59C272.568 70.946 272.136 72.062 271.272 72.938C270.42 73.814 269.34 74.252 268.032 74.252C266.724 74.252 265.638 73.814 264.774 72.938ZM265.962 67.322C265.446 67.874 265.188 68.63 265.188 69.59C265.188 70.55 265.446 71.312 265.962 71.876C266.49 72.428 267.18 72.704 268.032 72.704C268.884 72.704 269.568 72.428 270.084 71.876C270.612 71.312 270.876 70.55 270.876 69.59C270.876 68.63 270.612 67.874 270.084 67.322C269.568 66.758 268.884 66.476 268.032 66.476C267.18 66.476 266.49 66.758 265.962 67.322ZM276.313 65.18V66.62H276.565C276.889 65.636 277.657 65.144 278.869 65.144H279.877V66.8H278.329C277.693 66.8 277.207 66.98 276.871 67.34C276.547 67.688 276.385 68.192 276.385 68.852V74H274.693V65.18H276.313ZM280.896 65.18H283.344V62.12H285.036V65.18H287.628V66.656H285.036V72.02C285.036 72.356 285.192 72.524 285.504 72.524H287.124V74H284.82C284.388 74 284.034 73.862 283.758 73.586C283.482 73.298 283.344 72.932 283.344 72.488V66.656H280.896V65.18ZM288.925 70.472C288.925 69.236 289.555 68.144 290.815 67.196V66.962C290.203 66.17 289.897 65.366 289.897 64.55V64.442C289.897 63.446 290.245 62.648 290.941 62.048C291.637 61.448 292.525 61.148 293.605 61.148C294.697 61.148 295.585 61.46 296.269 62.084C296.965 62.708 297.313 63.548 297.313 64.604V65.072H295.513V64.658C295.513 64.082 295.339 63.632 294.991 63.308C294.643 62.972 294.169 62.804 293.569 62.804C293.005 62.804 292.549 62.96 292.201 63.272C291.865 63.572 291.697 63.974 291.697 64.478V64.55C291.697 64.898 291.793 65.246 291.985 65.594C292.177 65.942 292.381 66.236 292.597 66.476C292.813 66.704 293.191 67.082 293.731 67.61L296.071 69.914H296.323L298.177 66.674H300.085L297.547 71.102V71.354L300.229 74H297.853L296.575 72.758H296.323C295.375 73.766 294.253 74.27 292.957 74.27C291.757 74.27 290.785 73.91 290.041 73.19C289.297 72.47 288.925 71.564 288.925 70.472ZM290.725 70.472C290.725 71.048 290.923 71.552 291.319 71.984C291.727 72.404 292.273 72.614 292.957 72.614C293.809 72.614 294.547 72.284 295.171 71.624V71.372L292.165 68.438H291.931C291.127 68.978 290.725 69.632 290.725 70.4V70.472ZM302.023 61.4H310.087V63.056H303.823V66.854H309.583V68.51H303.823V72.344H310.159V74H302.023V61.4ZM311.679 65.18H313.695L316.071 68.42H316.287L318.663 65.18H320.679L317.367 69.464L320.823 74H318.789L316.287 70.544H316.071L313.569 74H311.535L314.991 69.464L311.679 65.18ZM322.738 77.6V65.18H324.394V66.566H324.646C325.306 65.474 326.314 64.928 327.67 64.928C328.846 64.928 329.83 65.366 330.622 66.242C331.414 67.118 331.81 68.234 331.81 69.59C331.81 70.946 331.414 72.062 330.622 72.938C329.83 73.814 328.846 74.252 327.67 74.252C326.314 74.252 325.306 73.706 324.646 72.614H324.43V77.6H322.738ZM325.186 71.894C325.69 72.458 326.374 72.74 327.238 72.74C328.102 72.74 328.798 72.464 329.326 71.912C329.854 71.348 330.118 70.574 330.118 69.59C330.118 68.606 329.854 67.838 329.326 67.286C328.798 66.722 328.102 66.44 327.238 66.44C326.374 66.44 325.69 66.722 325.186 67.286C324.682 67.85 324.43 68.618 324.43 69.59C324.43 70.562 324.682 71.33 325.186 71.894ZM334.641 72.938C333.789 72.062 333.363 70.946 333.363 69.59C333.363 68.234 333.789 67.118 334.641 66.242C335.505 65.366 336.591 64.928 337.899 64.928C339.207 64.928 340.287 65.366 341.139 66.242C342.003 67.118 342.435 68.234 342.435 69.59C342.435 70.946 342.003 72.062 341.139 72.938C340.287 73.814 339.207 74.252 337.899 74.252C336.591 74.252 335.505 73.814 334.641 72.938ZM335.829 67.322C335.313 67.874 335.055 68.63 335.055 69.59C335.055 70.55 335.313 71.312 335.829 71.876C336.357 72.428 337.047 72.704 337.899 72.704C338.751 72.704 339.435 72.428 339.951 71.876C340.479 71.312 340.743 70.55 340.743 69.59C340.743 68.63 340.479 67.874 339.951 67.322C339.435 66.758 338.751 66.476 337.899 66.476C337.047 66.476 336.357 66.758 335.829 67.322ZM346.18 65.18V66.62H346.432C346.756 65.636 347.524 65.144 348.736 65.144H349.744V66.8H348.196C347.56 66.8 347.074 66.98 346.738 67.34C346.414 67.688 346.252 68.192 346.252 68.852V74H344.56V65.18H346.18ZM350.764 65.18H353.212V62.12H354.904V65.18H357.496V66.656H354.904V72.02C354.904 72.356 355.06 72.524 355.372 72.524H356.992V74H354.688C354.256 74 353.902 73.862 353.626 73.586C353.35 73.298 353.212 72.932 353.212 72.488V66.656H350.764V65.18Z" fill="#1B317C"/>
</svg>
