<svg width="37" height="37" viewBox="0 0 37 37" fill="none" xmlns="http://www.w3.org/2000/svg">
<rect x="5" y="20" width="23" height="10" rx="1" fill="#C1F2B0"/>
<path d="M28.9294 11.1799C28.4467 10.6627 27.6628 10.6627 27.1804 11.1799L16.1301 23.0113L11.3616 17.9054C10.8782 17.3879 10.0953 17.3879 9.61226 17.9054C9.12925 18.4226 9.12925 19.2613 9.61226 19.7781L15.2557 25.8206C15.4972 26.0792 15.8138 26.2087 16.1305 26.2087C16.4471 26.2087 16.7634 26.0792 17.0053 25.8206L28.9297 13.0529C29.4124 12.5357 29.4124 11.6974 28.9294 11.1799Z" fill="white"/>
<path d="M27.3874 11.1799C26.9047 10.6627 26.1208 10.6627 25.6384 11.1799L14.5882 23.0113L9.81957 17.9054C9.33624 17.3879 8.55328 17.3879 8.07027 17.9054C7.58725 18.4226 7.58725 19.2613 8.07027 19.7781L13.7137 25.8206C13.9552 26.0792 14.2718 26.2087 14.5885 26.2087C14.9051 26.2087 15.2215 26.0792 15.4633 25.8206L27.3877 13.0529C27.8704 12.5357 27.8704 11.6974 27.3874 11.1799Z" fill="#1C6D00"/>
</svg>
