<svg width="65" height="54" viewBox="0 0 65 54" fill="none" xmlns="http://www.w3.org/2000/svg">
<rect width="65" height="54" rx="9" fill="#F2EBB0"/>
<path fill-rule="evenodd" clip-rule="evenodd" d="M25.2941 14.5556C25.2941 13.6964 24.6028 13 23.75 13C22.8972 13 22.2059 13.6964 22.2059 14.5556V25.3186L17.636 20.7149C17.033 20.1074 16.0553 20.1074 15.4523 20.7149C14.8492 21.3224 14.8492 22.3073 15.4523 22.9148L22.6581 30.174C22.8062 30.3232 22.9768 30.4357 23.1589 30.5116C23.3362 30.5857 23.5302 30.6274 23.7336 30.6295L23.75 30.6296L23.7664 30.6295C24.1561 30.6254 24.5445 30.4736 24.8419 30.174L32.0477 22.9148C32.6508 22.3073 32.6508 21.3224 32.0477 20.7149C31.4447 20.1074 30.467 20.1074 29.864 20.7149L25.2941 25.3186L25.2941 14.5556ZM41.25 23.3704C42.1028 23.3704 42.7941 24.0668 42.7941 24.9259L42.7941 35.689L47.364 31.0852C47.967 30.4778 48.9447 30.4778 49.5477 31.0852C50.1508 31.6927 50.1508 32.6776 49.5477 33.2851L42.3419 40.5444C42.1938 40.6935 42.0232 40.8061 41.8411 40.882C41.659 40.958 41.4594 41 41.25 41C41.0406 41 40.841 40.958 40.6589 40.882C40.4768 40.8061 40.3062 40.6935 40.1581 40.5444L32.9523 33.2851C32.3492 32.6776 32.3492 31.6927 32.9523 31.0852C33.5553 30.4778 34.533 30.4778 35.136 31.0852L39.7059 35.689V24.9259C39.7059 24.0668 40.3972 23.3704 41.25 23.3704Z" fill="#796D00"/>
</svg>
