<svg width="76" height="76" viewBox="0 0 76 76" fill="none" xmlns="http://www.w3.org/2000/svg">
<g clip-path="url(#clip0)">
<path d="M72.8712 31.7519L71.8936 31.0207C70.676 30.1092 70.244 28.4961 70.8424 27.0982L71.3237 25.9762C72.3013 23.6934 72.1499 21.1508 70.9085 19.0008C69.6665 16.8502 67.5409 15.4476 65.0748 15.1537L63.863 15.0087C62.3525 14.8284 61.1714 13.6473 60.9911 12.1374L60.8467 10.925C60.5522 8.45953 59.1496 6.3333 56.9996 5.09188C54.849 3.84989 52.3064 3.69855 50.0242 4.67672L48.9017 5.1574C47.5037 5.75637 45.8906 5.32381 44.9791 4.10617L44.2479 3.12916C42.7601 1.14092 40.4831 0.000976562 37.9997 0.000976562C35.5163 0.000976562 33.2393 1.14092 31.7515 3.12916L31.0197 4.10617C30.1082 5.32439 28.4957 5.75637 27.0972 5.1574L25.9752 4.67672C23.6924 3.69913 21.1499 3.84989 18.9999 5.09188C16.8493 6.3333 15.4467 8.45953 15.1527 10.925L15.0077 12.1368C14.8274 13.6473 13.6463 14.8284 12.1358 15.0087L10.924 15.1537C8.45855 15.4476 6.33232 16.8502 5.0909 19.0008C3.84891 21.1508 3.69815 23.6934 4.67574 25.9762L5.15642 27.0982C5.75539 28.4961 5.32283 30.1092 4.10519 31.0207L3.12818 31.7519C1.14052 33.2397 0 35.5173 0 38.0001C0 40.4835 1.14052 42.7611 3.12818 44.2489L4.10577 44.9801C5.32341 45.8916 5.75539 47.5047 5.157 48.9027L4.67574 50.0246C3.69815 52.3074 3.84949 54.85 5.0909 57C6.3329 59.1506 8.45855 60.5532 10.9246 60.8471L12.1364 60.9921C13.6469 61.1724 14.828 62.3535 15.0083 63.8634L15.1527 65.0758C15.4472 67.5413 16.8498 69.6675 18.9999 70.9089C21.1504 72.1503 23.693 72.3017 25.9752 71.3241L27.0977 70.8434C28.4957 70.2444 30.1088 70.677 31.0203 71.8946L31.7515 72.8717C33.2393 74.8599 35.5169 76.0004 38.0003 76.0004C40.4831 76.0004 42.7607 74.8599 44.2485 72.8717L44.9797 71.8946C45.8912 70.677 47.5037 70.2444 48.9028 70.844L50.0248 71.3241C52.307 72.3017 54.8495 72.1509 57.0001 70.9095C59.1501 69.6675 60.5527 67.5413 60.8473 65.0758L60.9917 63.864C61.172 62.3535 62.3531 61.1724 63.8636 60.9921L65.0754 60.8477C67.5409 60.5532 69.6677 59.1506 70.9091 57.0006C72.1505 54.85 72.3018 52.3074 71.3237 50.0246L70.8436 48.9032C70.2446 47.5047 70.6766 45.8916 71.8948 44.9801L72.8718 44.2489C74.86 42.7611 76 40.4835 76 38.0007C75.9994 35.5173 74.8589 33.2397 72.8712 31.7519ZM71.0923 41.8722L70.1153 42.6034C67.7966 44.3382 66.9732 47.4096 68.1143 50.0722L68.5944 51.1936C69.2003 52.6078 69.1064 54.1832 68.3375 55.5156C67.5681 56.8486 66.2507 57.7172 64.7229 57.8999L63.511 58.0442C60.6351 58.3875 58.3871 60.6361 58.0438 63.512L57.8989 64.7239C57.7162 66.2517 56.8476 67.5691 55.5152 68.3385C54.1827 69.1074 52.6073 69.2013 51.1931 68.5954L50.0712 68.1147C47.4086 66.9742 44.3378 67.7976 42.6024 70.1163L41.8712 71.0933C40.9493 72.3249 39.538 73.0317 37.9997 73.0317C36.4608 73.0317 35.0495 72.3249 34.1276 71.0933L33.3964 70.1163C32.184 68.4957 30.3193 67.6056 28.3977 67.6056C27.5692 67.6056 26.7301 67.7715 25.9282 68.1147L24.8063 68.5954C23.3915 69.2013 21.8167 69.1074 20.4836 68.3385C19.1512 67.5691 18.2826 66.2517 18.1 64.7239L17.9556 63.512C17.6117 60.6361 15.3637 58.3881 12.4878 58.0448L11.2759 57.8999C9.74809 57.7172 8.43072 56.8486 7.66129 55.5162C6.89243 54.1837 6.7985 52.6083 7.40442 51.1941L7.8851 50.0722C9.02563 47.4102 8.20227 44.3388 5.88411 42.6034L4.90652 41.8722C3.67496 40.9503 2.96873 39.539 2.96873 38.0001C2.96873 36.4618 3.67496 35.0505 4.9071 34.1286L5.88411 33.3974C8.20285 31.662 9.02621 28.5906 7.8851 25.9286L7.405 24.8067C6.79908 23.3925 6.89301 21.8171 7.66187 20.4846C8.4313 19.1522 9.74867 18.2836 11.2765 18.1009L12.4884 17.956C15.3643 17.6127 17.6123 15.3647 17.9556 12.4888L18.1005 11.2769C18.2832 9.74907 19.1518 8.4317 20.4842 7.66227C21.8167 6.89283 23.3921 6.79948 24.8063 7.4054L25.9282 7.8855C28.5902 9.02603 31.6616 8.20325 33.397 5.88451L34.1282 4.9075C35.0501 3.67594 36.4614 2.96912 37.9997 2.96912C39.538 2.96912 40.9493 3.67594 41.8712 4.9075L42.603 5.88509C44.3378 8.20383 47.4098 9.02661 50.0712 7.88608L51.1931 7.4054C52.6073 6.79948 54.1827 6.89341 55.5152 7.66227C56.8476 8.4317 57.7168 9.74907 57.8989 11.2769L58.0438 12.4888C58.3871 15.3647 60.6357 17.6127 63.511 17.956L64.7229 18.1009C66.2507 18.2836 67.5681 19.1522 68.3375 20.4846C69.107 21.8171 69.2003 23.3925 68.595 24.8067L68.1143 25.9286C66.9738 28.5912 67.7966 31.662 70.1153 33.3974L71.0923 34.1286C72.3244 35.0505 73.0307 36.4618 73.0307 38.0007C73.0307 39.539 72.3244 40.9503 71.0923 41.8722Z" fill="#81760E"/>
<path d="M37.9994 8.62793C33.5214 8.62793 29.2213 9.61016 25.2194 11.5474C24.4812 11.9045 24.1728 12.7923 24.5294 13.5298C24.8865 14.2679 25.7748 14.5764 26.5124 14.2192C30.1079 12.4792 33.9725 11.5967 37.9994 11.5967C52.5583 11.5967 64.4031 23.4414 64.4031 38.0009C64.4031 52.5599 52.5583 64.4046 37.9994 64.4046C23.4399 64.4046 11.5951 52.5599 11.5951 38.0009C11.5951 32.0374 13.5346 26.4107 17.2044 21.7286C17.71 21.0832 17.5969 20.1503 16.9516 19.6441C16.3062 19.1385 15.3733 19.2521 14.8677 19.8969C10.7851 25.1073 8.62695 31.3671 8.62695 38.0009C8.62695 54.1967 21.8036 67.3734 37.9994 67.3734C54.1952 67.3734 67.3718 54.1967 67.3718 38.0009C67.3718 21.8046 54.1952 8.62793 37.9994 8.62793Z" fill="#81760E"/>
<path d="M63.4372 23.3142C61.1982 19.4361 58.1975 16.2033 54.5189 13.7061C53.8405 13.2455 52.9175 13.4222 52.457 14.0998C51.9964 14.7782 52.1734 15.7017 52.8515 16.1618C56.1562 18.4056 58.8527 21.3112 60.8662 24.7986C68.1457 37.407 63.8102 53.5872 51.2013 60.867C38.5929 68.1465 22.4126 63.811 15.1331 51.2026C7.85338 38.5937 12.1889 22.4134 24.7973 15.1339C29.9619 12.1522 35.8045 11.0185 41.6942 11.8555C42.5059 11.9707 43.2573 11.4064 43.373 10.5944C43.4882 9.78267 42.9233 9.03154 42.1121 8.91606C35.5585 7.98561 29.0583 9.24654 23.3132 12.5635C9.28723 20.6614 4.46425 38.661 12.5621 52.6869C20.66 66.7129 38.6597 71.5359 52.6856 63.438C66.7121 55.3398 71.5351 37.3402 63.4372 23.3142Z" fill="#81760E"/>
<path d="M20.1686 31.4664L19.2556 32.6497C18.8469 33.1794 18.9382 33.9453 19.4588 34.3603C19.9799 34.7758 20.7333 34.6835 21.1415 34.1537L21.643 33.5045V41.5631H20.8405C20.1784 41.5631 19.6419 42.1085 19.6419 42.7815C19.6419 43.4545 20.1784 44 20.8405 44H24.8014C25.463 44 26 43.4545 26 42.7815C26 42.1085 25.463 41.5631 24.8014 41.5631H24.0401V32.2185C24.0401 31.5455 23.5031 31 22.8415 31H21.1116C20.7436 31 20.3957 31.1718 20.1686 31.4664Z" fill="#81760E"/>
<path d="M29.6807 44H30.3193C32.349 44 34 42.3886 34 40.4075V34.593C34 32.6119 32.3485 31 30.3193 31H29.6807C27.651 31 26 32.6119 26 34.593V40.4075C26 42.3886 27.651 44 29.6807 44ZM28.458 34.593C28.458 33.9347 29.0067 33.3991 29.6807 33.3991H30.3193C30.9933 33.3991 31.542 33.9347 31.542 34.593V40.4075C31.542 41.0653 30.9933 41.6009 30.3193 41.6009H29.6807C29.0067 41.6009 28.458 41.0653 28.458 40.4075V34.593Z" fill="#81760E"/>
<path d="M40.3193 44C42.349 44 44 42.3886 44 40.4075V34.593C44 32.6119 42.3485 31 40.3193 31H39.6807C37.651 31 36 32.6119 36 34.593V40.4075C36 42.3886 37.651 44 39.6807 44H40.3193ZM38.458 40.4075V34.593C38.458 33.9347 39.0067 33.3991 39.6807 33.3991H40.3193C40.9933 33.3991 41.542 33.9347 41.542 34.593V40.4075C41.542 41.0653 40.9933 41.6009 40.3193 41.6009H39.6807C39.0067 41.6009 38.458 41.0658 38.458 40.4075Z" fill="#81760E"/>
<path d="M56.4575 30.2492C55.8696 29.826 55.0462 29.9548 54.6182 30.537L46.252 41.9292C45.8241 42.5119 45.9542 43.3272 46.5426 43.7504C46.7762 43.9185 47.0472 44 47.3157 44C47.7225 44 48.1242 43.8136 48.3819 43.4627L56.7481 32.0704C57.176 31.4883 57.0454 30.6729 56.4575 30.2492Z" fill="#81760E"/>
<path d="M48.0002 30C46.346 30 45 31.3455 45 32.9998C45 34.654 46.346 36 48.0002 36C49.654 36 51 34.654 51 32.9998C51 31.3455 49.654 30 48.0002 30ZM48.0002 33.4504C47.7518 33.4504 47.5496 33.2482 47.5496 32.9998C47.5496 32.7513 47.7518 32.5491 48.0002 32.5491C48.2487 32.5491 48.4504 32.7513 48.4504 32.9998C48.4504 33.2482 48.2487 33.4504 48.0002 33.4504Z" fill="#81760E"/>
<path d="M52 41C52 42.6541 53.346 44 54.9998 44C56.654 44 58 42.6541 58 41C58 39.3459 56.654 38 54.9998 38C53.346 38 52 39.3459 52 41ZM55.4504 41C55.4504 41.2485 55.2487 41.4506 55.0002 41.4506C54.7518 41.4506 54.5496 41.2485 54.5496 41C54.5496 40.7515 54.7518 40.5494 55.0002 40.5494C55.2487 40.5494 55.4504 40.7515 55.4504 41Z" fill="#81760E"/>
</g>
<defs>
<clipPath id="clip0">
<rect width="76" height="76" fill="white"/>
</clipPath>
</defs>
</svg>
