<svg width="705" height="525" viewBox="0 0 705 525" fill="none" xmlns="http://www.w3.org/2000/svg">
<mask id="mask0" mask-type="alpha" maskUnits="userSpaceOnUse" x="30" y="0" width="675" height="525">
<rect x="30" width="675" height="525" fill="#C4C4C4"/>
</mask>
<g mask="url(#mask0)">
<path d="M637 313C637 479.75 501.346 614.933 334 614.933C166.654 614.933 31 479.75 31 313C31 146.25 166.654 11.0664 334 11.0664C501.346 11.0664 637 146.25 637 313Z" stroke="#2550E5" stroke-opacity="0.05" stroke-width="2"/>
<path d="M514.972 312.999C514.972 412.591 433.951 493.333 334 493.333C234.049 493.333 153.028 412.591 153.028 312.999C153.028 213.407 234.049 132.666 334 132.666C433.951 132.666 514.972 213.407 514.972 312.999Z" stroke="#2550E5" stroke-opacity="0.2" stroke-width="2"/>
<path d="M574.916 312.999C574.916 445.581 467.058 553.066 334 553.066C200.943 553.066 93.085 445.581 93.085 312.999C93.085 180.417 200.943 72.9326 334 72.9326C467.058 72.9326 574.916 180.417 574.916 312.999Z" stroke="#2550E5" stroke-opacity="0.06" stroke-width="2"/>
</g>
<rect x="376" y="254" width="164" height="41" rx="6" fill="#EFF2FC"/>
<path d="M387.481 268.4H391.369C393.001 268.4 394.261 268.814 395.149 269.642C396.037 270.47 396.481 271.688 396.481 273.296V276.104C396.481 277.712 396.037 278.93 395.149 279.758C394.261 280.586 393.001 281 391.369 281H387.481V268.4ZM389.281 270.056V279.344H391.333C392.449 279.344 393.283 279.08 393.835 278.552C394.399 278.024 394.681 277.196 394.681 276.068V273.332C394.681 272.204 394.399 271.376 393.835 270.848C393.283 270.32 392.449 270.056 391.333 270.056H389.281ZM398.481 270.434C398.217 270.17 398.085 269.852 398.085 269.48C398.085 269.108 398.217 268.796 398.481 268.544C398.745 268.28 399.069 268.148 399.453 268.148C399.837 268.148 400.161 268.28 400.425 268.544C400.689 268.796 400.821 269.108 400.821 269.48C400.821 269.852 400.689 270.17 400.425 270.434C400.161 270.686 399.837 270.812 399.453 270.812C399.069 270.812 398.745 270.686 398.481 270.434ZM400.299 272.18V281H398.607V272.18H400.299ZM409.665 272.18H411.321V280.73C411.321 281.93 410.925 282.914 410.133 283.682C409.341 284.462 408.291 284.852 406.983 284.852C405.027 284.852 403.497 284.036 402.393 282.404L403.905 281.522C404.541 282.734 405.531 283.34 406.875 283.34C407.715 283.34 408.381 283.112 408.873 282.656C409.377 282.2 409.629 281.528 409.629 280.64V279.398H409.413C408.753 280.49 407.745 281.036 406.389 281.036C405.213 281.036 404.229 280.61 403.437 279.758C402.645 278.906 402.249 277.814 402.249 276.482C402.249 275.15 402.645 274.058 403.437 273.206C404.229 272.354 405.213 271.928 406.389 271.928C407.745 271.928 408.753 272.474 409.413 273.566H409.665V272.18ZM404.733 278.732C405.261 279.26 405.957 279.524 406.821 279.524C407.685 279.524 408.369 279.254 408.873 278.714C409.377 278.174 409.629 277.43 409.629 276.482C409.629 275.534 409.377 274.79 408.873 274.25C408.369 273.71 407.685 273.44 406.821 273.44C405.957 273.44 405.261 273.71 404.733 274.25C404.205 274.778 403.941 275.522 403.941 276.482C403.941 277.442 404.205 278.192 404.733 278.732ZM413.721 270.434C413.457 270.17 413.325 269.852 413.325 269.48C413.325 269.108 413.457 268.796 413.721 268.544C413.985 268.28 414.309 268.148 414.693 268.148C415.077 268.148 415.401 268.28 415.665 268.544C415.929 268.796 416.061 269.108 416.061 269.48C416.061 269.852 415.929 270.17 415.665 270.434C415.401 270.686 415.077 270.812 414.693 270.812C414.309 270.812 413.985 270.686 413.721 270.434ZM415.539 272.18V281H413.847V272.18H415.539ZM417.058 272.18H419.506V269.12H421.198V272.18H423.79V273.656H421.198V279.02C421.198 279.356 421.354 279.524 421.666 279.524H423.286V281H420.982C420.55 281 420.196 280.862 419.92 280.586C419.644 280.298 419.506 279.932 419.506 279.488V273.656H417.058V272.18ZM425.266 274.502C425.614 273.758 426.142 273.146 426.85 272.666C427.57 272.174 428.44 271.928 429.46 271.928C430.648 271.928 431.596 272.246 432.304 272.882C433.012 273.518 433.366 274.37 433.366 275.438V281H431.71V279.614H431.458C431.242 280.082 430.876 280.472 430.36 280.784C429.844 281.096 429.172 281.252 428.344 281.252C427.36 281.252 426.568 281.006 425.968 280.514C425.38 280.022 425.086 279.38 425.086 278.588C425.086 277.016 426.208 276.122 428.452 275.906L431.71 275.6V275.366C431.71 274.766 431.506 274.298 431.098 273.962C430.702 273.614 430.144 273.44 429.424 273.44C428.092 273.44 427.192 274.016 426.724 275.168L425.266 274.502ZM426.796 278.516C426.796 278.936 426.958 279.266 427.282 279.506C427.606 279.734 428.056 279.848 428.632 279.848C429.628 279.848 430.39 279.59 430.918 279.074C431.446 278.546 431.71 277.88 431.71 277.076V276.932L428.632 277.22C427.408 277.328 426.796 277.76 426.796 278.516ZM437.476 268.4V281H435.784V268.4H437.476ZM445.436 268.4H448.676L451.88 279.128H452.096L455.3 268.4H458.54V281H456.74V270.308H456.524L453.338 281H450.638L447.452 270.308H447.236V281H445.436V268.4ZM460.809 274.502C461.157 273.758 461.685 273.146 462.393 272.666C463.113 272.174 463.983 271.928 465.003 271.928C466.191 271.928 467.139 272.246 467.847 272.882C468.555 273.518 468.909 274.37 468.909 275.438V281H467.253V279.614H467.001C466.785 280.082 466.419 280.472 465.903 280.784C465.387 281.096 464.715 281.252 463.887 281.252C462.903 281.252 462.111 281.006 461.511 280.514C460.923 280.022 460.629 279.38 460.629 278.588C460.629 277.016 461.751 276.122 463.995 275.906L467.253 275.6V275.366C467.253 274.766 467.049 274.298 466.641 273.962C466.245 273.614 465.687 273.44 464.967 273.44C463.635 273.44 462.735 274.016 462.267 275.168L460.809 274.502ZM462.339 278.516C462.339 278.936 462.501 279.266 462.825 279.506C463.149 279.734 463.599 279.848 464.175 279.848C465.171 279.848 465.933 279.59 466.461 279.074C466.989 278.546 467.253 277.88 467.253 277.076V276.932L464.175 277.22C462.951 277.328 462.339 277.76 462.339 278.516ZM472.947 272.18V273.62H473.199C473.523 272.636 474.291 272.144 475.503 272.144H476.511V273.8H474.963C474.327 273.8 473.841 273.98 473.505 274.34C473.181 274.688 473.019 275.192 473.019 275.852V281H471.327V272.18H472.947ZM486.879 272.18L482.829 275.582L486.807 281H484.773L481.605 276.626L479.787 278.138V281H478.095V268.4H479.787V275.906H480.003L484.395 272.18H486.879ZM487.099 276.518C487.099 275.21 487.513 274.112 488.341 273.224C489.169 272.336 490.219 271.892 491.491 271.892C492.775 271.892 493.813 272.312 494.605 273.152C495.409 273.992 495.811 275.06 495.811 276.356V277.202H488.863C488.911 277.994 489.193 278.624 489.709 279.092C490.225 279.548 490.879 279.776 491.671 279.776C492.823 279.776 493.663 279.248 494.191 278.192L495.613 279.002C494.689 280.502 493.387 281.252 491.707 281.252C490.351 281.252 489.241 280.802 488.377 279.902C487.525 278.99 487.099 277.862 487.099 276.518ZM488.863 275.834H494.047C494.023 275.078 493.783 274.478 493.327 274.034C492.871 273.59 492.259 273.368 491.491 273.368C490.723 273.368 490.105 273.584 489.637 274.016C489.181 274.448 488.923 275.054 488.863 275.834ZM496.581 272.18H499.029V269.12H500.721V272.18H503.313V273.656H500.721V279.02C500.721 279.356 500.877 279.524 501.189 279.524H502.809V281H500.505C500.073 281 499.719 280.862 499.443 280.586C499.167 280.298 499.029 279.932 499.029 279.488V273.656H496.581V272.18ZM504.413 276.518C504.413 275.21 504.827 274.112 505.655 273.224C506.483 272.336 507.533 271.892 508.805 271.892C510.089 271.892 511.127 272.312 511.919 273.152C512.723 273.992 513.125 275.06 513.125 276.356V277.202H506.177C506.225 277.994 506.507 278.624 507.023 279.092C507.539 279.548 508.193 279.776 508.985 279.776C510.137 279.776 510.977 279.248 511.505 278.192L512.927 279.002C512.003 280.502 510.701 281.252 509.021 281.252C507.665 281.252 506.555 280.802 505.691 279.902C504.839 278.99 504.413 277.862 504.413 276.518ZM506.177 275.834H511.361C511.337 275.078 511.097 274.478 510.641 274.034C510.185 273.59 509.573 273.368 508.805 273.368C508.037 273.368 507.419 273.584 506.951 274.016C506.495 274.448 506.237 275.054 506.177 275.834ZM516.611 272.18V273.62H516.863C517.187 272.636 517.955 272.144 519.167 272.144H520.175V273.8H518.627C517.991 273.8 517.505 273.98 517.169 274.34C516.845 274.688 516.683 275.192 516.683 275.852V281H514.991V272.18H516.611ZM521.403 274.538C521.403 273.734 521.727 273.098 522.375 272.63C523.023 272.162 523.821 271.928 524.769 271.928C525.645 271.928 526.413 272.108 527.073 272.468C527.745 272.816 528.435 273.386 529.143 274.178L527.883 275.078C526.983 273.914 525.957 273.332 524.805 273.332C524.301 273.332 523.887 273.44 523.563 273.656C523.239 273.86 523.077 274.148 523.077 274.52C523.077 274.724 523.119 274.892 523.203 275.024C523.287 275.156 523.437 275.264 523.653 275.348C523.881 275.42 524.055 275.474 524.175 275.51C524.307 275.534 524.547 275.57 524.895 275.618L525.633 275.726C526.797 275.894 527.679 276.164 528.279 276.536C528.891 276.896 529.197 277.496 529.197 278.336C529.197 279.212 528.831 279.92 528.099 280.46C527.379 280.988 526.449 281.252 525.309 281.252C524.169 281.252 523.221 280.988 522.465 280.46C521.709 279.92 521.127 279.26 520.719 278.48L522.231 277.67C522.507 278.342 522.921 278.87 523.473 279.254C524.025 279.626 524.655 279.812 525.363 279.812C525.999 279.812 526.515 279.686 526.911 279.434C527.319 279.17 527.523 278.822 527.523 278.39C527.523 278.294 527.511 278.204 527.487 278.12C527.463 278.036 527.421 277.964 527.361 277.904C527.301 277.832 527.247 277.772 527.199 277.724C527.151 277.676 527.073 277.634 526.965 277.598C526.857 277.55 526.767 277.514 526.695 277.49C526.635 277.466 526.533 277.442 526.389 277.418C526.245 277.382 526.143 277.358 526.083 277.346C526.023 277.334 525.909 277.322 525.741 277.31C525.585 277.286 525.483 277.268 525.435 277.256L524.697 277.148C523.629 276.992 522.813 276.716 522.249 276.32C521.685 275.924 521.403 275.33 521.403 274.538Z" fill="#1B317C"/>
<rect x="348" y="121" width="93" height="41" rx="6" fill="#EFF2FC"/>
<path d="M362.3 135.4H365.144L369.086 148H367.178L366.26 144.976H361.184L360.266 148H358.358L362.3 135.4ZM361.67 143.32H365.774L363.83 136.984H363.614L361.67 143.32ZM382.565 135.544C382.829 135.28 383.153 135.148 383.537 135.148C383.921 135.148 384.245 135.28 384.509 135.544C384.773 135.796 384.905 136.108 384.905 136.48C384.905 136.852 384.773 137.17 384.509 137.434C384.245 137.686 383.921 137.812 383.537 137.812C383.153 137.812 382.829 137.686 382.565 137.434C382.301 137.17 382.169 136.852 382.169 136.48C382.169 136.108 382.301 135.796 382.565 135.544ZM379.091 139.18H384.383V148H382.691V140.656H379.091V148H377.399V140.656H373.799V148H372.107V140.656H369.659V139.18H372.107V136.948C372.107 136.48 372.245 136.108 372.521 135.832C372.797 135.544 373.163 135.4 373.619 135.4H375.851V136.876H374.267C373.955 136.876 373.799 137.044 373.799 137.38V139.18H377.399V136.948C377.399 136.48 377.537 136.108 377.813 135.832C378.089 135.544 378.455 135.4 378.911 135.4H380.963V136.876H379.559C379.247 136.876 379.091 137.044 379.091 137.38V139.18ZM388.601 135.4V148H386.909V135.4H388.601ZM391.002 137.434C390.738 137.17 390.606 136.852 390.606 136.48C390.606 136.108 390.738 135.796 391.002 135.544C391.266 135.28 391.59 135.148 391.974 135.148C392.358 135.148 392.682 135.28 392.946 135.544C393.21 135.796 393.342 136.108 393.342 136.48C393.342 136.852 393.21 137.17 392.946 137.434C392.682 137.686 392.358 137.812 391.974 137.812C391.59 137.812 391.266 137.686 391.002 137.434ZM392.82 139.18V148H391.128V139.18H392.82ZM395.059 141.502C395.407 140.758 395.935 140.146 396.643 139.666C397.363 139.174 398.233 138.928 399.253 138.928C400.441 138.928 401.389 139.246 402.097 139.882C402.805 140.518 403.159 141.37 403.159 142.438V148H401.503V146.614H401.251C401.035 147.082 400.669 147.472 400.153 147.784C399.637 148.096 398.965 148.252 398.137 148.252C397.153 148.252 396.361 148.006 395.761 147.514C395.173 147.022 394.879 146.38 394.879 145.588C394.879 144.016 396.001 143.122 398.245 142.906L401.503 142.6V142.366C401.503 141.766 401.299 141.298 400.891 140.962C400.495 140.614 399.937 140.44 399.217 140.44C397.885 140.44 396.985 141.016 396.517 142.168L395.059 141.502ZM396.589 145.516C396.589 145.936 396.751 146.266 397.075 146.506C397.399 146.734 397.849 146.848 398.425 146.848C399.421 146.848 400.183 146.59 400.711 146.074C401.239 145.546 401.503 144.88 401.503 144.076V143.932L398.425 144.22C397.201 144.328 396.589 144.76 396.589 145.516ZM404.394 139.18H406.842V136.12H408.534V139.18H411.126V140.656H408.534V146.02C408.534 146.356 408.69 146.524 409.002 146.524H410.622V148H408.318C407.886 148 407.532 147.862 407.256 147.586C406.98 147.298 406.842 146.932 406.842 146.488V140.656H404.394V139.18ZM412.226 143.518C412.226 142.21 412.64 141.112 413.468 140.224C414.296 139.336 415.346 138.892 416.618 138.892C417.902 138.892 418.94 139.312 419.732 140.152C420.536 140.992 420.938 142.06 420.938 143.356V144.202H413.99C414.038 144.994 414.32 145.624 414.836 146.092C415.352 146.548 416.006 146.776 416.798 146.776C417.95 146.776 418.79 146.248 419.318 145.192L420.74 146.002C419.816 147.502 418.514 148.252 416.834 148.252C415.478 148.252 414.368 147.802 413.504 146.902C412.652 145.99 412.226 144.862 412.226 143.518ZM413.99 142.834H419.174C419.15 142.078 418.91 141.478 418.454 141.034C417.998 140.59 417.386 140.368 416.618 140.368C415.85 140.368 415.232 140.584 414.764 141.016C414.308 141.448 414.05 142.054 413.99 142.834ZM422.554 141.538C422.554 140.734 422.878 140.098 423.526 139.63C424.174 139.162 424.972 138.928 425.92 138.928C426.796 138.928 427.564 139.108 428.224 139.468C428.896 139.816 429.586 140.386 430.294 141.178L429.034 142.078C428.134 140.914 427.108 140.332 425.956 140.332C425.452 140.332 425.038 140.44 424.714 140.656C424.39 140.86 424.228 141.148 424.228 141.52C424.228 141.724 424.27 141.892 424.354 142.024C424.438 142.156 424.588 142.264 424.804 142.348C425.032 142.42 425.206 142.474 425.326 142.51C425.458 142.534 425.698 142.57 426.046 142.618L426.784 142.726C427.948 142.894 428.83 143.164 429.43 143.536C430.042 143.896 430.348 144.496 430.348 145.336C430.348 146.212 429.982 146.92 429.25 147.46C428.53 147.988 427.6 148.252 426.46 148.252C425.32 148.252 424.372 147.988 423.616 147.46C422.86 146.92 422.278 146.26 421.87 145.48L423.382 144.67C423.658 145.342 424.072 145.87 424.624 146.254C425.176 146.626 425.806 146.812 426.514 146.812C427.15 146.812 427.666 146.686 428.062 146.434C428.47 146.17 428.674 145.822 428.674 145.39C428.674 145.294 428.662 145.204 428.638 145.12C428.614 145.036 428.572 144.964 428.512 144.904C428.452 144.832 428.398 144.772 428.35 144.724C428.302 144.676 428.224 144.634 428.116 144.598C428.008 144.55 427.918 144.514 427.846 144.49C427.786 144.466 427.684 144.442 427.54 144.418C427.396 144.382 427.294 144.358 427.234 144.346C427.174 144.334 427.06 144.322 426.892 144.31C426.736 144.286 426.634 144.268 426.586 144.256L425.848 144.148C424.78 143.992 423.964 143.716 423.4 143.32C422.836 142.924 422.554 142.33 422.554 141.538Z" fill="#1B317C"/>
<rect y="281" width="108" height="41" rx="6" fill="#EBF5F4"/>
<path d="M11.7814 295.4H16.6774C17.8294 295.4 18.7654 295.748 19.4854 296.444C20.2054 297.128 20.5654 298.04 20.5654 299.18C20.5654 300.308 20.1994 301.22 19.4674 301.916C18.7474 302.612 17.8174 302.96 16.6774 302.96H13.5814V308H11.7814V295.4ZM13.5814 297.056V301.304H16.4794C17.2114 301.304 17.7754 301.124 18.1714 300.764C18.5674 300.392 18.7654 299.864 18.7654 299.18C18.7654 298.496 18.5674 297.974 18.1714 297.614C17.7874 297.242 17.2234 297.056 16.4794 297.056H13.5814ZM30.5002 308H28.8442V306.506H28.5922C28.0402 307.598 27.0502 308.144 25.6222 308.144C24.6382 308.144 23.8162 307.826 23.1562 307.19C22.5082 306.554 22.1842 305.654 22.1842 304.49V299.18H23.8762V304.346C23.8762 305.102 24.0682 305.678 24.4522 306.074C24.8482 306.47 25.4122 306.668 26.1442 306.668C26.9722 306.668 27.6202 306.416 28.0882 305.912C28.5682 305.408 28.8082 304.7 28.8082 303.788V299.18H30.5002V308ZM33.0149 295.4H34.7069V300.566H34.9229C35.5829 299.474 36.5909 298.928 37.9469 298.928C39.1229 298.928 40.1069 299.366 40.8989 300.242C41.6909 301.118 42.0869 302.234 42.0869 303.59C42.0869 304.946 41.6909 306.062 40.8989 306.938C40.1069 307.814 39.1229 308.252 37.9469 308.252C36.5909 308.252 35.5829 307.706 34.9229 306.614H34.6709V308H33.0149V295.4ZM39.6029 301.286C39.0749 300.722 38.3789 300.44 37.5149 300.44C36.6509 300.44 35.9669 300.722 35.4629 301.286C34.9589 301.85 34.7069 302.618 34.7069 303.59C34.7069 304.562 34.9589 305.33 35.4629 305.894C35.9669 306.458 36.6509 306.74 37.5149 306.74C38.3789 306.74 39.0749 306.464 39.6029 305.912C40.1309 305.348 40.3949 304.574 40.3949 303.59C40.3949 302.606 40.1309 301.838 39.6029 301.286ZM45.7284 295.4V308H44.0364V295.4H45.7284ZM48.1291 297.434C47.8651 297.17 47.7331 296.852 47.7331 296.48C47.7331 296.108 47.8651 295.796 48.1291 295.544C48.3931 295.28 48.7171 295.148 49.1011 295.148C49.4851 295.148 49.8091 295.28 50.0731 295.544C50.3371 295.796 50.4691 296.108 50.4691 296.48C50.4691 296.852 50.3371 297.17 50.0731 297.434C49.8091 297.686 49.4851 297.812 49.1011 297.812C48.7171 297.812 48.3931 297.686 48.1291 297.434ZM49.9471 299.18V308H48.2551V299.18H49.9471ZM52.2939 301.538C52.2939 300.734 52.6179 300.098 53.2659 299.63C53.9139 299.162 54.7119 298.928 55.6599 298.928C56.5359 298.928 57.3039 299.108 57.9639 299.468C58.6359 299.816 59.3259 300.386 60.0339 301.178L58.7739 302.078C57.8739 300.914 56.8479 300.332 55.6959 300.332C55.1919 300.332 54.7779 300.44 54.4539 300.656C54.1299 300.86 53.9679 301.148 53.9679 301.52C53.9679 301.724 54.0099 301.892 54.0939 302.024C54.1779 302.156 54.3279 302.264 54.5439 302.348C54.7719 302.42 54.9459 302.474 55.0659 302.51C55.1979 302.534 55.4379 302.57 55.7859 302.618L56.5239 302.726C57.6879 302.894 58.5699 303.164 59.1699 303.536C59.7819 303.896 60.0879 304.496 60.0879 305.336C60.0879 306.212 59.7219 306.92 58.9899 307.46C58.2699 307.988 57.3399 308.252 56.1999 308.252C55.0599 308.252 54.1119 307.988 53.3559 307.46C52.5999 306.92 52.0179 306.26 51.6099 305.48L53.1219 304.67C53.3979 305.342 53.8119 305.87 54.3639 306.254C54.9159 306.626 55.5459 306.812 56.2539 306.812C56.8899 306.812 57.4059 306.686 57.8019 306.434C58.2099 306.17 58.4139 305.822 58.4139 305.39C58.4139 305.294 58.4019 305.204 58.3779 305.12C58.3539 305.036 58.3119 304.964 58.2519 304.904C58.1919 304.832 58.1379 304.772 58.0899 304.724C58.0419 304.676 57.9639 304.634 57.8559 304.598C57.7479 304.55 57.6579 304.514 57.5859 304.49C57.5259 304.466 57.4239 304.442 57.2799 304.418C57.1359 304.382 57.0339 304.358 56.9739 304.346C56.9139 304.334 56.7999 304.322 56.6319 304.31C56.4759 304.286 56.3739 304.268 56.3259 304.256L55.5879 304.148C54.5199 303.992 53.7039 303.716 53.1399 303.32C52.5759 302.924 52.2939 302.33 52.2939 301.538ZM61.9661 295.4H63.6581V300.674H63.8741C64.4261 299.582 65.4161 299.036 66.8441 299.036C67.8281 299.036 68.6441 299.354 69.2921 299.99C69.9521 300.626 70.2821 301.526 70.2821 302.69V308H68.5901V302.834C68.5901 302.078 68.3921 301.502 67.9961 301.106C67.6121 300.71 67.0541 300.512 66.3221 300.512C65.4941 300.512 64.8401 300.764 64.3601 301.268C63.8921 301.772 63.6581 302.48 63.6581 303.392V308H61.9661V295.4ZM72.1127 303.518C72.1127 302.21 72.5267 301.112 73.3547 300.224C74.1827 299.336 75.2327 298.892 76.5047 298.892C77.7887 298.892 78.8267 299.312 79.6187 300.152C80.4227 300.992 80.8247 302.06 80.8247 303.356V304.202H73.8767C73.9247 304.994 74.2067 305.624 74.7227 306.092C75.2387 306.548 75.8927 306.776 76.6847 306.776C77.8367 306.776 78.6767 306.248 79.2047 305.192L80.6267 306.002C79.7027 307.502 78.4007 308.252 76.7207 308.252C75.3647 308.252 74.2547 307.802 73.3907 306.902C72.5387 305.99 72.1127 304.862 72.1127 303.518ZM73.8767 302.834H79.0607C79.0367 302.078 78.7967 301.478 78.3407 301.034C77.8847 300.59 77.2727 300.368 76.5047 300.368C75.7367 300.368 75.1187 300.584 74.6507 301.016C74.1947 301.448 73.9367 302.054 73.8767 302.834ZM84.3107 299.18V300.62H84.5627C84.8867 299.636 85.6547 299.144 86.8667 299.144H87.8747V300.8H86.3267C85.6907 300.8 85.2047 300.98 84.8687 301.34C84.5447 301.688 84.3827 302.192 84.3827 302.852V308H82.6907V299.18H84.3107ZM89.1025 301.538C89.1025 300.734 89.4265 300.098 90.0745 299.63C90.7225 299.162 91.5205 298.928 92.4685 298.928C93.3445 298.928 94.1125 299.108 94.7725 299.468C95.4445 299.816 96.1345 300.386 96.8425 301.178L95.5825 302.078C94.6825 300.914 93.6565 300.332 92.5045 300.332C92.0005 300.332 91.5865 300.44 91.2625 300.656C90.9385 300.86 90.7765 301.148 90.7765 301.52C90.7765 301.724 90.8185 301.892 90.9025 302.024C90.9865 302.156 91.1365 302.264 91.3525 302.348C91.5805 302.42 91.7545 302.474 91.8745 302.51C92.0065 302.534 92.2465 302.57 92.5945 302.618L93.3325 302.726C94.4965 302.894 95.3785 303.164 95.9785 303.536C96.5905 303.896 96.8965 304.496 96.8965 305.336C96.8965 306.212 96.5305 306.92 95.7985 307.46C95.0785 307.988 94.1485 308.252 93.0085 308.252C91.8685 308.252 90.9205 307.988 90.1645 307.46C89.4085 306.92 88.8265 306.26 88.4185 305.48L89.9305 304.67C90.2065 305.342 90.6205 305.87 91.1725 306.254C91.7245 306.626 92.3545 306.812 93.0625 306.812C93.6985 306.812 94.2145 306.686 94.6105 306.434C95.0185 306.17 95.2225 305.822 95.2225 305.39C95.2225 305.294 95.2105 305.204 95.1865 305.12C95.1625 305.036 95.1205 304.964 95.0605 304.904C95.0005 304.832 94.9465 304.772 94.8985 304.724C94.8505 304.676 94.7725 304.634 94.6645 304.598C94.5565 304.55 94.4665 304.514 94.3945 304.49C94.3345 304.466 94.2325 304.442 94.0885 304.418C93.9445 304.382 93.8425 304.358 93.7825 304.346C93.7225 304.334 93.6085 304.322 93.4405 304.31C93.2845 304.286 93.1825 304.268 93.1345 304.256L92.3965 304.148C91.3285 303.992 90.5125 303.716 89.9485 303.32C89.3845 302.924 89.1025 302.33 89.1025 301.538Z" fill="#407C1B"/>
<rect x="30" y="169" width="113" height="41" rx="6" fill="#EBEFFC"/>
<path d="M41.6446 183.4H45.5326C47.1646 183.4 48.4246 183.814 49.3126 184.642C50.2006 185.47 50.6446 186.688 50.6446 188.296V191.104C50.6446 192.712 50.2006 193.93 49.3126 194.758C48.4246 195.586 47.1646 196 45.5326 196H41.6446V183.4ZM43.4446 185.056V194.344H45.4966C46.6126 194.344 47.4466 194.08 47.9986 193.552C48.5626 193.024 48.8446 192.196 48.8446 191.068V188.332C48.8446 187.204 48.5626 186.376 47.9986 185.848C47.4466 185.32 46.6126 185.056 45.4966 185.056H43.4446ZM52.1947 191.518C52.1947 190.21 52.6087 189.112 53.4367 188.224C54.2647 187.336 55.3147 186.892 56.5867 186.892C57.8707 186.892 58.9087 187.312 59.7007 188.152C60.5047 188.992 60.9067 190.06 60.9067 191.356V192.202H53.9587C54.0067 192.994 54.2887 193.624 54.8047 194.092C55.3207 194.548 55.9747 194.776 56.7667 194.776C57.9187 194.776 58.7587 194.248 59.2867 193.192L60.7087 194.002C59.7847 195.502 58.4827 196.252 56.8027 196.252C55.4467 196.252 54.3367 195.802 53.4727 194.902C52.6207 193.99 52.1947 192.862 52.1947 191.518ZM53.9587 190.834H59.1427C59.1187 190.078 58.8787 189.478 58.4227 189.034C57.9667 188.59 57.3547 188.368 56.5867 188.368C55.8187 188.368 55.2007 188.584 54.7327 189.016C54.2767 189.448 54.0187 190.054 53.9587 190.834ZM61.6969 187.18H63.5329L66.0889 194.38H66.3049L68.8609 187.18H70.6969L67.4029 196H64.9909L61.6969 187.18ZM71.5658 191.518C71.5658 190.21 71.9798 189.112 72.8078 188.224C73.6358 187.336 74.6858 186.892 75.9578 186.892C77.2418 186.892 78.2798 187.312 79.0718 188.152C79.8758 188.992 80.2778 190.06 80.2778 191.356V192.202H73.3298C73.3778 192.994 73.6598 193.624 74.1758 194.092C74.6918 194.548 75.3458 194.776 76.1378 194.776C77.2898 194.776 78.1298 194.248 78.6578 193.192L80.0798 194.002C79.1558 195.502 77.8538 196.252 76.1738 196.252C74.8178 196.252 73.7078 195.802 72.8438 194.902C71.9918 193.99 71.5658 192.862 71.5658 191.518ZM73.3298 190.834H78.5138C78.4898 190.078 78.2498 189.478 77.7938 189.034C77.3378 188.59 76.7258 188.368 75.9578 188.368C75.1898 188.368 74.5718 188.584 74.1038 189.016C73.6478 189.448 73.3898 190.054 73.3298 190.834ZM83.8358 183.4V196H82.1438V183.4H83.8358ZM87.0645 194.938C86.2125 194.062 85.7865 192.946 85.7865 191.59C85.7865 190.234 86.2125 189.118 87.0645 188.242C87.9285 187.366 89.0145 186.928 90.3225 186.928C91.6305 186.928 92.7105 187.366 93.5625 188.242C94.4265 189.118 94.8585 190.234 94.8585 191.59C94.8585 192.946 94.4265 194.062 93.5625 194.938C92.7105 195.814 91.6305 196.252 90.3225 196.252C89.0145 196.252 87.9285 195.814 87.0645 194.938ZM88.2525 189.322C87.7365 189.874 87.4785 190.63 87.4785 191.59C87.4785 192.55 87.7365 193.312 88.2525 193.876C88.7805 194.428 89.4705 194.704 90.3225 194.704C91.1745 194.704 91.8585 194.428 92.3745 193.876C92.9025 193.312 93.1665 192.55 93.1665 191.59C93.1665 190.63 92.9025 189.874 92.3745 189.322C91.8585 188.758 91.1745 188.476 90.3225 188.476C89.4705 188.476 88.7805 188.758 88.2525 189.322ZM96.8039 199.6V187.18H98.4599V188.566H98.7119C99.3719 187.474 100.38 186.928 101.736 186.928C102.912 186.928 103.896 187.366 104.688 188.242C105.48 189.118 105.876 190.234 105.876 191.59C105.876 192.946 105.48 194.062 104.688 194.938C103.896 195.814 102.912 196.252 101.736 196.252C100.38 196.252 99.3719 195.706 98.7119 194.614H98.4959V199.6H96.8039ZM99.2519 193.894C99.7559 194.458 100.44 194.74 101.304 194.74C102.168 194.74 102.864 194.464 103.392 193.912C103.92 193.348 104.184 192.574 104.184 191.59C104.184 190.606 103.92 189.838 103.392 189.286C102.864 188.722 102.168 188.44 101.304 188.44C100.44 188.44 99.7559 188.722 99.2519 189.286C98.7479 189.85 98.4959 190.618 98.4959 191.59C98.4959 192.562 98.7479 193.33 99.2519 193.894ZM107.249 191.518C107.249 190.21 107.663 189.112 108.491 188.224C109.319 187.336 110.369 186.892 111.641 186.892C112.925 186.892 113.963 187.312 114.755 188.152C115.559 188.992 115.961 190.06 115.961 191.356V192.202H109.013C109.061 192.994 109.343 193.624 109.859 194.092C110.375 194.548 111.029 194.776 111.821 194.776C112.973 194.776 113.813 194.248 114.341 193.192L115.763 194.002C114.839 195.502 113.537 196.252 111.857 196.252C110.501 196.252 109.391 195.802 108.527 194.902C107.675 193.99 107.249 192.862 107.249 191.518ZM109.013 190.834H114.197C114.173 190.078 113.933 189.478 113.477 189.034C113.021 188.59 112.409 188.368 111.641 188.368C110.873 188.368 110.255 188.584 109.787 189.016C109.331 189.448 109.073 190.054 109.013 190.834ZM119.447 187.18V188.62H119.699C120.023 187.636 120.791 187.144 122.003 187.144H123.011V188.8H121.463C120.827 188.8 120.341 188.98 120.005 189.34C119.681 189.688 119.519 190.192 119.519 190.852V196H117.827V187.18H119.447ZM124.239 189.538C124.239 188.734 124.563 188.098 125.211 187.63C125.859 187.162 126.657 186.928 127.605 186.928C128.481 186.928 129.249 187.108 129.909 187.468C130.581 187.816 131.271 188.386 131.979 189.178L130.719 190.078C129.819 188.914 128.793 188.332 127.641 188.332C127.137 188.332 126.723 188.44 126.399 188.656C126.075 188.86 125.913 189.148 125.913 189.52C125.913 189.724 125.955 189.892 126.039 190.024C126.123 190.156 126.273 190.264 126.489 190.348C126.717 190.42 126.891 190.474 127.011 190.51C127.143 190.534 127.383 190.57 127.731 190.618L128.469 190.726C129.633 190.894 130.515 191.164 131.115 191.536C131.727 191.896 132.033 192.496 132.033 193.336C132.033 194.212 131.667 194.92 130.935 195.46C130.215 195.988 129.285 196.252 128.145 196.252C127.005 196.252 126.057 195.988 125.301 195.46C124.545 194.92 123.963 194.26 123.555 193.48L125.067 192.67C125.343 193.342 125.757 193.87 126.309 194.254C126.861 194.626 127.491 194.812 128.199 194.812C128.835 194.812 129.351 194.686 129.747 194.434C130.155 194.17 130.359 193.822 130.359 193.39C130.359 193.294 130.347 193.204 130.323 193.12C130.299 193.036 130.257 192.964 130.197 192.904C130.137 192.832 130.083 192.772 130.035 192.724C129.987 192.676 129.909 192.634 129.801 192.598C129.693 192.55 129.603 192.514 129.531 192.49C129.471 192.466 129.369 192.442 129.225 192.418C129.081 192.382 128.979 192.358 128.919 192.346C128.859 192.334 128.745 192.322 128.577 192.31C128.421 192.286 128.319 192.268 128.271 192.256L127.533 192.148C126.465 191.992 125.649 191.716 125.085 191.32C124.521 190.924 124.239 190.33 124.239 189.538Z" fill="#1B317C"/>
<rect x="125" y="100" width="103" height="41" rx="6" fill="#EDFAFC"/>
<path d="M136.479 114.4H140.367C141.999 114.4 143.259 114.814 144.147 115.642C145.035 116.47 145.479 117.688 145.479 119.296V122.104C145.479 123.712 145.035 124.93 144.147 125.758C143.259 126.586 141.999 127 140.367 127H136.479V114.4ZM138.279 116.056V125.344H140.331C141.447 125.344 142.281 125.08 142.833 124.552C143.397 124.024 143.679 123.196 143.679 122.068V119.332C143.679 118.204 143.397 117.376 142.833 116.848C142.281 116.32 141.447 116.056 140.331 116.056H138.279ZM147.029 122.518C147.029 121.21 147.443 120.112 148.271 119.224C149.099 118.336 150.149 117.892 151.421 117.892C152.705 117.892 153.743 118.312 154.535 119.152C155.339 119.992 155.741 121.06 155.741 122.356V123.202H148.793C148.841 123.994 149.123 124.624 149.639 125.092C150.155 125.548 150.809 125.776 151.601 125.776C152.753 125.776 153.593 125.248 154.121 124.192L155.543 125.002C154.619 126.502 153.317 127.252 151.637 127.252C150.281 127.252 149.171 126.802 148.307 125.902C147.455 124.99 147.029 123.862 147.029 122.518ZM148.793 121.834H153.977C153.953 121.078 153.713 120.478 153.257 120.034C152.801 119.59 152.189 119.368 151.421 119.368C150.653 119.368 150.035 119.584 149.567 120.016C149.111 120.448 148.853 121.054 148.793 121.834ZM157.356 120.538C157.356 119.734 157.68 119.098 158.328 118.63C158.976 118.162 159.774 117.928 160.722 117.928C161.598 117.928 162.366 118.108 163.026 118.468C163.698 118.816 164.388 119.386 165.096 120.178L163.836 121.078C162.936 119.914 161.91 119.332 160.758 119.332C160.254 119.332 159.84 119.44 159.516 119.656C159.192 119.86 159.03 120.148 159.03 120.52C159.03 120.724 159.072 120.892 159.156 121.024C159.24 121.156 159.39 121.264 159.606 121.348C159.834 121.42 160.008 121.474 160.128 121.51C160.26 121.534 160.5 121.57 160.848 121.618L161.586 121.726C162.75 121.894 163.632 122.164 164.232 122.536C164.844 122.896 165.15 123.496 165.15 124.336C165.15 125.212 164.784 125.92 164.052 126.46C163.332 126.988 162.402 127.252 161.262 127.252C160.122 127.252 159.174 126.988 158.418 126.46C157.662 125.92 157.08 125.26 156.672 124.48L158.184 123.67C158.46 124.342 158.874 124.87 159.426 125.254C159.978 125.626 160.608 125.812 161.316 125.812C161.952 125.812 162.468 125.686 162.864 125.434C163.272 125.17 163.476 124.822 163.476 124.39C163.476 124.294 163.464 124.204 163.44 124.12C163.416 124.036 163.374 123.964 163.314 123.904C163.254 123.832 163.2 123.772 163.152 123.724C163.104 123.676 163.026 123.634 162.918 123.598C162.81 123.55 162.72 123.514 162.648 123.49C162.588 123.466 162.486 123.442 162.342 123.418C162.198 123.382 162.096 123.358 162.036 123.346C161.976 123.334 161.862 123.322 161.694 123.31C161.538 123.286 161.436 123.268 161.388 123.256L160.65 123.148C159.582 122.992 158.766 122.716 158.202 122.32C157.638 121.924 157.356 121.33 157.356 120.538ZM166.903 116.434C166.639 116.17 166.507 115.852 166.507 115.48C166.507 115.108 166.639 114.796 166.903 114.544C167.167 114.28 167.491 114.148 167.875 114.148C168.259 114.148 168.583 114.28 168.847 114.544C169.111 114.796 169.243 115.108 169.243 115.48C169.243 115.852 169.111 116.17 168.847 116.434C168.583 116.686 168.259 116.812 167.875 116.812C167.491 116.812 167.167 116.686 166.903 116.434ZM168.721 118.18V127H167.029V118.18H168.721ZM178.087 118.18H179.743V126.73C179.743 127.93 179.347 128.914 178.555 129.682C177.763 130.462 176.713 130.852 175.405 130.852C173.449 130.852 171.919 130.036 170.815 128.404L172.327 127.522C172.963 128.734 173.953 129.34 175.297 129.34C176.137 129.34 176.803 129.112 177.295 128.656C177.799 128.2 178.051 127.528 178.051 126.64V125.398H177.835C177.175 126.49 176.167 127.036 174.811 127.036C173.635 127.036 172.651 126.61 171.859 125.758C171.067 124.906 170.671 123.814 170.671 122.482C170.671 121.15 171.067 120.058 171.859 119.206C172.651 118.354 173.635 117.928 174.811 117.928C176.167 117.928 177.175 118.474 177.835 119.566H178.087V118.18ZM173.155 124.732C173.683 125.26 174.379 125.524 175.243 125.524C176.107 125.524 176.791 125.254 177.295 124.714C177.799 124.174 178.051 123.43 178.051 122.482C178.051 121.534 177.799 120.79 177.295 120.25C176.791 119.71 176.107 119.44 175.243 119.44C174.379 119.44 173.683 119.71 173.155 120.25C172.627 120.778 172.363 121.522 172.363 122.482C172.363 123.442 172.627 124.192 173.155 124.732ZM182.269 118.18H183.925V119.674H184.177C184.729 118.582 185.719 118.036 187.147 118.036C188.131 118.036 188.947 118.354 189.595 118.99C190.255 119.626 190.585 120.526 190.585 121.69V127H188.893V121.834C188.893 121.078 188.695 120.502 188.299 120.106C187.915 119.71 187.357 119.512 186.625 119.512C185.797 119.512 185.143 119.764 184.663 120.268C184.195 120.772 183.961 121.48 183.961 122.392V127H182.269V118.18ZM192.415 122.518C192.415 121.21 192.829 120.112 193.657 119.224C194.485 118.336 195.535 117.892 196.807 117.892C198.091 117.892 199.129 118.312 199.921 119.152C200.725 119.992 201.127 121.06 201.127 122.356V123.202H194.179C194.227 123.994 194.509 124.624 195.025 125.092C195.541 125.548 196.195 125.776 196.987 125.776C198.139 125.776 198.979 125.248 199.507 124.192L200.929 125.002C200.005 126.502 198.703 127.252 197.023 127.252C195.667 127.252 194.557 126.802 193.693 125.902C192.841 124.99 192.415 123.862 192.415 122.518ZM194.179 121.834H199.363C199.339 121.078 199.099 120.478 198.643 120.034C198.187 119.59 197.575 119.368 196.807 119.368C196.039 119.368 195.421 119.584 194.953 120.016C194.497 120.448 194.239 121.054 194.179 121.834ZM204.613 118.18V119.62H204.865C205.189 118.636 205.957 118.144 207.169 118.144H208.177V119.8H206.629C205.993 119.8 205.507 119.98 205.171 120.34C204.847 120.688 204.685 121.192 204.685 121.852V127H202.993V118.18H204.613ZM209.405 120.538C209.405 119.734 209.729 119.098 210.377 118.63C211.025 118.162 211.823 117.928 212.771 117.928C213.647 117.928 214.415 118.108 215.075 118.468C215.747 118.816 216.437 119.386 217.145 120.178L215.885 121.078C214.985 119.914 213.959 119.332 212.807 119.332C212.303 119.332 211.889 119.44 211.565 119.656C211.241 119.86 211.079 120.148 211.079 120.52C211.079 120.724 211.121 120.892 211.205 121.024C211.289 121.156 211.439 121.264 211.655 121.348C211.883 121.42 212.057 121.474 212.177 121.51C212.309 121.534 212.549 121.57 212.897 121.618L213.635 121.726C214.799 121.894 215.681 122.164 216.281 122.536C216.893 122.896 217.199 123.496 217.199 124.336C217.199 125.212 216.833 125.92 216.101 126.46C215.381 126.988 214.451 127.252 213.311 127.252C212.171 127.252 211.223 126.988 210.467 126.46C209.711 125.92 209.129 125.26 208.721 124.48L210.233 123.67C210.509 124.342 210.923 124.87 211.475 125.254C212.027 125.626 212.657 125.812 213.365 125.812C214.001 125.812 214.517 125.686 214.913 125.434C215.321 125.17 215.525 124.822 215.525 124.39C215.525 124.294 215.513 124.204 215.489 124.12C215.465 124.036 215.423 123.964 215.363 123.904C215.303 123.832 215.249 123.772 215.201 123.724C215.153 123.676 215.075 123.634 214.967 123.598C214.859 123.55 214.769 123.514 214.697 123.49C214.637 123.466 214.535 123.442 214.391 123.418C214.247 123.382 214.145 123.358 214.085 123.346C214.025 123.334 213.911 123.322 213.743 123.31C213.587 123.286 213.485 123.268 213.437 123.256L212.699 123.148C211.631 122.992 210.815 122.716 210.251 122.32C209.687 121.924 209.405 121.33 209.405 120.538Z" fill="#1B7C77"/>
<rect x="286" y="332" width="124" height="41" rx="6" fill="#EFF2FC"/>
<path d="M301.465 346.148C302.821 346.148 303.925 346.496 304.777 347.192C305.641 347.888 306.073 348.86 306.073 350.108V350.684H304.273V350.252C304.273 349.46 304.015 348.848 303.499 348.416C302.995 347.984 302.317 347.768 301.465 347.768C300.757 347.768 300.175 347.942 299.719 348.29C299.275 348.626 299.053 349.07 299.053 349.622C299.053 350.174 299.245 350.594 299.629 350.882C300.013 351.17 300.667 351.416 301.591 351.62L302.419 351.8C303.655 352.064 304.591 352.484 305.227 353.06C305.863 353.636 306.181 354.44 306.181 355.472C306.181 356.612 305.761 357.53 304.921 358.226C304.081 358.91 303.001 359.252 301.681 359.252C300.145 359.252 298.927 358.838 298.027 358.01C297.127 357.182 296.677 356.072 296.677 354.68V354.104H298.477V354.536C298.477 355.532 298.753 356.3 299.305 356.84C299.869 357.368 300.667 357.632 301.699 357.632C302.515 357.632 303.163 357.434 303.643 357.038C304.135 356.642 304.381 356.138 304.381 355.526C304.381 354.95 304.189 354.512 303.805 354.212C303.421 353.912 302.809 353.672 301.969 353.492L301.141 353.312C299.881 353.036 298.915 352.628 298.243 352.088C297.583 351.548 297.253 350.732 297.253 349.64C297.253 348.596 297.655 347.756 298.459 347.12C299.263 346.472 300.265 346.148 301.465 346.148ZM308.926 357.938C308.074 357.062 307.648 355.946 307.648 354.59C307.648 353.234 308.074 352.118 308.926 351.242C309.79 350.366 310.876 349.928 312.184 349.928C313.492 349.928 314.572 350.366 315.424 351.242C316.288 352.118 316.72 353.234 316.72 354.59C316.72 355.946 316.288 357.062 315.424 357.938C314.572 358.814 313.492 359.252 312.184 359.252C310.876 359.252 309.79 358.814 308.926 357.938ZM310.114 352.322C309.598 352.874 309.34 353.63 309.34 354.59C309.34 355.55 309.598 356.312 310.114 356.876C310.642 357.428 311.332 357.704 312.184 357.704C313.036 357.704 313.72 357.428 314.236 356.876C314.764 356.312 315.028 355.55 315.028 354.59C315.028 353.63 314.764 352.874 314.236 352.322C313.72 351.758 313.036 351.476 312.184 351.476C311.332 351.476 310.642 351.758 310.114 352.322ZM320.357 346.4V359H318.665V346.4H320.357ZM322.308 354.518C322.308 353.21 322.722 352.112 323.55 351.224C324.378 350.336 325.428 349.892 326.7 349.892C327.984 349.892 329.022 350.312 329.814 351.152C330.618 351.992 331.02 353.06 331.02 354.356V355.202H324.072C324.12 355.994 324.402 356.624 324.918 357.092C325.434 357.548 326.088 357.776 326.88 357.776C328.032 357.776 328.872 357.248 329.4 356.192L330.822 357.002C329.898 358.502 328.596 359.252 326.916 359.252C325.56 359.252 324.45 358.802 323.586 357.902C322.734 356.99 322.308 355.862 322.308 354.518ZM324.072 353.834H329.256C329.232 353.078 328.992 352.478 328.536 352.034C328.08 351.59 327.468 351.368 326.7 351.368C325.932 351.368 325.314 351.584 324.846 352.016C324.39 352.448 324.132 353.054 324.072 353.834ZM337.382 346.4H347.318V348.056H343.25V359H341.45V348.056H337.382V346.4ZM348.762 350.18V351.62H349.014C349.338 350.636 350.106 350.144 351.318 350.144H352.326V351.8H350.778C350.142 351.8 349.656 351.98 349.32 352.34C348.996 352.688 348.834 353.192 348.834 353.852V359H347.142V350.18H348.762ZM353.534 352.502C353.882 351.758 354.41 351.146 355.118 350.666C355.838 350.174 356.708 349.928 357.728 349.928C358.916 349.928 359.864 350.246 360.572 350.882C361.28 351.518 361.634 352.37 361.634 353.438V359H359.978V357.614H359.726C359.51 358.082 359.144 358.472 358.628 358.784C358.112 359.096 357.44 359.252 356.612 359.252C355.628 359.252 354.836 359.006 354.236 358.514C353.648 358.022 353.354 357.38 353.354 356.588C353.354 355.016 354.476 354.122 356.72 353.906L359.978 353.6V353.366C359.978 352.766 359.774 352.298 359.366 351.962C358.97 351.614 358.412 351.44 357.692 351.44C356.36 351.44 355.46 352.016 354.992 353.168L353.534 352.502ZM355.064 356.516C355.064 356.936 355.226 357.266 355.55 357.506C355.874 357.734 356.324 357.848 356.9 357.848C357.896 357.848 358.658 357.59 359.186 357.074C359.714 356.546 359.978 355.88 359.978 355.076V354.932L356.9 355.22C355.676 355.328 355.064 355.76 355.064 356.516ZM372.548 346.4V359H370.892V357.614H370.64C369.98 358.706 368.972 359.252 367.616 359.252C366.44 359.252 365.456 358.814 364.664 357.938C363.872 357.062 363.476 355.946 363.476 354.59C363.476 353.234 363.872 352.118 364.664 351.242C365.456 350.366 366.44 349.928 367.616 349.928C368.972 349.928 369.98 350.474 370.64 351.566H370.856V346.4H372.548ZM370.1 352.286C369.596 351.722 368.912 351.44 368.048 351.44C367.184 351.44 366.488 351.722 365.96 352.286C365.432 352.838 365.168 353.606 365.168 354.59C365.168 355.574 365.432 356.348 365.96 356.912C366.488 357.464 367.184 357.74 368.048 357.74C368.912 357.74 369.596 357.458 370.1 356.894C370.604 356.33 370.856 355.562 370.856 354.59C370.856 353.618 370.604 352.85 370.1 352.286ZM374.497 354.518C374.497 353.21 374.911 352.112 375.739 351.224C376.567 350.336 377.617 349.892 378.889 349.892C380.173 349.892 381.211 350.312 382.003 351.152C382.807 351.992 383.209 353.06 383.209 354.356V355.202H376.261C376.309 355.994 376.591 356.624 377.107 357.092C377.623 357.548 378.277 357.776 379.069 357.776C380.221 357.776 381.061 357.248 381.589 356.192L383.011 357.002C382.087 358.502 380.785 359.252 379.105 359.252C377.749 359.252 376.639 358.802 375.775 357.902C374.923 356.99 374.497 355.862 374.497 354.518ZM376.261 353.834H381.445C381.421 353.078 381.181 352.478 380.725 352.034C380.269 351.59 379.657 351.368 378.889 351.368C378.121 351.368 377.503 351.584 377.035 352.016C376.579 352.448 376.321 353.054 376.261 353.834ZM386.695 350.18V351.62H386.947C387.271 350.636 388.039 350.144 389.251 350.144H390.259V351.8H388.711C388.075 351.8 387.589 351.98 387.253 352.34C386.929 352.688 386.767 353.192 386.767 353.852V359H385.075V350.18H386.695ZM391.487 352.538C391.487 351.734 391.811 351.098 392.459 350.63C393.107 350.162 393.905 349.928 394.853 349.928C395.729 349.928 396.497 350.108 397.157 350.468C397.829 350.816 398.519 351.386 399.227 352.178L397.967 353.078C397.067 351.914 396.041 351.332 394.889 351.332C394.385 351.332 393.971 351.44 393.647 351.656C393.323 351.86 393.161 352.148 393.161 352.52C393.161 352.724 393.203 352.892 393.287 353.024C393.371 353.156 393.521 353.264 393.737 353.348C393.965 353.42 394.139 353.474 394.259 353.51C394.391 353.534 394.631 353.57 394.979 353.618L395.717 353.726C396.881 353.894 397.763 354.164 398.363 354.536C398.975 354.896 399.281 355.496 399.281 356.336C399.281 357.212 398.915 357.92 398.183 358.46C397.463 358.988 396.533 359.252 395.393 359.252C394.253 359.252 393.305 358.988 392.549 358.46C391.793 357.92 391.211 357.26 390.803 356.48L392.315 355.67C392.591 356.342 393.005 356.87 393.557 357.254C394.109 357.626 394.739 357.812 395.447 357.812C396.083 357.812 396.599 357.686 396.995 357.434C397.403 357.17 397.607 356.822 397.607 356.39C397.607 356.294 397.595 356.204 397.571 356.12C397.547 356.036 397.505 355.964 397.445 355.904C397.385 355.832 397.331 355.772 397.283 355.724C397.235 355.676 397.157 355.634 397.049 355.598C396.941 355.55 396.851 355.514 396.779 355.49C396.719 355.466 396.617 355.442 396.473 355.418C396.329 355.382 396.227 355.358 396.167 355.346C396.107 355.334 395.993 355.322 395.825 355.31C395.669 355.286 395.567 355.268 395.519 355.256L394.781 355.148C393.713 354.992 392.897 354.716 392.333 354.32C391.769 353.924 391.487 353.33 391.487 352.538Z" fill="#1B317C"/>
<rect x="190" y="179" width="140" height="41" rx="6" fill="#EFF2FC"/>
<path d="M201.609 193.4H209.673V195.056H203.409V198.854H209.169V200.51H203.409V204.344H209.745V206H201.609V193.4ZM211.734 197.18H213.39V198.674H213.642C214.194 197.582 215.184 197.036 216.612 197.036C217.596 197.036 218.412 197.354 219.06 197.99C219.72 198.626 220.05 199.526 220.05 200.69V206H218.358V200.834C218.358 200.078 218.16 199.502 217.764 199.106C217.38 198.71 216.822 198.512 216.09 198.512C215.262 198.512 214.608 198.764 214.128 199.268C213.66 199.772 213.426 200.48 213.426 201.392V206H211.734V197.18ZM221.273 197.18H223.721V194.12H225.413V197.18H228.005V198.656H225.413V204.02C225.413 204.356 225.569 204.524 225.881 204.524H227.501V206H225.197C224.765 206 224.411 205.862 224.135 205.586C223.859 205.298 223.721 204.932 223.721 204.488V198.656H221.273V197.18ZM231.389 197.18V198.62H231.641C231.965 197.636 232.733 197.144 233.945 197.144H234.953V198.8H233.405C232.769 198.8 232.283 198.98 231.947 199.34C231.623 199.688 231.461 200.192 231.461 200.852V206H229.769V197.18H231.389ZM235.503 201.518C235.503 200.21 235.917 199.112 236.745 198.224C237.573 197.336 238.623 196.892 239.895 196.892C241.179 196.892 242.217 197.312 243.009 198.152C243.813 198.992 244.215 200.06 244.215 201.356V202.202H237.267C237.315 202.994 237.597 203.624 238.113 204.092C238.629 204.548 239.283 204.776 240.075 204.776C241.227 204.776 242.067 204.248 242.595 203.192L244.017 204.002C243.093 205.502 241.791 206.252 240.111 206.252C238.755 206.252 237.645 205.802 236.781 204.902C235.929 203.99 235.503 202.862 235.503 201.518ZM237.267 200.834H242.451C242.427 200.078 242.187 199.478 241.731 199.034C241.275 198.59 240.663 198.368 239.895 198.368C239.127 198.368 238.509 198.584 238.041 199.016C237.585 199.448 237.327 200.054 237.267 200.834ZM246.081 209.6V197.18H247.737V198.566H247.989C248.649 197.474 249.657 196.928 251.013 196.928C252.189 196.928 253.173 197.366 253.965 198.242C254.757 199.118 255.153 200.234 255.153 201.59C255.153 202.946 254.757 204.062 253.965 204.938C253.173 205.814 252.189 206.252 251.013 206.252C249.657 206.252 248.649 205.706 247.989 204.614H247.773V209.6H246.081ZM248.529 203.894C249.033 204.458 249.717 204.74 250.581 204.74C251.445 204.74 252.141 204.464 252.669 203.912C253.197 203.348 253.461 202.574 253.461 201.59C253.461 200.606 253.197 199.838 252.669 199.286C252.141 198.722 251.445 198.44 250.581 198.44C249.717 198.44 249.033 198.722 248.529 199.286C248.025 199.85 247.773 200.618 247.773 201.59C247.773 202.562 248.025 203.33 248.529 203.894ZM258.723 197.18V198.62H258.975C259.299 197.636 260.067 197.144 261.279 197.144H262.287V198.8H260.739C260.103 198.8 259.617 198.98 259.281 199.34C258.957 199.688 258.795 200.192 258.795 200.852V206H257.103V197.18H258.723ZM262.837 201.518C262.837 200.21 263.251 199.112 264.079 198.224C264.907 197.336 265.957 196.892 267.229 196.892C268.513 196.892 269.551 197.312 270.343 198.152C271.147 198.992 271.549 200.06 271.549 201.356V202.202H264.601C264.649 202.994 264.931 203.624 265.447 204.092C265.963 204.548 266.617 204.776 267.409 204.776C268.561 204.776 269.401 204.248 269.929 203.192L271.351 204.002C270.427 205.502 269.125 206.252 267.445 206.252C266.089 206.252 264.979 205.802 264.115 204.902C263.263 203.99 262.837 202.862 262.837 201.518ZM264.601 200.834H269.785C269.761 200.078 269.521 199.478 269.065 199.034C268.609 198.59 267.997 198.368 267.229 198.368C266.461 198.368 265.843 198.584 265.375 199.016C264.919 199.448 264.661 200.054 264.601 200.834ZM273.415 197.18H275.071V198.674H275.323C275.875 197.582 276.865 197.036 278.293 197.036C279.277 197.036 280.093 197.354 280.741 197.99C281.401 198.626 281.731 199.526 281.731 200.69V206H280.039V200.834C280.039 200.078 279.841 199.502 279.445 199.106C279.061 198.71 278.503 198.512 277.771 198.512C276.943 198.512 276.289 198.764 275.809 199.268C275.341 199.772 275.107 200.48 275.107 201.392V206H273.415V197.18ZM283.562 201.518C283.562 200.21 283.976 199.112 284.804 198.224C285.632 197.336 286.682 196.892 287.954 196.892C289.238 196.892 290.276 197.312 291.068 198.152C291.872 198.992 292.274 200.06 292.274 201.356V202.202H285.326C285.374 202.994 285.656 203.624 286.172 204.092C286.688 204.548 287.342 204.776 288.134 204.776C289.286 204.776 290.126 204.248 290.654 203.192L292.076 204.002C291.152 205.502 289.85 206.252 288.17 206.252C286.814 206.252 285.704 205.802 284.84 204.902C283.988 203.99 283.562 202.862 283.562 201.518ZM285.326 200.834H290.51C290.486 200.078 290.246 199.478 289.79 199.034C289.334 198.59 288.722 198.368 287.954 198.368C287.186 198.368 286.568 198.584 286.1 199.016C285.644 199.448 285.386 200.054 285.326 200.834ZM302.348 206H300.692V204.506H300.44C299.888 205.598 298.898 206.144 297.47 206.144C296.486 206.144 295.664 205.826 295.004 205.19C294.356 204.554 294.032 203.654 294.032 202.49V197.18H295.724V202.346C295.724 203.102 295.916 203.678 296.3 204.074C296.696 204.47 297.26 204.668 297.992 204.668C298.82 204.668 299.468 204.416 299.936 203.912C300.416 203.408 300.656 202.7 300.656 201.788V197.18H302.348V206ZM306.483 197.18V198.62H306.735C307.059 197.636 307.827 197.144 309.039 197.144H310.047V198.8H308.499C307.863 198.8 307.377 198.98 307.041 199.34C306.717 199.688 306.555 200.192 306.555 200.852V206H304.863V197.18H306.483ZM311.274 199.538C311.274 198.734 311.598 198.098 312.246 197.63C312.894 197.162 313.692 196.928 314.64 196.928C315.516 196.928 316.284 197.108 316.944 197.468C317.616 197.816 318.306 198.386 319.014 199.178L317.754 200.078C316.854 198.914 315.828 198.332 314.676 198.332C314.172 198.332 313.758 198.44 313.434 198.656C313.11 198.86 312.948 199.148 312.948 199.52C312.948 199.724 312.99 199.892 313.074 200.024C313.158 200.156 313.308 200.264 313.524 200.348C313.752 200.42 313.926 200.474 314.046 200.51C314.178 200.534 314.418 200.57 314.766 200.618L315.504 200.726C316.668 200.894 317.55 201.164 318.15 201.536C318.762 201.896 319.068 202.496 319.068 203.336C319.068 204.212 318.702 204.92 317.97 205.46C317.25 205.988 316.32 206.252 315.18 206.252C314.04 206.252 313.092 205.988 312.336 205.46C311.58 204.92 310.998 204.26 310.59 203.48L312.102 202.67C312.378 203.342 312.792 203.87 313.344 204.254C313.896 204.626 314.526 204.812 315.234 204.812C315.87 204.812 316.386 204.686 316.782 204.434C317.19 204.17 317.394 203.822 317.394 203.39C317.394 203.294 317.382 203.204 317.358 203.12C317.334 203.036 317.292 202.964 317.232 202.904C317.172 202.832 317.118 202.772 317.07 202.724C317.022 202.676 316.944 202.634 316.836 202.598C316.728 202.55 316.638 202.514 316.566 202.49C316.506 202.466 316.404 202.442 316.26 202.418C316.116 202.382 316.014 202.358 315.954 202.346C315.894 202.334 315.78 202.322 315.612 202.31C315.456 202.286 315.354 202.268 315.306 202.256L314.568 202.148C313.5 201.992 312.684 201.716 312.12 201.32C311.556 200.924 311.274 200.33 311.274 199.538Z" fill="#1B317C"/>
<rect x="126" y="250" width="94" height="41" rx="6" fill="#F6F6EF"/>
<path d="M137.382 264.4H145.446V266.056H139.182V269.854H144.942V271.51H139.182V275.344H145.518V277H137.382V264.4ZM147.722 273.238V271.69H153.05V273.238H147.722ZM159.889 264.148C161.245 264.148 162.349 264.496 163.201 265.192C164.065 265.888 164.497 266.86 164.497 268.108V268.684H162.697V268.252C162.697 267.46 162.439 266.848 161.923 266.416C161.419 265.984 160.741 265.768 159.889 265.768C159.181 265.768 158.599 265.942 158.143 266.29C157.699 266.626 157.477 267.07 157.477 267.622C157.477 268.174 157.669 268.594 158.053 268.882C158.437 269.17 159.091 269.416 160.015 269.62L160.843 269.8C162.079 270.064 163.015 270.484 163.651 271.06C164.287 271.636 164.605 272.44 164.605 273.472C164.605 274.612 164.185 275.53 163.345 276.226C162.505 276.91 161.425 277.252 160.105 277.252C158.569 277.252 157.351 276.838 156.451 276.01C155.551 275.182 155.101 274.072 155.101 272.68V272.104H156.901V272.536C156.901 273.532 157.177 274.3 157.729 274.84C158.293 275.368 159.091 275.632 160.123 275.632C160.939 275.632 161.587 275.434 162.067 275.038C162.559 274.642 162.805 274.138 162.805 273.526C162.805 272.95 162.613 272.512 162.229 272.212C161.845 271.912 161.233 271.672 160.393 271.492L159.565 271.312C158.305 271.036 157.339 270.628 156.667 270.088C156.007 269.548 155.677 268.732 155.677 267.64C155.677 266.596 156.079 265.756 156.883 265.12C157.687 264.472 158.689 264.148 159.889 264.148ZM166.073 272.518C166.073 271.21 166.487 270.112 167.315 269.224C168.143 268.336 169.193 267.892 170.465 267.892C171.749 267.892 172.787 268.312 173.579 269.152C174.383 269.992 174.785 271.06 174.785 272.356V273.202H167.837C167.885 273.994 168.167 274.624 168.683 275.092C169.199 275.548 169.853 275.776 170.645 275.776C171.797 275.776 172.637 275.248 173.165 274.192L174.587 275.002C173.663 276.502 172.361 277.252 170.681 277.252C169.325 277.252 168.215 276.802 167.351 275.902C166.499 274.99 166.073 273.862 166.073 272.518ZM167.837 271.834H173.021C172.997 271.078 172.757 270.478 172.301 270.034C171.845 269.59 171.233 269.368 170.465 269.368C169.697 269.368 169.079 269.584 168.611 270.016C168.155 270.448 167.897 271.054 167.837 271.834ZM178.343 264.4V277H176.651V264.4H178.343ZM182.561 264.4V277H180.869V264.4H182.561ZM184.512 272.518C184.512 271.21 184.926 270.112 185.754 269.224C186.582 268.336 187.632 267.892 188.904 267.892C190.188 267.892 191.226 268.312 192.018 269.152C192.822 269.992 193.224 271.06 193.224 272.356V273.202H186.276C186.324 273.994 186.606 274.624 187.122 275.092C187.638 275.548 188.292 275.776 189.084 275.776C190.236 275.776 191.076 275.248 191.604 274.192L193.026 275.002C192.102 276.502 190.8 277.252 189.12 277.252C187.764 277.252 186.654 276.802 185.79 275.902C184.938 274.99 184.512 273.862 184.512 272.518ZM186.276 271.834H191.46C191.436 271.078 191.196 270.478 190.74 270.034C190.284 269.59 189.672 269.368 188.904 269.368C188.136 269.368 187.518 269.584 187.05 270.016C186.594 270.448 186.336 271.054 186.276 271.834ZM196.71 268.18V269.62H196.962C197.286 268.636 198.054 268.144 199.266 268.144H200.274V269.8H198.726C198.09 269.8 197.604 269.98 197.268 270.34C196.944 270.688 196.782 271.192 196.782 271.852V277H195.09V268.18H196.71ZM201.502 270.538C201.502 269.734 201.826 269.098 202.474 268.63C203.122 268.162 203.92 267.928 204.868 267.928C205.744 267.928 206.512 268.108 207.172 268.468C207.844 268.816 208.534 269.386 209.242 270.178L207.982 271.078C207.082 269.914 206.056 269.332 204.904 269.332C204.4 269.332 203.986 269.44 203.662 269.656C203.338 269.86 203.176 270.148 203.176 270.52C203.176 270.724 203.218 270.892 203.302 271.024C203.386 271.156 203.536 271.264 203.752 271.348C203.98 271.42 204.154 271.474 204.274 271.51C204.406 271.534 204.646 271.57 204.994 271.618L205.732 271.726C206.896 271.894 207.778 272.164 208.378 272.536C208.99 272.896 209.296 273.496 209.296 274.336C209.296 275.212 208.93 275.92 208.198 276.46C207.478 276.988 206.548 277.252 205.408 277.252C204.268 277.252 203.32 276.988 202.564 276.46C201.808 275.92 201.226 275.26 200.818 274.48L202.33 273.67C202.606 274.342 203.02 274.87 203.572 275.254C204.124 275.626 204.754 275.812 205.462 275.812C206.098 275.812 206.614 275.686 207.01 275.434C207.418 275.17 207.622 274.822 207.622 274.39C207.622 274.294 207.61 274.204 207.586 274.12C207.562 274.036 207.52 273.964 207.46 273.904C207.4 273.832 207.346 273.772 207.298 273.724C207.25 273.676 207.172 273.634 207.064 273.598C206.956 273.55 206.866 273.514 206.794 273.49C206.734 273.466 206.632 273.442 206.488 273.418C206.344 273.382 206.242 273.358 206.182 273.346C206.122 273.334 206.008 273.322 205.84 273.31C205.684 273.286 205.582 273.268 205.534 273.256L204.796 273.148C203.728 272.992 202.912 272.716 202.348 272.32C201.784 271.924 201.502 271.33 201.502 270.538Z" fill="#7C611B"/>
<rect x="65" y="359" width="165" height="41" rx="6" fill="#EDEDFC"/>
<path d="M76.074 378.296C76.074 376.664 76.506 375.398 77.37 374.498C78.246 373.598 79.458 373.148 81.006 373.148C82.494 373.148 83.652 373.562 84.48 374.39C85.308 375.206 85.722 376.304 85.722 377.684V378.008H83.922V377.756C83.922 376.844 83.676 376.124 83.184 375.596C82.704 375.068 81.978 374.804 81.006 374.804C79.998 374.804 79.224 375.098 78.684 375.686C78.144 376.274 77.874 377.12 77.874 378.224V381.176C77.874 382.28 78.144 383.126 78.684 383.714C79.224 384.302 79.998 384.596 81.006 384.596C81.978 384.596 82.704 384.332 83.184 383.804C83.676 383.276 83.922 382.556 83.922 381.644V381.392H85.722V381.644C85.722 383.06 85.308 384.182 84.48 385.01C83.652 385.838 82.494 386.252 81.006 386.252C79.458 386.252 78.246 385.802 77.37 384.902C76.506 384.002 76.074 382.736 76.074 381.104V378.296ZM88.4395 384.938C87.5875 384.062 87.1615 382.946 87.1615 381.59C87.1615 380.234 87.5875 379.118 88.4395 378.242C89.3035 377.366 90.3895 376.928 91.6975 376.928C93.0055 376.928 94.0855 377.366 94.9375 378.242C95.8015 379.118 96.2335 380.234 96.2335 381.59C96.2335 382.946 95.8015 384.062 94.9375 384.938C94.0855 385.814 93.0055 386.252 91.6975 386.252C90.3895 386.252 89.3035 385.814 88.4395 384.938ZM89.6275 379.322C89.1115 379.874 88.8535 380.63 88.8535 381.59C88.8535 382.55 89.1115 383.312 89.6275 383.876C90.1555 384.428 90.8455 384.704 91.6975 384.704C92.5495 384.704 93.2335 384.428 93.7495 383.876C94.2775 383.312 94.5415 382.55 94.5415 381.59C94.5415 380.63 94.2775 379.874 93.7495 379.322C93.2335 378.758 92.5495 378.476 91.6975 378.476C90.8455 378.476 90.1555 378.758 89.6275 379.322ZM98.1789 377.18H99.8349V378.674H100.087C100.639 377.582 101.629 377.036 103.057 377.036C104.041 377.036 104.857 377.354 105.505 377.99C106.165 378.626 106.495 379.526 106.495 380.69V386H104.803V380.834C104.803 380.078 104.605 379.502 104.209 379.106C103.825 378.71 103.267 378.512 102.535 378.512C101.707 378.512 101.053 378.764 100.573 379.268C100.105 379.772 99.8709 380.48 99.8709 381.392V386H98.1789V377.18ZM107.718 377.18H110.166V374.12H111.858V377.18H114.45V378.656H111.858V384.02C111.858 384.356 112.014 384.524 112.326 384.524H113.946V386H111.642C111.21 386 110.856 385.862 110.58 385.586C110.304 385.298 110.166 384.932 110.166 384.488V378.656H107.718V377.18ZM115.55 381.518C115.55 380.21 115.964 379.112 116.792 378.224C117.62 377.336 118.67 376.892 119.942 376.892C121.226 376.892 122.264 377.312 123.056 378.152C123.86 378.992 124.262 380.06 124.262 381.356V382.202H117.314C117.362 382.994 117.644 383.624 118.16 384.092C118.676 384.548 119.33 384.776 120.122 384.776C121.274 384.776 122.114 384.248 122.642 383.192L124.064 384.002C123.14 385.502 121.838 386.252 120.158 386.252C118.802 386.252 117.692 385.802 116.828 384.902C115.976 383.99 115.55 382.862 115.55 381.518ZM117.314 380.834H122.498C122.474 380.078 122.234 379.478 121.778 379.034C121.322 378.59 120.71 378.368 119.942 378.368C119.174 378.368 118.556 378.584 118.088 379.016C117.632 379.448 117.374 380.054 117.314 380.834ZM126.128 377.18H127.784V378.674H128.036C128.588 377.582 129.578 377.036 131.006 377.036C131.99 377.036 132.806 377.354 133.454 377.99C134.114 378.626 134.444 379.526 134.444 380.69V386H132.752V380.834C132.752 380.078 132.554 379.502 132.158 379.106C131.774 378.71 131.216 378.512 130.484 378.512C129.656 378.512 129.002 378.764 128.522 379.268C128.054 379.772 127.82 380.48 127.82 381.392V386H126.128V377.18ZM135.667 377.18H138.115V374.12H139.807V377.18H142.399V378.656H139.807V384.02C139.807 384.356 139.963 384.524 140.275 384.524H141.895V386H139.591C139.159 386 138.805 385.862 138.529 385.586C138.253 385.298 138.115 384.932 138.115 384.488V378.656H135.667V377.18ZM149.164 378.296C149.164 376.664 149.596 375.398 150.46 374.498C151.336 373.598 152.548 373.148 154.096 373.148C155.584 373.148 156.742 373.562 157.57 374.39C158.398 375.206 158.812 376.304 158.812 377.684V378.008H157.012V377.756C157.012 376.844 156.766 376.124 156.274 375.596C155.794 375.068 155.068 374.804 154.096 374.804C153.088 374.804 152.314 375.098 151.774 375.686C151.234 376.274 150.964 377.12 150.964 378.224V381.176C150.964 382.28 151.234 383.126 151.774 383.714C152.314 384.302 153.088 384.596 154.096 384.596C155.068 384.596 155.794 384.332 156.274 383.804C156.766 383.276 157.012 382.556 157.012 381.644V381.392H158.812V381.644C158.812 383.06 158.398 384.182 157.57 385.01C156.742 385.838 155.584 386.252 154.096 386.252C152.548 386.252 151.336 385.802 150.46 384.902C149.596 384.002 149.164 382.736 149.164 381.104V378.296ZM162.447 377.18V378.62H162.699C163.023 377.636 163.791 377.144 165.003 377.144H166.011V378.8H164.463C163.827 378.8 163.341 378.98 163.005 379.34C162.681 379.688 162.519 380.192 162.519 380.852V386H160.827V377.18H162.447ZM166.562 381.518C166.562 380.21 166.976 379.112 167.804 378.224C168.632 377.336 169.682 376.892 170.954 376.892C172.238 376.892 173.276 377.312 174.068 378.152C174.872 378.992 175.274 380.06 175.274 381.356V382.202H168.326C168.374 382.994 168.656 383.624 169.172 384.092C169.688 384.548 170.342 384.776 171.134 384.776C172.286 384.776 173.126 384.248 173.654 383.192L175.076 384.002C174.152 385.502 172.85 386.252 171.17 386.252C169.814 386.252 168.704 385.802 167.84 384.902C166.988 383.99 166.562 382.862 166.562 381.518ZM168.326 380.834H173.51C173.486 380.078 173.246 379.478 172.79 379.034C172.334 378.59 171.722 378.368 170.954 378.368C170.186 378.368 169.568 378.584 169.1 379.016C168.644 379.448 168.386 380.054 168.326 380.834ZM176.782 379.502C177.13 378.758 177.658 378.146 178.366 377.666C179.086 377.174 179.956 376.928 180.976 376.928C182.164 376.928 183.112 377.246 183.82 377.882C184.528 378.518 184.882 379.37 184.882 380.438V386H183.226V384.614H182.974C182.758 385.082 182.392 385.472 181.876 385.784C181.36 386.096 180.688 386.252 179.86 386.252C178.876 386.252 178.084 386.006 177.484 385.514C176.896 385.022 176.602 384.38 176.602 383.588C176.602 382.016 177.724 381.122 179.968 380.906L183.226 380.6V380.366C183.226 379.766 183.022 379.298 182.614 378.962C182.218 378.614 181.66 378.44 180.94 378.44C179.608 378.44 178.708 379.016 178.24 380.168L176.782 379.502ZM178.312 383.516C178.312 383.936 178.474 384.266 178.798 384.506C179.122 384.734 179.572 384.848 180.148 384.848C181.144 384.848 181.906 384.59 182.434 384.074C182.962 383.546 183.226 382.88 183.226 382.076V381.932L180.148 382.22C178.924 382.328 178.312 382.76 178.312 383.516ZM186.116 377.18H188.564V374.12H190.256V377.18H192.848V378.656H190.256V384.02C190.256 384.356 190.412 384.524 190.724 384.524H192.344V386H190.04C189.608 386 189.254 385.862 188.978 385.586C188.702 385.298 188.564 384.932 188.564 384.488V378.656H186.116V377.18ZM195.227 384.938C194.375 384.062 193.949 382.946 193.949 381.59C193.949 380.234 194.375 379.118 195.227 378.242C196.091 377.366 197.177 376.928 198.485 376.928C199.793 376.928 200.873 377.366 201.725 378.242C202.589 379.118 203.021 380.234 203.021 381.59C203.021 382.946 202.589 384.062 201.725 384.938C200.873 385.814 199.793 386.252 198.485 386.252C197.177 386.252 196.091 385.814 195.227 384.938ZM196.415 379.322C195.899 379.874 195.641 380.63 195.641 381.59C195.641 382.55 195.899 383.312 196.415 383.876C196.943 384.428 197.633 384.704 198.485 384.704C199.337 384.704 200.021 384.428 200.537 383.876C201.065 383.312 201.329 382.55 201.329 381.59C201.329 380.63 201.065 379.874 200.537 379.322C200.021 378.758 199.337 378.476 198.485 378.476C197.633 378.476 196.943 378.758 196.415 379.322ZM206.586 377.18V378.62H206.838C207.162 377.636 207.93 377.144 209.142 377.144H210.15V378.8H208.602C207.966 378.8 207.48 378.98 207.144 379.34C206.82 379.688 206.658 380.192 206.658 380.852V386H204.966V377.18H206.586ZM211.378 379.538C211.378 378.734 211.702 378.098 212.35 377.63C212.998 377.162 213.796 376.928 214.744 376.928C215.62 376.928 216.388 377.108 217.048 377.468C217.72 377.816 218.41 378.386 219.118 379.178L217.858 380.078C216.958 378.914 215.932 378.332 214.78 378.332C214.276 378.332 213.862 378.44 213.538 378.656C213.214 378.86 213.052 379.148 213.052 379.52C213.052 379.724 213.094 379.892 213.178 380.024C213.262 380.156 213.412 380.264 213.628 380.348C213.856 380.42 214.03 380.474 214.15 380.51C214.282 380.534 214.522 380.57 214.87 380.618L215.608 380.726C216.772 380.894 217.654 381.164 218.254 381.536C218.866 381.896 219.172 382.496 219.172 383.336C219.172 384.212 218.806 384.92 218.074 385.46C217.354 385.988 216.424 386.252 215.284 386.252C214.144 386.252 213.196 385.988 212.44 385.46C211.684 384.92 211.102 384.26 210.694 383.48L212.206 382.67C212.482 383.342 212.896 383.87 213.448 384.254C214 384.626 214.63 384.812 215.338 384.812C215.974 384.812 216.49 384.686 216.886 384.434C217.294 384.17 217.498 383.822 217.498 383.39C217.498 383.294 217.486 383.204 217.462 383.12C217.438 383.036 217.396 382.964 217.336 382.904C217.276 382.832 217.222 382.772 217.174 382.724C217.126 382.676 217.048 382.634 216.94 382.598C216.832 382.55 216.742 382.514 216.67 382.49C216.61 382.466 216.508 382.442 216.364 382.418C216.22 382.382 216.118 382.358 216.058 382.346C215.998 382.334 215.884 382.322 215.716 382.31C215.56 382.286 215.458 382.268 215.41 382.256L214.672 382.148C213.604 381.992 212.788 381.716 212.224 381.32C211.66 380.924 211.378 380.33 211.378 379.538Z" fill="#521B7C"/>
</svg>
