<svg width="65" height="53" viewBox="0 0 65 53" fill="none" xmlns="http://www.w3.org/2000/svg">
<rect width="65" height="53" rx="9" fill="#F2EBB0"/>
<path d="M48.9286 26.6412C48.7835 26.2909 48.4417 26.0625 48.0625 26.0625H41.9708V11.9375C41.9708 11.4197 41.5511 11 41.0333 11H24.9667C24.4489 11 24.0292 11.4197 24.0292 11.9375V26.0625H17.9375C17.5583 26.0625 17.2165 26.2909 17.0714 26.6412C16.9263 26.9916 17.0065 27.3948 17.2746 27.6629L32.3371 42.7254C32.5201 42.9084 32.7601 43 33 43C33.2399 43 33.4799 42.9084 33.6629 42.7254L48.7254 27.6629C48.9935 27.3947 49.0737 26.9916 48.9286 26.6412ZM33 40.7367L20.2008 27.9375H24.9667C25.4844 27.9375 25.9042 27.5177 25.9042 27V12.875H40.0958V27C40.0958 27.5177 40.5156 27.9375 41.0333 27.9375H45.7992L33 40.7367Z" fill="#796D00"/>
<path d="M36.5749 16.208C36.1607 15.8974 35.573 15.9814 35.2624 16.3955L29.2374 24.4288C28.9267 24.843 29.0107 25.4306 29.4249 25.7413C29.83 26.0452 30.42 25.977 30.7374 25.5538L36.7623 17.5205C37.073 17.1063 36.989 16.5187 36.5749 16.208Z" fill="#796D00"/>
<path d="M29.9873 18.8997C30.5051 18.8997 30.9248 18.4799 30.9248 17.9622V16.958C30.9248 16.4403 30.5051 16.0205 29.9873 16.0205C29.4696 16.0205 29.0498 16.4403 29.0498 16.958V17.9622C29.0498 18.48 29.4696 18.8997 29.9873 18.8997Z" fill="#796D00"/>
<path d="M36.0122 23.0498C35.4945 23.0498 35.0747 23.4696 35.0747 23.9873V24.9914C35.0747 25.5092 35.4945 25.9289 36.0122 25.9289C36.53 25.9289 36.9497 25.5092 36.9497 24.9914V23.9873C36.9497 23.4696 36.53 23.0498 36.0122 23.0498Z" fill="#796D00"/>
</svg>
