<svg width="76" height="76" viewBox="0 0 76 76" fill="none" xmlns="http://www.w3.org/2000/svg">
<g clip-path="url(#clip0)">
<path d="M68.2802 58.63C68.2744 58.6152 68.2685 58.6005 68.2623 58.5859C66.896 55.389 63.6919 54.2075 59.8999 55.5026L49.5585 58.3624C48.9606 56.5517 47.4693 55.0109 45.3606 54.2284C45.3475 54.2236 45.3344 54.2189 45.3212 54.2144L33.9537 50.3562C33.0076 49.1333 30.0439 46.0039 24.4949 46.0039C20.6169 46.0039 17.1864 48.6642 15.2237 51.5639H1.48438C0.664555 51.5639 0 52.2285 0 53.0483V71.7629C0 72.5827 0.664555 73.2472 1.48438 73.2472H10.31C11.1298 73.2472 11.7944 72.5827 11.7944 71.7629V70.4812H15.9333C16.7531 70.4812 17.4177 69.8167 17.4177 68.9969V68.5697C19.8304 68.7802 20.6239 69.2378 22.8398 70.5155C24.5438 71.4982 27.1194 72.9833 31.7575 75.0687C31.779 75.0784 31.8008 75.0876 31.8226 75.0962C32.7128 75.4463 34.4529 75.9964 36.5983 75.9964C38.0916 75.9964 39.7815 75.7297 41.5162 74.9434L64.3742 66.7592C64.4149 66.7446 64.455 66.7283 64.4942 66.7102C66.6787 65.7051 69.9341 62.8725 68.2802 58.63ZM8.82565 70.2783H2.96875V54.5325H8.82565V70.2783ZM14.4489 67.5124H11.7944V54.5325H14.4489V67.5124ZM63.308 63.9874L40.4602 72.1679C40.4402 72.1751 40.413 72.1858 40.3933 72.1938C40.3732 72.2019 40.3532 72.2105 40.3334 72.2196C37.1514 73.682 34.1267 72.8065 32.9412 72.3456C28.4611 70.3297 26.0699 68.9509 24.3228 67.9434C21.8938 66.5428 20.7234 65.8677 17.4177 65.5947V53.6392C18.8247 51.3331 21.5533 48.9725 24.495 48.9725C29.5398 48.9725 31.6775 52.2537 31.7615 52.3861C31.9427 52.6809 32.2213 52.9031 32.5489 53.0143L44.346 57.0183C46.2301 57.7254 47.2258 59.3389 46.7682 60.948C46.557 61.6911 46.0689 62.3074 45.3941 62.6834C44.7251 63.0561 43.9518 63.1483 43.2146 62.9443L29.9156 58.7299C29.1337 58.4822 28.2998 58.915 28.0522 59.6965C27.8044 60.478 28.2373 61.3123 29.0188 61.56L42.3409 65.7817C42.355 65.7862 42.3691 65.7905 42.3834 65.7945C42.9152 65.9457 43.4567 66.0206 43.9949 66.0206C44.9803 66.0206 45.9548 65.7695 46.8392 65.2767C48.2067 64.5148 49.1956 63.2659 49.6237 61.76C49.6578 61.6397 49.6881 61.5195 49.7144 61.3993L60.8595 58.3118C62.4692 57.7619 64.5822 57.5638 65.523 59.7305C66.4967 62.2743 63.9659 63.6736 63.308 63.9874Z" fill="#1C6D00"/>
<path d="M74.5156 5.03115H65.69C64.8702 5.03115 64.2056 5.6957 64.2056 6.51553V7.79713H60.0667C59.2469 7.79713 58.5824 8.46169 58.5824 9.28151V9.70871C56.1697 9.49808 55.3761 9.0406 53.1604 7.76285C51.4563 6.78019 48.8808 5.29507 44.2425 3.20967C44.221 3.19988 44.1994 3.19082 44.1772 3.18221C42.6675 2.58817 38.7106 1.41937 34.4844 3.33466L28.5113 5.47335L23.4764 0.438643C22.8968 -0.141006 21.9569 -0.141006 21.3772 0.438643L4.84753 16.9682C4.31286 17.503 4.21029 18.4303 4.84753 19.0675L33.0933 47.3133C33.5452 47.7654 34.6036 47.9021 35.1926 47.3133L50.2835 32.2225C50.6758 32.2564 51.083 32.2746 51.505 32.2746C55.3831 32.2746 58.8135 29.6143 60.776 26.7148H74.5156C75.3355 26.7148 76 26.0502 76 25.2304V6.51553C76 5.6957 75.3355 5.03115 74.5156 5.03115ZM22.4267 3.58745L25.8099 6.97063C24.8042 7.59259 23.6415 7.92538 22.4267 7.92538C21.2117 7.92538 20.0492 7.59274 19.0435 6.97063L22.4267 3.58745ZM11.3797 21.4011L7.99649 18.0178L11.3797 14.6346C12.0016 15.6403 12.3344 16.803 12.3344 18.0178C12.3344 19.2326 12.0018 20.3953 11.3797 21.4011ZM34.143 44.1643L30.7604 40.7817C32.8256 39.5072 35.4601 39.5072 37.5255 40.7817L34.143 44.1643ZM39.6641 38.6433C36.384 36.2639 31.902 36.2639 28.6219 38.6433L13.5182 23.5395C14.6774 21.9453 15.3032 20.0303 15.3032 18.0178C15.3032 16.0051 14.6775 14.0903 13.5182 12.4961L16.9051 9.10932C18.4993 10.2685 20.4142 10.8943 22.4268 10.8943C24.4395 10.8943 26.3543 10.2685 27.9486 9.10932L31.1591 12.3199C30.4664 12.4222 29.7908 12.6504 29.1609 13.0015C28.0969 13.5944 27.262 14.4822 26.7422 15.5563C25.0678 15.8663 23.5177 16.677 22.3017 17.8928C19.0027 21.192 19.0027 26.5599 22.3019 29.8591C23.9513 31.5085 26.118 32.3334 28.2849 32.3334C30.4517 32.3334 32.6186 31.5087 34.2681 29.8591C35.3413 28.7859 36.0932 27.4669 36.4698 26.0294L41.4816 27.7304C40.9174 30.344 41.4953 33.0937 43.054 35.2535L39.6641 38.6433ZM30.6394 24.05C30.6525 24.0548 30.6656 24.0595 30.6788 24.064L33.6469 25.0714C33.4228 26.083 32.9156 27.0131 32.1689 27.7599C30.0273 29.9013 26.5426 29.9016 24.4012 27.7599C22.2595 25.6184 22.2595 22.1338 24.4012 19.9922C24.9178 19.4753 25.5274 19.0714 26.1917 18.7975C26.4657 21.0778 28.1075 23.1104 30.6394 24.05ZM45.1928 33.1145C44.6199 32.1808 44.2957 31.1152 44.2445 30.0276C44.9555 30.5416 45.8244 31.0453 46.8623 31.445L45.1928 33.1145ZM58.5822 24.6386C57.1753 26.945 54.4467 29.3056 51.505 29.3056C50.9546 29.3056 50.4388 29.2664 49.9565 29.1966C49.9546 29.1963 49.9526 29.196 49.9507 29.1957C46.7451 28.7301 45.0207 26.9082 44.4523 26.1868C44.422 26.1422 44.293 25.9735 44.2739 25.9454C44.1009 25.6364 43.8174 25.3879 43.4558 25.2651L31.6539 21.2595C29.7705 20.5527 28.7749 18.9399 29.2312 17.3314C29.2315 17.3304 29.2318 17.3293 29.2321 17.3283C29.2325 17.3271 29.2328 17.3258 29.2331 17.3246C29.4453 16.5839 29.9324 15.9695 30.6057 15.5944C31.2746 15.2217 32.0478 15.1292 32.7853 15.3336L46.0842 19.5479C46.8659 19.7959 47.7001 19.3628 47.9477 18.5813C48.1953 17.7997 47.7626 16.9655 46.9811 16.7178L36.4042 13.3661L36.3118 13.2737C36.3109 13.2728 36.31 13.2718 36.309 13.2709L30.8331 7.79506L35.5398 6.1097C35.5557 6.10391 35.5753 6.09663 35.591 6.09025C35.595 6.08862 35.6027 6.08565 35.6066 6.08402C35.6268 6.07585 35.6467 6.06724 35.6664 6.05819C38.8483 4.59578 41.8729 5.47112 43.0585 5.93217C47.5387 7.9481 49.9301 9.32693 51.6772 10.3344C54.1062 11.7352 55.2766 12.4101 58.5822 12.6831V24.6386ZM64.2056 23.7457H61.5511V10.7659H64.2056V23.7457ZM73.0313 23.7457H67.1744V7.9999H73.0313V23.7457Z" fill="#1C6D00"/>
</g>
<defs>
<clipPath id="clip0">
<rect width="76" height="76" fill="white"/>
</clipPath>
</defs>
</svg>
