<?xml version="1.0" encoding="utf-8"?>
<!-- Generator: Adobe Illustrator 17.1.0, SVG Export Plug-In . SVG Version: 6.00 Build 0)  -->
<!DOCTYPE svg PUBLIC "-//W3C//DTD SVG 1.1//EN" "http://www.w3.org/Graphics/SVG/1.1/DTD/svg11.dtd">
<svg version="1.1" id="Слой_1" xmlns="http://www.w3.org/2000/svg" xmlns:xlink="http://www.w3.org/1999/xlink" x="0px" y="0px"
	 viewBox="0 93 23 20" enable-background="new 0 93 23 20" xml:space="preserve">
<g transform="translate(-144 -275)">
	<text transform="matrix(1 0 0 1 148 351)" fill="#FFFFFF" font-family="'ArialMT'" font-size="12">     </text>
	<text transform="matrix(1 0 0 1 148 381)" fill="#FFFFFF" font-family="'ArialMT'" font-size="12">     </text>
	<text transform="matrix(1 0 0 1 148 411)" fill="#FFFFFF" font-family="'ArialMT'" font-size="12">     </text>
	<g transform="translate(4 -21)">
		<path fill="#FFFFFF" d="M145,359h13c2.8,0,5,2.2,5,5v10c0,2.8-2.2,5-5,5h-13c-2.8,0-5-2.2-5-5v-10C140,361.2,142.2,359,145,359z"
			/>
		<path fill="#FFFFFF" d="M145,389h13c2.8,0,5,2.2,5,5v10c0,2.8-2.2,5-5,5h-13c-2.8,0-5-2.2-5-5v-10C140,391.2,142.2,389,145,389z"
			/>
		<path fill="#FFFFFF" d="M145,416h13c2.8,0,5,2.2,5,5v10c0,2.8-2.2,5-5,5h-13c-2.8,0-5-2.2-5-5v-10C140,418.2,142.2,416,145,416z"
			/>
		<path fill="#FFFFFF" d="M145,444h13c2.8,0,5,2.2,5,5v10c0,2.8-2.2,5-5,5h-13c-2.8,0-5-2.2-5-5v-10C140,446.2,142.2,444,145,444z"
			/>
		<path fill="#2550E5" d="M150.8,374.3c-3.2-4.6-3.7-5-3.7-6.7c0-2.3,1.9-4.2,4.2-4.2c2.3,0,4.2,1.9,4.2,4.2c0,1.7-0.6,2.2-3.7,6.7
			c-0.2,0.2-0.5,0.3-0.7,0.1C150.9,374.4,150.8,374.4,150.8,374.3L150.8,374.3z M151.2,369.3c1,0,1.7-0.8,1.7-1.7
			c0-1-0.8-1.7-1.7-1.7s-1.7,0.8-1.7,1.7c0,0,0,0,0,0C149.5,368.6,150.3,369.3,151.2,369.3C151.2,369.3,151.2,369.3,151.2,369.3
			L151.2,369.3z"/>
		<path fill="#2550E5" d="M153.6,393.1h-4.3c-0.7,0-1.3,0.6-1.3,1.3v9.1c0,0.7,0.6,1.3,1.3,1.3h4.3c0.7,0,1.3-0.6,1.3-1.3v-9.1
			C155,393.7,154.4,393.1,153.6,393.1z M151.5,404.3c-0.4,0-0.8-0.4-0.8-0.8s0.4-0.8,0.8-0.8c0.4,0,0.8,0.4,0.8,0.8
			S151.9,404.3,151.5,404.3L151.5,404.3z M153.9,402.2h-4.8v-7.5h4.8V402.2z"/>
		<g transform="translate(142.656 414.522)">
			<path fill="#2550E5" d="M13.7,8.8L11,11.5c0,0,0,0,0,0.1c0,0,0,0,0,0l1.9,2c0.1,0.1,0.1,0.3,0,0.5c0,0,0,0,0,0
				c-0.1,0.1-0.3,0.1-0.5,0l-1.9-2c0,0-0.1,0-0.1,0c0,0,0,0,0,0L10,12.5c-0.4,0.4-0.9,0.6-1.4,0.6c-0.6,0-1.1-0.2-1.5-0.6L6.7,12
				c0,0-0.1,0-0.1,0c0,0,0,0,0,0l-1.9,2c-0.1,0.1-0.3,0.1-0.5,0c-0.1-0.1-0.1-0.3,0-0.5c0,0,0,0,0,0l1.9-2c0,0,0,0,0-0.1L3.5,8.8
				c0,0,0,0-0.1,0c0,0,0,0,0,0v5.5c0,0.4,0.4,0.8,0.8,0.8H13c0.4,0,0.8-0.4,0.8-0.8l0,0L13.7,8.8C13.8,8.8,13.8,8.7,13.7,8.8
				C13.7,8.7,13.7,8.8,13.7,8.8z"/>
			<path fill="#2550E5" d="M8.6,12.5c0.4,0,0.7-0.1,1-0.4l3.9-4c-0.1-0.1-0.3-0.2-0.5-0.2H4.2C4,7.9,3.8,7.9,3.7,8l3.9,4
				C7.9,12.3,8.2,12.5,8.6,12.5z"/>
		</g>
		<path fill="#2550E5" d="M151.5,448.8c-2.9,0-5.2,2.3-5.2,5.2c0,2.9,2.3,5.2,5.2,5.2c2.9,0,5.2-2.3,5.2-5.2
			C156.7,451.1,154.4,448.8,151.5,448.8L151.5,448.8z M151.9,454.5c0,0.2-0.2,0.3-0.4,0.4h-2.4c-0.2,0-0.4-0.2-0.4-0.3
			s0.2-0.4,0.3-0.4c0,0,0,0,0,0h2v-3.3c0-0.2,0.2-0.4,0.3-0.4c0.2,0,0.4,0.2,0.4,0.3c0,0,0,0,0,0L151.9,454.5z"/>
	</g>
</g>
</svg>
