<svg width="75" height="65" viewBox="0 0 75 65" fill="none" xmlns="http://www.w3.org/2000/svg">
<rect width="75" height="65" rx="9" fill="#F2EBB0"/>
<path d="M37.5 15.2939C28.2188 15.2939 20.625 23.0366 20.625 32.4998C20.625 41.9631 28.2188 49.7057 37.5 49.7057C46.7812 49.7057 54.375 41.9631 54.375 32.4998C54.375 23.0366 46.7812 15.2939 37.5 15.2939ZM49.1437 25.6175H43.7437C43.4062 23.3807 42.9 21.316 42.225 19.5954C45.0938 20.7998 47.625 22.8645 49.1437 25.6175ZM37.5 18.7351C38.175 18.7351 39.525 21.1439 40.3687 25.6175H34.6313C35.475 21.1439 36.825 18.7351 37.5 18.7351ZM24.5062 35.941C24.1687 34.9087 24 33.7042 24 32.4998C24 31.2954 24.1687 30.091 24.5062 29.0587H30.9187C30.75 30.2631 30.75 31.2954 30.75 32.4998C30.75 33.7042 30.75 34.7366 30.9187 35.941H24.5062ZM25.8562 39.3822H31.2563C31.5938 41.6189 32.1 43.6837 32.775 45.4042C29.9062 44.1998 27.375 42.1351 25.8562 39.3822ZM31.2563 25.6175H25.8562C27.375 22.8645 29.9062 20.7998 32.775 19.5954C32.1 21.316 31.5938 23.3807 31.2563 25.6175ZM37.5 46.2645C36.825 46.2645 35.475 43.8557 34.6313 39.3822H40.2C39.525 43.8557 38.175 46.2645 37.5 46.2645ZM40.7062 35.941H34.2938C34.125 34.9087 34.125 33.7042 34.125 32.4998C34.125 31.2954 34.125 30.091 34.2938 29.0587H40.7062C40.7062 30.091 40.875 31.2954 40.875 32.4998C40.875 33.7042 40.875 34.9087 40.7062 35.941ZM42.225 45.4042C42.9 43.6837 43.4062 41.6189 43.7437 39.3822H49.1437C47.625 42.1351 45.0938 44.1998 42.225 45.4042ZM44.0812 35.941C44.0812 34.7366 44.25 33.7042 44.25 32.4998C44.25 31.2954 44.25 30.2631 44.0812 29.0587H50.4938C50.8313 30.091 51 31.2954 51 32.4998C51 33.7042 50.8313 34.9087 50.4938 35.941H44.0812Z" fill="#796D00"/>
</svg>
