<svg width="65" height="54" viewBox="0 0 65 54" fill="none" xmlns="http://www.w3.org/2000/svg">
<rect width="65" height="54" rx="9" fill="#F2EBB0"/>
<g clip-path="url(#clip0)">
<path d="M39.7549 8C39.14 8 38.6416 8.49837 38.6416 9.11328C38.6416 9.7279 39.14 10.2266 39.7549 10.2266C45.2792 10.2266 49.7738 14.7209 49.7738 20.2452C49.7738 20.8601 50.2722 21.3585 50.8868 21.3585C51.5017 21.3585 52.0001 20.8601 52.0001 20.2452C52.0001 13.4933 46.507 8 39.7549 8Z" fill="#796D00"/>
<path d="M39.7549 12.4531C39.14 12.4531 38.6416 12.9515 38.6416 13.5664C38.6416 14.181 39.14 14.6797 39.7549 14.6797C42.8239 14.6797 45.3207 17.1765 45.3207 20.2455C45.3207 20.8604 45.8194 21.3588 46.434 21.3588C47.0489 21.3588 47.5473 20.8604 47.5473 20.2455C47.5473 15.9489 44.0517 12.4531 39.7549 12.4531Z" fill="#796D00"/>
<path d="M40.8679 20.2448C40.8679 20.8597 41.3665 21.3581 41.9812 21.3581C42.5961 21.3581 43.0944 20.8597 43.0944 20.2448C43.0944 18.4036 41.5961 16.9053 39.7549 16.9053C39.14 16.9053 38.6416 17.4036 38.6416 18.0186C38.6416 18.6332 39.14 19.1318 39.7549 19.1318C40.3686 19.1318 40.8679 19.6311 40.8679 20.2448Z" fill="#796D00"/>
<path d="M43.1279 26.3185L33.6818 16.8725C32.3766 15.5673 30.2643 15.5673 28.9588 16.8725L16.9368 28.8947C13.0212 32.8103 13.0209 39.1476 16.9368 43.0635C20.8524 46.9792 27.1897 46.9795 31.1056 43.0635L43.1279 31.0413C44.4299 29.7393 44.4299 27.6205 43.1279 26.3185ZM41.5537 29.4673L29.5314 41.4893C26.4858 44.5349 21.5569 44.5352 18.5111 41.4893C15.4658 38.444 15.4655 33.5148 18.5111 30.4693L30.5333 18.447C30.9673 18.013 31.6736 18.013 32.1076 18.447L41.5534 27.8928C41.9874 28.3268 41.9874 29.033 41.5537 29.4673Z" fill="#796D00"/>
<path d="M25.8101 27.8923C25.3755 27.4578 24.6707 27.4578 24.2359 27.8923C23.8013 28.3272 23.8013 29.032 24.2359 29.4669C24.6707 29.9015 25.3755 29.9015 25.8101 29.4669C26.245 29.032 26.245 28.3272 25.8101 27.8923Z" fill="#796D00"/>
<path d="M28.9585 31.0408C28.524 30.6062 27.8192 30.6062 27.3843 31.0408C26.9497 31.4757 26.9497 32.1804 27.3843 32.6153C27.8192 33.0499 28.524 33.0499 28.9585 32.6153C29.3934 32.1804 29.3934 31.4757 28.9585 31.0408Z" fill="#796D00"/>
<path d="M32.1074 34.1904C31.6726 33.7555 30.9678 33.7555 30.5332 34.1904C30.0983 34.625 30.0983 35.3298 30.5332 35.7647C30.9678 36.1992 31.6726 36.1992 32.1074 35.7647C32.542 35.3298 32.542 34.625 32.1074 34.1904Z" fill="#796D00"/>
<path d="M22.6616 31.041C22.2268 30.6061 21.522 30.6061 21.0874 31.041C20.6525 31.4756 20.6525 32.1807 21.0874 32.6152C21.522 33.0501 22.2268 33.0501 22.6616 32.6152C23.0962 32.1807 23.0962 31.4756 22.6616 31.041Z" fill="#796D00"/>
<path d="M25.8101 34.1892C25.3752 33.7546 24.6704 33.7546 24.2358 34.1892C23.8009 34.6241 23.8009 35.3289 24.2358 35.7638C24.6704 36.1983 25.3752 36.1983 25.8101 35.7638C26.2447 35.3289 26.2447 34.6241 25.8101 34.1892Z" fill="#796D00"/>
<path d="M28.9588 37.3389C28.524 36.904 27.8192 36.904 27.3843 37.3389C26.9497 37.7734 26.9497 38.4782 27.3843 38.9131C27.8192 39.3477 28.524 39.3477 28.9588 38.9131C29.3934 38.4782 29.3934 37.7734 28.9588 37.3389Z" fill="#796D00"/>
<path d="M22.6616 37.3379C22.2268 36.903 21.522 36.903 21.0874 37.3379C20.6525 37.7725 20.6525 38.4775 21.0874 38.9121C21.522 39.347 22.2268 39.347 22.6616 38.9121C23.0962 38.4775 23.0962 37.7725 22.6616 37.3379Z" fill="#796D00"/>
<path d="M30.4172 24.7862C29.1149 26.0882 29.1149 28.207 30.4172 29.509C31.7192 30.811 33.8379 30.811 35.1402 29.509C36.4422 28.207 36.4422 26.0882 35.1402 24.7859C33.8379 23.4842 31.7192 23.4839 30.4172 24.7862ZM33.5657 27.9347C33.1316 28.3687 32.4254 28.3687 31.9914 27.9347C31.5562 27.4996 31.5562 26.7956 31.9914 26.3605C32.4254 25.9265 33.1316 25.9265 33.5657 26.3605C34.0008 26.7956 34.0008 27.4996 33.5657 27.9347Z" fill="#796D00"/>
</g>
<defs>
<clipPath id="clip0">
<rect width="38" height="38" fill="white" transform="translate(14 8)"/>
</clipPath>
</defs>
</svg>
