<svg width="66" height="52" viewBox="0 0 66 52" fill="none" xmlns="http://www.w3.org/2000/svg">
<rect width="66" height="52" rx="9" fill="#F2D0B0"/>
<g clip-path="url(#clip0)">
<path d="M49.9447 22.5408H46.6107C46.3817 21.8052 46.091 21.0899 45.7414 20.4018L48.3569 17.8361C48.5548 17.6419 48.666 17.3786 48.666 17.1041C48.666 16.8295 48.5548 16.5663 48.3569 16.3721L43.7031 11.807C43.2911 11.4027 42.6228 11.4027 42.2107 11.807L39.6779 14.2915C38.9657 13.9193 38.2227 13.6077 37.4566 13.3598V9.83305C37.4566 9.26135 36.9841 8.79785 36.4013 8.79785H29.82C29.2372 8.79785 28.7647 9.26135 28.7647 9.83305V13.2846C27.9621 13.5289 27.1833 13.843 26.4363 14.2236L24.1565 11.9872C23.7445 11.5829 23.0763 11.583 22.6641 11.9872L18.0105 16.5523C17.5983 16.9565 17.5983 17.612 18.0105 18.0163L20.3077 20.2699C19.9267 20.9996 19.6128 21.7591 19.3692 22.5408H16.0553C15.4725 22.5408 15 23.0043 15 23.576V30.0321C15 30.6038 15.4725 31.0673 16.0553 31.0673H19.4841C19.7337 31.7985 20.0448 32.5078 20.4144 33.1885L17.9645 35.5917C17.7666 35.7858 17.6554 36.0491 17.6554 36.3237C17.6554 36.5983 17.7665 36.8616 17.9645 37.0557L22.6182 41.6208C23.0302 42.0251 23.6985 42.0251 24.1106 41.6208L26.643 39.1366C27.2848 39.4505 27.9494 39.7161 28.6311 39.9309V43.0548C28.6311 43.6265 29.1036 44.09 29.6864 44.09H36.2677C36.8505 44.09 37.323 43.6265 37.323 43.0548V39.9389C38.0613 39.7076 38.7799 39.4168 39.4718 39.0691L42.096 41.6433C42.508 42.0475 43.1762 42.0476 43.5884 41.6433L48.2421 37.0782C48.44 36.8841 48.5512 36.6208 48.5512 36.3462C48.5512 36.0716 48.4401 35.8083 48.2421 35.6142L45.6353 33.0571C45.9744 32.4163 46.262 31.751 46.4956 31.0672H49.9447C50.5275 31.0672 51 30.6037 51 30.032V23.5759C51 23.0043 50.5275 22.5408 49.9447 22.5408ZM48.8894 28.9969H45.7133C45.2371 28.9969 44.8201 29.3096 44.695 29.7602C44.4083 30.7936 43.9791 31.7851 43.4193 32.707C43.1722 33.1141 43.2383 33.6337 43.5798 33.9687L46.0034 36.3462L42.842 39.4474L40.4044 37.0561C40.0644 36.7227 39.538 36.6567 39.1237 36.8954C38.1465 37.4585 37.0976 37.8829 36.0061 38.1567C35.539 38.2739 35.2123 38.6868 35.2123 39.1596V42.0196H30.7416V39.1532C30.7416 38.6811 30.4159 38.2688 29.9499 38.1509C28.9104 37.8878 27.9092 37.4883 26.9741 36.9634C26.561 36.7313 26.0405 36.7995 25.7038 37.1299L23.3643 39.4248L20.2029 36.3237L22.4761 34.0938C22.8208 33.7557 22.8846 33.2301 22.6304 32.8221C22.0364 31.8684 21.5836 30.8381 21.2846 29.7602C21.1596 29.3096 20.7425 28.9968 20.2663 28.9968H17.1106V24.6111H20.1741C20.6614 24.6111 21.0853 24.2839 21.1999 23.8193C21.4772 22.6943 21.9226 21.6149 22.5236 20.6112C22.767 20.2047 22.6997 19.6882 22.3599 19.3549L20.249 17.2842L23.4104 14.1831L25.5071 16.2399C25.8486 16.5749 26.3782 16.6397 26.7933 16.3973C27.8166 15.7993 28.92 15.3547 30.0729 15.0756C30.5441 14.9615 30.8752 14.5467 30.8752 14.0706V10.8683H35.346V14.1309C35.346 14.5997 35.6672 15.0101 36.129 15.1311C37.2476 15.4242 38.3159 15.8733 39.3045 16.4657C39.7204 16.7149 40.2562 16.6523 40.6008 16.3142L42.9569 14.003L46.1183 17.1041L43.6958 19.4805C43.3591 19.8108 43.2896 20.3213 43.5261 20.7267C44.0907 21.6945 44.5125 22.7351 44.78 23.8194C44.8945 24.2839 45.3184 24.6112 45.8057 24.6112H48.8894V28.9969Z" fill="#643000"/>
<path d="M25.0182 25.1023C25.2349 25.4352 25.698 25.6672 26.163 25.5446L28.0321 25.0813C28.5972 24.9413 28.9395 24.3784 28.7968 23.8241C28.6742 23.3482 28.2336 23.0342 27.754 23.0434C28.8966 21.375 30.8382 20.3116 32.9666 20.3116C35.702 20.3116 38.1019 22.0262 38.9387 24.578C39.1172 25.1223 39.7113 25.4217 40.2664 25.2466C40.8212 25.0715 41.1264 24.4884 40.9479 23.9441C39.8295 20.5331 36.622 18.2412 32.9667 18.2412C29.94 18.2412 27.1947 19.8502 25.7189 22.3314C25.3879 21.9205 24.7873 21.8133 24.3264 22.1C23.8342 22.4062 23.6883 23.0459 24.0004 23.5287L25.0134 25.0954C25.0149 25.0977 25.0166 25.0999 25.0182 25.1023Z" fill="#643000"/>
<path d="M40.9962 27.8061C40.7806 27.4683 40.328 27.213 39.8366 27.3414L37.9675 27.8046C37.4024 27.9446 37.0601 28.5075 37.2028 29.0618C37.3237 29.531 37.7533 29.8437 38.2252 29.8437C38.2318 29.8437 38.2386 29.8432 38.2453 29.8431C37.1025 31.5112 35.1611 32.5743 33.033 32.5743C30.2977 32.5743 27.8978 30.8597 27.0609 28.3079C26.8824 27.7637 26.288 27.4642 25.7332 27.6394C25.1784 27.8145 24.8732 28.3976 25.0517 28.9419C26.1702 32.353 29.3776 34.6448 33.0329 34.6448C36.0596 34.6448 38.8049 33.0358 40.2807 30.5547C40.6117 30.9655 41.2124 31.0727 41.6732 30.786C42.1654 30.4797 42.3113 29.8401 41.9991 29.3574L40.9962 27.8061Z" fill="#643000"/>
</g>
<defs>
<clipPath id="clip0">
<rect width="36" height="35.3148" fill="white" transform="translate(15 8.78613)"/>
</clipPath>
</defs>
</svg>
