<svg width="65" height="65" viewBox="0 0 65 65" fill="none" xmlns="http://www.w3.org/2000/svg">
<g clip-path="url(#clip0)">
<path d="M64.7844 31.6271C64.4602 31.0108 63.8212 30.6249 63.1249 30.6249H61.1901C60.744 23.6513 57.8148 17.1564 52.8291 12.1705C47.3991 6.7405 40.1793 3.75 32.5 3.75C24.8208 3.75 17.6008 6.7405 12.1708 12.1707C8.58516 15.7563 6.01525 20.2028 4.72249 25.0486L0.329922 31.4377C-0.0645207 32.0114 -0.108573 32.7567 0.215537 33.3728C0.539648 33.9889 1.17873 34.375 1.87507 34.375H3.80983C4.25594 41.3486 7.18512 47.8435 12.1708 52.8293C17.601 58.2595 24.8207 61.25 32.5 61.25C40.1794 61.25 47.3991 58.2595 52.8293 52.8293C56.4149 49.2437 58.9848 44.7972 60.2776 39.9514L64.67 33.5622C65.0646 32.9884 65.1085 32.2432 64.7844 31.6271ZM50.1777 50.1777C45.4557 54.8994 39.1778 57.5 32.5 57.5C25.8224 57.5 19.5444 54.8994 14.8225 50.1777C10.1006 45.4558 7.50009 39.1777 7.50009 32.5C7.50009 31.4645 6.66055 30.625 5.62513 30.625H5.43965L7.99711 26.9051C7.99737 26.9048 7.99762 26.9044 7.99788 26.9042L8.75007 25.8098L10.865 28.8859C10.8652 28.8862 10.8654 28.8864 10.8656 28.8867L12.0607 30.625H11.8751C10.8396 30.625 10.0002 31.4646 10.0002 32.5C10.0002 44.9065 20.0937 55 32.5002 55C37.6048 55 42.6073 53.2365 46.5861 50.0341C49.4684 47.7143 51.7354 44.7112 53.1831 41.3485L54.705 43.5623C54.7467 43.6231 54.7919 43.6806 54.8399 43.7355C54.8408 43.7365 54.8416 43.7376 54.8425 43.7386C53.6497 46.1011 52.0777 48.2777 50.1777 50.1777ZM17.17 31.4377L14.4367 27.462C16.6896 19.3481 24.0046 13.75 32.4999 13.75C42.2057 13.75 50.2129 21.1635 51.1569 30.6249H49.3749C48.6787 30.6249 48.0396 31.0107 47.7155 31.6271C47.3913 32.2433 47.4354 32.9885 47.8298 33.5622L50.5631 37.5379C48.3102 45.6518 40.9952 51.2499 32.4999 51.2499C22.7941 51.2499 14.7869 43.8364 13.8429 34.375H15.625C16.3212 34.375 16.9602 33.9892 17.2843 33.3728C17.6085 32.7566 17.5645 32.0114 17.17 31.4377ZM57.003 38.0949C57.0027 38.0952 57.0024 38.0956 57.0022 38.0958L56.25 39.1903L54.1351 36.1142C54.1348 36.114 54.1347 36.1137 54.1345 36.1135L52.9394 34.375H53.1249C54.1605 34.375 54.9999 33.5354 54.9999 32.5C54.9999 20.0935 44.9064 10 32.4999 10C27.3953 10 22.3928 11.7635 18.414 14.9659C15.5316 17.2857 13.2646 20.2888 11.817 23.6515L10.2951 21.4377C10.2533 21.3769 10.2081 21.3194 10.1601 21.2645C10.1592 21.2635 10.1585 21.2624 10.1576 21.2614C11.3501 18.8989 12.9224 16.7222 14.8224 14.8222C19.5442 10.1004 25.8222 7.49993 32.4999 7.49993C39.1775 7.49993 45.4556 10.1004 50.1775 14.8222C54.8993 19.5442 57.4998 25.8222 57.4998 32.4999C57.4998 33.5354 58.3394 34.3748 59.3748 34.3748H59.5603L57.003 38.0949Z" fill="#1C6D00"/>
</g>
<defs>
<clipPath id="clip0">
<rect width="65" height="65" fill="white"/>
</clipPath>
</defs>
</svg>
