<svg width="705" height="525" viewBox="0 0 705 525" fill="none" xmlns="http://www.w3.org/2000/svg">
<mask id="mask0" mask-type="alpha" maskUnits="userSpaceOnUse" x="30" y="0" width="675" height="525">
<rect x="30" width="675" height="525" fill="#C4C4C4"/>
</mask>
<g mask="url(#mask0)">
<path d="M637 313C637 479.75 501.346 614.933 334 614.933C166.654 614.933 31 479.75 31 313C31 146.25 166.654 11.0664 334 11.0664C501.346 11.0664 637 146.25 637 313Z" stroke="#2550E5" stroke-opacity="0.05" stroke-width="2"/>
<path d="M514.972 312.999C514.972 412.591 433.951 493.333 334 493.333C234.049 493.333 153.028 412.591 153.028 312.999C153.028 213.407 234.049 132.666 334 132.666C433.951 132.666 514.972 213.407 514.972 312.999Z" stroke="#2550E5" stroke-opacity="0.2" stroke-width="2"/>
<path d="M574.915 312.999C574.915 445.581 467.057 553.066 334 553.066C200.943 553.066 93.0845 445.581 93.0845 312.999C93.0845 180.417 200.943 72.9326 334 72.9326C467.057 72.9326 574.915 180.417 574.915 312.999Z" stroke="#2550E5" stroke-opacity="0.06" stroke-width="2"/>
</g>
<rect x="376" y="254" width="187" height="41" rx="6" fill="#EFF2FC"/>
<path d="M387.748 268.4V281H391.636C394.84 281 396.748 279.38 396.748 276.104V273.296C396.748 270.02 394.84 268.4 391.636 268.4H387.748ZM389.548 270.056H391.6C393.796 270.056 394.948 271.028 394.948 273.332V276.068C394.948 278.372 393.796 279.344 391.6 279.344H389.548V270.056ZM398.352 269.48C398.352 270.236 398.964 270.812 399.72 270.812C400.476 270.812 401.088 270.236 401.088 269.48C401.088 268.724 400.476 268.148 399.72 268.148C398.964 268.148 398.352 268.724 398.352 269.48ZM400.566 272.18H398.874V281H400.566V272.18ZM409.933 272.18V273.566H409.681C409.195 272.756 408.385 271.928 406.657 271.928C404.335 271.928 402.517 273.8 402.517 276.482C402.517 279.164 404.335 281.036 406.657 281.036C408.385 281.036 409.195 280.208 409.681 279.398H409.897V280.64C409.897 282.476 408.763 283.34 407.143 283.34C405.595 283.34 404.677 282.476 404.173 281.522L402.661 282.404C403.525 283.682 404.875 284.852 407.251 284.852C409.897 284.852 411.589 283.106 411.589 280.73V272.18H409.933ZM407.089 279.524C405.397 279.524 404.209 278.444 404.209 276.482C404.209 274.52 405.397 273.44 407.089 273.44C408.817 273.44 409.897 274.592 409.897 276.482C409.897 278.372 408.817 279.524 407.089 279.524ZM413.592 269.48C413.592 270.236 414.204 270.812 414.96 270.812C415.716 270.812 416.328 270.236 416.328 269.48C416.328 268.724 415.716 268.148 414.96 268.148C414.204 268.148 413.592 268.724 413.592 269.48ZM415.806 272.18H414.114V281H415.806V272.18ZM417.325 272.18V273.656H419.773V279.488C419.773 280.388 420.385 281 421.249 281H423.553V279.524H421.933C421.609 279.524 421.465 279.38 421.465 279.02V273.656H424.057V272.18H421.465V269.12H419.773V272.18H417.325ZM429.638 268.4L428.54 270.74H430.088L431.6 268.4H429.638ZM425.534 274.502L426.992 275.168C427.406 274.142 428.252 273.44 429.692 273.44C431.132 273.44 431.978 274.16 431.978 275.366V275.6L428.72 275.906C426.452 276.122 425.354 276.986 425.354 278.588C425.354 280.172 426.632 281.252 428.612 281.252C430.43 281.252 431.348 280.406 431.726 279.614H431.978V281H433.634V275.438C433.634 273.314 432.104 271.928 429.728 271.928C427.568 271.928 426.164 273.134 425.534 274.502ZM427.064 278.516C427.064 277.616 427.874 277.31 428.9 277.22L431.978 276.932V277.076C431.978 278.606 430.97 279.848 428.9 279.848C427.73 279.848 427.064 279.344 427.064 278.516ZM437.744 268.4H436.052V281H437.744V268.4ZM440.271 272.18V281H441.963V276.392C441.963 274.556 442.989 273.512 444.627 273.512C446.067 273.512 446.895 274.304 446.895 275.834V281H448.587V275.69C448.587 273.26 447.003 272.036 445.149 272.036C443.403 272.036 442.593 272.846 442.179 273.674H441.927V272.18H440.271ZM451.785 268.4L450.687 270.74H452.235L453.747 268.4H451.785ZM452.685 272.18H450.993V281H452.685V272.18ZM460.033 276.59C460.033 279.326 461.977 281.252 464.569 281.252C467.161 281.252 469.105 279.326 469.105 276.59C469.105 273.854 467.161 271.928 464.569 271.928C461.977 271.928 460.033 273.854 460.033 276.59ZM461.725 276.59C461.725 274.646 462.877 273.476 464.569 273.476C466.261 273.476 467.413 274.646 467.413 276.59C467.413 278.534 466.261 279.704 464.569 279.704C462.877 279.704 461.725 278.534 461.725 276.59ZM471.05 268.4V281H472.706V279.614H472.958C473.444 280.424 474.254 281.252 475.982 281.252C478.304 281.252 480.122 279.326 480.122 276.59C480.122 273.854 478.304 271.928 475.982 271.928C474.254 271.928 473.444 272.756 472.958 273.566H472.742V268.4H471.05ZM475.55 273.44C477.242 273.44 478.43 274.574 478.43 276.59C478.43 278.606 477.242 279.74 475.55 279.74C473.822 279.74 472.742 278.534 472.742 276.59C472.742 274.646 473.822 273.44 475.55 273.44ZM481.496 276.59C481.496 279.29 483.44 281.252 486.104 281.252C488.714 281.252 489.992 279.506 490.388 277.832L488.714 277.508C488.48 278.642 487.796 279.704 486.104 279.704C484.376 279.704 483.188 278.462 483.188 276.59C483.188 274.718 484.376 273.476 486.068 273.476C487.634 273.476 488.552 274.448 488.696 275.69L490.352 275.348C489.992 273.386 488.444 271.928 486.068 271.928C483.44 271.928 481.496 273.89 481.496 276.59ZM492.267 268.4V281H493.959V276.392C493.959 274.556 494.985 273.512 496.623 273.512C498.063 273.512 498.891 274.304 498.891 275.834V281H500.583V275.69C500.583 273.26 498.999 272.036 497.145 272.036C495.399 272.036 494.589 272.846 494.175 273.674H493.959V268.4H492.267ZM502.413 276.59C502.413 279.326 504.357 281.252 506.949 281.252C509.541 281.252 511.485 279.326 511.485 276.59C511.485 273.854 509.541 271.928 506.949 271.928C504.357 271.928 502.413 273.854 502.413 276.59ZM504.105 276.59C504.105 274.646 505.257 273.476 506.949 273.476C508.641 273.476 509.793 274.646 509.793 276.59C509.793 278.534 508.641 279.704 506.949 279.704C505.257 279.704 504.105 278.534 504.105 276.59ZM521.927 268.4H520.235V273.566H520.019C519.533 272.756 518.723 271.928 516.995 271.928C514.673 271.928 512.855 273.854 512.855 276.59C512.855 279.326 514.673 281.252 516.995 281.252C518.723 281.252 519.533 280.424 520.019 279.614H520.271V281H521.927V268.4ZM517.427 273.44C519.155 273.44 520.235 274.646 520.235 276.59C520.235 278.534 519.155 279.74 517.427 279.74C515.735 279.74 514.547 278.606 514.547 276.59C514.547 274.574 515.735 273.44 517.427 273.44ZM524.452 272.18V281H526.144V276.392C526.144 274.556 527.17 273.512 528.808 273.512C530.248 273.512 531.076 274.304 531.076 275.834V281H532.768V275.69C532.768 273.26 531.184 272.036 529.33 272.036C527.584 272.036 526.774 272.846 526.36 273.674H526.108V272.18H524.452ZM535.967 268.4L534.869 270.74H536.417L537.929 268.4H535.967ZM536.867 272.18H535.175V281H536.867V272.18ZM538.818 276.59C538.818 279.29 540.762 281.252 543.426 281.252C546.036 281.252 547.314 279.506 547.71 277.832L546.036 277.508C545.802 278.642 545.118 279.704 543.426 279.704C541.698 279.704 540.51 278.462 540.51 276.59C540.51 274.718 541.698 273.476 543.39 273.476C544.956 273.476 545.874 274.448 546.018 275.69L547.674 275.348C547.314 273.386 545.766 271.928 543.39 271.928C540.762 271.928 538.818 273.89 538.818 276.59ZM549.067 269.48C549.067 270.236 549.679 270.812 550.435 270.812C551.191 270.812 551.803 270.236 551.803 269.48C551.803 268.724 551.191 268.148 550.435 268.148C549.679 268.148 549.067 268.724 549.067 269.48ZM551.281 272.18H549.589V281H551.281V272.18Z" fill="#1B317C"/>
<rect x="330" y="128" width="173" height="41" rx="6" fill="#EFF2FC"/>
<path d="M341.031 147.296V150.104C341.031 153.344 342.867 155.252 345.927 155.252C348.987 155.252 350.823 153.344 350.823 150.104V147.296C350.823 144.056 348.915 142.148 345.927 142.148C342.867 142.148 341.031 144.056 341.031 147.296ZM342.831 147.26C342.831 145.028 343.839 143.804 345.927 143.804C348.015 143.804 349.023 145.028 349.023 147.26V150.14C349.023 152.372 348.015 153.596 345.927 153.596C343.839 153.596 342.831 152.372 342.831 150.14V147.26ZM352.941 142.4V155H354.597V153.614H354.849C355.335 154.424 356.145 155.252 357.873 155.252C360.195 155.252 362.013 153.326 362.013 150.59C362.013 147.854 360.195 145.928 357.873 145.928C356.145 145.928 355.335 146.756 354.849 147.566H354.633V142.4H352.941ZM357.441 147.44C359.133 147.44 360.321 148.574 360.321 150.59C360.321 152.606 359.133 153.74 357.441 153.74C355.713 153.74 354.633 152.534 354.633 150.59C354.633 148.646 355.713 147.44 357.441 147.44ZM363.386 150.59C363.386 153.29 365.33 155.252 367.994 155.252C370.604 155.252 371.882 153.506 372.278 151.832L370.604 151.508C370.37 152.642 369.686 153.704 367.994 153.704C366.266 153.704 365.078 152.462 365.078 150.59C365.078 148.718 366.266 147.476 367.958 147.476C369.524 147.476 370.442 148.448 370.586 149.69L372.242 149.348C371.882 147.386 370.334 145.928 367.958 145.928C365.33 145.928 363.386 147.89 363.386 150.59ZM374.157 142.4V155H375.849V150.392C375.849 148.556 376.875 147.512 378.513 147.512C379.953 147.512 380.781 148.304 380.781 149.834V155H382.473V149.69C382.473 147.26 380.889 146.036 379.035 146.036C377.289 146.036 376.479 146.846 376.065 147.674H375.849V142.4H374.157ZM384.304 150.59C384.304 153.326 386.248 155.252 388.84 155.252C391.432 155.252 393.376 153.326 393.376 150.59C393.376 147.854 391.432 145.928 388.84 145.928C386.248 145.928 384.304 147.854 384.304 150.59ZM385.996 150.59C385.996 148.646 387.148 147.476 388.84 147.476C390.532 147.476 391.684 148.646 391.684 150.59C391.684 152.534 390.532 153.704 388.84 153.704C387.148 153.704 385.996 152.534 385.996 150.59ZM403.818 142.4H402.126V147.566H401.91C401.424 146.756 400.614 145.928 398.886 145.928C396.564 145.928 394.746 147.854 394.746 150.59C394.746 153.326 396.564 155.252 398.886 155.252C400.614 155.252 401.424 154.424 401.91 153.614H402.162V155H403.818V142.4ZM399.318 147.44C401.046 147.44 402.126 148.646 402.126 150.59C402.126 152.534 401.046 153.74 399.318 153.74C397.626 153.74 396.438 152.606 396.438 150.59C396.438 148.574 397.626 147.44 399.318 147.44ZM406.343 146.18V155H408.035V150.392C408.035 148.556 409.061 147.512 410.699 147.512C412.139 147.512 412.967 148.304 412.967 149.834V155H414.659V149.69C414.659 147.26 413.075 146.036 411.221 146.036C409.475 146.036 408.665 146.846 408.251 147.674H407.999V146.18H406.343ZM417.858 142.4L416.76 144.74H418.308L419.82 142.4H417.858ZM418.758 146.18H417.066V155H418.758V146.18ZM426.681 158.6H428.373V153.614H428.589C429.075 154.424 429.885 155.252 431.613 155.252C433.935 155.252 435.753 153.326 435.753 150.59C435.753 147.854 433.935 145.928 431.613 145.928C429.885 145.928 429.075 146.756 428.589 147.566H428.337V146.18H426.681V158.6ZM431.181 153.74C429.453 153.74 428.373 152.534 428.373 150.59C428.373 148.646 429.453 147.44 431.181 147.44C432.873 147.44 434.061 148.574 434.061 150.59C434.061 152.606 432.873 153.74 431.181 153.74ZM437.344 148.502L438.802 149.168C439.216 148.142 440.062 147.44 441.502 147.44C442.942 147.44 443.788 148.16 443.788 149.366V149.6L440.53 149.906C438.262 150.122 437.164 150.986 437.164 152.588C437.164 154.172 438.442 155.252 440.422 155.252C442.24 155.252 443.158 154.406 443.536 153.614H443.788V155H445.444V149.438C445.444 147.314 443.914 145.928 441.538 145.928C439.378 145.928 437.974 147.134 437.344 148.502ZM438.874 152.516C438.874 151.616 439.684 151.31 440.71 151.22L443.788 150.932V151.076C443.788 152.606 442.78 153.848 440.71 153.848C439.54 153.848 438.874 153.344 438.874 152.516ZM449.483 146.18H447.863V155H449.555V149.852C449.555 148.52 450.239 147.8 451.499 147.8H453.047V146.144H452.039C450.761 146.144 450.041 146.684 449.735 147.62H449.483V146.18ZM453.886 146.18V147.656H456.334V153.488C456.334 154.388 456.946 155 457.81 155H460.114V153.524H458.494C458.17 153.524 458.026 153.38 458.026 153.02V147.656H460.618V146.18H458.026V143.12H456.334V146.18H453.886ZM462.382 146.18V155H464.074V150.392C464.074 148.556 465.1 147.512 466.738 147.512C468.178 147.512 469.006 148.304 469.006 149.834V155H470.698V149.69C470.698 147.26 469.114 146.036 467.26 146.036C465.514 146.036 464.704 146.846 464.29 147.674H464.038V146.18H462.382ZM472.529 150.518C472.529 153.182 474.401 155.252 477.137 155.252C479.243 155.252 480.377 154.082 481.043 153.002L479.621 152.192C479.153 153.128 478.397 153.776 477.101 153.776C475.517 153.776 474.401 152.786 474.293 151.202H481.241V150.356C481.241 147.8 479.513 145.892 476.921 145.892C474.365 145.892 472.529 147.926 472.529 150.518ZM474.293 149.834C474.419 148.268 475.373 147.368 476.921 147.368C478.469 147.368 479.441 148.322 479.477 149.834H474.293ZM486.779 142.4L485.897 143.678H485.681L484.799 142.4H482.999L484.691 144.74H486.887L488.579 142.4H486.779ZM484.727 146.18H483.107V155H484.799V149.852C484.799 148.52 485.483 147.8 486.743 147.8H488.291V146.144H487.283C486.005 146.144 485.285 146.684 484.979 147.62H484.727V146.18ZM489.352 143.48C489.352 144.236 489.964 144.812 490.72 144.812C491.476 144.812 492.088 144.236 492.088 143.48C492.088 142.724 491.476 142.148 490.72 142.148C489.964 142.148 489.352 142.724 489.352 143.48ZM491.566 146.18H489.874V155H491.566V146.18Z" fill="#1B317C"/>
<rect y="281" width="113" height="41" rx="6" fill="#EBF5F4"/>
<path d="M10.2666 295.4L14.1366 308H16.9806L20.8506 295.4H18.9066L15.6666 306.38H15.4506L12.2106 295.4H10.2666ZM28.9544 299.18L26.2364 305.876H26.0204L23.3024 299.18H21.4664L25.2284 308.162L23.7344 311.6H25.5704L30.7904 299.18H28.9544ZM40.7238 295.4H39.0318V300.566H38.8158C38.3298 299.756 37.5198 298.928 35.7918 298.928C33.4698 298.928 31.6518 300.854 31.6518 303.59C31.6518 306.326 33.4698 308.252 35.7918 308.252C37.5198 308.252 38.3298 307.424 38.8158 306.614H39.0678V308H40.7238V295.4ZM36.2238 300.44C37.9518 300.44 39.0318 301.646 39.0318 303.59C39.0318 305.534 37.9518 306.74 36.2238 306.74C34.5318 306.74 33.3438 305.606 33.3438 303.59C33.3438 301.574 34.5318 300.44 36.2238 300.44ZM42.9613 301.502L44.4193 302.168C44.8333 301.142 45.6793 300.44 47.1193 300.44C48.5593 300.44 49.4053 301.16 49.4053 302.366V302.6L46.1473 302.906C43.8793 303.122 42.7813 303.986 42.7813 305.588C42.7813 307.172 44.0593 308.252 46.0393 308.252C47.8573 308.252 48.7753 307.406 49.1533 306.614H49.4053V308H51.0613V302.438C51.0613 300.314 49.5313 298.928 47.1553 298.928C44.9953 298.928 43.5913 300.134 42.9613 301.502ZM44.4913 305.516C44.4913 304.616 45.3013 304.31 46.3273 304.22L49.4053 303.932V304.076C49.4053 305.606 48.3973 306.848 46.3273 306.848C45.1573 306.848 44.4913 306.344 44.4913 305.516ZM52.1227 299.18L55.4167 308H57.8287L61.1227 299.18H59.2867L56.7307 306.38H56.5147L53.9587 299.18H52.1227ZM62.2796 301.502L63.7376 302.168C64.1516 301.142 64.9976 300.44 66.4376 300.44C67.8776 300.44 68.7236 301.16 68.7236 302.366V302.6L65.4656 302.906C63.1976 303.122 62.0996 303.986 62.0996 305.588C62.0996 307.172 63.3776 308.252 65.3576 308.252C67.1756 308.252 68.0936 307.406 68.4716 306.614H68.7236V308H70.3796V302.438C70.3796 300.314 68.8496 298.928 66.4736 298.928C64.3136 298.928 62.9096 300.134 62.2796 301.502ZM63.8096 305.516C63.8096 304.616 64.6196 304.31 65.6456 304.22L68.7236 303.932V304.076C68.7236 305.606 67.7156 306.848 65.6456 306.848C64.4756 306.848 63.8096 306.344 63.8096 305.516ZM71.6143 299.18V300.656H74.0623V306.488C74.0623 307.388 74.6743 308 75.5383 308H77.8423V306.524H76.2223C75.8983 306.524 75.7543 306.38 75.7543 306.02V300.656H78.3463V299.18H75.7543V296.12H74.0623V299.18H71.6143ZM79.4467 303.518C79.4467 306.182 81.3187 308.252 84.0547 308.252C86.1607 308.252 87.2947 307.082 87.9607 306.002L86.5387 305.192C86.0707 306.128 85.3147 306.776 84.0187 306.776C82.4347 306.776 81.3187 305.786 81.2107 304.202H88.1587V303.356C88.1587 300.8 86.4307 298.892 83.8387 298.892C81.2827 298.892 79.4467 300.926 79.4467 303.518ZM81.2107 302.834C81.3367 301.268 82.2907 300.368 83.8387 300.368C85.3867 300.368 86.3587 301.322 86.3947 302.834H81.2107ZM91.7166 295.4H90.0246V308H91.7166V295.4ZM98.0234 295.4L96.9254 297.74H98.4734L99.9854 295.4H98.0234ZM93.6674 303.518C93.6674 306.182 95.5394 308.252 98.2754 308.252C100.381 308.252 101.515 307.082 102.181 306.002L100.759 305.192C100.291 306.128 99.5354 306.776 98.2394 306.776C96.6554 306.776 95.5394 305.786 95.4314 304.202H102.379V303.356C102.379 300.8 100.651 298.892 98.0594 298.892C95.5034 298.892 93.6674 300.926 93.6674 303.518ZM95.4314 302.834C95.5574 301.268 96.5114 300.368 98.0594 300.368C99.6074 300.368 100.579 301.322 100.615 302.834H95.4314Z" fill="#407C1B"/>
<rect x="30" y="169" width="114" height="41" rx="6" fill="#EBEFFC"/>
<path d="M41.5118 183.4V196H45.3998C48.6038 196 50.5118 194.38 50.5118 191.104V188.296C50.5118 185.02 48.6038 183.4 45.3998 183.4H41.5118ZM43.3118 185.056H45.3638C47.5598 185.056 48.7118 186.028 48.7118 188.332V191.068C48.7118 193.372 47.5598 194.344 45.3638 194.344H43.3118V185.056ZM52.0619 191.518C52.0619 194.182 53.9339 196.252 56.6699 196.252C58.7759 196.252 59.9099 195.082 60.5759 194.002L59.1539 193.192C58.6859 194.128 57.9299 194.776 56.6339 194.776C55.0499 194.776 53.9339 193.786 53.8259 192.202H60.7739V191.356C60.7739 188.8 59.0459 186.892 56.4539 186.892C53.8979 186.892 52.0619 188.926 52.0619 191.518ZM53.8259 190.834C53.9519 189.268 54.9059 188.368 56.4539 188.368C58.0019 188.368 58.9739 189.322 59.0099 190.834H53.8259ZM61.5641 187.18L64.8581 196H67.2701L70.5641 187.18H68.7281L66.1721 194.38H65.9561L63.4001 187.18H61.5641ZM71.433 191.518C71.433 194.182 73.305 196.252 76.041 196.252C78.147 196.252 79.281 195.082 79.947 194.002L78.525 193.192C78.057 194.128 77.301 194.776 76.005 194.776C74.421 194.776 73.305 193.786 73.197 192.202H80.145V191.356C80.145 188.8 78.417 186.892 75.825 186.892C73.269 186.892 71.433 188.926 71.433 191.518ZM73.197 190.834C73.323 189.268 74.277 188.368 75.825 188.368C77.373 188.368 78.345 189.322 78.381 190.834H73.197ZM83.703 183.4H82.011V196H83.703V183.4ZM85.6537 191.59C85.6537 194.326 87.5977 196.252 90.1897 196.252C92.7817 196.252 94.7257 194.326 94.7257 191.59C94.7257 188.854 92.7817 186.928 90.1897 186.928C87.5977 186.928 85.6537 188.854 85.6537 191.59ZM87.3457 191.59C87.3457 189.646 88.4977 188.476 90.1897 188.476C91.8817 188.476 93.0337 189.646 93.0337 191.59C93.0337 193.534 91.8817 194.704 90.1897 194.704C88.4977 194.704 87.3457 193.534 87.3457 191.59ZM96.6711 199.6H98.3631V194.614H98.5791C99.0651 195.424 99.8751 196.252 101.603 196.252C103.925 196.252 105.743 194.326 105.743 191.59C105.743 188.854 103.925 186.928 101.603 186.928C99.8751 186.928 99.0651 187.756 98.5791 188.566H98.3271V187.18H96.6711V199.6ZM101.171 194.74C99.4431 194.74 98.3631 193.534 98.3631 191.59C98.3631 189.646 99.4431 188.44 101.171 188.44C102.863 188.44 104.051 189.574 104.051 191.59C104.051 193.606 102.863 194.74 101.171 194.74ZM107.117 191.518C107.117 194.182 108.989 196.252 111.725 196.252C113.831 196.252 114.965 195.082 115.631 194.002L114.209 193.192C113.741 194.128 112.985 194.776 111.689 194.776C110.105 194.776 108.989 193.786 108.881 192.202H115.829V191.356C115.829 188.8 114.101 186.892 111.509 186.892C108.953 186.892 107.117 188.926 107.117 191.518ZM108.881 190.834C109.007 189.268 109.961 188.368 111.509 188.368C113.057 188.368 114.029 189.322 114.065 190.834H108.881ZM119.315 187.18H117.695V196H119.387V190.852C119.387 189.52 120.071 188.8 121.331 188.8H122.879V187.144H121.871C120.593 187.144 119.873 187.684 119.567 188.62H119.315V187.18ZM131.595 187.18L128.877 193.876H128.661L125.943 187.18H124.107L127.869 196.162L126.375 199.6H128.211L133.431 187.18H131.595Z" fill="#1B317C"/>
<rect x="134" y="101" width="91" height="41" rx="6" fill="#EDFAFC"/>
<path d="M145.772 115.4V128H147.572V117.02H147.788L151.676 128H155.024V115.4H153.224V126.398H153.008L149.084 115.4H145.772ZM161.399 115.4L160.301 117.74H161.849L163.361 115.4H161.399ZM157.295 121.502L158.753 122.168C159.167 121.142 160.013 120.44 161.453 120.44C162.893 120.44 163.739 121.16 163.739 122.366V122.6L160.481 122.906C158.213 123.122 157.115 123.986 157.115 125.588C157.115 127.172 158.393 128.252 160.373 128.252C162.191 128.252 163.109 127.406 163.487 126.614H163.739V128H165.395V122.438C165.395 120.314 163.865 118.928 161.489 118.928C159.329 118.928 157.925 120.134 157.295 121.502ZM158.825 125.516C158.825 124.616 159.635 124.31 160.661 124.22L163.739 123.932V124.076C163.739 125.606 162.731 126.848 160.661 126.848C159.491 126.848 158.825 126.344 158.825 125.516ZM166.457 119.18L169.751 128H172.163L175.457 119.18H173.621L171.065 126.38H170.849L168.293 119.18H166.457ZM178.697 119.18H177.077V128H178.769V122.852C178.769 121.52 179.453 120.8 180.713 120.8H182.261V119.144H181.253C179.975 119.144 179.255 119.684 178.949 120.62H178.697V119.18ZM183.845 115.4V128H185.537V123.392C185.537 121.556 186.563 120.512 188.201 120.512C189.641 120.512 190.469 121.304 190.469 122.834V128H192.161V122.69C192.161 120.26 190.577 119.036 188.723 119.036C186.977 119.036 186.167 119.846 185.753 120.674H185.537V115.4H183.845ZM198.384 115.4L197.286 117.74H198.834L200.346 115.4H198.384ZM194.28 121.502L195.738 122.168C196.152 121.142 196.998 120.44 198.438 120.44C199.878 120.44 200.724 121.16 200.724 122.366V122.6L197.466 122.906C195.198 123.122 194.1 123.986 194.1 125.588C194.1 127.172 195.378 128.252 197.358 128.252C199.176 128.252 200.094 127.406 200.472 126.614H200.724V128H202.38V122.438C202.38 120.314 200.85 118.928 198.474 118.928C196.314 118.928 194.91 120.134 194.28 121.502ZM195.81 125.516C195.81 124.616 196.62 124.31 197.646 124.22L200.724 123.932V124.076C200.724 125.606 199.716 126.848 197.646 126.848C196.476 126.848 195.81 126.344 195.81 125.516ZM208.47 115.4L207.588 116.678H207.372L206.49 115.4H204.69L206.382 117.74H208.578L210.27 115.4H208.47ZM206.418 119.18H204.798V128H206.49V122.852C206.49 121.52 207.174 120.8 208.434 120.8H209.982V119.144H208.974C207.696 119.144 206.976 119.684 206.67 120.62H206.418V119.18ZM211.044 116.48C211.044 117.236 211.656 117.812 212.412 117.812C213.168 117.812 213.78 117.236 213.78 116.48C213.78 115.724 213.168 115.148 212.412 115.148C211.656 115.148 211.044 115.724 211.044 116.48ZM213.258 119.18H211.566V128H213.258V119.18Z" fill="#1B7C77"/>
<rect x="286" y="332" width="112" height="41" rx="6" fill="#EFF2FC"/>
<path d="M302.331 343.16L301.485 344.168H301.269L300.423 343.16H298.479L300.315 345.23H302.439L304.275 343.16H302.331ZM297.075 346.4V348.056H303.465L296.895 357.416V359H305.769V357.344H299.091L305.661 347.984V346.4H297.075ZM307.23 347.48C307.23 348.236 307.842 348.812 308.598 348.812C309.354 348.812 309.966 348.236 309.966 347.48C309.966 346.724 309.354 346.148 308.598 346.148C307.842 346.148 307.23 346.724 307.23 347.48ZM309.444 350.18H307.752V359H309.444V350.18ZM311.071 350.18L314.365 359H316.777L320.071 350.18H318.235L315.679 357.38H315.463L312.907 350.18H311.071ZM321.692 350.18V359H323.384V354.392C323.384 352.556 324.41 351.512 326.048 351.512C327.488 351.512 328.316 352.304 328.316 353.834V359H330.008V353.69C330.008 351.26 328.424 350.036 326.57 350.036C324.824 350.036 324.014 350.846 323.6 351.674H323.348V350.18H321.692ZM331.838 354.59C331.838 357.326 333.782 359.252 336.374 359.252C338.966 359.252 340.91 357.326 340.91 354.59C340.91 351.854 338.966 349.928 336.374 349.928C333.782 349.928 331.838 351.854 331.838 354.59ZM333.53 354.59C333.53 352.646 334.682 351.476 336.374 351.476C338.066 351.476 339.218 352.646 339.218 354.59C339.218 356.534 338.066 357.704 336.374 357.704C334.682 357.704 333.53 356.534 333.53 354.59ZM342.605 352.538C342.605 354.212 343.919 354.86 345.899 355.148L346.637 355.256C347.591 355.4 348.725 355.472 348.725 356.39C348.725 357.254 347.825 357.812 346.565 357.812C345.125 357.812 343.991 357.002 343.433 355.67L341.921 356.48C342.605 357.776 344.009 359.252 346.511 359.252C348.779 359.252 350.399 358.1 350.399 356.336C350.399 354.5 348.833 354.014 346.835 353.726L346.097 353.618C345.143 353.474 344.279 353.384 344.279 352.52C344.279 351.764 345.017 351.332 346.007 351.332C347.051 351.332 348.113 351.818 349.085 353.078L350.345 352.178C348.959 350.63 347.771 349.928 345.971 349.928C344.171 349.928 342.605 350.864 342.605 352.538ZM351.27 350.18V351.656H353.718V357.488C353.718 358.388 354.33 359 355.194 359H357.498V357.524H355.878C355.554 357.524 355.41 357.38 355.41 357.02V351.656H358.002V350.18H355.41V347.12H353.718V350.18H351.27ZM359.766 350.18V359H361.458V354.392C361.458 352.556 362.484 351.512 364.122 351.512C365.562 351.512 366.39 352.304 366.39 353.834V359H368.082V353.69C368.082 351.26 366.498 350.036 364.644 350.036C362.898 350.036 362.088 350.846 361.674 351.674H361.422V350.18H359.766ZM371.281 346.4L370.183 348.74H371.731L373.243 346.4H371.281ZM372.181 350.18H370.489V359H372.181V350.18ZM374.131 354.59C374.131 357.29 376.075 359.252 378.739 359.252C381.349 359.252 382.627 357.506 383.023 355.832L381.349 355.508C381.115 356.642 380.431 357.704 378.739 357.704C377.011 357.704 375.823 356.462 375.823 354.59C375.823 352.718 377.011 351.476 378.703 351.476C380.269 351.476 381.187 352.448 381.331 353.69L382.987 353.348C382.627 351.386 381.079 349.928 378.703 349.928C376.075 349.928 374.131 351.89 374.131 354.59ZM384.381 347.48C384.381 348.236 384.993 348.812 385.749 348.812C386.505 348.812 387.117 348.236 387.117 347.48C387.117 346.724 386.505 346.148 385.749 346.148C384.993 346.148 384.381 346.724 384.381 347.48ZM386.595 350.18H384.903V359H386.595V350.18Z" fill="#1B317C"/>
<rect x="179" y="176" width="119" height="41" rx="6" fill="#EFF2FC"/>
<path d="M190.419 190.4V203H192.219V197.96H195.315C197.565 197.96 199.203 196.466 199.203 194.18C199.203 191.894 197.619 190.4 195.315 190.4H190.419ZM192.219 192.056H195.117C196.611 192.056 197.403 192.812 197.403 194.18C197.403 195.548 196.575 196.304 195.117 196.304H192.219V192.056ZM200.178 198.59C200.178 201.326 202.122 203.252 204.714 203.252C207.306 203.252 209.25 201.326 209.25 198.59C209.25 195.854 207.306 193.928 204.714 193.928C202.122 193.928 200.178 195.854 200.178 198.59ZM201.87 198.59C201.87 196.646 203.022 195.476 204.714 195.476C206.406 195.476 207.558 196.646 207.558 198.59C207.558 200.534 206.406 201.704 204.714 201.704C203.022 201.704 201.87 200.534 201.87 198.59ZM219.692 190.4H218V195.566H217.784C217.298 194.756 216.488 193.928 214.76 193.928C212.438 193.928 210.62 195.854 210.62 198.59C210.62 201.326 212.438 203.252 214.76 203.252C216.488 203.252 217.298 202.424 217.784 201.614H218.036V203H219.692V190.4ZM215.192 195.44C216.92 195.44 218 196.646 218 198.59C218 200.534 216.92 201.74 215.192 201.74C213.5 201.74 212.312 200.606 212.312 198.59C212.312 196.574 213.5 195.44 215.192 195.44ZM222.217 194.18V203H223.909V198.392C223.909 196.556 224.935 195.512 226.573 195.512C228.013 195.512 228.841 196.304 228.841 197.834V203H230.533V197.69C230.533 195.26 228.949 194.036 227.095 194.036C225.349 194.036 224.539 194.846 224.125 195.674H223.873V194.18H222.217ZM232.418 191.48C232.418 192.236 233.03 192.812 233.786 192.812C234.542 192.812 235.154 192.236 235.154 191.48C235.154 190.724 234.542 190.148 233.786 190.148C233.03 190.148 232.418 190.724 232.418 191.48ZM234.632 194.18H232.94V203H234.632V194.18ZM245.942 194.18H243.458L239.066 197.906H238.85V190.4H237.158V203H238.85V200.138L240.668 198.626L243.836 203H245.87L241.892 197.582L245.942 194.18ZM247.171 196.502L248.629 197.168C249.043 196.142 249.889 195.44 251.329 195.44C252.769 195.44 253.615 196.16 253.615 197.366V197.6L250.357 197.906C248.089 198.122 246.991 198.986 246.991 200.588C246.991 202.172 248.269 203.252 250.249 203.252C252.067 203.252 252.985 202.406 253.363 201.614H253.615V203H255.271V197.438C255.271 195.314 253.741 193.928 251.365 193.928C249.205 193.928 247.801 195.134 247.171 196.502ZM248.701 200.516C248.701 199.616 249.511 199.31 250.537 199.22L253.615 198.932V199.076C253.615 200.606 252.607 201.848 250.537 201.848C249.367 201.848 248.701 201.344 248.701 200.516ZM256.506 194.18V195.656H258.954V201.488C258.954 202.388 259.566 203 260.43 203H262.734V201.524H261.114C260.79 201.524 260.646 201.38 260.646 201.02V195.656H263.238V194.18H260.646V191.12H258.954V194.18H256.506ZM264.338 198.518C264.338 201.182 266.21 203.252 268.946 203.252C271.052 203.252 272.186 202.082 272.852 201.002L271.43 200.192C270.962 201.128 270.206 201.776 268.91 201.776C267.326 201.776 266.21 200.786 266.102 199.202H273.05V198.356C273.05 195.8 271.322 193.892 268.73 193.892C266.174 193.892 264.338 195.926 264.338 198.518ZM266.102 197.834C266.228 196.268 267.182 195.368 268.73 195.368C270.278 195.368 271.25 196.322 271.286 197.834H266.102ZM276.608 190.4H274.916V203H276.608V190.4ZM282.915 190.4L281.817 192.74H283.365L284.877 190.4H282.915ZM278.559 198.518C278.559 201.182 280.431 203.252 283.167 203.252C285.273 203.252 286.407 202.082 287.073 201.002L285.651 200.192C285.183 201.128 284.427 201.776 283.131 201.776C281.547 201.776 280.431 200.786 280.323 199.202H287.271V198.356C287.271 195.8 285.543 193.892 282.951 193.892C280.395 193.892 278.559 195.926 278.559 198.518ZM280.323 197.834C280.449 196.268 281.403 195.368 282.951 195.368C284.499 195.368 285.471 196.322 285.507 197.834H280.323Z" fill="#1B317C"/>
<rect x="126" y="250" width="106" height="41" rx="6" fill="#F6F6EF"/>
<path d="M137.361 264.4V277H145.497V275.344H139.161V271.51H144.921V269.854H139.161V266.056H145.425V264.4H137.361ZM147.702 273.238H153.03V271.69H147.702V273.238ZM155.765 280.6H157.457V275.614H157.673C158.159 276.424 158.969 277.252 160.697 277.252C163.019 277.252 164.837 275.326 164.837 272.59C164.837 269.854 163.019 267.928 160.697 267.928C158.969 267.928 158.159 268.756 157.673 269.566H157.421V268.18H155.765V280.6ZM160.265 275.74C158.537 275.74 157.457 274.534 157.457 272.59C157.457 270.646 158.537 269.44 160.265 269.44C161.957 269.44 163.145 270.574 163.145 272.59C163.145 274.606 161.957 275.74 160.265 275.74ZM168.406 268.18H166.786V277H168.478V271.852C168.478 270.52 169.162 269.8 170.422 269.8H171.97V268.144H170.962C169.684 268.144 168.964 268.684 168.658 269.62H168.406V268.18ZM172.521 272.59C172.521 275.326 174.465 277.252 177.057 277.252C179.649 277.252 181.593 275.326 181.593 272.59C181.593 269.854 179.649 267.928 177.057 267.928C174.465 267.928 172.521 269.854 172.521 272.59ZM174.213 272.59C174.213 270.646 175.365 269.476 177.057 269.476C178.749 269.476 179.901 270.646 179.901 272.59C179.901 274.534 178.749 275.704 177.057 275.704C175.365 275.704 174.213 274.534 174.213 272.59ZM192.034 264.4H190.342V269.566H190.126C189.64 268.756 188.83 267.928 187.102 267.928C184.78 267.928 182.962 269.854 182.962 272.59C182.962 275.326 184.78 277.252 187.102 277.252C188.83 277.252 189.64 276.424 190.126 275.614H190.378V277H192.034V264.4ZM187.534 269.44C189.262 269.44 190.342 270.646 190.342 272.59C190.342 274.534 189.262 275.74 187.534 275.74C185.842 275.74 184.654 274.606 184.654 272.59C184.654 270.574 185.842 269.44 187.534 269.44ZM193.984 272.518C193.984 275.182 195.856 277.252 198.592 277.252C200.698 277.252 201.832 276.082 202.498 275.002L201.076 274.192C200.608 275.128 199.852 275.776 198.556 275.776C196.972 275.776 195.856 274.786 195.748 273.202H202.696V272.356C202.696 269.8 200.968 267.892 198.376 267.892C195.82 267.892 193.984 269.926 193.984 272.518ZM195.748 271.834C195.874 270.268 196.828 269.368 198.376 269.368C199.924 269.368 200.896 270.322 200.932 271.834H195.748ZM204.04 265.48C204.04 266.236 204.652 266.812 205.408 266.812C206.164 266.812 206.776 266.236 206.776 265.48C206.776 264.724 206.164 264.148 205.408 264.148C204.652 264.148 204.04 264.724 204.04 265.48ZM206.254 268.18H204.562V278.584C204.562 278.944 204.382 279.124 204.058 279.124H202.51V280.6H204.778C205.642 280.6 206.254 279.988 206.254 279.088V268.18ZM208.205 272.59C208.205 275.29 210.149 277.252 212.813 277.252C215.423 277.252 216.701 275.506 217.097 273.832L215.423 273.508C215.189 274.642 214.505 275.704 212.813 275.704C211.085 275.704 209.897 274.462 209.897 272.59C209.897 270.718 211.085 269.476 212.777 269.476C214.343 269.476 215.261 270.448 215.405 271.69L217.061 271.348C216.701 269.386 215.153 267.928 212.777 267.928C210.149 267.928 208.205 269.89 208.205 272.59ZM218.454 265.48C218.454 266.236 219.066 266.812 219.822 266.812C220.578 266.812 221.19 266.236 221.19 265.48C221.19 264.724 220.578 264.148 219.822 264.148C219.066 264.148 218.454 264.724 218.454 265.48ZM220.668 268.18H218.976V277H220.668V268.18Z" fill="#7C611B"/>
<rect x="65" y="359" width="166" height="41" rx="6" fill="#EDEDFC"/>
<path d="M75.9411 378.296V381.104C75.9411 384.38 77.7771 386.252 80.8731 386.252C83.8971 386.252 85.5891 384.452 85.5891 381.644V381.392H83.7891V381.644C83.7891 383.408 82.8891 384.596 80.8731 384.596C78.8571 384.596 77.7411 383.372 77.7411 381.176V378.224C77.7411 376.028 78.8571 374.804 80.8731 374.804C82.8891 374.804 83.7891 376.01 83.7891 377.756V378.008H85.5891V377.684C85.5891 374.984 83.8971 373.148 80.8731 373.148C77.7771 373.148 75.9411 375.02 75.9411 378.296ZM87.0287 381.59C87.0287 384.326 88.9727 386.252 91.5647 386.252C94.1567 386.252 96.1007 384.326 96.1007 381.59C96.1007 378.854 94.1567 376.928 91.5647 376.928C88.9727 376.928 87.0287 378.854 87.0287 381.59ZM88.7207 381.59C88.7207 379.646 89.8727 378.476 91.5647 378.476C93.2567 378.476 94.4087 379.646 94.4087 381.59C94.4087 383.534 93.2567 384.704 91.5647 384.704C89.8727 384.704 88.7207 383.534 88.7207 381.59ZM98.0461 377.18V386H99.7381V381.392C99.7381 379.556 100.764 378.512 102.402 378.512C103.842 378.512 104.67 379.304 104.67 380.834V386H106.362V380.69C106.362 378.26 104.778 377.036 102.924 377.036C101.178 377.036 100.368 377.846 99.9541 378.674H99.7021V377.18H98.0461ZM107.585 377.18V378.656H110.033V384.488C110.033 385.388 110.645 386 111.509 386H113.813V384.524H112.193C111.869 384.524 111.725 384.38 111.725 384.02V378.656H114.317V377.18H111.725V374.12H110.033V377.18H107.585ZM115.417 381.518C115.417 384.182 117.289 386.252 120.025 386.252C122.131 386.252 123.265 385.082 123.931 384.002L122.509 383.192C122.041 384.128 121.285 384.776 119.989 384.776C118.405 384.776 117.289 383.786 117.181 382.202H124.129V381.356C124.129 378.8 122.401 376.892 119.809 376.892C117.253 376.892 115.417 378.926 115.417 381.518ZM117.181 380.834C117.307 379.268 118.261 378.368 119.809 378.368C121.357 378.368 122.329 379.322 122.365 380.834H117.181ZM125.995 377.18V386H127.687V381.392C127.687 379.556 128.713 378.512 130.351 378.512C131.791 378.512 132.619 379.304 132.619 380.834V386H134.311V380.69C134.311 378.26 132.727 377.036 130.873 377.036C129.127 377.036 128.317 377.846 127.903 378.674H127.651V377.18H125.995ZM135.534 377.18V378.656H137.982V384.488C137.982 385.388 138.594 386 139.458 386H141.762V384.524H140.142C139.818 384.524 139.674 384.38 139.674 384.02V378.656H142.266V377.18H139.674V374.12H137.982V377.18H135.534ZM149.031 378.296V381.104C149.031 384.38 150.867 386.252 153.963 386.252C156.987 386.252 158.679 384.452 158.679 381.644V381.392H156.879V381.644C156.879 383.408 155.979 384.596 153.963 384.596C151.947 384.596 150.831 383.372 150.831 381.176V378.224C150.831 376.028 151.947 374.804 153.963 374.804C155.979 374.804 156.879 376.01 156.879 377.756V378.008H158.679V377.684C158.679 374.984 156.987 373.148 153.963 373.148C150.867 373.148 149.031 375.02 149.031 378.296ZM162.315 377.18H160.695V386H162.387V380.852C162.387 379.52 163.071 378.8 164.331 378.8H165.879V377.144H164.871C163.593 377.144 162.873 377.684 162.567 378.62H162.315V377.18ZM166.429 381.518C166.429 384.182 168.301 386.252 171.037 386.252C173.143 386.252 174.277 385.082 174.943 384.002L173.521 383.192C173.053 384.128 172.297 384.776 171.001 384.776C169.417 384.776 168.301 383.786 168.193 382.202H175.141V381.356C175.141 378.8 173.413 376.892 170.821 376.892C168.265 376.892 166.429 378.926 166.429 381.518ZM168.193 380.834C168.319 379.268 169.273 378.368 170.821 378.368C172.369 378.368 173.341 379.322 173.377 380.834H168.193ZM176.649 379.502L178.107 380.168C178.521 379.142 179.367 378.44 180.807 378.44C182.247 378.44 183.093 379.16 183.093 380.366V380.6L179.835 380.906C177.567 381.122 176.469 381.986 176.469 383.588C176.469 385.172 177.747 386.252 179.727 386.252C181.545 386.252 182.463 385.406 182.841 384.614H183.093V386H184.749V380.438C184.749 378.314 183.219 376.928 180.843 376.928C178.683 376.928 177.279 378.134 176.649 379.502ZM178.179 383.516C178.179 382.616 178.989 382.31 180.015 382.22L183.093 381.932V382.076C183.093 383.606 182.085 384.848 180.015 384.848C178.845 384.848 178.179 384.344 178.179 383.516ZM185.983 377.18V378.656H188.431V384.488C188.431 385.388 189.043 386 189.907 386H192.211V384.524H190.591C190.267 384.524 190.123 384.38 190.123 384.02V378.656H192.715V377.18H190.123V374.12H188.431V377.18H185.983ZM193.816 381.59C193.816 384.326 195.76 386.252 198.352 386.252C200.944 386.252 202.888 384.326 202.888 381.59C202.888 378.854 200.944 376.928 198.352 376.928C195.76 376.928 193.816 378.854 193.816 381.59ZM195.508 381.59C195.508 379.646 196.66 378.476 198.352 378.476C200.044 378.476 201.196 379.646 201.196 381.59C201.196 383.534 200.044 384.704 198.352 384.704C196.66 384.704 195.508 383.534 195.508 381.59ZM206.453 377.18H204.833V386H206.525V380.852C206.525 379.52 207.209 378.8 208.469 378.8H210.017V377.144H209.009C207.731 377.144 207.011 377.684 206.705 378.62H206.453V377.18ZM218.734 377.18L216.016 383.876H215.8L213.082 377.18H211.246L215.008 386.162L213.514 389.6H215.35L220.57 377.18H218.734Z" fill="#521B7C"/>
</svg>
