<svg width="66" height="52" viewBox="0 0 66 52" fill="none" xmlns="http://www.w3.org/2000/svg">
<rect width="66" height="52" rx="9" fill="#F2EBB0"/>
<path d="M33.5002 8.33594C23.8506 8.33594 16 16.2568 16 25.9928C16 35.7296 23.8506 43.6508 33.5002 43.6508C43.1496 43.6508 51 35.7294 51 25.9928C51 16.2568 43.1496 8.33594 33.5002 8.33594ZM33.5002 41.1196C25.2338 41.1196 18.5086 34.3337 18.5086 25.9928C18.5086 17.6525 25.2338 10.8671 33.5002 10.8671C41.7663 10.8671 48.4914 17.6525 48.4914 25.9928C48.4914 34.3337 41.7663 41.1196 33.5002 41.1196Z" fill="#796D00"/>
<path d="M42.4983 25.6973H34.2743V16.6269C34.2743 15.928 33.7128 15.3613 33.02 15.3613C32.3272 15.3613 31.7656 15.928 31.7656 16.6269V26.9629C31.7656 27.6618 32.3272 28.2285 33.02 28.2285H42.4983C43.1912 28.2285 43.7526 27.6618 43.7526 26.9629C43.7526 26.2639 43.191 25.6973 42.4983 25.6973Z" fill="#796D00"/>
</svg>
