<svg width="66" height="52" viewBox="0 0 66 52" fill="none" xmlns="http://www.w3.org/2000/svg">
<rect width="66" height="52" rx="9" fill="#B0DAF2"/>
<path d="M48.998 32.5678C48.9549 31.1747 48.6614 30.3737 48.0461 29.9704C46.013 28.6377 42.5565 30.1556 40.4176 31.3271C40.0088 30.7626 39.3067 30.4547 38.5702 30.5535L35.7112 30.9393C35.2218 31.0054 34.714 30.9319 34.2428 30.7269C33.6923 30.4874 32.6675 30.0417 31.0229 30.2321C28.069 30.5743 28.1531 30.8193 27.3393 31.2166C27.1523 31.3021 26.5128 31.4074 25.7784 31.4834C25.455 30.7433 24.724 30.2253 23.8755 30.2253H20.0805C18.9333 30.2253 18 31.1716 18 32.3347V41.8906C18 43.0538 18.9333 44 20.0805 44H23.8755C24.8308 44 25.6373 43.3436 25.8805 42.4524L27.4318 42.1663C27.8685 42.1012 27.3253 42.0965 36.6599 42.7444C39.2588 42.9248 41.7575 41.9179 43.4024 40.1896C48.5857 34.8122 47.7101 35.7182 47.8115 35.6153C48.6113 34.774 49.0328 33.6917 48.998 32.5678ZM23.8755 41.8906H20.0805V32.3348H23.8755V41.8906H23.8755ZM46.316 34.1489C41.1327 39.5262 42.0087 38.6198 41.9073 38.7226C40.6388 40.0571 38.73 40.7739 36.8019 40.6401L28.4151 40.0584C27.512 39.9539 26.9667 40.1083 25.956 40.2946V33.5877C26.7618 33.5075 27.7355 33.3645 28.2402 33.118C29.0131 32.7409 28.7391 32.6199 31.259 32.3281C32.355 32.201 32.9973 32.4806 33.4225 32.6656C34.2383 33.0205 35.1245 33.1465 35.9858 33.0304L38.7562 32.6565C38.8567 33.0086 38.8809 33.4858 38.7494 33.7826C38.6828 33.933 38.5833 34.0242 38.4166 34.0873C37.2637 34.5244 37.2637 34.5244 32.3156 35.2495C31.747 35.3328 31.3527 35.8677 31.4349 36.4442C31.5173 37.0226 32.0469 37.4205 32.6132 37.3371C37.6858 36.5939 37.7827 36.5797 39.1453 36.063C40.1709 35.6742 40.8524 34.7622 40.9141 33.4562C42.8366 32.3229 45.6714 31.1475 46.8004 31.6773C46.8379 31.7983 46.9014 32.0799 46.9186 32.6339C46.9356 33.1831 46.7216 33.721 46.316 34.1489Z" fill="#2550E5"/>
<path d="M35.7534 28.1094C41.2215 28.1094 45.6702 23.5989 45.6702 18.0547C45.6702 12.5105 41.2215 8 35.7534 8C30.2852 8 25.8365 12.5105 25.8365 18.0547C25.8365 23.5989 30.2852 28.1094 35.7534 28.1094ZM35.7534 10.1094C40.0744 10.1094 43.5897 13.6736 43.5897 18.0547C43.5897 22.4358 40.0744 26 35.7534 26C31.4323 26 27.917 22.4358 27.917 18.0547C27.917 13.6736 31.4323 10.1094 35.7534 10.1094Z" fill="#2550E5"/>
<path d="M33.0844 22.5327C33.7072 22.9458 34.182 23.1377 34.7221 23.2215V23.4074C34.7221 23.9899 35.1879 24.4621 35.7624 24.4621C36.3369 24.4621 36.8026 23.9899 36.8026 23.4074V23.1083C38.0145 22.6955 38.7892 21.6009 38.9683 20.5201C39.2157 19.028 38.4187 17.6804 36.985 17.1667C36.258 16.9061 35.4558 16.5929 35.0192 16.2457C34.9522 16.1925 34.9027 16.0194 34.9428 15.8036C34.9628 15.6961 35.0551 15.3371 35.4045 15.2304C36.2925 14.9592 36.6907 15.4618 37.0414 15.6478C37.5506 15.9177 38.179 15.7181 38.4452 15.2018C38.7049 14.6982 38.5237 14.0792 38.0418 13.7988C37.6853 13.5533 37.3529 13.3275 36.8027 13.1708V13.0078C36.8027 12.4253 36.337 11.9531 35.7625 11.9531C35.188 11.9531 34.7223 12.4253 34.7223 13.0078V13.2391C32.7097 13.927 32.2186 16.6993 33.7354 17.9056C34.407 18.4397 35.361 18.822 36.2918 19.1555C36.9106 19.3773 36.9732 19.8299 36.9167 20.1705C36.8373 20.6492 36.4402 21.1665 35.7556 21.171C34.9907 21.1776 34.7913 21.1444 34.2234 20.7676C33.7426 20.4487 33.0979 20.5853 32.7834 21.0729C32.4689 21.5601 32.6036 22.2138 33.0844 22.5327Z" fill="#2550E5"/>
</svg>
