<svg width="65" height="65" viewBox="0 0 65 65" fill="none" xmlns="http://www.w3.org/2000/svg">
<g clip-path="url(#clip0)">
<path d="M59.375 29.375H57.5505C56.9425 27.1051 55.8629 24.9843 54.375 23.1451V13.75C54.375 12.7144 53.5355 11.875 52.5001 11.875C48.8846 11.875 45.6393 13.9586 44.0866 17.113C43.1529 16.9547 42.204 16.8749 41.2501 16.8749H39.3751V16.2499C39.3751 9.70208 34.0481 4.375 27.5001 4.375C20.9522 4.375 15.6251 9.70208 15.6251 16.2499V16.9213C6.90168 17.563 0 24.8655 0 33.7499V38.75C0 42.4401 1.16975 45.9453 3.38305 48.8864C5.23847 51.3522 7.77448 53.2846 10.6251 54.4269V54.9998C10.6251 58.1014 13.1484 60.6249 16.2501 60.6249C19.1405 60.6249 21.5287 58.4334 21.8406 55.6248H35.6597C35.9717 58.4333 38.3599 60.6249 41.2502 60.6249C44.3518 60.6249 46.8753 58.1016 46.8753 54.9998V54.6639C52.1153 52.8152 56.1176 48.4852 57.5513 43.1248H59.3752C62.4768 43.1248 65.0003 40.6014 65.0003 37.4997V34.9998C65 31.8983 62.4767 29.375 59.375 29.375ZM19.375 16.2499C19.375 11.7698 23.0198 8.12494 27.5 8.12494C31.9801 8.12494 35.625 11.7698 35.625 16.2499V16.8749H19.375V16.2499ZM61.2501 37.5C61.2501 38.5339 60.409 39.375 59.3751 39.375H56.0416C55.1258 39.375 54.3439 40.0365 54.1925 40.9397C53.3363 46.0409 49.5447 50.1708 44.5327 51.461C43.7043 51.6743 43.1251 52.4214 43.1251 53.2767V54.9998C43.1251 56.0337 42.284 56.8748 41.2501 56.8748C40.2162 56.8748 39.3751 56.0337 39.3751 54.9998V53.7499C39.3751 52.7143 38.5356 51.8749 37.5002 51.8749H19.9999C18.9644 51.8749 18.125 52.7144 18.125 53.7499V54.9998C18.125 56.0337 17.2839 56.8748 16.25 56.8748C15.2161 56.8748 14.375 56.0337 14.375 54.9998V53.101C14.375 52.2758 13.8356 51.5476 13.0462 51.3073C7.48592 49.6142 3.75007 44.5678 3.75007 38.75V33.7499C3.75007 26.5128 9.6379 20.6249 16.8751 20.6249H41.2501C42.4421 20.6249 43.6229 20.7843 44.7596 21.0992C45.2414 21.2325 45.7556 21.168 46.1894 20.9205C46.6232 20.6731 46.9402 20.2627 47.0703 19.7804C47.5607 17.9628 48.9191 16.5523 50.6252 15.9472V23.8303C50.6252 24.2872 50.7919 24.7282 51.0942 25.0708C52.7174 26.9106 53.7889 29.1546 54.1926 31.5601C54.3441 32.4634 55.126 33.1248 56.0417 33.1248H59.3752C60.4091 33.1248 61.2502 33.9659 61.2502 34.9998V37.5H61.2501Z" fill="#5C10FF"/>
</g>
<defs>
<clipPath id="clip0">
<rect width="65" height="65" fill="white"/>
</clipPath>
</defs>
</svg>
