<svg width="76" height="76" viewBox="0 0 76 76" fill="none" xmlns="http://www.w3.org/2000/svg">
<g clip-path="url(#clip0)">
<path d="M75.4261 27.759L57.1909 9.20197C56.7682 8.77174 56.1275 8.64011 55.5697 8.86857C55.0119 9.09644 54.6478 9.63917 54.6478 10.2422V18.0015H19.5701C18.7502 18.0015 18.0858 18.6666 18.0858 19.4859V28.2605L0.277306 46.3844C-0.290352 46.9619 -0.290352 47.8879 0.277306 48.4655L18.5114 67.0225C18.7961 67.3118 19.1799 67.466 19.5701 67.466C19.7592 67.466 19.9499 67.4301 20.132 67.3559C20.6898 67.1274 21.0545 66.5847 21.0545 65.9817V58.2235H37.0002C37.8201 58.2235 36.5002 57.559 36.5002 56.7391C36.5002 55.9198 36.8201 55.2547 36.0002 55.2547H19.5701C18.7502 55.2547 18.0858 55.9198 18.0858 56.7391V62.3531L3.41711 47.4246L18.0858 32.4968V38.1119C18.0858 38.9318 18.7502 39.5963 19.5701 39.5963H24.4245C25.1638 46.2737 30.8398 51.4846 37.7114 51.4846C44.5824 51.4846 50.2584 46.2737 50.9977 39.5963H54.6478V55.2547H34.4411C33.6213 55.2547 32.9568 55.9192 32.9568 56.7391C32.9568 57.559 33.6213 58.2235 34.4411 58.2235H56.1322C56.952 58.2235 57.6165 57.559 57.6165 56.7391V47.9633L75.4261 29.8394C75.9938 29.2619 75.9938 28.3365 75.4261 27.759ZM37.7114 48.5159C31.9763 48.5159 27.3109 43.85 27.3109 38.1154C27.3109 32.3808 31.9768 27.7155 37.7114 27.7155C38.6884 27.7155 39.6336 27.8541 40.5311 28.1069C43.3712 28.9088 45.7212 30.8878 47.0183 33.482C47.0398 33.5249 47.063 33.5666 47.0838 33.6101C47.1041 33.6518 47.1221 33.6948 47.1413 33.7371C47.7623 35.069 48.1113 36.5516 48.1113 38.116C48.1113 43.8505 43.446 48.5159 37.7114 48.5159ZM57.6165 43.7276V38.1119C57.6165 37.292 56.952 36.6276 56.1322 36.6276H50.9983C50.996 36.6078 50.9925 36.5881 50.9902 36.5678C50.9693 36.3904 50.9461 36.2136 50.9183 36.0379C50.5385 33.6136 49.4757 31.3221 47.8863 29.4538C46.2721 27.5578 44.1279 26.1256 41.754 25.3718C39.4231 24.6319 36.888 24.5444 34.5136 25.1341C32.1641 25.7168 30.0031 26.9385 28.2856 28.6444C26.516 30.4019 25.2519 32.6568 24.6889 35.0875C24.6228 35.3728 24.566 35.6598 24.519 35.9486C24.5138 35.9781 24.5086 36.0083 24.5039 36.0379C24.4767 36.2136 24.4529 36.3904 24.432 36.5684C24.4303 36.5881 24.4262 36.6078 24.4245 36.6276H21.0545V20.9709H56.1322C56.952 20.9709 57.6165 20.3058 57.6165 19.4865V13.8708L72.2863 28.7992L57.6165 43.7276Z" fill="#7F44FF"/>
<path d="M38.6875 34.7209C38.6933 35.5355 39.3554 36.1942 40.1718 36.1942C40.9911 36.1942 41.6562 35.5292 41.6562 34.7098C41.6562 33.2487 40.5905 32.0351 39.196 31.7973V31.4512C39.196 30.6313 38.5315 29.9668 37.7116 29.9668C36.8923 29.9668 36.2272 30.6313 36.2272 31.4512V31.7973C34.8333 32.0351 33.7676 33.2487 33.7676 34.7098V36.5868C33.7676 38.2178 35.0942 39.5445 36.7253 39.5445H38.6875V41.5113H36.7363V41.3403C36.7363 40.5204 36.0718 39.8559 35.252 39.8559C34.4321 39.8559 33.7676 40.5204 33.7676 41.3403V41.5223C33.7676 42.9829 34.8333 44.1971 36.2272 44.4348V44.781C36.2272 45.6003 36.8923 46.2654 37.7116 46.2654C38.5315 46.2654 39.196 45.6003 39.196 44.781V44.4348C40.5905 44.1971 41.6562 42.9829 41.6562 41.5223V39.5335C41.6562 37.903 40.3296 36.5763 38.6985 36.5763L36.7363 36.5758V34.7209H38.6875Z" fill="#7F44FF"/>
</g>
<defs>
<clipPath id="clip0">
<rect width="76" height="76" fill="white"/>
</clipPath>
</defs>
</svg>
