<svg width="469" height="650" viewBox="0 0 469 650" fill="none" xmlns="http://www.w3.org/2000/svg">
<mask id="mask0" mask-type="alpha" maskUnits="userSpaceOnUse" x="61" y="0" width="408" height="650">
<rect x="61" width="408" height="650" fill="#C4C4C4"/>
</mask>
<g mask="url(#mask0)">
<path d="M668 313C668 479.75 532.346 614.933 365 614.933C197.654 614.933 62 479.75 62 313C62 146.25 197.654 11.0667 365 11.0667C532.346 11.0667 668 146.25 668 313Z" stroke="#2550E5" stroke-opacity="0.05" stroke-width="2"/>
<path d="M545.972 313C545.972 412.592 464.951 493.333 365 493.333C265.049 493.333 184.028 412.592 184.028 313C184.028 213.408 265.049 132.667 365 132.667C464.951 132.667 545.972 213.408 545.972 313Z" stroke="#2550E5" stroke-opacity="0.2" stroke-width="2"/>
<path d="M605.915 313C605.915 445.582 498.057 553.067 365 553.067C231.943 553.067 124.084 445.582 124.084 313C124.084 180.418 231.943 72.9333 365 72.9333C498.057 72.9333 605.915 180.418 605.915 313Z" stroke="#2550E5" stroke-opacity="0.06" stroke-width="2"/>
</g>
<rect x="162" y="378" width="137" height="34" rx="6" fill="#EFF2FC"/>
<path d="M173.422 389.4H176.662L179.866 400.128H180.082L183.286 389.4H186.526V402H184.726V391.308H184.51L181.324 402H178.624L175.438 391.308H175.222V402H173.422V389.4ZM188.975 395.502C189.323 394.758 189.851 394.146 190.559 393.666C191.279 393.174 192.149 392.928 193.169 392.928C194.357 392.928 195.305 393.246 196.013 393.882C196.721 394.518 197.075 395.37 197.075 396.438V402H195.419V400.614H195.167C194.951 401.082 194.585 401.472 194.069 401.784C193.553 402.096 192.881 402.252 192.053 402.252C191.069 402.252 190.277 402.006 189.677 401.514C189.089 401.022 188.795 400.38 188.795 399.588C188.795 398.016 189.917 397.122 192.161 396.906L195.419 396.6V396.366C195.419 395.766 195.215 395.298 194.807 394.962C194.411 394.614 193.853 394.44 193.133 394.44C191.801 394.44 190.901 395.016 190.433 396.168L188.975 395.502ZM190.505 399.516C190.505 399.936 190.667 400.266 190.991 400.506C191.315 400.734 191.765 400.848 192.341 400.848C193.337 400.848 194.099 400.59 194.627 400.074C195.155 399.546 195.419 398.88 195.419 398.076V397.932L192.341 398.22C191.117 398.328 190.505 398.76 190.505 399.516ZM201.294 393.18V394.62H201.546C201.87 393.636 202.638 393.144 203.85 393.144H204.858V394.8H203.31C202.674 394.8 202.188 394.98 201.852 395.34C201.528 395.688 201.366 396.192 201.366 396.852V402H199.674V393.18H201.294ZM215.406 393.18L211.356 396.582L215.334 402H213.3L210.132 397.626L208.314 399.138V402H206.622V389.4H208.314V396.906H208.53L212.922 393.18H215.406ZM215.806 397.518C215.806 396.21 216.22 395.112 217.048 394.224C217.876 393.336 218.926 392.892 220.198 392.892C221.482 392.892 222.52 393.312 223.312 394.152C224.116 394.992 224.518 396.06 224.518 397.356V398.202H217.57C217.618 398.994 217.9 399.624 218.416 400.092C218.932 400.548 219.586 400.776 220.378 400.776C221.53 400.776 222.37 400.248 222.898 399.192L224.32 400.002C223.396 401.502 222.094 402.252 220.414 402.252C219.058 402.252 217.948 401.802 217.084 400.902C216.232 399.99 215.806 398.862 215.806 397.518ZM217.57 396.834H222.754C222.73 396.078 222.49 395.478 222.034 395.034C221.578 394.59 220.966 394.368 220.198 394.368C219.43 394.368 218.812 394.584 218.344 395.016C217.888 395.448 217.63 396.054 217.57 396.834ZM225.468 393.18H227.916V390.12H229.608V393.18H232.2V394.656H229.608V400.02C229.608 400.356 229.764 400.524 230.076 400.524H231.696V402H229.392C228.96 402 228.606 401.862 228.33 401.586C228.054 401.298 227.916 400.932 227.916 400.488V394.656H225.468V393.18ZM234.144 405.6V393.18H235.8V394.566H236.052C236.712 393.474 237.72 392.928 239.076 392.928C240.252 392.928 241.236 393.366 242.028 394.242C242.82 395.118 243.216 396.234 243.216 397.59C243.216 398.946 242.82 400.062 242.028 400.938C241.236 401.814 240.252 402.252 239.076 402.252C237.72 402.252 236.712 401.706 236.052 400.614H235.836V405.6H234.144ZM236.592 399.894C237.096 400.458 237.78 400.74 238.644 400.74C239.508 400.74 240.204 400.464 240.732 399.912C241.26 399.348 241.524 398.574 241.524 397.59C241.524 396.606 241.26 395.838 240.732 395.286C240.204 394.722 239.508 394.44 238.644 394.44C237.78 394.44 237.096 394.722 236.592 395.286C236.088 395.85 235.836 396.618 235.836 397.59C235.836 398.562 236.088 399.33 236.592 399.894ZM247.037 389.4V402H245.345V389.4H247.037ZM249.456 395.502C249.804 394.758 250.332 394.146 251.04 393.666C251.76 393.174 252.63 392.928 253.65 392.928C254.838 392.928 255.786 393.246 256.494 393.882C257.202 394.518 257.556 395.37 257.556 396.438V402H255.9V400.614H255.648C255.432 401.082 255.066 401.472 254.55 401.784C254.034 402.096 253.362 402.252 252.534 402.252C251.55 402.252 250.758 402.006 250.158 401.514C249.57 401.022 249.276 400.38 249.276 399.588C249.276 398.016 250.398 397.122 252.642 396.906L255.9 396.6V396.366C255.9 395.766 255.696 395.298 255.288 394.962C254.892 394.614 254.334 394.44 253.614 394.44C252.282 394.44 251.382 395.016 250.914 396.168L249.456 395.502ZM250.986 399.516C250.986 399.936 251.148 400.266 251.472 400.506C251.796 400.734 252.246 400.848 252.822 400.848C253.818 400.848 254.58 400.59 255.108 400.074C255.636 399.546 255.9 398.88 255.9 398.076V397.932L252.822 398.22C251.598 398.328 250.986 398.76 250.986 399.516ZM260.875 400.938C260.011 400.05 259.579 398.934 259.579 397.59C259.579 396.246 260.011 395.136 260.875 394.26C261.739 393.372 262.831 392.928 264.151 392.928C265.303 392.928 266.257 393.246 267.013 393.882C267.781 394.518 268.255 395.34 268.435 396.348L266.779 396.69C266.707 396.042 266.437 395.514 265.969 395.106C265.513 394.686 264.907 394.476 264.151 394.476C263.299 394.476 262.603 394.764 262.063 395.34C261.535 395.904 261.271 396.654 261.271 397.59C261.271 398.526 261.541 399.282 262.081 399.858C262.621 400.422 263.323 400.704 264.187 400.704C265.627 400.704 266.497 399.972 266.797 398.508L268.471 398.832C268.243 399.792 267.769 400.602 267.049 401.262C266.341 401.922 265.387 402.252 264.187 402.252C262.855 402.252 261.751 401.814 260.875 400.938ZM269.954 397.518C269.954 396.21 270.368 395.112 271.196 394.224C272.024 393.336 273.074 392.892 274.346 392.892C275.63 392.892 276.668 393.312 277.46 394.152C278.264 394.992 278.666 396.06 278.666 397.356V398.202H271.718C271.766 398.994 272.048 399.624 272.564 400.092C273.08 400.548 273.734 400.776 274.526 400.776C275.678 400.776 276.518 400.248 277.046 399.192L278.468 400.002C277.544 401.502 276.242 402.252 274.562 402.252C273.206 402.252 272.096 401.802 271.232 400.902C270.38 399.99 269.954 398.862 269.954 397.518ZM271.718 396.834H276.902C276.878 396.078 276.638 395.478 276.182 395.034C275.726 394.59 275.114 394.368 274.346 394.368C273.578 394.368 272.96 394.584 272.492 395.016C272.036 395.448 271.778 396.054 271.718 396.834ZM280.462 395.538C280.462 394.734 280.786 394.098 281.434 393.63C282.082 393.162 282.88 392.928 283.828 392.928C284.704 392.928 285.472 393.108 286.132 393.468C286.804 393.816 287.494 394.386 288.202 395.178L286.942 396.078C286.042 394.914 285.016 394.332 283.864 394.332C283.36 394.332 282.946 394.44 282.622 394.656C282.298 394.86 282.136 395.148 282.136 395.52C282.136 395.724 282.178 395.892 282.262 396.024C282.346 396.156 282.496 396.264 282.712 396.348C282.94 396.42 283.114 396.474 283.234 396.51C283.366 396.534 283.606 396.57 283.954 396.618L284.692 396.726C285.856 396.894 286.738 397.164 287.338 397.536C287.95 397.896 288.256 398.496 288.256 399.336C288.256 400.212 287.89 400.92 287.158 401.46C286.438 401.988 285.508 402.252 284.368 402.252C283.228 402.252 282.28 401.988 281.524 401.46C280.768 400.92 280.186 400.26 279.778 399.48L281.29 398.67C281.566 399.342 281.98 399.87 282.532 400.254C283.084 400.626 283.714 400.812 284.422 400.812C285.058 400.812 285.574 400.686 285.97 400.434C286.378 400.17 286.582 399.822 286.582 399.39C286.582 399.294 286.57 399.204 286.546 399.12C286.522 399.036 286.48 398.964 286.42 398.904C286.36 398.832 286.306 398.772 286.258 398.724C286.21 398.676 286.132 398.634 286.024 398.598C285.916 398.55 285.826 398.514 285.754 398.49C285.694 398.466 285.592 398.442 285.448 398.418C285.304 398.382 285.202 398.358 285.142 398.346C285.082 398.334 284.968 398.322 284.8 398.31C284.644 398.286 284.542 398.268 284.494 398.256L283.756 398.148C282.688 397.992 281.872 397.716 281.308 397.32C280.744 396.924 280.462 396.33 280.462 395.538Z" fill="#1B317C"/>
<rect x="20" y="432" width="112" height="34" rx="6" fill="#EBF5F4"/>
<path d="M31.6024 443.4V456H39.7384V454.344H33.4024V450.51H39.1624V448.854H33.4024V445.056H39.6664V443.4H31.6024ZM42.1225 452.238H47.4505V450.69H42.1225V452.238ZM59.1498 447.18H56.6658L52.2738 450.906H52.0578V443.4H50.3658V456H52.0578V453.138L53.8758 451.626L57.0438 456H59.0778L55.0998 450.582L59.1498 447.18ZM59.5499 451.59C59.5499 454.326 61.4939 456.252 64.0859 456.252C66.6779 456.252 68.6219 454.326 68.6219 451.59C68.6219 448.854 66.6779 446.928 64.0859 446.928C61.4939 446.928 59.5499 448.854 59.5499 451.59ZM61.2419 451.59C61.2419 449.646 62.3939 448.476 64.0859 448.476C65.7779 448.476 66.9299 449.646 66.9299 451.59C66.9299 453.534 65.7779 454.704 64.0859 454.704C62.3939 454.704 61.2419 453.534 61.2419 451.59ZM70.7473 447.18V456H72.4393V450.492C72.4393 449.16 73.3213 448.476 74.4553 448.476C75.4813 448.476 76.1833 449.052 76.1833 450.078V456H77.8753V450.492C77.8753 449.16 78.7033 448.476 79.8013 448.476C80.8453 448.476 81.6193 449.052 81.6193 450.078V456H83.3113V449.97C83.3113 448.152 81.8893 447.036 80.3233 447.036C78.8833 447.036 78.1273 447.774 77.7673 448.512H77.5153C77.0833 447.702 76.3453 447.036 75.0673 447.036C73.8973 447.036 73.1053 447.576 72.6553 448.332H72.4033V447.18H70.7473ZM85.3279 451.518C85.3279 454.182 87.1999 456.252 89.9359 456.252C92.0419 456.252 93.1759 455.082 93.8419 454.002L92.4199 453.192C91.9519 454.128 91.1959 454.776 89.8999 454.776C88.3159 454.776 87.1999 453.786 87.0919 452.202H94.0399V451.356C94.0399 448.8 92.3119 446.892 89.7199 446.892C87.1639 446.892 85.3279 448.926 85.3279 451.518ZM87.0919 450.834C87.2179 449.268 88.1719 448.368 89.7199 448.368C91.2679 448.368 92.2399 449.322 92.2759 450.834H87.0919ZM97.7058 447.18H96.0858V456H97.7778V450.852C97.7778 449.52 98.4618 448.8 99.7218 448.8H101.27V447.144H100.262C98.9838 447.144 98.2638 447.684 97.9578 448.62H97.7058V447.18ZM102 451.59C102 454.29 103.944 456.252 106.608 456.252C109.218 456.252 110.496 454.506 110.892 452.832L109.218 452.508C108.984 453.642 108.3 454.704 106.608 454.704C104.88 454.704 103.692 453.462 103.692 451.59C103.692 449.718 104.88 448.476 106.572 448.476C108.138 448.476 109.056 449.448 109.2 450.69L110.856 450.348C110.496 448.386 108.948 446.928 106.572 446.928C103.944 446.928 102 448.89 102 451.59ZM112.376 451.518C112.376 454.182 114.248 456.252 116.984 456.252C119.09 456.252 120.224 455.082 120.89 454.002L119.468 453.192C119 454.128 118.244 454.776 116.948 454.776C115.364 454.776 114.248 453.786 114.14 452.202H121.088V451.356C121.088 448.8 119.36 446.892 116.768 446.892C114.212 446.892 112.376 448.926 112.376 451.518ZM114.14 450.834C114.266 449.268 115.22 448.368 116.768 448.368C118.316 448.368 119.288 449.322 119.324 450.834H114.14Z" fill="#407C1B"/>
<rect y="240" width="107" height="34" rx="6" fill="#EBEFFC"/>
<path d="M11.1204 256.296V259.104C11.1204 262.344 12.9564 264.252 16.0164 264.252C19.0764 264.252 20.9124 262.344 20.9124 259.104V256.296C20.9124 253.056 19.0044 251.148 16.0164 251.148C12.9564 251.148 11.1204 253.056 11.1204 256.296ZM12.9204 256.26C12.9204 254.028 13.9284 252.804 16.0164 252.804C18.1044 252.804 19.1124 254.028 19.1124 256.26V259.14C19.1124 261.372 18.1044 262.596 16.0164 262.596C13.9284 262.596 12.9204 261.372 12.9204 259.14V256.26ZM23.2101 255.18V264H24.9021V259.392C24.9021 257.556 25.9281 256.512 27.5661 256.512C29.0061 256.512 29.8341 257.304 29.8341 258.834V264H31.5261V258.69C31.5261 256.26 29.9421 255.036 28.0881 255.036C26.3421 255.036 25.5321 255.846 25.1181 256.674H24.8661V255.18H23.2101ZM35.8047 251.4H34.1127V264H35.8047V251.4ZM37.9895 252.48C37.9895 253.236 38.6015 253.812 39.3575 253.812C40.1135 253.812 40.7255 253.236 40.7255 252.48C40.7255 251.724 40.1135 251.148 39.3575 251.148C38.6015 251.148 37.9895 251.724 37.9895 252.48ZM40.2035 255.18H38.5115V264H40.2035V255.18ZM42.9102 255.18V264H44.6022V259.392C44.6022 257.556 45.6282 256.512 47.2662 256.512C48.7062 256.512 49.5342 257.304 49.5342 258.834V264H51.2262V258.69C51.2262 256.26 49.6422 255.036 47.7882 255.036C46.0422 255.036 45.2322 255.846 44.8182 256.674H44.5662V255.18H42.9102ZM53.2369 259.518C53.2369 262.182 55.1089 264.252 57.8449 264.252C59.9509 264.252 61.0849 263.082 61.7509 262.002L60.3289 261.192C59.8609 262.128 59.1049 262.776 57.8089 262.776C56.2249 262.776 55.1089 261.786 55.0009 260.202H61.9489V259.356C61.9489 256.8 60.2209 254.892 57.6289 254.892C55.0729 254.892 53.2369 256.926 53.2369 259.518ZM55.0009 258.834C55.1269 257.268 56.0809 256.368 57.6289 256.368C59.1769 256.368 60.1489 257.322 60.1849 258.834H55.0009ZM69.5713 251.4V264H71.2633V259.392C71.2633 257.556 72.2893 256.512 73.9273 256.512C75.3673 256.512 76.1953 257.304 76.1953 258.834V264H77.8873V258.69C77.8873 256.26 76.3033 255.036 74.4493 255.036C72.7033 255.036 71.8933 255.846 71.4793 256.674H71.2633V251.4H69.5713ZM82.094 255.18H80.474V264H82.166V258.852C82.166 257.52 82.85 256.8 84.11 256.8H85.658V255.144H84.65C83.372 255.144 82.652 255.684 82.346 256.62H82.094V255.18ZM94.5545 255.18L91.8365 261.876H91.6205L88.9025 255.18H87.0665L90.8285 264.162L89.3345 267.6H91.1705L96.3905 255.18H94.5545Z" fill="#1B317C"/>
<rect x="149" y="113" width="96" height="34" rx="6" fill="#EDFAFC"/>
<path d="M164.38 124.148C162.04 124.148 160.168 125.498 160.168 127.64C160.168 129.98 161.806 130.826 164.056 131.312L164.884 131.492C166.486 131.834 167.296 132.32 167.296 133.526C167.296 134.732 166.288 135.632 164.614 135.632C162.544 135.632 161.392 134.534 161.392 132.536V132.104H159.592V132.68C159.592 135.452 161.518 137.252 164.596 137.252C167.188 137.252 169.096 135.794 169.096 133.472C169.096 131.312 167.674 130.304 165.334 129.8L164.506 129.62C162.724 129.224 161.968 128.774 161.968 127.622C161.968 126.506 162.976 125.768 164.38 125.768C166.036 125.768 167.188 126.632 167.188 128.252V128.684H168.988V128.108C168.988 125.534 166.99 124.148 164.38 124.148ZM170.312 128.18V129.656H172.76V135.488C172.76 136.388 173.372 137 174.236 137H176.54V135.524H174.92C174.596 135.524 174.452 135.38 174.452 135.02V129.656H177.044V128.18H174.452V125.12H172.76V128.18H170.312ZM178.7 130.502L180.158 131.168C180.572 130.142 181.418 129.44 182.858 129.44C184.298 129.44 185.144 130.16 185.144 131.366V131.6L181.886 131.906C179.618 132.122 178.52 132.986 178.52 134.588C178.52 136.172 179.798 137.252 181.778 137.252C183.596 137.252 184.514 136.406 184.892 135.614H185.144V137H186.8V131.438C186.8 129.314 185.27 127.928 182.894 127.928C180.734 127.928 179.33 129.134 178.7 130.502ZM180.23 134.516C180.23 133.616 181.04 133.31 182.066 133.22L185.144 132.932V133.076C185.144 134.606 184.136 135.848 182.066 135.848C180.896 135.848 180.23 135.344 180.23 134.516ZM191.019 128.18H189.399V137H191.091V131.852C191.091 130.52 191.775 129.8 193.035 129.8H194.583V128.144H193.575C192.297 128.144 191.577 128.684 191.271 129.62H191.019V128.18ZM195.602 128.18V129.656H198.05V135.488C198.05 136.388 198.662 137 199.526 137H201.83V135.524H200.21C199.886 135.524 199.742 135.38 199.742 135.02V129.656H202.334V128.18H199.742V125.12H198.05V128.18H195.602ZM212.486 137V128.18H210.794V132.788C210.794 134.624 209.768 135.668 208.13 135.668C206.69 135.668 205.862 134.876 205.862 133.346V128.18H204.17V133.49C204.17 135.92 205.754 137.144 207.608 137.144C209.354 137.144 210.164 136.334 210.578 135.506H210.83V137H212.486ZM215.181 140.6H216.873V135.614H217.089C217.575 136.424 218.385 137.252 220.113 137.252C222.435 137.252 224.253 135.326 224.253 132.59C224.253 129.854 222.435 127.928 220.113 127.928C218.385 127.928 217.575 128.756 217.089 129.566H216.837V128.18H215.181V140.6ZM219.681 135.74C217.953 135.74 216.873 134.534 216.873 132.59C216.873 130.646 217.953 129.44 219.681 129.44C221.373 129.44 222.561 130.574 222.561 132.59C222.561 134.606 221.373 135.74 219.681 135.74ZM232.794 128.18L230.076 134.876H229.86L227.142 128.18H225.306L229.068 137.162L227.574 140.6H229.41L234.63 128.18H232.794Z" fill="#1B7C77"/>
<rect x="233" y="478" width="114" height="34" rx="6" fill="#EFF2FC"/>
<path d="M244.561 489.4H252.625V491.056H246.361V494.854H252.121V496.51H246.361V500.344H252.697V502H244.561V489.4ZM255.081 498.238V496.69H260.409V498.238H255.081ZM270.593 489.4V502H268.901V489.4H270.593ZM272.724 497.518C272.724 496.21 273.138 495.112 273.966 494.224C274.794 493.336 275.844 492.892 277.116 492.892C278.4 492.892 279.438 493.312 280.23 494.152C281.034 494.992 281.436 496.06 281.436 497.356V498.202H274.488C274.536 498.994 274.818 499.624 275.334 500.092C275.85 500.548 276.504 500.776 277.296 500.776C278.448 500.776 279.288 500.248 279.816 499.192L281.238 500.002C280.314 501.502 279.012 502.252 277.332 502.252C275.976 502.252 274.866 501.802 274.002 500.902C273.15 499.99 272.724 498.862 272.724 497.518ZM274.488 496.834H279.672C279.648 496.078 279.408 495.478 278.952 495.034C278.496 494.59 277.884 494.368 277.116 494.368C276.348 494.368 275.73 494.584 275.262 495.016C274.806 495.448 274.548 496.054 274.488 496.834ZM283.123 495.502C283.471 494.758 283.999 494.146 284.707 493.666C285.427 493.174 286.297 492.928 287.317 492.928C288.505 492.928 289.453 493.246 290.161 493.882C290.869 494.518 291.223 495.37 291.223 496.438V502H289.567V500.614H289.315C289.099 501.082 288.733 501.472 288.217 501.784C287.701 502.096 287.029 502.252 286.201 502.252C285.217 502.252 284.425 502.006 283.825 501.514C283.237 501.022 282.943 500.38 282.943 499.588C282.943 498.016 284.065 497.122 286.309 496.906L289.567 496.6V496.366C289.567 495.766 289.363 495.298 288.955 494.962C288.559 494.614 288.001 494.44 287.281 494.44C285.949 494.44 285.049 495.016 284.581 496.168L283.123 495.502ZM284.653 499.516C284.653 499.936 284.815 500.266 285.139 500.506C285.463 500.734 285.913 500.848 286.489 500.848C287.485 500.848 288.247 500.59 288.775 500.074C289.303 499.546 289.567 498.88 289.567 498.076V497.932L286.489 498.22C285.265 498.328 284.653 498.76 284.653 499.516ZM295.442 493.18V494.62H295.694C296.018 493.636 296.786 493.144 297.998 493.144H299.006V494.8H297.458C296.822 494.8 296.336 494.98 296 495.34C295.676 495.688 295.514 496.192 295.514 496.852V502H293.822V493.18H295.442ZM300.769 493.18H302.425V494.674H302.677C303.229 493.582 304.219 493.036 305.647 493.036C306.631 493.036 307.447 493.354 308.095 493.99C308.755 494.626 309.085 495.526 309.085 496.69V502H307.393V496.834C307.393 496.078 307.195 495.502 306.799 495.106C306.415 494.71 305.857 494.512 305.125 494.512C304.297 494.512 303.643 494.764 303.163 495.268C302.695 495.772 302.461 496.48 302.461 497.392V502H300.769V493.18ZM311.546 491.434C311.282 491.17 311.15 490.852 311.15 490.48C311.15 490.108 311.282 489.796 311.546 489.544C311.81 489.28 312.134 489.148 312.518 489.148C312.902 489.148 313.226 489.28 313.49 489.544C313.754 489.796 313.886 490.108 313.886 490.48C313.886 490.852 313.754 491.17 313.49 491.434C313.226 491.686 312.902 491.812 312.518 491.812C312.134 491.812 311.81 491.686 311.546 491.434ZM313.364 493.18V502H311.672V493.18H313.364ZM316.071 493.18H317.727V494.674H317.979C318.531 493.582 319.521 493.036 320.949 493.036C321.933 493.036 322.749 493.354 323.397 493.99C324.057 494.626 324.387 495.526 324.387 496.69V502H322.695V496.834C322.695 496.078 322.497 495.502 322.101 495.106C321.717 494.71 321.159 494.512 320.427 494.512C319.599 494.512 318.945 494.764 318.465 495.268C317.997 495.772 317.763 496.48 317.763 497.392V502H316.071V493.18ZM333.813 493.18H335.469V501.73C335.469 502.93 335.073 503.914 334.281 504.682C333.489 505.462 332.439 505.852 331.131 505.852C329.175 505.852 327.645 505.036 326.541 503.404L328.053 502.522C328.689 503.734 329.679 504.34 331.023 504.34C331.863 504.34 332.529 504.112 333.021 503.656C333.525 503.2 333.777 502.528 333.777 501.64V500.398H333.561C332.901 501.49 331.893 502.036 330.537 502.036C329.361 502.036 328.377 501.61 327.585 500.758C326.793 499.906 326.397 498.814 326.397 497.482C326.397 496.15 326.793 495.058 327.585 494.206C328.377 493.354 329.361 492.928 330.537 492.928C331.893 492.928 332.901 493.474 333.561 494.566H333.813V493.18ZM328.881 499.732C329.409 500.26 330.105 500.524 330.969 500.524C331.833 500.524 332.517 500.254 333.021 499.714C333.525 499.174 333.777 498.43 333.777 497.482C333.777 496.534 333.525 495.79 333.021 495.25C332.517 494.71 331.833 494.44 330.969 494.44C330.105 494.44 329.409 494.71 328.881 495.25C328.353 495.778 328.089 496.522 328.089 497.482C328.089 498.442 328.353 499.192 328.881 499.732Z" fill="#1B317C"/>
<rect x="132" y="192" width="175" height="34" rx="6" fill="#EFF2FC"/>
<path d="M143.647 203.4V216H145.447V210.96H148.543C150.793 210.96 152.431 209.466 152.431 207.18C152.431 204.894 150.847 203.4 148.543 203.4H143.647ZM145.447 205.056H148.345C149.839 205.056 150.631 205.812 150.631 207.18C150.631 208.548 149.803 209.304 148.345 209.304H145.447V205.056ZM153.786 209.502L155.244 210.168C155.658 209.142 156.504 208.44 157.944 208.44C159.384 208.44 160.23 209.16 160.23 210.366V210.6L156.972 210.906C154.704 211.122 153.606 211.986 153.606 213.588C153.606 215.172 154.884 216.252 156.864 216.252C158.682 216.252 159.6 215.406 159.978 214.614H160.23V216H161.886V210.438C161.886 208.314 160.356 206.928 157.98 206.928C155.82 206.928 154.416 208.134 153.786 209.502ZM155.316 213.516C155.316 212.616 156.126 212.31 157.152 212.22L160.23 211.932V212.076C160.23 213.606 159.222 214.848 157.152 214.848C155.982 214.848 155.316 214.344 155.316 213.516ZM166.105 207.18H164.485V216H166.177V210.852C166.177 209.52 166.861 208.8 168.121 208.8H169.669V207.144H168.661C167.383 207.144 166.663 207.684 166.357 208.62H166.105V207.18ZM170.688 207.18V208.656H173.136V214.488C173.136 215.388 173.748 216 174.612 216H176.916V214.524H175.296C174.972 214.524 174.828 214.38 174.828 214.02V208.656H177.42V207.18H174.828V204.12H173.136V207.18H170.688ZM179.364 207.18V216H181.056V211.392C181.056 209.556 182.082 208.512 183.72 208.512C185.16 208.512 185.988 209.304 185.988 210.834V216H187.68V210.69C187.68 208.26 186.096 207.036 184.242 207.036C182.496 207.036 181.686 207.846 181.272 208.674H181.02V207.18H179.364ZM189.691 211.518C189.691 214.182 191.563 216.252 194.299 216.252C196.405 216.252 197.539 215.082 198.205 214.002L196.783 213.192C196.315 214.128 195.559 214.776 194.263 214.776C192.679 214.776 191.563 213.786 191.455 212.202H198.403V211.356C198.403 208.8 196.675 206.892 194.083 206.892C191.527 206.892 189.691 208.926 189.691 211.518ZM191.455 210.834C191.581 209.268 192.535 208.368 194.083 208.368C195.631 208.368 196.603 209.322 196.639 210.834H191.455ZM202.069 207.18H200.449V216H202.141V210.852C202.141 209.52 202.825 208.8 204.085 208.8H205.633V207.144H204.625C203.347 207.144 202.627 207.684 202.321 208.62H202.069V207.18ZM207.041 209.538C207.041 211.212 208.355 211.86 210.335 212.148L211.073 212.256C212.027 212.4 213.161 212.472 213.161 213.39C213.161 214.254 212.261 214.812 211.001 214.812C209.561 214.812 208.427 214.002 207.869 212.67L206.357 213.48C207.041 214.776 208.445 216.252 210.947 216.252C213.215 216.252 214.835 215.1 214.835 213.336C214.835 211.5 213.269 211.014 211.271 210.726L210.533 210.618C209.579 210.474 208.715 210.384 208.715 209.52C208.715 208.764 209.453 208.332 210.443 208.332C211.487 208.332 212.549 208.818 213.521 210.078L214.781 209.178C213.395 207.63 212.207 206.928 210.407 206.928C208.607 206.928 207.041 207.864 207.041 209.538ZM225.677 207.18H223.193L218.801 210.906H218.585V203.4H216.893V216H218.585V213.138L220.403 211.626L223.571 216H225.605L221.627 210.582L225.677 207.18ZM230.433 203.4L229.335 205.74H230.883L232.395 203.4H230.433ZM226.077 211.518C226.077 214.182 227.949 216.252 230.685 216.252C232.791 216.252 233.925 215.082 234.591 214.002L233.169 213.192C232.701 214.128 231.945 214.776 230.649 214.776C229.065 214.776 227.949 213.786 227.841 212.202H234.789V211.356C234.789 208.8 233.061 206.892 230.469 206.892C227.913 206.892 226.077 208.926 226.077 211.518ZM227.841 210.834C227.967 209.268 228.921 208.368 230.469 208.368C232.017 208.368 232.989 209.322 233.025 210.834H227.841ZM242.231 209.538C242.231 211.212 243.545 211.86 245.525 212.148L246.263 212.256C247.217 212.4 248.351 212.472 248.351 213.39C248.351 214.254 247.451 214.812 246.191 214.812C244.751 214.812 243.617 214.002 243.059 212.67L241.547 213.48C242.231 214.776 243.635 216.252 246.137 216.252C248.405 216.252 250.025 215.1 250.025 213.336C250.025 211.5 248.459 211.014 246.461 210.726L245.723 210.618C244.769 210.474 243.905 210.384 243.905 209.52C243.905 208.764 244.643 208.332 245.633 208.332C246.677 208.332 247.739 208.818 248.711 210.078L249.971 209.178C248.585 207.63 247.397 206.928 245.597 206.928C243.797 206.928 242.231 207.864 242.231 209.538ZM253.776 203.4H252.084V216H253.776V203.4ZM264.69 216V207.18H262.998V211.788C262.998 213.624 261.972 214.668 260.334 214.668C258.894 214.668 258.066 213.876 258.066 212.346V207.18H256.374V212.49C256.374 214.92 257.958 216.144 259.812 216.144C261.558 216.144 262.368 215.334 262.782 214.506H263.034V216H264.69ZM271.849 203.4L270.967 204.678H270.751L269.869 203.4H268.069L269.761 205.74H271.957L273.649 203.4H271.849ZM267.169 207.18V208.62H272.335L266.989 214.668V216H274.657V214.56H269.167L274.513 208.512V207.18H267.169ZM276.846 203.4V216H278.502V214.614H278.754C279.24 215.424 280.05 216.252 281.778 216.252C284.1 216.252 285.918 214.326 285.918 211.59C285.918 208.854 284.1 206.928 281.778 206.928C280.05 206.928 279.24 207.756 278.754 208.566H278.538V203.4H276.846ZM281.346 208.44C283.038 208.44 284.226 209.574 284.226 211.59C284.226 213.606 283.038 214.74 281.346 214.74C279.618 214.74 278.538 213.534 278.538 211.59C278.538 209.646 279.618 208.44 281.346 208.44ZM294.46 207.18L291.742 213.876H291.526L288.808 207.18H286.972L290.734 216.162L289.24 219.6H291.076L296.296 207.18H294.46Z" fill="#1B317C"/>
<rect x="126" y="297" width="162" height="34" rx="6" fill="#F6F6EF"/>
<path d="M137.451 308.4V321H139.251V315.96H142.347C144.597 315.96 146.235 314.466 146.235 312.18C146.235 309.894 144.651 308.4 142.347 308.4H137.451ZM139.251 310.056H142.149C143.643 310.056 144.435 310.812 144.435 312.18C144.435 313.548 143.607 314.304 142.149 314.304H139.251V310.056ZM151.814 308.4L150.932 309.678H150.716L149.834 308.4H148.034L149.726 310.74H151.922L153.614 308.4H151.814ZM149.762 312.18H148.142V321H149.834V315.852C149.834 314.52 150.518 313.8 151.778 313.8H153.326V312.144H152.318C151.04 312.144 150.32 312.684 150.014 313.62H149.762V312.18ZM154.056 316.518C154.056 319.182 155.928 321.252 158.664 321.252C160.77 321.252 161.904 320.082 162.57 319.002L161.148 318.192C160.68 319.128 159.924 319.776 158.628 319.776C157.044 319.776 155.928 318.786 155.82 317.202H162.768V316.356C162.768 313.8 161.04 311.892 158.448 311.892C155.892 311.892 154.056 313.926 154.056 316.518ZM155.82 315.834C155.946 314.268 156.9 313.368 158.448 313.368C159.996 313.368 160.968 314.322 161.004 315.834H155.82ZM164.814 324.6H166.506V319.614H166.722C167.208 320.424 168.018 321.252 169.746 321.252C172.068 321.252 173.886 319.326 173.886 316.59C173.886 313.854 172.068 311.928 169.746 311.928C168.018 311.928 167.208 312.756 166.722 313.566H166.47V312.18H164.814V324.6ZM169.314 319.74C167.586 319.74 166.506 318.534 166.506 316.59C166.506 314.646 167.586 313.44 169.314 313.44C171.006 313.44 172.194 314.574 172.194 316.59C172.194 318.606 171.006 319.74 169.314 319.74ZM177.636 312.18H176.016V321H177.708V315.852C177.708 314.52 178.392 313.8 179.652 313.8H181.2V312.144H180.192C178.914 312.144 178.194 312.684 177.888 313.62H177.636V312.18ZM182.587 314.502L184.045 315.168C184.459 314.142 185.305 313.44 186.745 313.44C188.185 313.44 189.031 314.16 189.031 315.366V315.6L185.773 315.906C183.505 316.122 182.407 316.986 182.407 318.588C182.407 320.172 183.685 321.252 185.665 321.252C187.483 321.252 188.401 320.406 188.779 319.614H189.031V321H190.687V315.438C190.687 313.314 189.157 311.928 186.781 311.928C184.621 311.928 183.217 313.134 182.587 314.502ZM184.117 318.516C184.117 317.616 184.927 317.31 185.953 317.22L189.031 316.932V317.076C189.031 318.606 188.023 319.848 185.953 319.848C184.783 319.848 184.117 319.344 184.117 318.516ZM191.929 312.18L195.223 321H197.635L200.929 312.18H199.093L196.537 319.38H196.321L193.765 312.18H191.929ZM202.73 312.18V321H204.422V316.392C204.422 314.556 205.448 313.512 207.086 313.512C208.526 313.512 209.354 314.304 209.354 315.834V321H211.046V315.69C211.046 313.26 209.462 312.036 207.608 312.036C205.862 312.036 205.052 312.846 204.638 313.674H204.386V312.18H202.73ZM214.424 308.4L213.326 310.74H214.874L216.386 308.4H214.424ZM215.324 312.18H213.632V321H215.324V312.18ZM223.427 314.538C223.427 316.212 224.741 316.86 226.721 317.148L227.459 317.256C228.413 317.4 229.547 317.472 229.547 318.39C229.547 319.254 228.647 319.812 227.387 319.812C225.947 319.812 224.813 319.002 224.255 317.67L222.743 318.48C223.427 319.776 224.831 321.252 227.333 321.252C229.601 321.252 231.221 320.1 231.221 318.336C231.221 316.5 229.655 316.014 227.657 315.726L226.919 315.618C225.965 315.474 225.101 315.384 225.101 314.52C225.101 313.764 225.839 313.332 226.829 313.332C227.873 313.332 228.935 313.818 229.907 315.078L231.167 314.178C229.781 312.63 228.593 311.928 226.793 311.928C224.993 311.928 223.427 312.864 223.427 314.538ZM234.972 308.4H233.28V321H234.972V308.4ZM245.886 321V312.18H244.194V316.788C244.194 318.624 243.168 319.668 241.53 319.668C240.09 319.668 239.262 318.876 239.262 317.346V312.18H237.57V317.49C237.57 319.92 239.154 321.144 241.008 321.144C242.754 321.144 243.564 320.334 243.978 319.506H244.23V321H245.886ZM253.045 308.4L252.163 309.678H251.947L251.065 308.4H249.265L250.957 310.74H253.153L254.845 308.4H253.045ZM248.365 312.18V313.62H253.531L248.185 319.668V321H255.853V319.56H250.363L255.709 313.512V312.18H248.365ZM258.042 308.4V321H259.698V319.614H259.95C260.436 320.424 261.246 321.252 262.974 321.252C265.296 321.252 267.114 319.326 267.114 316.59C267.114 313.854 265.296 311.928 262.974 311.928C261.246 311.928 260.436 312.756 259.95 313.566H259.734V308.4H258.042ZM262.542 313.44C264.234 313.44 265.422 314.574 265.422 316.59C265.422 318.606 264.234 319.74 262.542 319.74C260.814 319.74 259.734 318.534 259.734 316.59C259.734 314.646 260.814 313.44 262.542 313.44ZM275.656 312.18L272.938 318.876H272.722L270.004 312.18H268.168L271.93 321.162L270.436 324.6H272.272L277.492 312.18H275.656Z" fill="#7C611B"/>
<rect x="126" y="559" width="188" height="34" rx="6" fill="#EDEDFC"/>
<path d="M136.474 570.4V572.056H140.542V583H142.342V572.056H146.41V570.4H136.474ZM147.685 571.48C147.685 572.236 148.297 572.812 149.053 572.812C149.809 572.812 150.421 572.236 150.421 571.48C150.421 570.724 149.809 570.148 149.053 570.148C148.297 570.148 147.685 570.724 147.685 571.48ZM149.899 574.18H148.207V583H149.899V574.18ZM152.029 578.59C152.029 581.29 153.973 583.252 156.637 583.252C159.247 583.252 160.525 581.506 160.921 579.832L159.247 579.508C159.013 580.642 158.329 581.704 156.637 581.704C154.909 581.704 153.721 580.462 153.721 578.59C153.721 576.718 154.909 575.476 156.601 575.476C158.167 575.476 159.085 576.448 159.229 577.69L160.885 577.348C160.525 575.386 158.977 573.928 156.601 573.928C153.973 573.928 152.029 575.89 152.029 578.59ZM171.765 574.18H169.281L164.889 577.906H164.673V570.4H162.981V583H164.673V580.138L166.491 578.626L169.659 583H171.693L167.715 577.582L171.765 574.18ZM172.165 578.518C172.165 581.182 174.037 583.252 176.773 583.252C178.879 583.252 180.013 582.082 180.679 581.002L179.257 580.192C178.789 581.128 178.033 581.776 176.737 581.776C175.153 581.776 174.037 580.786 173.929 579.202H180.877V578.356C180.877 575.8 179.149 573.892 176.557 573.892C174.001 573.892 172.165 575.926 172.165 578.518ZM173.929 577.834C174.055 576.268 175.009 575.368 176.557 575.368C178.105 575.368 179.077 576.322 179.113 577.834H173.929ZM181.827 574.18V575.656H184.275V581.488C184.275 582.388 184.887 583 185.751 583H188.055V581.524H186.435C186.111 581.524 185.967 581.38 185.967 581.02V575.656H188.559V574.18H185.967V571.12H184.275V574.18H181.827ZM189.839 578.59C189.839 581.326 191.783 583.252 194.375 583.252C196.967 583.252 198.911 581.326 198.911 578.59C198.911 575.854 196.967 573.928 194.375 573.928C191.783 573.928 189.839 575.854 189.839 578.59ZM191.531 578.59C191.531 576.646 192.683 575.476 194.375 575.476C196.067 575.476 197.219 576.646 197.219 578.59C197.219 580.534 196.067 581.704 194.375 581.704C192.683 581.704 191.531 580.534 191.531 578.59ZM199.961 574.18L203.255 583H205.667L208.961 574.18H207.125L204.569 581.38H204.353L201.797 574.18H199.961ZM214.366 570.4L213.268 572.74H214.816L216.328 570.4H214.366ZM210.01 578.518C210.01 581.182 211.882 583.252 214.618 583.252C216.724 583.252 217.858 582.082 218.524 581.002L217.102 580.192C216.634 581.128 215.878 581.776 214.582 581.776C212.998 581.776 211.882 580.786 211.774 579.202H218.722V578.356C218.722 575.8 216.994 573.892 214.402 573.892C211.846 573.892 210.01 575.926 210.01 578.518ZM211.774 577.834C211.9 576.268 212.854 575.368 214.402 575.368C215.95 575.368 216.922 576.322 216.958 577.834H211.774ZM226.056 576.502L227.514 577.168C227.928 576.142 228.774 575.44 230.214 575.44C231.654 575.44 232.5 576.16 232.5 577.366V577.6L229.242 577.906C226.974 578.122 225.876 578.986 225.876 580.588C225.876 582.172 227.154 583.252 229.134 583.252C230.952 583.252 231.87 582.406 232.248 581.614H232.5V583H234.156V577.438C234.156 575.314 232.626 573.928 230.25 573.928C228.09 573.928 226.686 575.134 226.056 576.502ZM227.586 580.516C227.586 579.616 228.396 579.31 229.422 579.22L232.5 578.932V579.076C232.5 580.606 231.492 581.848 229.422 581.848C228.252 581.848 227.586 581.344 227.586 580.516ZM243.595 574.18V575.566H243.343C242.857 574.756 242.047 573.928 240.319 573.928C237.997 573.928 236.179 575.8 236.179 578.482C236.179 581.164 237.997 583.036 240.319 583.036C242.047 583.036 242.857 582.208 243.343 581.398H243.559V582.64C243.559 584.476 242.425 585.34 240.805 585.34C239.257 585.34 238.339 584.476 237.835 583.522L236.323 584.404C237.187 585.682 238.537 586.852 240.913 586.852C243.559 586.852 245.251 585.106 245.251 582.73V574.18H243.595ZM240.751 581.524C239.059 581.524 237.871 580.444 237.871 578.482C237.871 576.52 239.059 575.44 240.751 575.44C242.479 575.44 243.559 576.592 243.559 578.482C243.559 580.372 242.479 581.524 240.751 581.524ZM247.38 578.518C247.38 581.182 249.252 583.252 251.988 583.252C254.094 583.252 255.228 582.082 255.894 581.002L254.472 580.192C254.004 581.128 253.248 581.776 251.952 581.776C250.368 581.776 249.252 580.786 249.144 579.202H256.092V578.356C256.092 575.8 254.364 573.892 251.772 573.892C249.216 573.892 247.38 575.926 247.38 578.518ZM249.144 577.834C249.27 576.268 250.224 575.368 251.772 575.368C253.32 575.368 254.292 576.322 254.328 577.834H249.144ZM258.138 574.18V583H259.83V578.392C259.83 576.556 260.856 575.512 262.494 575.512C263.934 575.512 264.762 576.304 264.762 577.834V583H266.454V577.69C266.454 575.26 264.87 574.036 263.016 574.036C261.27 574.036 260.46 574.846 260.046 575.674H259.794V574.18H258.138ZM267.857 574.18V575.656H270.305V581.488C270.305 582.388 270.917 583 271.781 583H274.085V581.524H272.465C272.141 581.524 271.997 581.38 271.997 581.02V575.656H274.589V574.18H271.997V571.12H270.305V574.18H267.857ZM284.741 583V574.18H283.049V578.788C283.049 580.624 282.023 581.668 280.385 581.668C278.945 581.668 278.117 580.876 278.117 579.346V574.18H276.425V579.49C276.425 581.92 278.009 583.144 279.863 583.144C281.609 583.144 282.419 582.334 282.833 581.506H283.085V583H284.741ZM289.056 574.18H287.436V583H289.128V577.852C289.128 576.52 289.812 575.8 291.072 575.8H292.62V574.144H291.612C290.334 574.144 289.614 574.684 289.308 575.62H289.056V574.18ZM301.517 574.18L298.799 580.876H298.583L295.865 574.18H294.029L297.791 583.162L296.297 586.6H298.133L303.353 574.18H301.517Z" fill="#521B7C"/>
<rect x="205" y="50" width="148" height="34" rx="6" fill="#EFF2FC"/>
<path d="M221.937 61.4V74H223.737V61.4H221.937ZM226.475 65.18V74H228.167V68.492C228.167 67.16 229.049 66.476 230.183 66.476C231.209 66.476 231.911 67.052 231.911 68.078V74H233.603V68.492C233.603 67.16 234.431 66.476 235.529 66.476C236.573 66.476 237.347 67.052 237.347 68.078V74H239.039V67.97C239.039 66.152 237.617 65.036 236.051 65.036C234.611 65.036 233.855 65.774 233.495 66.512H233.243C232.811 65.702 232.073 65.036 230.795 65.036C229.625 65.036 228.833 65.576 228.383 66.332H228.131V65.18H226.475ZM241.632 77.6H243.324V72.614H243.54C244.026 73.424 244.836 74.252 246.564 74.252C248.886 74.252 250.704 72.326 250.704 69.59C250.704 66.854 248.886 64.928 246.564 64.928C244.836 64.928 244.026 65.756 243.54 66.566H243.288V65.18H241.632V77.6ZM246.132 72.74C244.404 72.74 243.324 71.534 243.324 69.59C243.324 67.646 244.404 66.44 246.132 66.44C247.824 66.44 249.012 67.574 249.012 69.59C249.012 71.606 247.824 72.74 246.132 72.74ZM252.257 69.59C252.257 72.326 254.201 74.252 256.793 74.252C259.385 74.252 261.329 72.326 261.329 69.59C261.329 66.854 259.385 64.928 256.793 64.928C254.201 64.928 252.257 66.854 252.257 69.59ZM253.949 69.59C253.949 67.646 255.101 66.476 256.793 66.476C258.485 66.476 259.637 67.646 259.637 69.59C259.637 71.534 258.485 72.704 256.793 72.704C255.101 72.704 253.949 71.534 253.949 69.59ZM265.075 65.18H263.455V74H265.147V68.852C265.147 67.52 265.831 66.8 267.091 66.8H268.639V65.144H267.631C266.353 65.144 265.633 65.684 265.327 66.62H265.075V65.18ZM269.658 65.18V66.656H272.106V72.488C272.106 73.388 272.718 74 273.582 74H275.886V72.524H274.266C273.942 72.524 273.798 72.38 273.798 72.02V66.656H276.39V65.18H273.798V62.12H272.106V65.18H269.658ZM282.879 61.4L277.587 77.6H279.315L284.607 61.4H282.879ZM287.023 61.4V74H295.159V72.344H288.823V68.51H294.583V66.854H288.823V63.056H295.087V61.4H287.023ZM296.679 65.18L299.991 69.464L296.535 74H298.569L301.071 70.544H301.287L303.789 74H305.823L302.367 69.464L305.679 65.18H303.663L301.287 68.42H301.071L298.695 65.18H296.679ZM307.738 77.6H309.43V72.614H309.646C310.132 73.424 310.942 74.252 312.67 74.252C314.992 74.252 316.81 72.326 316.81 69.59C316.81 66.854 314.992 64.928 312.67 64.928C310.942 64.928 310.132 65.756 309.646 66.566H309.394V65.18H307.738V77.6ZM312.238 72.74C310.51 72.74 309.43 71.534 309.43 69.59C309.43 67.646 310.51 66.44 312.238 66.44C313.93 66.44 315.118 67.574 315.118 69.59C315.118 71.606 313.93 72.74 312.238 72.74ZM318.363 69.59C318.363 72.326 320.307 74.252 322.899 74.252C325.491 74.252 327.435 72.326 327.435 69.59C327.435 66.854 325.491 64.928 322.899 64.928C320.307 64.928 318.363 66.854 318.363 69.59ZM320.055 69.59C320.055 67.646 321.207 66.476 322.899 66.476C324.591 66.476 325.743 67.646 325.743 69.59C325.743 71.534 324.591 72.704 322.899 72.704C321.207 72.704 320.055 71.534 320.055 69.59ZM331.18 65.18H329.56V74H331.252V68.852C331.252 67.52 331.936 66.8 333.196 66.8H334.744V65.144H333.736C332.458 65.144 331.738 65.684 331.432 66.62H331.18V65.18ZM335.764 65.18V66.656H338.212V72.488C338.212 73.388 338.824 74 339.688 74H341.992V72.524H340.372C340.048 72.524 339.904 72.38 339.904 72.02V66.656H342.496V65.18H339.904V62.12H338.212V65.18H335.764Z" fill="#1B317C"/>
</svg>
