<svg width="64" height="52" viewBox="0 0 64 52" fill="none" xmlns="http://www.w3.org/2000/svg">
<rect width="64" height="52" rx="9" fill="#EDFAFC"/>
<path d="M38.7548 7C38.1398 7 37.6415 7.48535 37.6415 8.0842C37.6415 8.68276 38.1398 9.16839 38.7548 9.16839C44.2791 9.16839 48.7737 13.5453 48.7737 18.9253C48.7737 19.5242 49.2721 20.0095 49.8867 20.0095C50.5016 20.0095 51 19.5242 51 18.9253C51 12.3498 45.5069 7 38.7548 7Z" fill="#1B7C76"/>
<path d="M38.7548 11.3369C38.1398 11.3369 37.6415 11.8223 37.6415 12.4211C37.6415 13.0197 38.1398 13.5053 38.7548 13.5053C41.8238 13.5053 44.3206 15.9368 44.3206 18.9256C44.3206 19.5245 44.8192 20.0098 45.4339 20.0098C46.0488 20.0098 46.5471 19.5245 46.5471 18.9256C46.5471 14.7414 43.0516 11.3369 38.7548 11.3369Z" fill="#1B7C76"/>
<path d="M39.8677 18.9251C39.8677 19.524 40.3664 20.0093 40.981 20.0093C41.5959 20.0093 42.0943 19.524 42.0943 18.9251C42.0943 17.132 40.596 15.6729 38.7548 15.6729C38.1398 15.6729 37.6415 16.1582 37.6415 16.757C37.6415 17.3556 38.1398 17.8412 38.7548 17.8412C39.3685 17.8412 39.8677 18.3274 39.8677 18.9251Z" fill="#1B7C76"/>
<path d="M42.1279 24.8401L32.6818 15.6408C31.3766 14.3697 29.2643 14.3697 27.9588 15.6408L15.9368 27.349C12.0212 31.1623 12.0209 37.334 15.9368 41.1475C19.8524 44.9608 26.1897 44.9611 30.1056 41.1475L42.1279 29.4394C43.4299 28.1714 43.4299 26.1081 42.1279 24.8401ZM40.5537 27.9066L28.5314 39.6144C25.4858 42.5804 20.5569 42.5807 17.5111 39.6144C14.4658 36.6487 14.4655 31.8484 17.5111 28.8824L29.5333 17.1742C29.9674 16.7516 30.6736 16.7516 31.1076 17.1742L40.5534 26.3732C40.9874 26.7959 40.9874 27.4836 40.5537 27.9066Z" fill="#1B7C76"/>
<path d="M24.81 26.3721C24.3754 25.9489 23.6706 25.9489 23.2357 26.3721C22.8011 26.7956 22.8011 27.482 23.2357 27.9055C23.6706 28.3288 24.3754 28.3288 24.81 27.9055C25.2449 27.482 25.2449 26.7956 24.81 26.3721Z" fill="#1B7C76"/>
<path d="M27.9585 29.4385C27.524 29.0153 26.8192 29.0153 26.3843 29.4385C25.9497 29.862 25.9497 30.5484 26.3843 30.9719C26.8192 31.3952 27.524 31.3952 27.9585 30.9719C28.3934 30.5484 28.3934 29.862 27.9585 29.4385Z" fill="#1B7C76"/>
<path d="M31.1073 32.5061C30.6724 32.0826 29.9677 32.0826 29.5331 32.5061C29.0982 32.9293 29.0982 33.6157 29.5331 34.0392C29.9677 34.4624 30.6724 34.4624 31.1073 34.0392C31.5419 33.6157 31.5419 32.9293 31.1073 32.5061Z" fill="#1B7C76"/>
<path d="M21.6615 29.4387C21.2266 29.0152 20.5219 29.0152 20.0873 29.4387C19.6524 29.862 19.6524 30.5486 20.0873 30.9719C20.5219 31.3954 21.2266 31.3954 21.6615 30.9719C22.0961 30.5486 22.0961 29.862 21.6615 29.4387Z" fill="#1B7C76"/>
<path d="M24.8101 32.5049C24.3752 32.0817 23.6704 32.0817 23.2358 32.5049C22.8009 32.9284 22.8009 33.6148 23.2358 34.0383C23.6704 34.4616 24.3752 34.4616 24.8101 34.0383C25.2447 33.6148 25.2447 32.9284 24.8101 32.5049Z" fill="#1B7C76"/>
<path d="M27.9588 35.5725C27.5239 35.149 26.8192 35.149 26.3843 35.5725C25.9497 35.9957 25.9497 36.6821 26.3843 37.1056C26.8192 37.5288 27.5239 37.5288 27.9588 37.1056C28.3934 36.6821 28.3934 35.9957 27.9588 35.5725Z" fill="#1B7C76"/>
<path d="M21.6615 35.5715C21.2266 35.148 20.5219 35.148 20.0873 35.5715C19.6524 35.9948 19.6524 36.6814 20.0873 37.1047C20.5219 37.5282 21.2266 37.5282 21.6615 37.1047C22.0961 36.6814 22.0961 35.9948 21.6615 35.5715Z" fill="#1B7C76"/>
<path d="M29.4172 23.3476C28.1149 24.6156 28.1149 26.6789 29.4172 27.9469C30.7192 29.2149 32.8379 29.2149 34.1402 27.9469C35.4422 26.6789 35.4422 24.6156 34.1402 23.3473C32.8379 22.0796 30.7192 22.0793 29.4172 23.3476ZM32.5657 26.4138C32.1316 26.8365 31.4254 26.8365 30.9914 26.4138C30.5562 25.99 30.5562 25.3045 30.9914 24.8807C31.4254 24.458 32.1316 24.458 32.5657 24.8807C33.0008 25.3045 33.0008 25.99 32.5657 26.4138Z" fill="#1B7C76"/>
</svg>
