<svg width="66" height="52" viewBox="0 0 66 52" fill="none" xmlns="http://www.w3.org/2000/svg">
<rect width="66" height="52" rx="9" fill="#F2EBB0"/>
<g clip-path="url(#clip0)">
<path fill-rule="evenodd" clip-rule="evenodd" d="M48.264 11.2775C48.264 10.5832 47.804 9.9734 47.1364 9.7827C43.5073 8.74574 38.4352 7.80616 31.5176 9.78269C26.6671 11.1684 22.9173 10.7973 20.8438 10.4309V9.05469C20.8438 8.19591 20.1474 7.5 19.2891 7.5C18.4304 7.5 17.7344 8.196 17.7344 9.05469V42.9453C17.7344 43.804 18.4304 44.5 19.2891 44.5C20.1474 44.5 20.8438 43.8041 20.8438 42.9453V32.6501C21.7861 32.7849 22.9785 32.8982 24.3881 32.8982C26.574 32.8982 29.277 32.6258 32.3716 31.7416C38.7688 29.914 43.3712 30.8103 46.2824 31.6421C46.7513 31.7761 47.2561 31.6822 47.6455 31.3885C48.0354 31.0947 48.264 30.6347 48.264 30.1473V11.2775ZM31.5174 28.752C37.3606 27.0825 41.898 27.4494 45.1549 28.1527V12.4702C42.0219 11.6925 37.8588 11.2046 32.3716 12.7723C27.2971 14.2221 23.2755 13.9621 20.8438 13.5835V29.5038C22.8845 29.8383 26.6388 30.1459 31.5174 28.752Z" fill="#796D00"/>
</g>
<defs>
<clipPath id="clip0">
<rect width="36" height="36" fill="white" transform="translate(15 8)"/>
</clipPath>
</defs>
</svg>
